<svg width="20" height="22" viewBox="0 0 20 22" fill="none" xmlns="http://www.w3.org/2000/svg">
<path d="M8.81667 1.48317C8.66045 1.63811 8.53646 1.82244 8.45185 2.02554C8.36723 2.22864 8.32367 2.44648 8.32367 2.6665C8.32367 2.88652 8.36723 3.10436 8.45185 3.30746C8.53646 3.51056 8.66045 3.69489 8.81667 3.84983L14.3167 9.33317L1.66667 9.33317C1.22464 9.33317 0.800716 9.50876 0.488156 9.82132C0.175595 10.1339 1.24601e-07 10.5578 1.1933e-07 10.9998C1.14059e-07 11.4419 0.175595 11.8658 0.488156 12.1783C0.800716 12.4909 1.22464 12.6665 1.66667 12.6665L14.3167 12.6665L8.81667 18.1498C8.50283 18.4637 8.32652 18.8893 8.32652 19.3332C8.32652 19.777 8.50283 20.2027 8.81667 20.5165C9.13051 20.8303 9.55616 21.0067 10 21.0067C10.4438 21.0067 10.8695 20.8303 11.1833 20.5165L19.5167 12.1832C19.6684 12.0247 19.7873 11.8378 19.8667 11.6332C19.9548 11.4337 20.0004 11.218 20.0004 10.9998C20.0004 10.7817 19.9548 10.566 19.8667 10.3665C19.7873 10.1619 19.6684 9.97501 19.5167 9.8165L11.1833 1.48317C11.0284 1.32695 10.8441 1.20296 10.641 1.11835C10.4379 1.03373 10.22 0.99017 10 0.99017C9.77998 0.99017 9.56214 1.03373 9.35904 1.11835C9.15594 1.20296 8.97161 1.32695 8.81667 1.48317Z" fill="#5B88D9"/>
</svg>
