<svg width="70" height="61" viewBox="0 0 70 61" fill="none" xmlns="http://www.w3.org/2000/svg">
<path d="M68.4833 7.46281C68.0811 7.46281 67.6953 7.62006 67.4109 7.89997C67.1264 8.17988 66.9667 8.55952 66.9667 8.95537V62.6876H58.7312C48.9711 62.6885 39.2427 63.7791 29.7325 65.9384C29.136 66.0728 28.512 66.0257 27.9433 65.8034C27.3746 65.5811 26.8878 65.1941 26.5475 64.6936C31.9625 61.4316 38.1877 59.7044 44.5367 59.7025H62.4167C62.8189 59.7025 63.2047 59.5452 63.4891 59.2653C63.7735 58.9854 63.9333 58.6058 63.9333 58.2099V40.2992C63.9333 39.9033 63.4594 41.3254 63.175 41.0455C62.8906 40.7656 62.8189 36.1306 62.4167 36.1306C62.0144 36.1306 61.6287 40.7656 61.3442 41.0455C61.0598 41.3254 60.9 41.3959 60.9 41.7917V56.7174H44.5367C38.0458 56.7113 31.6644 58.3632 26.0167 61.5115V12.6582C26.0167 12.2623 25.7345 11.9113 25.4501 11.6314C25.1657 11.3515 24.7799 11.1942 24.3776 11.1942C23.9754 11.1942 23.5896 11.3515 23.3052 11.6314C23.0208 11.9113 22.9833 12.2909 22.9833 12.6868V61.51C17.3355 58.362 10.9541 56.7106 4.46331 56.7174H-11.9V2.98512H11.4567C14.5144 2.9871 17.4463 4.18388 19.6077 6.31238C21.7692 8.44087 22.9833 11.3269 22.9833 14.3361C22.9833 14.7319 23.1431 15.1116 23.4276 15.3915C23.712 15.6714 24.0978 15.8286 24.5 15.8286C24.9022 15.8286 25.288 15.6714 25.5724 15.3915C25.8569 15.1116 26.0167 14.7319 26.0167 14.3361C26.0167 11.3269 27.2308 8.44087 29.3923 6.31238C31.5537 4.18388 34.4856 2.9871 37.5433 2.98512H60.9V41.7917C60.9 42.1876 61.0598 42.5672 61.3442 42.8471C61.6287 43.1271 62.0144 43.2843 62.4167 43.2843C62.8189 43.2843 63.2047 43.1271 63.4891 42.8471C63.7735 42.5672 63.9333 42.1876 63.9333 41.7917V1.49256C63.9333 1.09671 63.7735 0.717071 63.4891 0.437162C63.2047 0.157252 62.8189 0 62.4167 0H37.5433C34.8323 0.00198111 32.1756 0.747767 29.8715 2.15359C27.5674 3.55942 25.7073 5.5696 24.5 7.95834C23.2927 5.5696 21.4325 3.55942 19.1285 2.15359C16.8244 0.747767 14.1677 0.00198111 11.4567 0H-13.4167C-13.8189 0 -14.2047 0.157252 -14.4891 0.437162C-14.7735 0.717071 -14.9333 1.09671 -14.9333 1.49256V58.2099C-14.9333 58.6058 -14.7735 58.9854 -14.4891 59.2653C-14.2047 59.5452 -13.8189 59.7025 -13.4167 59.7025H4.46331C10.8133 59.7039 17.0396 61.4311 22.4555 64.6936C22.114 65.1929 21.6272 65.5789 21.0588 65.8011C20.4904 66.0232 19.8671 66.0711 19.2705 65.9384C9.75938 63.7787 0.0298958 62.6881 -9.73117 62.6876H-17.9667V8.95537C-17.9667 8.55952 -18.1265 8.17988 -18.4109 7.89997C-18.6953 7.62006 -19.0811 7.46281 -19.4833 7.46281C-19.8856 7.46281 -20.2713 7.62006 -20.5558 7.89997C-20.8402 8.17988 -21 8.55952 -21 8.95537V64.1802C-21 64.576 -20.8402 64.9557 -20.5558 65.2356C-20.2713 65.5155 -19.8856 65.6727 -19.4833 65.6727H-9.73117C-0.200848 65.6742 9.29856 66.7393 18.585 68.8474C19.6526 69.09 20.7672 69.042 21.8093 68.7086C22.8513 68.3752 23.7814 67.7689 24.5 66.9549C25.2183 67.7692 26.1485 68.3756 27.1906 68.7091C28.2327 69.0425 29.3474 69.0903 30.415 68.8474C39.7015 66.7396 49.2009 65.6746 58.7312 65.6727H68.4833C68.8856 65.6727 69.2713 65.5155 69.5558 65.2356C69.8402 64.9557 70 64.576 70 64.1802V8.95537C70 8.55952 69.8402 8.17988 69.5558 7.89997C69.2713 7.62006 68.8856 7.46281 68.4833 7.46281Z" fill="#B3B8BE" fill-opacity="0.3"/>
<path d="M19.5296 12.8555C17.1397 11.2849 14.3302 10.4471 11.4564 10.448H-5.8336C-6.23584 10.448 -6.62161 10.6053 -6.90604 10.8852C-7.19048 11.1651 -7.35027 11.5447 -7.35027 11.9406C-7.35027 12.3364 -7.19048 12.7161 -6.90604 12.996C-6.62161 13.2759 -6.23584 13.4331 -5.8336 13.4331H11.4564C13.7336 13.4306 15.9603 14.094 17.8537 15.3391C18.1884 15.5588 18.598 15.6387 18.9925 15.5612C19.387 15.4836 19.7341 15.2551 19.9573 14.9257C20.1806 14.5964 20.2617 14.1932 20.1829 13.805C20.1041 13.4168 19.8719 13.0752 19.5372 12.8555H19.5296Z" fill="#B3B8BE" fill-opacity="0.3"/>
<path d="M54.8314 10.448H37.5414C34.6651 10.4458 31.8527 11.2837 29.4606 12.8555C29.2949 12.9643 29.1526 13.1042 29.0418 13.2671C28.931 13.43 28.8539 13.6128 28.8149 13.805C28.7759 13.9972 28.7757 14.1951 28.8144 14.3874C28.8531 14.5797 28.93 14.7626 29.0405 14.9257C29.151 15.0888 29.2931 15.2288 29.4587 15.3379C29.6242 15.4469 29.81 15.5228 30.0053 15.5612C30.2006 15.5996 30.4018 15.5997 30.5972 15.5616C30.7926 15.5235 30.9784 15.4479 31.1441 15.3392C33.0377 14.0944 35.2642 13.431 37.5414 13.4332H54.8314C55.2337 13.4332 55.6194 13.2759 55.9039 12.996C56.1883 12.7161 56.3481 12.3364 56.3481 11.9406C56.3481 11.5447 56.1883 11.1651 55.9039 10.8852C55.6194 10.6053 55.2337 10.448 54.8314 10.448Z" fill="#B3B8BE" fill-opacity="0.3"/>
<path d="M19.5296 20.3183C17.1397 18.7477 14.3302 17.9099 11.4564 17.9108H-5.8336C-6.23584 17.9108 -6.62161 18.0681 -6.90604 18.348C-7.19048 18.6279 -7.35027 19.0075 -7.35027 19.4034C-7.35027 19.7992 -7.19048 20.1789 -6.90604 20.4588C-6.62161 20.7387 -6.23584 20.8959 -5.8336 20.8959H11.4564C13.7336 20.8934 15.9603 21.5568 17.8537 22.8019C18.1884 23.0216 18.598 23.1015 18.9925 23.024C19.387 22.9464 19.7341 22.7178 19.9573 22.3885C20.1806 22.0591 20.2617 21.656 20.1829 21.2678C20.1041 20.8795 19.8719 20.538 19.5372 20.3183H19.5296Z" fill="#B3B8BE" fill-opacity="0.3"/>
<path d="M54.8314 17.9108H37.5414C34.6651 17.9086 31.8527 18.7464 29.4606 20.3183C29.2949 20.4271 29.1526 20.5669 29.0418 20.7298C28.931 20.8928 28.8539 21.0756 28.8149 21.2678C28.7759 21.46 28.7757 21.6579 28.8144 21.8502C28.8531 22.0425 28.93 22.2254 29.0405 22.3885C29.151 22.5516 29.2931 22.6916 29.4587 22.8007C29.6242 22.9097 29.81 22.9856 30.0053 23.024C30.2006 23.0624 30.4018 23.0625 30.5972 23.0244C30.7926 22.9863 30.9784 22.9107 31.1441 22.8019C33.0377 21.5572 35.2642 20.8938 37.5414 20.8959H54.8314C55.2337 20.8959 55.6194 20.7387 55.9039 20.4588C56.1883 20.1789 56.3481 19.7992 56.3481 19.4034C56.3481 19.0075 56.1883 18.6279 55.9039 18.348C55.6194 18.0681 55.2337 17.9108 54.8314 17.9108Z" fill="#B3B8BE" fill-opacity="0.3"/>
<path d="M19.5296 27.7811C17.1397 26.2105 14.3302 25.3726 11.4564 25.3736H-5.8336C-6.23584 25.3736 -6.62161 25.5308 -6.90604 25.8108C-7.19048 26.0907 -7.35027 26.4703 -7.35027 26.8662C-7.35027 27.262 -7.19048 27.6416 -6.90604 27.9216C-6.62161 28.2015 -6.23584 28.3587 -5.8336 28.3587H11.4564C13.7336 28.3562 15.9603 29.0196 17.8537 30.2647C18.1884 30.4844 18.598 30.5643 18.9925 30.4867C19.387 30.4092 19.7341 30.1806 19.9573 29.8513C20.1806 29.5219 20.2617 29.1188 20.1829 28.7306C20.1041 28.3423 19.8719 28.0008 19.5372 27.7811H19.5296Z" fill="#B3B8BE" fill-opacity="0.3"/>
<path d="M54.8314 25.3736H37.5414C34.6651 25.3714 31.8527 26.2092 29.4606 27.7811C29.2949 27.8899 29.1526 28.0297 29.0418 28.1926C28.931 28.3555 28.8539 28.5383 28.8149 28.7306C28.7759 28.9228 28.7757 29.1207 28.8144 29.313C28.8531 29.5053 28.93 29.6882 29.0405 29.8513C29.151 30.0144 29.2931 30.1544 29.4587 30.2635C29.6242 30.3725 29.81 30.4484 30.0053 30.4868C30.2006 30.5251 30.4018 30.5253 30.5972 30.4872C30.7926 30.4491 30.9784 30.3735 31.1441 30.2647C33.0377 29.02 35.2642 28.3566 37.5414 28.3587H54.8314C55.2337 28.3587 55.6194 28.2015 55.9039 27.9216C56.1883 27.6417 56.3481 27.262 56.3481 26.8662C56.3481 26.4703 56.1883 26.0907 55.9039 25.8108C55.6194 25.5309 55.2337 25.3736 54.8314 25.3736Z" fill="#B3B8BE" fill-opacity="0.3"/>
<path d="M19.5296 35.244C17.1397 33.6733 14.3302 32.8355 11.4564 32.8365H-5.8336C-6.23584 32.8365 -6.62161 32.9937 -6.90604 33.2736C-7.19048 33.5535 -7.35027 33.9332 -7.35027 34.329C-7.35027 34.7249 -7.19048 35.1045 -6.90604 35.3844C-6.62161 35.6643 -6.23584 35.8216 -5.8336 35.8216H11.4564C13.7336 35.819 15.9603 36.4824 17.8537 37.7276C18.0194 37.8364 18.2053 37.912 18.4007 37.9501C18.5961 37.9882 18.7972 37.988 18.9925 37.9496C19.1879 37.9112 19.3736 37.8353 19.5391 37.7263C19.7047 37.6173 19.8468 37.4772 19.9573 37.3141C20.0679 37.1511 20.1447 36.9682 20.1834 36.7759C20.2221 36.5836 20.2219 36.3857 20.1829 36.1934C20.1439 36.0012 20.0668 35.8184 19.956 35.6555C19.8452 35.4926 19.7029 35.3527 19.5372 35.244H19.5296Z" fill="#B3B8BE" fill-opacity="0.3"/>
<path d="M54.8314 32.8365H37.5414C34.6651 32.8342 31.8527 33.6721 29.4606 35.244C29.126 35.4637 28.8937 35.8052 28.8149 36.1934C28.7361 36.5817 28.8173 36.9848 29.0405 37.3141C29.2638 37.6435 29.6108 37.8721 30.0053 37.9496C30.3998 38.0271 30.8095 37.9473 31.1441 37.7276C33.0377 36.4828 35.2642 35.8195 37.5414 35.8216H54.8314C55.2337 35.8216 55.6194 35.6643 55.9039 35.3844C56.1883 35.1045 56.3481 34.7249 56.3481 34.329C56.3481 33.9332 56.1883 33.5535 55.9039 33.2736C55.6194 32.9937 55.2337 32.8365 54.8314 32.8365Z" fill="#B3B8BE" fill-opacity="0.3"/>
<path d="M19.5296 42.7068C17.1397 41.1361 14.3302 40.2983 11.4564 40.2992H-5.8336C-6.23584 40.2992 -6.62161 40.4565 -6.90604 40.7364C-7.19048 41.0163 -7.35027 41.396 -7.35027 41.7918C-7.35027 42.1877 -7.19048 42.5673 -6.90604 42.8472C-6.62161 43.1271 -6.23584 43.2844 -5.8336 43.2844H11.4564C13.7336 43.2818 15.9603 43.9452 17.8537 45.1904C18.1884 45.4101 18.598 45.4899 18.9925 45.4124C19.387 45.3349 19.7341 45.1063 19.9573 44.7769C20.1806 44.4476 20.2617 44.0445 20.1829 43.6562C20.1041 43.268 19.8719 42.9265 19.5372 42.7068H19.5296Z" fill="#B3B8BE" fill-opacity="0.3"/>
<path d="M54.8314 40.2993H37.5414C34.6651 40.297 31.8527 41.1349 29.4606 42.7067C29.2949 42.8155 29.1526 42.9554 29.0418 43.1183C28.931 43.2812 28.8539 43.464 28.8149 43.6562C28.7759 43.8484 28.7757 44.0464 28.8144 44.2387C28.8531 44.4309 28.93 44.6138 29.0405 44.7769C29.2638 45.1063 29.6108 45.3349 30.0053 45.4124C30.2006 45.4508 30.4018 45.4509 30.5972 45.4128C30.7926 45.3747 30.9784 45.2991 31.1441 45.1904C33.0377 43.9456 35.2642 43.2822 37.5414 43.2844H54.8314C55.2337 43.2844 55.6194 43.1271 55.9039 42.8472C56.1883 42.5673 56.3481 42.1877 56.3481 41.7918C56.3481 41.396 56.1883 41.0163 55.9039 40.7364C55.6194 40.4565 55.2337 40.2993 54.8314 40.2993Z" fill="#B3B8BE" fill-opacity="0.3"/>
<path d="M11.4564 47.762H-5.8336C-6.23584 47.762 -6.62161 47.9193 -6.90604 48.1992C-7.19048 48.4791 -7.35027 48.8587 -7.35027 49.2546C-7.35027 49.6504 -7.19048 50.0301 -6.90604 50.31C-6.62161 50.5899 -6.23584 50.7472 -5.8336 50.7472H11.4564C13.7336 50.7446 15.9603 51.408 17.8537 52.6531C18.0194 52.7619 18.2053 52.8375 18.4007 52.8756C18.5961 52.9137 18.7972 52.9136 18.9925 52.8752C19.1879 52.8368 19.3736 52.7609 19.5391 52.6519C19.7047 52.5428 19.8468 52.4028 19.9573 52.2397C20.0679 52.0766 20.1447 51.8937 20.1834 51.7014C20.2221 51.5091 20.2219 51.3112 20.1829 51.119C20.1439 50.9268 20.0668 50.744 19.956 50.5811C19.8452 50.4182 19.7029 50.2783 19.5372 50.1695C17.1452 48.5975 14.3328 47.7596 11.4564 47.762Z" fill="#B3B8BE" fill-opacity="0.3"/>
<path d="M54.8314 47.762H37.5414C34.6651 47.7598 31.8527 48.5977 29.4606 50.1695C29.2949 50.2783 29.1526 50.4182 29.0418 50.5811C28.931 50.744 28.8539 50.9268 28.8149 51.119C28.7759 51.3112 28.7757 51.5091 28.8144 51.7014C28.8531 51.8937 28.93 52.0766 29.0405 52.2397C29.151 52.4028 29.2931 52.5428 29.4587 52.6519C29.6242 52.7609 29.81 52.8368 30.0053 52.8752C30.2006 52.9136 30.4018 52.9137 30.5972 52.8756C30.7926 52.8375 30.9784 52.7619 31.1441 52.6531C33.0377 51.4084 35.2642 50.745 37.5414 50.7472H54.8314C55.2337 50.7472 55.6194 50.5899 55.9039 50.31C56.1883 50.0301 56.3481 49.6504 56.3481 49.2546C56.3481 48.8587 56.1883 48.4791 55.9039 48.1992C55.6194 47.9193 55.2337 47.762 54.8314 47.762Z" fill="#B3B8BE" fill-opacity="0.3"/>
</svg>
