<svg width="21" height="20" viewBox="0 0 21 20" fill="none" xmlns="http://www.w3.org/2000/svg">
<path d="M15.708 13.5V15C15.708 15.6 15.2913 16 14.6663 16C14.0413 16 13.6247 15.6 13.6247 15V13.5H7.37467V15C7.37467 15.6 6.95801 16 6.33301 16C5.70801 16 5.29134 15.6 5.29134 15V13.5H3.20801C2.47884 13.5 1.74967 13.3 1.12467 13V17C1.12467 18.7 2.47884 20 4.24967 20H16.7497C18.5205 20 19.8747 18.7 19.8747 17V13C19.2497 13.3 18.5205 13.5 17.7913 13.5H15.708ZM19.8747 4H15.708V3C15.708 1.3 14.3538 0 12.583 0H8.41634C6.64551 0 5.29134 1.3 5.29134 3V4H1.12467C0.499674 4 0.0830078 4.4 0.0830078 5V9C0.0830078 10.7 1.43717 12 3.20801 12H17.7913C19.5622 12 20.9163 10.7 20.9163 9V5C20.9163 4.4 20.4997 4 19.8747 4ZM13.6247 4H7.37467V3C7.37467 2.4 7.79134 2 8.41634 2H12.583C13.208 2 13.6247 2.4 13.6247 3V4Z" fill="#DD8F53"/>
</svg>
