<svg width="11" height="11" viewBox="0 0 11 11" fill="none" xmlns="http://www.w3.org/2000/svg">
<path d="M9.38908 1.6109C8.35027 0.572107 6.9691 0 5.5 0C4.03088 0 2.64971 0.572107 1.6109 1.6109C0.572107 2.64971 0 4.0309 0 5.5C0 6.9691 0.572107 8.35027 1.6109 9.38908C2.64971 10.4279 4.0309 11 5.5 11C6.9691 11 8.35027 10.4279 9.38908 9.3891C10.4279 8.35027 11 6.9691 11 5.5C11 4.0309 10.4279 2.64973 9.38908 1.6109ZM8.12767 4.19102L5.05401 7.26471C4.99108 7.32763 4.9086 7.35909 4.82614 7.35909C4.74366 7.35909 4.66119 7.32763 4.59826 7.26471L2.87233 5.5388C2.74648 5.41297 2.74648 5.20893 2.87233 5.08305C2.99817 4.9572 3.20222 4.9572 3.32808 5.08305L4.82614 6.58109L7.67192 3.73527C7.79775 3.60942 8.00181 3.60942 8.12767 3.73527C8.25352 3.86113 8.25352 4.06517 8.12767 4.19102Z" fill="#4FAFA3"/>
</svg>
