<svg width="18" height="20" viewBox="0 0 18 20" fill="none" xmlns="http://www.w3.org/2000/svg">
<path d="M15.4547 10.42L9.27467 16.61C8.46449 17.33 7.40982 17.7132 6.32639 17.6814C5.24297 17.6495 4.21267 17.2048 3.44624 16.4384C2.67982 15.672 2.23518 14.6417 2.20329 13.5582C2.1714 12.4748 2.55466 11.4202 3.27467 10.61L11.2747 2.60997C11.7523 2.15627 12.3859 1.9033 13.0447 1.9033C13.7034 1.9033 14.337 2.15627 14.8147 2.60997C15.28 3.08156 15.5409 3.71744 15.5409 4.37997C15.5409 5.0425 15.28 5.67838 14.8147 6.14997L7.91467 13.04C7.84638 13.1135 7.76428 13.1729 7.67305 13.2147C7.58182 13.2565 7.48324 13.2799 7.38296 13.2836C7.28267 13.2874 7.18263 13.2713 7.08856 13.2363C6.99448 13.2014 6.90821 13.1483 6.83467 13.08C6.76113 13.0117 6.70176 12.9296 6.65995 12.8383C6.61814 12.7471 6.59471 12.6485 6.591 12.5483C6.58728 12.448 6.60336 12.3479 6.6383 12.2539C6.67325 12.1598 6.72638 12.0735 6.79467 12L11.9247 6.87997C12.113 6.69166 12.2188 6.43627 12.2188 6.16997C12.2188 5.90367 12.113 5.64827 11.9247 5.45997C11.7364 5.27166 11.481 5.16588 11.2147 5.16588C10.9484 5.16588 10.693 5.27166 10.5047 5.45997L5.37467 10.6C5.11798 10.8547 4.91424 11.1577 4.7752 11.4915C4.63617 11.8253 4.56459 12.1834 4.56459 12.545C4.56459 12.9066 4.63617 13.2646 4.7752 13.5984C4.91424 13.9323 5.11798 14.2353 5.37467 14.49C5.89904 14.9895 6.59548 15.2681 7.31967 15.2681C8.04386 15.2681 8.7403 14.9895 9.26467 14.49L16.1547 7.58997C16.9496 6.73692 17.3823 5.60864 17.3617 4.44283C17.3412 3.27703 16.8689 2.16472 16.0444 1.34024C15.2199 0.515759 14.1076 0.0434872 12.9418 0.0229179C11.776 0.00234858 10.6477 0.435088 9.79467 1.22997L1.79467 9.22997C0.715871 10.4248 0.1397 11.9898 0.186205 13.5989C0.23271 15.2081 0.898305 16.7372 2.04431 17.8677C3.19032 18.9983 4.72835 19.643 6.33796 19.6677C7.94756 19.6923 9.50461 19.0949 10.6847 18L16.8747 11.82C16.9679 11.7267 17.0419 11.616 17.0923 11.4942C17.1428 11.3724 17.1688 11.2418 17.1688 11.11C17.1688 10.9781 17.1428 10.8475 17.0923 10.7257C17.0419 10.6039 16.9679 10.4932 16.8747 10.4C16.7814 10.3067 16.6707 10.2328 16.5489 10.1823C16.4271 10.1318 16.2965 10.1059 16.1647 10.1059C16.0328 10.1059 15.9022 10.1318 15.7804 10.1823C15.6586 10.2328 15.5479 10.3067 15.4547 10.4V10.42Z" fill="#898D9C"/>
</svg>
