<svg width="31" height="31" viewBox="0 0 31 31" fill="none" xmlns="http://www.w3.org/2000/svg">
<path d="M5.29182 0.917483L23.8564 0.917481C24.8799 0.917822 25.8708 1.27697 26.6569 1.93245C27.4429 2.58792 27.9743 3.49822 28.1585 4.50498L30.0106 14.7133C30.126 15.344 30.1014 15.9922 29.9385 16.6123C29.7756 17.2324 29.4784 17.8091 29.068 18.3016C28.6576 18.7941 28.1439 19.1904 27.5634 19.4625C26.9828 19.7345 26.3496 19.8756 25.7085 19.8758L19.0585 19.8758L19.8752 21.9612C20.2149 22.8743 20.328 23.8562 20.2048 24.8226C20.0817 25.789 19.726 26.7111 19.1681 27.5099C18.6103 28.3086 17.8671 28.9601 17.0022 29.4084C16.1372 29.8568 15.1765 30.0887 14.2022 30.0841C13.9217 30.0836 13.6473 30.0021 13.4119 29.8495C13.1765 29.6969 12.9902 29.4796 12.8752 29.2237L8.71891 19.8758L5.29182 19.8758C4.1315 19.8758 3.0187 19.4149 2.19823 18.5944C1.37776 17.7739 0.916822 16.6611 0.916822 15.5008L0.916821 5.29248C0.916821 4.13216 1.37776 3.01936 2.19823 2.19889C3.0187 1.37842 4.1315 0.917483 5.29182 0.917483ZM11.1252 18.1112L15.0918 27.0362C15.4977 26.9134 15.8741 26.7088 16.1979 26.435C16.5217 26.1612 16.786 25.824 16.9746 25.4442C17.1631 25.0644 17.2719 24.65 17.2942 24.2266C17.3165 23.8031 17.2519 23.3796 17.1043 22.9821L16.3314 20.8966C16.1667 20.4559 16.1111 19.9818 16.1693 19.5148C16.2276 19.0479 16.3979 18.602 16.6659 18.2152C16.9338 17.8283 17.2913 17.512 17.7079 17.2933C18.1246 17.0746 18.5879 16.96 19.0585 16.9591L25.7085 16.9591C25.9227 16.9595 26.1344 16.9126 26.3285 16.8219C26.5226 16.7312 26.6943 16.5988 26.8314 16.4341C26.9719 16.2718 27.0748 16.0804 27.1328 15.8737C27.1908 15.667 27.2024 15.45 27.1668 15.2383L25.3147 5.02998C25.2526 4.69025 25.0719 4.38359 24.8049 4.1646C24.5378 3.94562 24.2017 3.82851 23.8564 3.83415L11.1252 3.83415L11.1252 18.1112ZM3.83349 15.5008C3.83349 15.8876 3.98713 16.2585 4.26062 16.532C4.53411 16.8055 4.90505 16.9591 5.29182 16.9591L8.20849 16.9591L8.20849 3.83415L5.29182 3.83415C4.90505 3.83415 4.53411 3.98779 4.26062 4.26128C3.98713 4.53478 3.83349 4.90571 3.83349 5.29248L3.83349 15.5008Z" fill="#898D9C"/>
</svg>
