<svg width="20" height="14" viewBox="0 0 20 14" fill="none" xmlns="http://www.w3.org/2000/svg">
<path d="M10 4.00049C8.34498 4.00049 7 5.34547 7 7.00049C7 8.6555 8.34498 10.0005 10 10.0005C11.655 10.0005 13 8.6555 13 7.00049C13 5.34547 11.655 4.00049 10 4.00049Z" fill="#B3B8BE"/>
<path d="M10 0.182129C5.45455 0.182129 1.57274 3.00938 0 7.00031C1.57274 10.9912 5.45455 13.8185 10 13.8185C14.55 13.8185 18.4273 10.9912 20 7.00031C18.4273 3.00938 14.55 0.182129 10 0.182129ZM10 11.5457C7.49093 11.5457 5.45455 9.50936 5.45455 7.00027C5.45455 4.49118 7.49093 2.45484 10 2.45484C12.5091 2.45484 14.5455 4.49122 14.5455 7.00031C14.5455 9.50941 12.5091 11.5457 10 11.5457Z" fill="#B3B8BE"/>
</svg>
