<?xml version="1.0" encoding="utf-8"?>
<!-- Generator: Adobe Illustrator 21.1.0, SVG Export Plug-In . SVG Version: 6.00 Build 0)  -->
<svg version="1.1" id="Слой_1" xmlns="http://www.w3.org/2000/svg" xmlns:xlink="http://www.w3.org/1999/xlink" x="0px" y="0px"
	 viewBox="0 0 30 30" style="enable-background:new 0 0 30 30;" xml:space="preserve">
<style type="text/css">
	.st0{fill:#FFFFFF;}
</style>
<path class="st0" d="M15,0C6.7,0,0,6.7,0,15c0,8.3,6.7,15,15,15c8.3,0,15-6.7,15-15C30,6.7,23.3,0,15,0z M19.3,9.9
	c-0.1,0.2-0.1,0.2-1.2,0.3c-1.1,0-1.2,0-1.4,0.2c-0.2,0.2-0.2,0.3-0.2,1.4l0,1h1.3H19l0.1,0.1l0.1,0.1v1.4c0,1.1,0,1.5,0,1.5
	c-0.1,0.2-0.1,0.2-1.5,0.2l-1.3,0v3.4v3.4l-0.1,0.1L16.3,23h-1.5h-1.5l-0.1-0.1l-0.1-0.1l0-3.4l0-3.4l-1.1,0c-1.2,0-1.2,0-1.3-0.2
	c0-0.1,0-2.8,0-2.9c0,0,0.1-0.1,0.1-0.1c0.1-0.1,0.1-0.1,1.2-0.1h1.1v-0.9c0-1.1,0-1.6,0.2-2.1c0.1-0.6,0.4-1,0.7-1.5
	c0.5-0.6,1.3-1.1,2.2-1.2c0.2,0,0.6,0,1.6,0l1.4,0l0.1,0.1l0.1,0.1l0,1.3C19.3,9.3,19.3,9.8,19.3,9.9z"/>
</svg>
