<svg width="62" height="62" viewBox="0 0 62 62" fill="none" xmlns="http://www.w3.org/2000/svg">
<path d="M10.0001 49.5128C5.46742 44.4144 2.97506 37.8232 3.00019 31.0017C3.00369 15.5359 15.5452 3.00133 31.0124 3.00483C36.1155 3.00595 41.1212 4.40131 45.4889 7.04005L46.5259 5.33022C32.344 -3.24092 13.8984 1.30649 5.32642 15.4871C2.49707 20.1677 1.00108 25.5326 1.0002 31.0018C0.973076 38.3872 3.70031 45.5173 8.64915 50.9998H5.00017V52.9996H11.0001C11.5524 52.9996 12.0001 52.5519 12.0001 51.9997V46.0003H10.0001V49.5128Z" fill="#B3B8BE"/>
<path d="M53.3509 11.0032H56.9998V9.0034H50.9999C50.4476 9.0034 49.9999 9.45111 49.9999 10.0033V16.0027H51.9999V12.4901C56.5326 17.5884 59.0249 24.1796 58.9998 31.0012C58.9946 46.4675 46.4513 59.0012 30.9835 58.9959C25.8775 58.9942 20.8692 57.5968 16.5001 54.9548L15.4631 56.6646C29.6433 65.2408 48.0915 60.6989 56.6685 46.52C59.5002 41.8388 60.9981 36.4723 60.9998 31.0012C61.0269 23.6159 58.2997 16.4857 53.3509 11.0032Z" fill="#B3B8BE"/>
<path d="M31 53.9989C31.15 53.9989 31.3 53.9989 31.363 53.9889C31.381 53.9889 31.398 53.9889 31.415 53.9889H31.438C44.1351 53.7543 54.2377 43.2721 54.0031 30.5762C53.891 24.5078 51.3836 18.73 47.0279 14.5028C42.8562 10.4204 37.2747 8.09736 31.438 8.01449C31.1718 7.99349 30.9043 7.99349 30.638 8.01449C17.9371 8.21647 7.80478 18.6754 8.00678 31.375C8.10353 37.4597 10.6083 43.2578 14.9721 47.4995C19.1435 51.5828 24.7252 53.9063 30.562 53.9889C30.7 53.9989 30.85 53.9989 31 53.9989ZM33.722 51.7991C36.0587 49.6913 38.025 47.2065 39.539 44.4479C41.3369 45.077 43.0601 45.9026 44.6769 46.9096C41.5857 49.5813 37.7751 51.282 33.722 51.7991ZM46.1659 45.4888C44.3751 44.3269 42.4564 43.3747 40.448 42.651C41.9953 39.3064 42.8534 35.6845 42.9709 32.0011H51.9509C51.7268 37.0508 49.6701 41.8457 46.1659 45.4888ZM51.9509 30.0013H42.9709C42.8538 26.3183 41.9958 22.6965 40.448 19.3524C42.4566 18.6276 44.3754 17.6748 46.1669 16.5126C49.6701 20.1568 51.7261 24.9517 51.9509 30.0013ZM44.6769 15.0938C43.0604 16.1006 41.3377 16.9259 39.54 17.5545C38.0227 14.7922 36.0524 12.3042 33.711 10.1943C37.7692 10.7115 41.5842 12.4161 44.6769 15.0938ZM32 11.3472C34.2322 13.2823 36.1209 15.5812 37.586 18.1465C35.7586 18.6174 33.8857 18.8899 32 18.9594V11.3472ZM32 20.9652C34.207 20.8885 36.3972 20.5529 38.526 19.9653C40.0181 23.1085 40.8501 26.5241 40.971 30.0013H32V20.9652ZM32 32.0011H40.971C40.8502 35.4791 40.0177 38.8954 38.525 42.0391C36.3965 41.4523 34.2066 41.1167 32 41.0392V32.0011ZM32 43.043C33.8859 43.1126 35.7587 43.3856 37.586 43.8569C36.1209 46.421 34.2322 48.7186 32 50.6522V43.043ZM28.278 10.2033C25.9413 12.3111 23.9751 14.7959 22.4611 17.5545C20.6631 16.9255 18.94 16.0999 17.3231 15.0928C20.4142 12.4211 24.2249 10.7202 28.278 10.2033ZM15.8331 16.5126C17.6245 17.6747 19.5433 18.6272 21.5521 19.3514C20.0047 22.696 19.1466 26.3179 19.0291 30.0013H10.0491C10.2738 24.9517 12.3299 20.1568 15.8331 16.5126ZM10.0491 32.0011H19.0291C19.1462 35.6841 20.0042 39.3059 21.5521 42.65C19.5435 43.3748 17.6246 44.3276 15.8331 45.4898C12.3299 41.8457 10.2738 37.0507 10.0491 32.0011ZM17.3231 46.9086C18.9397 45.902 20.6625 45.0768 22.4601 44.4479C23.9769 47.2105 25.9474 49.6986 28.289 51.8081C24.2308 51.291 20.4157 49.5865 17.3231 46.9086ZM30 50.6552C27.7678 48.7201 25.8792 46.4212 24.4141 43.8559C26.2414 43.385 28.1143 43.1125 30 43.043V50.6552ZM30 41.0432C27.7935 41.1208 25.6035 41.4564 23.4751 42.0431C21.9814 38.8983 21.1489 35.4805 21.0291 32.0011H30V41.0432ZM30 30.0013H21.0291C21.1499 26.5234 21.9821 23.1072 23.4741 19.9633C25.6028 20.5505 27.793 20.8861 30 20.9632V30.0013ZM30 18.9594C28.1142 18.8898 26.2413 18.6168 24.4141 18.1455C25.8795 15.5816 27.7682 13.2841 30 11.3502V18.9594Z" fill="#B3B8BE"/>
<path d="M10.0001 49.5128C5.46742 44.4144 2.97506 37.8232 3.00019 31.0017C3.00369 15.5359 15.5452 3.00133 31.0124 3.00483C36.1155 3.00595 41.1212 4.40131 45.4889 7.04005L46.5259 5.33022C32.344 -3.24092 13.8984 1.30649 5.32642 15.4871C2.49707 20.1677 1.00108 25.5326 1.0002 31.0018C0.973076 38.3872 3.70031 45.5173 8.64915 50.9998H5.00017V52.9996H11.0001C11.5524 52.9996 12.0001 52.5519 12.0001 51.9997V46.0003H10.0001V49.5128Z" stroke="#B3B8BE" stroke-width="0.75"/>
<path d="M53.3509 11.0032H56.9998V9.0034H50.9999C50.4476 9.0034 49.9999 9.45111 49.9999 10.0033V16.0027H51.9999V12.4901C56.5326 17.5884 59.0249 24.1796 58.9998 31.0012C58.9946 46.4675 46.4513 59.0012 30.9835 58.9959C25.8775 58.9942 20.8692 57.5968 16.5001 54.9548L15.4631 56.6646C29.6433 65.2408 48.0915 60.6989 56.6685 46.52C59.5002 41.8388 60.9981 36.4723 60.9998 31.0012C61.0269 23.6159 58.2997 16.4857 53.3509 11.0032Z" stroke="#B3B8BE" stroke-width="0.75"/>
<path d="M31 53.9989C31.15 53.9989 31.3 53.9989 31.363 53.9889C31.381 53.9889 31.398 53.9889 31.415 53.9889H31.438C44.1351 53.7543 54.2377 43.2721 54.0031 30.5762C53.891 24.5078 51.3836 18.73 47.0279 14.5028C42.8562 10.4204 37.2747 8.09736 31.438 8.01449C31.1718 7.99349 30.9043 7.99349 30.638 8.01449C17.9371 8.21647 7.80478 18.6754 8.00678 31.375C8.10353 37.4597 10.6083 43.2578 14.9721 47.4995C19.1435 51.5828 24.7252 53.9063 30.562 53.9889C30.7 53.9989 30.85 53.9989 31 53.9989ZM33.722 51.7991C36.0587 49.6913 38.025 47.2065 39.539 44.4479C41.3369 45.077 43.0601 45.9026 44.6769 46.9096C41.5857 49.5813 37.7751 51.282 33.722 51.7991ZM46.1659 45.4888C44.3751 44.3269 42.4564 43.3747 40.448 42.651C41.9953 39.3064 42.8534 35.6845 42.9709 32.0011H51.9509C51.7268 37.0508 49.6701 41.8457 46.1659 45.4888ZM51.9509 30.0013H42.9709C42.8538 26.3183 41.9958 22.6965 40.448 19.3524C42.4566 18.6276 44.3754 17.6748 46.1669 16.5126C49.6701 20.1568 51.7261 24.9517 51.9509 30.0013ZM44.6769 15.0938C43.0604 16.1006 41.3377 16.9259 39.54 17.5545C38.0227 14.7922 36.0524 12.3042 33.711 10.1943C37.7692 10.7115 41.5842 12.4161 44.6769 15.0938ZM32 11.3472C34.2322 13.2823 36.1209 15.5812 37.586 18.1465C35.7586 18.6174 33.8857 18.8899 32 18.9594V11.3472ZM32 20.9652C34.207 20.8885 36.3972 20.5529 38.526 19.9653C40.0181 23.1085 40.8501 26.5241 40.971 30.0013H32V20.9652ZM32 32.0011H40.971C40.8502 35.4791 40.0177 38.8954 38.525 42.0391C36.3965 41.4523 34.2066 41.1167 32 41.0392V32.0011ZM32 43.043C33.8859 43.1126 35.7587 43.3856 37.586 43.8569C36.1209 46.421 34.2322 48.7186 32 50.6522V43.043ZM28.278 10.2033C25.9413 12.3111 23.9751 14.7959 22.4611 17.5545C20.6631 16.9255 18.94 16.0999 17.3231 15.0928C20.4142 12.4211 24.2249 10.7202 28.278 10.2033ZM15.8331 16.5126C17.6245 17.6747 19.5433 18.6272 21.5521 19.3514C20.0047 22.696 19.1466 26.3179 19.0291 30.0013H10.0491C10.2738 24.9517 12.3299 20.1568 15.8331 16.5126ZM10.0491 32.0011H19.0291C19.1462 35.6841 20.0042 39.3059 21.5521 42.65C19.5435 43.3748 17.6246 44.3276 15.8331 45.4898C12.3299 41.8457 10.2738 37.0507 10.0491 32.0011ZM17.3231 46.9086C18.9397 45.902 20.6625 45.0768 22.4601 44.4479C23.9769 47.2105 25.9474 49.6986 28.289 51.8081C24.2308 51.291 20.4157 49.5865 17.3231 46.9086ZM30 50.6552C27.7678 48.7201 25.8792 46.4212 24.4141 43.8559C26.2414 43.385 28.1143 43.1125 30 43.043V50.6552ZM30 41.0432C27.7935 41.1208 25.6035 41.4564 23.4751 42.0431C21.9814 38.8983 21.1489 35.4805 21.0291 32.0011H30V41.0432ZM30 30.0013H21.0291C21.1499 26.5234 21.9821 23.1072 23.4741 19.9633C25.6028 20.5505 27.793 20.8861 30 20.9632V30.0013ZM30 18.9594C28.1142 18.8898 26.2413 18.6168 24.4141 18.1455C25.8795 15.5816 27.7682 13.2841 30 11.3502V18.9594Z" stroke="#B3B8BE" stroke-width="0.75"/>
</svg>
