<?xml version="1.0" encoding="utf-8"?>
<!-- Generator: Adobe Illustrator 23.1.0, SVG Export Plug-In . SVG Version: 6.00 Build 0)  -->
<svg version="1.1" id="Слой_1" xmlns="http://www.w3.org/2000/svg" xmlns:xlink="http://www.w3.org/1999/xlink" x="0px" y="0px"
	 viewBox="0 0 21.5 21.5" style="enable-background:new 0 0 21.5 21.5;" xml:space="preserve">
<style type="text/css">
	.st0{fill:#5B88D9;}
</style>
<g>
	<path class="st0" d="M7,8.8c0.4-0.7,1-1.3,1.7-1.7c0.7-0.4,1.5-0.6,2.3-0.6c0.9,0,1.8,0.3,2.5,0.8l1-1c-1-0.7-2.2-1.1-3.5-1.1
		c-1,0-2,0.3-2.9,0.7C7.1,6.4,6.4,7.1,5.8,7.9l0.4,0.3L7,8.8z"/>
	<path class="st0" d="M11,15.7c-0.8,0-1.6-0.2-2.3-0.6c-0.7-0.4-1.3-1-1.7-1.7L6.1,14l-0.3,0.2c0.5,0.9,1.3,1.6,2.2,2.1
		C8.9,16.8,10,17,11,17c1.2,0,2.4-0.3,3.4-0.9l-1.1-0.9C12.5,15.6,11.8,15.7,11,15.7z"/>
	<path class="st0" d="M6.5,10.1L5.3,9.2c-0.4,1.2-0.4,2.6,0,3.8l1.2-0.9C6.3,11.4,6.3,10.7,6.5,10.1z"/>
	<path class="st0" d="M19.5,0H2C0.9,0,0,0.9,0,2v17.5c0,1.1,0.9,2,2,2h17.5c1.1,0,2-0.9,2-2V2C21.5,0.9,20.6,0,19.5,0z M17.6,14.1
		c-0.4,0.9-1,1.7-1.7,2.4v0h0l0,0l0,0c-1.3,1.2-3.1,1.8-4.9,1.8c-1.4,0-2.7-0.4-3.9-1.1c-1.2-0.7-2.1-1.7-2.7-2.9l0,0
		c-0.5-1-0.8-2.1-0.8-3.3c0-1.1,0.3-2.3,0.8-3.3l0,0C5,6.6,5.9,5.6,7.1,4.9C8.3,4.2,9.6,3.8,11,3.8c1.8,0,3.6,0.7,5,1.9
		c0.1,0.1,0.1,0.1,0.2,0.2c0,0.1,0.1,0.2,0.1,0.3c0,0.1,0,0.2,0,0.3c0,0.1-0.1,0.2-0.1,0.2L14,8.6c-0.1,0.1-0.3,0.2-0.5,0.2
		c-0.2,0-0.3-0.1-0.5-0.2c-0.3-0.3-0.6-0.5-1-0.6c-0.4-0.1-0.7-0.2-1.1-0.2c-0.7,0-1.4,0.2-1.9,0.6c-0.6,0.4-1,1-1.2,1.6l0,0
		c-0.2,0.7-0.2,1.4,0,2.1l0,0c0.2,0.7,0.6,1.2,1.2,1.6c0.6,0.4,1.2,0.6,1.9,0.6c0.7,0,1.3-0.2,1.9-0.5c0.3-0.2,0.6-0.5,0.8-0.8H11
		c-0.1,0-0.2,0-0.3-0.1s-0.2-0.1-0.2-0.1c-0.1-0.1-0.1-0.1-0.1-0.2c0-0.1-0.1-0.2-0.1-0.3V9.9c0-0.1,0-0.2,0.1-0.3
		c0-0.1,0.1-0.2,0.1-0.2c0.1-0.1,0.1-0.1,0.2-0.1s0.2-0.1,0.3-0.1h6.3c0.2,0,0.3,0.1,0.4,0.2C17.9,9.5,18,9.6,18,9.8
		c0.1,0.5,0.1,1,0.1,1.5C18.1,12.2,18,13.2,17.6,14.1z"/>
	<path class="st0" d="M11.7,10.5v1.2h2.9c0.1,0,0.2,0,0.3,0.1c0.1,0,0.2,0.1,0.2,0.2c0.1,0.1,0.1,0.2,0.1,0.3s0,0.2,0,0.3
		c-0.1,0.7-0.5,1.3-0.9,1.8l0.9,0.7l0.1,0.1c0.9-1.1,1.4-2.5,1.4-4c0-0.2,0-0.5,0-0.7H11.7z"/>
</g>
</svg>
