<svg width="12" height="13" viewBox="0 0 12 13" fill="none" xmlns="http://www.w3.org/2000/svg">
<path d="M10.8871 0.516927H1.04903C0.938438 0.515391 0.828629 0.535655 0.725873 0.576561C0.623116 0.617468 0.529424 0.678215 0.450148 0.755335C0.370871 0.832454 0.307562 0.924435 0.263837 1.02602C0.220112 1.12761 0.196827 1.23682 0.195312 1.34741V11.3016C0.196827 11.4122 0.220112 11.5214 0.263837 11.623C0.307562 11.7246 0.370871 11.8166 0.450148 11.8937C0.529424 11.9708 0.623116 12.0315 0.725873 12.0724C0.828629 12.1134 0.938438 12.1336 1.04903 12.1321H10.8871C10.9977 12.1336 11.1075 12.1134 11.2102 12.0724C11.313 12.0315 11.4067 11.9708 11.4859 11.8937C11.5652 11.8166 11.6285 11.7246 11.6723 11.623C11.716 11.5214 11.7393 11.4122 11.7408 11.3016V1.34741C11.7393 1.23682 11.716 1.12761 11.6723 1.02602C11.6285 0.924435 11.5652 0.832454 11.4859 0.755335C11.4067 0.678215 11.313 0.617468 11.2102 0.576561C11.1075 0.535655 10.9977 0.515391 10.8871 0.516927ZM3.69728 10.2388H1.95501V5.01199H3.69728V10.2388ZM2.82614 4.28024C2.58586 4.28024 2.35542 4.18478 2.18552 4.01488C2.01561 3.84498 1.92016 3.61454 1.92016 3.37425C1.92016 3.13397 2.01561 2.90353 2.18552 2.73363C2.35542 2.56372 2.58586 2.46827 2.82614 2.46827C2.95373 2.4538 3.08294 2.46645 3.20531 2.50537C3.32767 2.5443 3.44043 2.60864 3.53621 2.69416C3.63199 2.77969 3.70862 2.88449 3.76109 3.00169C3.81356 3.11889 3.84068 3.24585 3.84068 3.37425C3.84068 3.50266 3.81356 3.62962 3.76109 3.74682C3.70862 3.86402 3.63199 3.96881 3.53621 4.05434C3.44043 4.13987 3.32767 4.20421 3.20531 4.24314C3.08294 4.28206 2.95373 4.29471 2.82614 4.28024ZM9.98108 10.2388H8.23881V7.43375C8.23881 6.73103 7.98908 6.27223 7.35605 6.27223C7.16014 6.27367 6.96938 6.33512 6.80947 6.4483C6.64955 6.56149 6.52818 6.72097 6.46169 6.90526C6.41624 7.04176 6.39655 7.18552 6.40361 7.32921V10.233H4.66134C4.66134 10.233 4.66134 5.4824 4.66134 5.00618H6.40361V5.74375C6.56189 5.46911 6.79209 5.24285 7.06942 5.08935C7.34675 4.93584 7.6607 4.86091 7.97747 4.87261C9.13898 4.87261 9.98108 5.62179 9.98108 7.23049V10.2388Z" fill="#D5D6D8"/>
</svg>
