<?xml version="1.0" encoding="utf-8"?>
<!-- Generator: Adobe Illustrator 21.1.0, SVG Export Plug-In . SVG Version: 6.00 Build 0)  -->
<svg version="1.1" id="Слой_1" xmlns="http://www.w3.org/2000/svg" xmlns:xlink="http://www.w3.org/1999/xlink" x="0px" y="0px"
	 viewBox="0 0 30 30" style="enable-background:new 0 0 30 30;" xml:space="preserve">
<style type="text/css">
	.st0{fill:#FFFFFF;}
</style>
<g>
	<path class="st0" d="M21.4,10c-0.3-0.6-0.7-1-1.3-1.3c-0.2-0.1-0.5-0.2-0.6-0.2l-0.3-0.1l-4.1,0c-2.2,0-4.1,0-4.2,0
		c-0.3,0-0.6,0.2-0.9,0.3c-0.6,0.3-1,0.7-1.3,1.3c-0.1,0.2-0.2,0.5-0.2,0.6l-0.1,0.3V15v4.1l0.1,0.3c0,0.1,0.1,0.4,0.2,0.6
		c0.3,0.6,0.7,1,1.3,1.3c0.2,0.1,0.5,0.2,0.6,0.2l0.3,0.1H15h4.1l0.3-0.1c0.1,0,0.4-0.1,0.6-0.2c0.6-0.3,1-0.7,1.3-1.3
		c0.1-0.2,0.2-0.5,0.2-0.6l0.1-0.3V15v-4.1l-0.1-0.3C21.6,10.4,21.5,10.2,21.4,10z M18.5,15.7c-0.2,1.1-1,2.1-2.1,2.5
		c-0.1,0.1-0.4,0.1-0.6,0.2c-0.3,0.1-0.4,0.1-0.9,0.1c-0.5,0-0.6,0-0.8-0.1c-1.4-0.4-2.3-1.3-2.7-2.6c-0.1-0.4-0.1-1-0.1-1.5
		c0.3-1.5,1.4-2.7,2.9-3c0.3-0.1,0.9-0.1,1.2,0c1.5,0.3,2.8,1.5,3,3C18.6,14.8,18.6,15.4,18.5,15.7z M19,11.6c-0.1,0-0.2,0-0.3-0.1
		c-0.5-0.3-0.4-1.1,0.2-1.2c0.4-0.1,0.8,0.2,0.8,0.6C19.7,11.3,19.4,11.6,19,11.6z"/>
	<path class="st0" d="M15.4,12.7c-0.1,0-0.3,0-0.4,0c-0.4,0-0.8,0.1-1.1,0.3c-0.2,0.1-0.7,0.6-0.8,0.8c-0.2,0.4-0.4,1-0.3,1.4
		c0.1,0.5,0.3,0.9,0.6,1.3c0.9,1,2.4,1,3.3,0c0.8-0.8,0.9-1.9,0.3-2.8C16.6,13.2,16,12.8,15.4,12.7z"/>
	<path class="st0" d="M15,0C6.7,0,0,6.7,0,15c0,8.3,6.7,15,15,15c8.3,0,15-6.7,15-15C30,6.7,23.3,0,15,0z M23,19.4
		c-0.1,0.9-0.6,1.8-1.3,2.4c-0.6,0.6-1.5,1-2.3,1.2C19,23,11,23,10.6,23c-0.9-0.1-1.8-0.6-2.4-1.3c-0.6-0.6-1-1.5-1.2-2.3
		C7,19,7,11,7,10.6c0.1-0.9,0.6-1.7,1.2-2.3C8.8,7.7,9.7,7.2,10.6,7C11,7,19,7,19.4,7c0.9,0.1,1.7,0.6,2.3,1.2
		c0.6,0.6,1.1,1.5,1.3,2.4C23,11,23,19,23,19.4z"/>
</g>
</svg>
