<svg width="20" height="20" viewBox="0 0 20 20" fill="none" xmlns="http://www.w3.org/2000/svg">
<path d="M19.4102 6.63988C19.4102 6.63988 19.4102 6.63988 19.4102 6.58988C18.7056 4.6661 17.4271 3.00516 15.7477 1.83174C14.0683 0.658325 12.0689 0.0290527 10.0202 0.0290527C7.97145 0.0290527 5.97213 0.658325 4.29271 1.83174C2.61328 3.00516 1.3348 4.6661 0.630195 6.58988C0.630195 6.58988 0.630195 6.58988 0.630195 6.63988C-0.15668 8.81078 -0.15668 11.189 0.630195 13.3599C0.630195 13.3599 0.630195 13.3599 0.630195 13.4099C1.3348 15.3337 2.61328 16.9946 4.29271 18.168C5.97213 19.3414 7.97145 19.9707 10.0202 19.9707C12.0689 19.9707 14.0683 19.3414 15.7477 18.168C17.4271 16.9946 18.7056 15.3337 19.4102 13.4099C19.4102 13.4099 19.4102 13.4099 19.4102 13.3599C20.1971 11.189 20.1971 8.81078 19.4102 6.63988ZM2.2602 11.9999C1.91342 10.6891 1.91342 9.31067 2.2602 7.99988H4.1202C3.96023 9.32842 3.96023 10.6713 4.1202 11.9999H2.2602ZM3.0802 13.9999H4.4802C4.71491 14.8917 5.05041 15.7539 5.4802 16.5699C4.49949 15.9018 3.67969 15.0239 3.0802 13.9999ZM4.4802 5.99988H3.0802C3.67107 4.97897 4.48039 4.10135 5.4502 3.42988C5.03075 4.24713 4.70534 5.1093 4.4802 5.99988ZM9.0002 17.6999C7.77196 16.7986 6.90934 15.4851 6.5702 13.9999H9.0002V17.6999ZM9.0002 11.9999H6.1402C5.95359 10.6731 5.95359 9.32668 6.1402 7.99988H9.0002V11.9999ZM9.0002 5.99988H6.5702C6.90934 4.51465 7.77196 3.2012 9.0002 2.29988V5.99988ZM16.9202 5.99988H15.5202C15.2855 5.10804 14.95 4.24582 14.5202 3.42988C15.5009 4.09795 16.3207 4.97582 16.9202 5.99988ZM11.0002 2.29988C12.2284 3.2012 13.091 4.51465 13.4302 5.99988H11.0002V2.29988ZM11.0002 17.6999V13.9999H13.4302C13.091 15.4851 12.2284 16.7986 11.0002 17.6999ZM13.8602 11.9999H11.0002V7.99988H13.8602C14.0468 9.32668 14.0468 10.6731 13.8602 11.9999ZM14.5502 16.5699C14.98 15.7539 15.3155 14.8917 15.5502 13.9999H16.9502C16.3507 15.0239 15.5309 15.9018 14.5502 16.5699ZM17.7402 11.9999H15.8802C15.9615 11.3363 16.0016 10.6684 16.0002 9.99988C16.0013 9.33138 15.9612 8.66345 15.8802 7.99988H17.7402C18.087 9.31067 18.087 10.6891 17.7402 11.9999Z" fill="#DD8F53"/>
</svg>
