<svg width="12" height="12" viewBox="0 0 12 12" fill="none" xmlns="http://www.w3.org/2000/svg">
<path d="M11.8243 0.175736C11.956 0.307437 12.0136 0.485132 11.9973 0.657118C11.9991 0.67784 12 0.698813 12 0.72V3.6C12 3.93137 11.7314 4.2 11.4 4.2C11.0686 4.2 10.8 3.93137 10.8 3.6V2.04853L6.42426 6.42426C6.18995 6.65858 5.81005 6.65858 5.57574 6.42426C5.34142 6.18995 5.34142 5.81005 5.57574 5.57574L9.95147 1.2H8.4C8.06863 1.2 7.8 0.931371 7.8 0.6C7.8 0.268629 8.06863 9.03128e-09 8.4 9.03128e-09H11.28C11.3012 9.03128e-09 11.3222 0.000915187 11.3429 0.00270817C11.5149 -0.013641 11.6926 0.0440349 11.8243 0.175736Z" fill="#5B88D9"/>
<path d="M1.2 3C1.2 2.66863 1.46863 2.4 1.8 2.4H6.6C6.93137 2.4 7.2 2.13137 7.2 1.8C7.2 1.46863 6.93137 1.2 6.6 1.2H1.8C0.805887 1.2 0 2.00589 0 3V10.2C0 11.1941 0.805887 12 1.8 12H9C9.99411 12 10.8 11.1941 10.8 10.2V5.4C10.8 5.06863 10.5314 4.8 10.2 4.8C9.86863 4.8 9.6 5.06863 9.6 5.4V10.2C9.6 10.5314 9.33137 10.8 9 10.8H1.8C1.46863 10.8 1.2 10.5314 1.2 10.2V3Z" fill="#5B88D9"/>
</svg>
