<?xml version="1.0" encoding="utf-8"?>
<!-- Generator: Adobe Illustrator 23.1.0, SVG Export Plug-In . SVG Version: 6.00 Build 0)  -->
<svg version="1.1" id="Слой_1" xmlns="http://www.w3.org/2000/svg" xmlns:xlink="http://www.w3.org/1999/xlink" x="0px" y="0px"
	 viewBox="0 0 21.5 21.5" style="enable-background:new 0 0 21.5 21.5;" xml:space="preserve">
<style type="text/css">
	.st0{fill:#5B88D9;}
</style>
<g>
	<path class="st0" d="M10.8,8.5c0.9,0,1.6-0.7,1.6-1.6c0-0.9-0.7-1.6-1.6-1.6C9.9,5.3,9.2,6,9.2,6.9C9.2,7.8,9.9,8.5,10.8,8.5z"/>
	<path class="st0" d="M19.5,0H2C0.9,0,0,0.9,0,2v17.5c0,1.1,0.9,2,2,2h17.5c1.1,0,2-0.9,2-2V2C21.5,0.9,20.6,0,19.5,0z M10.8,3.1
		c2.1,0,3.8,1.7,3.8,3.9c0,2.1-1.7,3.9-3.8,3.9C8.7,10.8,7,9.1,7,6.9C7,4.8,8.7,3.1,10.8,3.1z M15,12.3c-0.1,0.3-0.2,0.5-0.5,0.7
		c-0.7,0.4-1.4,0.7-2.2,0.9l2.1,2.2c0.1,0.1,0.2,0.2,0.2,0.4c0.1,0.1,0.1,0.3,0.1,0.4c0,0.1,0,0.3-0.1,0.4c-0.1,0.1-0.1,0.3-0.2,0.4
		c-0.1,0.1-0.2,0.2-0.4,0.2c-0.1,0.1-0.3,0.1-0.4,0.1c-0.1,0-0.3,0-0.4-0.1c-0.1-0.1-0.3-0.1-0.4-0.2l-2.1-2.1l-2.1,2.1
		c-0.2,0.2-0.5,0.3-0.8,0.3c-0.3,0-0.6-0.1-0.8-0.3c-0.2-0.2-0.3-0.5-0.3-0.8c0-0.3,0.1-0.6,0.3-0.8L9.2,14C8.5,13.8,7.7,13.5,7,13
		c-0.3-0.2-0.4-0.4-0.5-0.7c-0.1-0.3,0-0.6,0.1-0.9c0.1-0.1,0.2-0.2,0.3-0.3S7.2,11,7.4,11c0.1,0,0.3,0,0.4,0C8,11,8.1,11,8.2,11.1
		c1.6,1,3.6,1,5.1,0c0.1-0.1,0.3-0.1,0.4-0.2c0.1,0,0.3,0,0.4,0c0.1,0,0.3,0.1,0.4,0.2c0.1,0.1,0.2,0.2,0.3,0.3
		C15.1,11.7,15.1,12,15,12.3z"/>
</g>
</svg>
