<?xml version="1.0" encoding="utf-8"?>
<!-- Generator: Adobe Illustrator 21.1.0, SVG Export Plug-In . SVG Version: 6.00 Build 0)  -->
<svg version="1.1" id="Слой_1" xmlns="http://www.w3.org/2000/svg" xmlns:xlink="http://www.w3.org/1999/xlink" x="0px" y="0px"
	 viewBox="0 0 30 30" style="enable-background:new 0 0 30 30;" xml:space="preserve">
<style type="text/css">
	.st0{fill:#FFFFFF;}
</style>
<g>
	<path class="st0" d="M14.2,12.5c0.4,0.1,1,0.2,1.4,0c0.8-0.2,1.5-0.9,1.6-1.8c0.1-0.5,0-1-0.2-1.5c-0.3-0.5-0.8-0.9-1.3-1.1
		c-0.1-0.1-0.3-0.1-0.6-0.1c-0.5,0-0.7,0-1.1,0.2c-0.7,0.3-1.1,0.9-1.3,1.6c-0.1,0.5,0,1,0.2,1.5C13.2,11.9,13.7,12.3,14.2,12.5z"/>
	<path class="st0" d="M15,0C6.7,0,0,6.7,0,15c0,8.3,6.7,15,15,15c8.3,0,15-6.7,15-15C30,6.7,23.3,0,15,0z M10.4,9.4
		c0.3-1.2,1-2.3,2-3c0.5-0.3,1.2-0.6,1.8-0.7c0.4-0.1,1.2-0.1,1.6,0c0.9,0.1,1.6,0.5,2.2,1.1c1.3,1.1,2,3.1,1.5,4.8
		c-0.5,2-2.2,3.4-4.2,3.6c-0.9,0.1-1.7-0.1-2.5-0.5c-1.3-0.7-2.2-1.8-2.6-3.3C10.2,10.9,10.3,9.9,10.4,9.4z M20.5,16.7
		c-0.3,0.6-1.5,1.4-2.6,1.7c-0.4,0.1-1.1,0.3-1.5,0.3c-0.2,0-0.4,0.1-0.4,0.1c0,0,0.8,0.8,1.8,1.8c1.2,1.2,1.8,1.8,1.9,2
		c0.1,0.1,0.1,0.2,0.1,0.5c0,0.3,0,0.4-0.1,0.5c-0.1,0.3-0.5,0.5-0.7,0.6c-0.3,0.1-0.6,0.1-0.9,0c-0.1-0.1-0.6-0.5-1.6-1.5
		c-1-1-1.4-1.4-1.5-1.4s-0.5,0.4-1.5,1.4c-1.6,1.6-1.6,1.6-2.1,1.6c-0.3,0-0.6-0.1-0.8-0.4c-0.2-0.2-0.3-0.5-0.4-0.8
		c0-0.5-0.1-0.4,2-2.5c1-1,1.8-1.8,1.8-1.8c0,0-0.2,0-0.4-0.1c-0.9-0.1-1.8-0.4-2.3-0.7c-0.8-0.4-1.6-1-1.8-1.4
		c-0.1-0.2-0.1-0.7,0-0.9c0.2-0.4,0.5-0.6,0.8-0.7c0.3-0.1,0.7,0,1.2,0.3c1,0.6,1.7,0.9,2.7,1c0.6,0.1,1.6,0.1,2.1-0.1
		c0.8-0.2,1.5-0.4,2.1-0.8c0.5-0.3,0.7-0.4,0.9-0.4c0.7-0.1,1.3,0.4,1.4,1.2C20.6,16.5,20.6,16.5,20.5,16.7z"/>
</g>
</svg>
