<svg width="13" height="15" viewBox="0 0 13 15" fill="none" xmlns="http://www.w3.org/2000/svg">
<path d="M9.65563 0H3.3445C2.7405 0 2.25293 0.48976 2.25293 1.09267V13.9084C2.25293 14.5108 2.7405 15 3.3445 15H9.65563C10.2585 15 10.7472 14.5108 10.7472 13.9084V1.09267C10.7472 0.48976 10.2585 0 9.65563 0ZM4.94278 0.663581H8.05845C8.13716 0.663581 8.20111 0.781102 8.20111 0.9265C8.20111 1.0719 8.13716 1.18996 8.05845 1.18996H4.94278C4.86353 1.18996 4.80067 1.0719 4.80067 0.9265C4.80067 0.781102 4.86353 0.663581 4.94278 0.663581ZM6.50062 13.9215C6.11635 13.9215 5.80369 13.6089 5.80369 13.2241C5.80369 12.8393 6.11635 12.5277 6.50062 12.5277C6.88379 12.5277 7.19645 12.8393 7.19645 13.2241C7.19645 13.6089 6.88379 13.9215 6.50062 13.9215ZM9.92948 11.5334H3.0712V1.84371H9.92948V11.5334Z" fill="#B3B8BE"/>
</svg>
