<svg width="18" height="22" viewBox="0 0 18 22" fill="none" xmlns="http://www.w3.org/2000/svg">
<path d="M15.3734 2.72549C13.6845 0.980387 11.3939 -1.83876e-08 9.00551 0C6.6171 1.83876e-08 4.32651 0.980387 2.63765 2.72549C0.948792 4.47059 1.7795e-08 6.83745 0 9.30539C-1.7795e-08 11.7733 0.948792 14.1402 2.63765 15.8853L8.23076 21.6756C8.32942 21.7784 8.4468 21.86 8.57613 21.9157C8.70546 21.9713 8.84418 22 8.98428 22C9.12439 22 9.26311 21.9713 9.39244 21.9157C9.52177 21.86 9.63915 21.7784 9.73781 21.6756L15.3734 15.8305C17.0552 14.0926 18 11.7356 18 9.27798C18 6.82032 17.0552 4.46332 15.3734 2.72549ZM12.2956 11.9464L9.51912 12.6282L6.5 12C5.54179 11.009 5.76403 11.8741 5.5 10.5C5.23597 9.12595 4.9809 9.29412 5.5 8C6.0191 6.70588 5.62285 6.71683 6.75018 5.93867C7.87752 5.16052 7.04503 5.93867 8.40077 5.93867C9.7565 5.93867 8.61048 4.72185 9.73781 5.5C10.8652 6.27815 11.4809 5.73214 12 7.02626C12.5191 8.32038 12.764 8.62595 12.5 10C12.236 11.3741 13.2538 10.9554 12.2956 11.9464ZM5.82158 5.93867C4.9648 6.82671 4.48369 8.02951 4.48369 9.28346C4.48369 10.5374 4.9648 11.7402 5.82158 12.6282C6.45811 13.2871 7.26877 13.737 8.15185 13.9216C9.03492 14.1062 9.95109 14.0172 10.7854 13.6658C11.6197 13.3144 12.335 12.7163 12.8416 11.9464C13.3482 11.1765 13.6234 10.2692 13.6328 9.33829C13.6376 8.71671 13.5217 8.10046 13.292 7.52595C13.0624 6.95145 12.7235 6.43036 12.2956 5.99351C11.8749 5.5489 11.3734 5.19464 10.8197 4.9511C10.2661 4.70757 9.67131 4.57957 9.06962 4.57447C8.46792 4.56937 7.87118 4.68728 7.31375 4.92141C6.75632 5.15553 6.24921 5.50125 5.82158 5.93867ZM10.7991 11.071C10.3969 11.4929 9.8654 11.7574 9.29538 11.8192C8.72537 11.881 8.15229 11.7363 7.67411 11.4098C7.19593 11.0833 6.84235 10.5953 6.67382 10.0293C6.50529 9.46323 6.53229 8.85427 6.75018 8.30651C6.96808 7.75875 7.36335 7.30621 7.86841 7.02626C8.37347 6.74631 8.95696 6.65633 9.51912 6.77171C10.0813 6.88708 10.5872 7.20065 10.9504 7.6588C11.3136 8.11695 11.5114 8.69123 11.5102 9.28346C11.4948 9.96039 11.2199 10.6033 10.7461 11.071H10.7991Z" fill="#DD8F53"/>
</svg>
