<?xml version="1.0" encoding="utf-8"?>
<!-- Generator: Adobe Illustrator 21.1.0, SVG Export Plug-In . SVG Version: 6.00 Build 0)  -->
<svg version="1.1" id="Слой_1" xmlns="http://www.w3.org/2000/svg" xmlns:xlink="http://www.w3.org/1999/xlink" x="0px" y="0px"
	 viewBox="0 0 30 30" style="enable-background:new 0 0 30 30;" xml:space="preserve">
<style type="text/css">
	.st0{fill:#FFFFFF;}
</style>
<path class="st0" d="M15,0C6.7,0,0,6.7,0,15c0,8.3,6.7,15,15,15c8.3,0,15-6.7,15-15C30,6.7,23.3,0,15,0z M21.2,13.3
	c-0.3,2.4-1.3,4.1-3,5c-0.7,0.3-1.2,0.5-2,0.5c-0.6,0-0.7,0-1.2-0.2c-0.3-0.1-0.5-0.2-0.7-0.4c-0.1-0.1-0.2-0.1-0.2-0.1
	c0,0-0.1,0.4-0.3,1c-0.3,1.3-0.5,1.9-0.9,2.7c-0.3,0.6-0.6,1.1-0.9,1.3C12,23,11.9,23,11.7,23c-0.3,0-0.5-0.2-0.6-0.7
	c-0.1-0.5-0.1-1.7,0.1-2.7c0-0.2,0.3-1.4,0.6-2.7l0.6-2.4l-0.1-0.3c-0.1-0.5-0.2-0.8-0.2-1.3c0-0.3,0-0.5,0.1-0.7
	c0.3-1.1,1-1.7,1.9-1.7c0.4,0,0.7,0.1,1,0.4c0.3,0.3,0.4,0.6,0.5,1.1c0,0.5-0.1,0.9-0.4,2.2c-0.3,1-0.4,1.3-0.4,1.5
	c0,0.8,0.8,1.3,1.6,1c0.3-0.1,0.4-0.2,0.7-0.3c0.6-0.4,1-1.2,1.2-2.2c0.2-0.7,0.2-1,0.2-1.8c0-0.6,0-0.7-0.1-1
	c-0.3-1.1-1-1.8-2.2-2.1c-1-0.3-2.1-0.2-3,0.3c-0.5,0.2-0.7,0.4-1.1,0.8C11.4,11,11,11.9,11,12.9c0,0.7,0.1,1.1,0.4,1.5
	c0.3,0.4,0.3,0.5,0.3,0.7c0,0.1,0,0.3-0.1,0.6c-0.2,0.7-0.3,0.8-0.7,0.8c-0.2,0-0.3,0-0.5-0.1C9.6,16,9,15.1,8.8,13.8
	c-0.1-0.5-0.1-1.3,0-1.8c0.4-2.7,2.7-4.7,5.7-5c0.4,0,1.5,0,1.8,0c0.8,0.1,1.4,0.3,2,0.6c1.6,0.8,2.6,2.2,3,3.9
	C21.3,11.9,21.3,12.8,21.2,13.3z"/>
</svg>
