<svg width="59" height="59" viewBox="0 0 59 59" fill="none" xmlns="http://www.w3.org/2000/svg">
<path d="M58.9309 4.4046C58.8031 2.06096 56.9392 0.197274 54.5955 0.0693638C49.8666 -0.188992 40.6128 0.0623347 31.7642 4.6391C27.2533 6.97236 22.4826 10.9282 18.6754 15.4924C18.6285 15.5487 18.5828 15.6053 18.5363 15.6616L9.89601 16.329C8.47379 16.439 7.20702 17.1844 6.42043 18.3741L0.525728 27.29C-0.0708404 28.1923 -0.165678 29.3215 0.271867 30.3106C0.709527 31.2997 1.60882 31.9891 2.67761 32.1546L9.95709 33.2821C9.93139 33.4236 9.90558 33.565 9.88195 33.7065C9.63962 35.1562 10.1199 36.6466 11.1669 37.6935L21.3066 47.8333C22.1747 48.7014 23.3477 49.18 24.5496 49.18C24.7971 49.18 25.046 49.1596 25.2937 49.1182C25.4353 49.0946 25.5766 49.0687 25.7182 49.043L26.8456 56.3226C27.0112 57.3914 27.7005 58.2908 28.6895 58.7284C29.101 58.9105 29.5364 59.0003 29.97 59.0003C30.5787 59.0002 31.1833 58.823 31.7101 58.4746L40.626 52.5798C41.8158 51.7931 42.5612 50.5263 42.6709 49.1042L43.3383 40.4641C43.3946 40.4175 43.4513 40.3719 43.5076 40.325C48.0719 36.5178 52.0279 31.7471 54.361 27.2361C58.938 18.3871 59.1889 9.13324 58.9309 4.4046ZM38.7195 49.696L30.1909 55.3347L29.092 48.2403C32.6965 47.1805 36.2622 45.4831 39.6592 43.2092L39.2244 48.8378C39.1973 49.1889 39.0132 49.5018 38.7195 49.696ZM23.7511 45.3889L13.6113 35.249C13.3526 34.9902 13.233 34.6267 13.2916 34.2765C13.5931 32.4738 14.0615 30.7579 14.6414 29.1414L29.8555 44.3555C27.9141 45.051 26.1751 45.4658 24.7237 45.7085C24.3729 45.7668 24.0098 45.6476 23.7511 45.3889ZM10.1623 19.7758L15.7908 19.341C13.5168 22.738 11.8194 26.3037 10.7596 29.9083L3.66529 28.8095L9.30417 20.2808C9.49845 19.9869 9.81131 19.8029 10.1623 19.7758ZM41.2935 37.6701C38.501 39.9993 35.7903 41.6841 33.2918 42.9031L16.0964 25.7077C17.6933 22.4461 19.6423 19.7302 21.33 17.7069C24.8533 13.483 29.2353 9.83916 33.3525 7.70963C41.4736 3.50899 50.0298 3.28279 54.4074 3.52109C54.9868 3.55267 55.4476 4.01349 55.4792 4.593C55.7178 8.97053 55.4911 17.5267 51.2905 25.6478C49.1611 29.7649 45.5173 34.1468 41.2935 37.6701Z" fill="#5B88D9"/>
</svg>
