<svg width="28" height="27" viewBox="0 0 28 27" fill="none" xmlns="http://www.w3.org/2000/svg">
<path d="M27.4811 25.2444L19.5779 17.4011C21.0769 15.5645 21.9792 13.2297 21.9792 10.6875C21.9792 4.79446 17.1481 0 11.21 0C5.27194 0 0.440918 4.79446 0.440918 10.6875C0.440918 16.5806 5.27199 21.3751 11.2101 21.3751C13.7716 21.3751 16.1243 20.4796 17.9749 18.992L25.8781 26.8353C26.0995 27.0549 26.4583 27.0549 26.6798 26.8353L27.4811 26.0399C27.7024 25.8202 27.7024 25.4641 27.4811 25.2444ZM11.2101 19.1251C6.52183 19.1251 2.70812 15.3403 2.70812 10.6875C2.70812 6.03483 6.52183 2.25002 11.2101 2.25002C15.8983 2.25002 19.712 6.03483 19.712 10.6875C19.712 15.3403 15.8983 19.1251 11.2101 19.1251Z" fill="#B3B8BE"/>
</svg>
