<svg width="74" height="53" viewBox="0 0 74 53" fill="none" xmlns="http://www.w3.org/2000/svg">
<path d="M69.5964 0.794434H22.0648C20.18 0.794434 20.1774 3.70713 22.0648 3.70713H69.5964C70.4058 3.70713 71.0643 4.36045 71.0643 5.16348V39.5796C71.0643 40.3826 70.4058 41.036 69.5964 41.036H43.895C43.4456 41.036 43.0211 41.24 42.7427 41.59L36.8219 49.0322L30.5422 41.5597C30.2633 41.2279 29.8502 41.036 29.4147 41.036H4.40362C3.59423 41.036 2.93574 40.3826 2.93574 39.5796V5.16348C2.93574 4.36045 3.59423 3.70713 4.40362 3.70713H23.125C25.0097 3.70713 24.7233 0.794434 22.8359 0.794434H4.40362C1.97546 0.794434 0 2.75439 0 5.16348V39.5796C0 41.9887 1.97546 43.9487 4.40362 43.9487H28.7276L35.7258 52.2761C36.3168 52.9793 37.4334 52.9649 38.0054 52.2456L44.6064 43.9487H69.5964C72.0245 43.9487 74 41.9887 74 39.5796V5.16348C74 2.75439 72.0245 0.794434 69.5964 0.794434Z" fill="#B3B8BE"/>
<path d="M8.12862 19.5324C7.97317 20.0069 8.07342 20.5272 8.3943 20.9114L11.2524 24.3349L10.9684 28.7715C10.7452 32.247 16.0046 28.5561 17.1393 28.5785C18.2838 28.6012 23.5309 32.2077 23.3102 28.7715L23.0261 24.3349L25.8843 20.9114C26.5519 20.112 26.1379 18.8306 25.1179 18.5716L20.7776 17.4689L18.3791 13.7141C17.8191 12.8371 16.4629 12.8317 15.8994 13.7141L13.5009 17.4689L9.16053 18.5716C8.67334 18.6953 8.28406 19.0578 8.12862 19.5324ZM14.7932 20.147C15.8784 19.8714 16.5927 18.0695 17.1392 17.2139C17.6768 18.0557 18.4103 19.8741 19.4851 20.147L22.1458 20.823L20.3936 22.9216C20.155 23.2073 20.0354 23.5727 20.0592 23.9429L20.2334 26.6627L17.6804 25.6579C17.3326 25.5212 16.9455 25.5212 16.5978 25.6579L14.0447 26.6627L14.2188 23.9429C14.2426 23.5727 14.123 23.2073 13.8844 22.9216L12.1324 20.823L14.7932 20.147Z" fill="#B3B8BE"/>
<path d="M45.8638 19.5324C45.7083 19.0579 45.3191 18.6953 44.8319 18.5715L40.4915 17.4687L38.093 13.714C37.533 12.837 36.1769 12.8316 35.6133 13.714L33.2148 17.4687L28.8745 18.5715C28.3873 18.6953 27.9979 19.0579 27.8426 19.5324C27.6873 20.0069 27.7874 20.5272 28.1083 20.9114L30.9665 24.3348L30.6823 28.7715C30.4591 32.2469 35.7187 28.5561 36.8533 28.5785C37.9978 28.6012 43.2448 32.2077 43.0242 28.7715L42.74 24.3348L45.5982 20.9114C45.919 20.5272 46.0192 20.0069 45.8638 19.5324ZM40.1077 22.9216C39.8691 23.2073 39.7495 23.5727 39.7733 23.9429L39.9475 26.6627C39.0308 26.3019 37.8604 25.5553 36.8533 25.5553C35.8508 25.5553 34.6732 26.3028 33.759 26.6627L33.9332 23.9429C33.957 23.5727 33.8374 23.2073 33.5988 22.9216L31.8466 20.823L34.5073 20.147C35.5925 19.8714 36.3068 18.0695 36.8533 17.2139C37.3909 18.0557 38.1244 19.8741 39.1992 20.147L41.8599 20.823L40.1077 22.9216Z" fill="#B3B8BE"/>
<path d="M65.5778 19.5324C65.4223 19.0578 65.0331 18.6953 64.5459 18.5715L60.2055 17.4687L57.807 13.714C57.247 12.837 55.8909 12.8316 55.3273 13.714L52.9288 17.4687L48.5885 18.5715C47.5748 18.829 47.1504 20.1069 47.8221 20.9113L50.6803 24.3347L50.3962 28.7713C50.173 32.2463 55.4299 28.5558 56.5671 28.5784C57.7094 28.6009 62.9587 32.2084 62.738 28.7713L62.454 24.3347L65.3121 20.9113C65.633 20.5272 65.7332 20.0069 65.5778 19.5324ZM59.8218 22.9216C59.5833 23.2073 59.4637 23.5727 59.4874 23.9429L59.6615 26.6627L57.1085 25.6579C56.7477 25.5212 56.3867 25.5212 56.0259 25.6579L53.4728 26.6627L53.6471 23.9429C53.6708 23.5727 53.5512 23.2073 53.3127 22.9216L51.5605 20.823L54.2211 20.147C55.3063 19.8714 56.0206 18.0695 56.5671 17.2139C57.1048 18.0557 57.8383 19.8741 58.9131 20.147L61.5737 20.823L59.8218 22.9216Z" fill="#B3B8BE"/>
<path d="M15.2449 3.46072C16.3498 4.2119 17.8248 3.12037 17.4724 1.86267C17.3046 1.26382 16.7575 0.827639 16.1309 0.796765C15.5057 0.766036 14.9148 1.14862 14.6902 1.72737C14.4483 2.35127 14.6774 3.0927 15.2449 3.46072Z" fill="#B3B8BE"/>
</svg>
