<svg width="12" height="12" viewBox="0 0 12 12" fill="none" xmlns="http://www.w3.org/2000/svg">
<path d="M5.96578 0.331543C4.81715 0.331543 3.69432 0.672151 2.73927 1.3103C1.78421 1.94844 1.03984 2.85546 0.600281 3.91666C0.160719 4.97785 0.0457101 6.14556 0.269797 7.27212C0.493883 8.39868 1.047 9.43349 1.85921 10.2457C2.67141 11.0579 3.70622 11.611 4.83278 11.8351C5.95934 12.0592 7.12705 11.9442 8.18825 11.5046C9.24944 11.0651 10.1565 10.3207 10.7946 9.36564C11.4327 8.41058 11.7734 7.28775 11.7734 6.13912C11.7734 5.37644 11.6232 4.62122 11.3314 3.91658C11.0396 3.21194 10.6118 2.5717 10.0725 2.0324C9.53321 1.49311 8.89296 1.06533 8.18832 0.77349C7.48368 0.481654 6.72846 0.33148 5.96578 0.331543V0.331543ZM7.81231 9.13146C7.79057 9.18566 7.7575 9.23459 7.7153 9.27496C7.67311 9.31534 7.62277 9.34622 7.56767 9.36556C7.51256 9.38489 7.45396 9.39221 7.39579 9.38705C7.33762 9.38188 7.28122 9.36433 7.23039 9.33559L5.65382 8.11055L4.64196 9.04407C4.61848 9.06142 4.59101 9.07258 4.56209 9.07653C4.53317 9.08048 4.50371 9.0771 4.47644 9.06668L4.67041 7.33111L4.67662 7.33604L4.68059 7.30177C4.68059 7.30177 7.51759 4.71885 7.63316 4.6088C7.75017 4.49904 7.71156 4.47523 7.71156 4.47523C7.71822 4.34134 7.50161 4.47523 7.50161 4.47523L3.74264 6.89352L2.17722 6.36039C2.17722 6.36039 1.93678 6.27415 1.91413 6.08453C1.89032 5.89636 2.18505 5.79415 2.18505 5.79415L8.40903 3.32157C8.40903 3.32157 8.92068 3.09361 8.92068 3.47112L7.81231 9.13146Z" fill="#D5D6D8"/>
</svg>
