<svg width="13" height="13" viewBox="0 0 13 13" fill="none" xmlns="http://www.w3.org/2000/svg">
<g clip-path="url(#clip0_1227:3472)">
<path d="M12.7918 2.75122L10.6509 4.89216L8.7781 4.22313L8.10911 2.35039L10.2501 0.209448C8.84539 -0.260473 7.23357 0.0629456 6.11506 1.1815C5.01719 2.27937 4.98437 4.03062 5.41668 5.41661C5.35846 5.46244 5.30205 5.51179 5.24833 5.56551L0.851341 9.96245C0.115489 10.6983 -0.183418 11.713 0.552434 12.4488C1.28829 13.1847 2.30165 12.8844 3.0375 12.1486L7.43449 7.75158C7.4882 7.69786 7.53747 7.64149 7.58334 7.58327C8.96933 8.01558 10.7219 7.98408 11.8198 6.88621C12.9383 5.76766 13.2617 4.15592 12.7918 2.75122Z" fill="#B3B8BE"/>
</g>
<defs>
<clipPath id="clip0_1227:3472">
<rect width="13" height="13" fill="white"/>
</clipPath>
</defs>
</svg>
