<svg width="27" height="26" viewBox="0 0 27 26" fill="none" xmlns="http://www.w3.org/2000/svg">
<path d="M25.0527 0L1.5379 0C0.462404 0 0 0.64176 0 1.67742V24.3226C0 25.3582 0.544997 26 1.62049 26H25.3095C26.385 26 27 25.3582 27 24.3226V1.49908C27 0.463418 26.3336 0 25.2581 0L25.0527 0ZM19.6639 10.136C19.6699 10.264 19.6728 10.3925 19.6728 10.5216C19.6728 14.4645 16.5561 19.0112 10.8565 19.0114C9.10657 19.0114 7.47819 18.5175 6.10689 17.6711C6.34934 17.6987 6.59612 17.7123 6.84599 17.7123C8.29784 17.7123 9.63391 17.2355 10.6946 16.4351C9.3381 16.4109 8.19443 15.5482 7.79974 14.3626C7.98864 14.3975 8.18289 14.4165 8.38209 14.4165C8.66492 14.4165 8.93889 14.3798 9.19926 14.3114C7.78141 14.038 6.71333 12.8314 6.71333 11.3865C6.71333 11.373 6.71333 11.3609 6.71375 11.3484C7.13129 11.572 7.60879 11.7065 8.11718 11.7215C7.28517 11.187 6.73826 10.2731 6.73826 9.23782C6.73826 8.69113 6.89172 8.17896 7.15787 7.73799C8.68593 9.5435 10.9696 10.7309 13.5449 10.8557C13.4918 10.6371 13.4644 10.4094 13.4644 10.1753C13.4644 8.52808 14.8521 7.1917 16.5633 7.1917C17.4547 7.1917 18.2597 7.5545 18.8251 8.13452C19.5311 8.00043 20.194 7.75208 20.7928 7.41029C20.5611 8.10675 20.07 8.69113 19.4301 9.06068C20.057 8.98848 20.6544 8.8284 21.2095 8.59076C20.7949 9.18922 20.269 9.71489 19.6639 10.136Z" fill="#060C1C"/>
</svg>
