<svg width="14" height="10" viewBox="0 0 14 10" fill="none" xmlns="http://www.w3.org/2000/svg">
<path d="M13.356 4.11655C13.3847 3.28528 13.2029 2.46024 12.8275 1.71802C12.5728 1.41347 12.2193 1.20794 11.8286 1.13726C10.2127 0.990633 8.59004 0.930535 6.96767 0.957225C5.35122 0.929324 3.73443 0.987482 2.12415 1.13145C1.80579 1.18936 1.51117 1.33869 1.27625 1.56121C0.753566 2.04324 0.69549 2.86792 0.637414 3.56483C0.553154 4.81785 0.553154 6.07511 0.637414 7.32814C0.654216 7.72038 0.712619 8.10974 0.811642 8.48965C0.881667 8.78297 1.02334 9.05435 1.22398 9.27948C1.4605 9.51379 1.76198 9.67161 2.08931 9.73247C3.34137 9.88702 4.60295 9.95107 5.86423 9.92412C7.89689 9.95316 9.67981 9.92412 11.788 9.76151C12.1233 9.70439 12.4333 9.54637 12.6765 9.30852C12.8391 9.14586 12.9606 8.94676 13.0308 8.72776C13.2385 8.09045 13.3405 7.42344 13.3328 6.75319C13.356 6.42796 13.356 4.465 13.356 4.11655ZM5.65516 7.10164V3.50675L9.09325 5.31291C8.12919 5.8472 6.85733 6.45119 5.65516 7.10164Z" fill="#D5D6D8"/>
</svg>
