<svg width="21" height="20" viewBox="0 0 21 20" fill="none" xmlns="http://www.w3.org/2000/svg">
<path d="M7.49706 11H9.44599V13C9.44599 13.2652 9.54866 13.5196 9.73141 13.7071C9.91416 13.8946 10.162 14 10.4205 14C10.6789 14 10.9268 13.8946 11.1095 13.7071C11.2923 13.5196 11.3949 13.2652 11.3949 13V11H13.3439C13.6023 11 13.8502 10.8946 14.0329 10.7071C14.2157 10.5196 14.3183 10.2652 14.3183 10C14.3183 9.73478 14.2157 9.48043 14.0329 9.29289C13.8502 9.10536 13.6023 9 13.3439 9H11.3949V7C11.3949 6.73478 11.2923 6.48043 11.1095 6.29289C10.9268 6.10536 10.6789 6 10.4205 6C10.162 6 9.91416 6.10536 9.73141 6.29289C9.54866 6.48043 9.44599 6.73478 9.44599 7V9H7.49706C7.23861 9 6.99075 9.10536 6.808 9.29289C6.62526 9.48043 6.52259 9.73478 6.52259 10C6.52259 10.2652 6.62526 10.5196 6.808 10.7071C6.99075 10.8946 7.23861 11 7.49706 11V11ZM19.1907 0H1.65025C1.3918 0 1.14394 0.105357 0.961196 0.292893C0.778448 0.48043 0.675781 0.734784 0.675781 1V19C0.675781 19.2652 0.778448 19.5196 0.961196 19.7071C1.14394 19.8946 1.3918 20 1.65025 20H19.1907C19.4491 20 19.697 19.8946 19.8797 19.7071C20.0625 19.5196 20.1651 19.2652 20.1651 19V1C20.1651 0.734784 20.0625 0.48043 19.8797 0.292893C19.697 0.105357 19.4491 0 19.1907 0V0ZM18.2162 18H2.62472V2H18.2162V18Z" fill="#DD8F53"/>
</svg>
