<svg width="74" height="74" viewBox="0 0 74 74" fill="none" xmlns="http://www.w3.org/2000/svg">
<g clip-path="url(#clip0_1236_1597)">
<path d="M72.5547 41.8374H69.5195C68.7214 41.8374 68.0742 41.1903 68.0742 40.3921C68.0742 39.5938 68.7214 38.9468 69.5195 38.9468H72.5547C73.3528 38.9468 74 39.5938 74 40.3921C74 41.1903 73.3528 41.8374 72.5547 41.8374Z" fill="#5B88D9"/>
<path d="M4.48047 41.8374H1.44531C0.647066 41.8374 0 41.1903 0 40.3921C0 39.5938 0.647066 38.9468 1.44531 38.9468H4.48047C5.27857 38.9468 5.92578 39.5938 5.92578 40.3921C5.92578 41.1903 5.27857 41.8374 4.48047 41.8374Z" fill="#5B88D9"/>
<path d="M58.9228 19.9158C58.5528 19.9158 58.1831 19.7747 57.9008 19.4924C57.3364 18.928 57.3364 18.0129 57.9008 17.4485L60.047 15.3023C60.6115 14.7379 61.5264 14.7379 62.0911 15.3023C62.6555 15.8667 62.6555 16.7819 62.0911 17.3464L59.9449 19.4926C59.6625 19.7747 59.2927 19.9158 58.9228 19.9158Z" fill="#5B88D9"/>
<path d="M15.0797 19.9157C14.7097 19.9157 14.34 19.7746 14.0577 19.4923L11.9116 17.3462C11.3472 16.7818 11.3472 15.8666 11.9116 15.3021C12.4761 14.7377 13.391 14.7377 13.9557 15.3021L16.1018 17.4482C16.6662 18.0126 16.6662 18.9278 16.1018 19.4922C15.8194 19.7746 15.4497 19.9157 15.0797 19.9157Z" fill="#5B88D9"/>
<path d="M37 10.8357C36.2018 10.8357 35.5547 10.1886 35.5547 9.39038V6.35522C35.5547 5.55698 36.2018 4.90991 37 4.90991C37.7981 4.90991 38.4453 5.55698 38.4453 6.35522V9.39038C38.4453 10.1886 37.7981 10.8357 37 10.8357Z" fill="#5B88D9"/>
<path d="M37.0002 49.6685C36.5881 49.6685 36.1958 49.4927 35.9215 49.1852L29.7515 42.2673C29.3229 41.7868 29.2638 41.0807 29.6067 40.5358L35.7768 30.7256C36.0413 30.305 36.5034 30.0498 37.0003 30.0498C37.4972 30.0498 37.9593 30.305 38.2238 30.7256L44.3938 40.5358C44.7366 41.0809 44.6775 41.7869 44.249 42.2673L38.0789 49.1852C37.8045 49.4927 37.4122 49.6685 37.0002 49.6685ZM32.6323 41.1546L37.0002 46.0519L41.368 41.1546L37.0002 34.2098L32.6323 41.1546Z" fill="#5B88D9"/>
<path d="M67.8451 21.8891C67.3489 21.57 66.7086 21.5843 66.2275 21.9254L56.7811 28.6206L53.9244 22.2318C53.7519 21.8457 53.4187 21.5545 53.0129 21.4351C52.6069 21.3157 52.1695 21.3802 51.8151 21.6113L44.27 26.5352L38.2224 16.969C37.9576 16.55 37.4966 16.296 37.0008 16.296C36.5051 16.296 36.044 16.55 35.7793 16.969L29.7316 26.5352L22.1865 21.6113C21.8323 21.3801 21.3948 21.3159 20.9888 21.4351C20.583 21.5545 20.25 21.8456 20.0772 22.2318L17.2206 28.6206L7.77416 21.9254C7.29302 21.5841 6.6526 21.57 6.15657 21.8891C5.66039 22.2082 5.40804 22.7969 5.51904 23.3763L11.6433 55.367L12.3636 66.1748C12.4091 66.86 12.9309 67.4185 13.6113 67.5108C21.3714 68.5636 29.1862 69.09 37.0008 69.09C44.8155 69.09 52.6303 68.5636 60.3903 67.5108C61.0708 67.4185 61.5924 66.86 61.6381 66.1748L62.3584 55.3674L68.4826 23.3763C68.5936 22.7969 68.3413 22.2082 67.8451 21.8891ZM51.9767 24.9575L54.3765 30.3248L49.0517 34.0989L45.8148 28.9788L51.9767 24.9575ZM22.0249 24.9575L28.1869 28.9788L24.95 34.0989L19.6251 30.3248L22.0249 24.9575ZM59.6872 53.9468L57.5418 54.2063C49.8979 55.1307 32.4252 54.8125 24.7266 54.6966C24.2787 54.6666 22.6459 54.9222 23.3215 54.6117C22.5336 54.6117 23.5983 55.1203 23.5863 55.911C23.5743 56.7091 24.0419 57.5935 24.8401 57.6057C25.7059 57.6187 26.7666 57.6082 27.6339 57.6082C28.1022 57.6082 50.9756 57.9121 57.8886 57.0759L59.3594 56.8982L58.8326 64.801C44.3388 66.6657 29.6627 66.6657 15.169 64.801L14.6421 56.8982L16.1127 57.0759C17.7624 57.2754 23.185 57.4536 24.8401 57.6057C25.6335 57.6798 26.3385 57.0934 26.4115 56.2985C26.4845 55.5036 25.8993 54.8002 25.1043 54.7272C23.4766 54.5777 18.0821 54.4024 16.4598 54.2063L14.3143 53.9468L9.03346 26.3609L24.5217 37.3385C24.8452 37.5677 25.2484 37.6541 25.6379 37.5771C26.0269 37.5002 26.3672 37.2668 26.5791 36.9315L37.0008 20.4461L47.4225 36.9315C47.6344 37.2666 47.9747 37.5002 48.3637 37.5771C48.7528 37.6541 49.1562 37.5677 49.4799 37.3385L64.9682 26.3609L59.6872 53.9468Z" fill="#5B88D9"/>
</g>
<defs>
<clipPath id="clip0_1236_1597">
<rect width="74" height="74" fill="white"/>
</clipPath>
</defs>
</svg>
