<svg width="42" height="42" viewBox="0 0 42 42" fill="none" xmlns="http://www.w3.org/2000/svg">
<path fill-rule="evenodd" clip-rule="evenodd" d="M14.0604 14.9641C15.3746 15.4572 16.258 16.7318 16.258 18.1359V20.3225H0V18.1359C0 16.7318 0.883487 15.4572 2.19829 14.9641L5.41936 13.7565V13.1825C4.90667 12.7218 4.51172 12.1353 4.28483 11.4701C3.00835 11.2511 2.03227 10.1437 2.03227 8.80645V6.09682C2.03227 2.73545 4.76707 0 8.12905 0C11.491 0 14.2258 2.73545 14.2258 6.09682V8.80645C14.2258 10.1437 13.2497 11.2511 11.9733 11.4701C11.7463 12.136 11.3514 12.7225 10.8387 13.1825V13.7565L14.0604 14.9641ZM5.41936 10.1613C5.41936 11.6557 6.63463 12.871 8.12905 12.871C9.62347 12.871 10.8387 11.6557 10.8387 10.1613V7.40367C9.66613 7.29583 8.53755 6.92799 7.53892 6.2899L7.53362 6.2952C6.95975 6.86916 6.21322 7.24856 5.41936 7.38881V10.1613ZM12.1935 7.64046V9.97305C12.5968 9.73791 12.871 9.30629 12.871 8.80715C12.871 8.30801 12.5968 7.8757 12.1935 7.64046ZM12.871 6.09682C12.871 3.48207 10.7431 1.35482 8.12905 1.35482C5.51495 1.35482 3.38709 3.48207 3.38709 6.09682V6.47352C3.78734 6.24037 4.24612 6.09682 4.74195 6.09682C5.42466 6.09682 6.09282 5.81961 6.57575 5.33733L7.36561 4.54743L8.16906 5.08333C9.16334 5.74584 10.321 6.09682 11.5161 6.09682C12.012 6.09682 12.4707 6.24037 12.871 6.47352V6.09682ZM4.0645 7.63985C3.6613 7.875 3.38709 8.30732 3.38709 8.80645C3.38709 9.30559 3.6613 9.73791 4.0645 9.97245V7.63985ZM9.48386 13.9887C9.05915 14.1392 8.60468 14.2258 8.12905 14.2258C7.65337 14.2258 7.19889 14.1392 6.77418 13.9887V14.0002L8.12905 15.8069L9.48386 14.0002V13.9887ZM12.1935 18.9677H14.9032V18.1359C14.9032 17.293 14.3733 16.5289 13.5844 16.2336L10.3985 15.0388L8.12905 18.0648L5.85963 15.0388L2.67362 16.2329C1.88472 16.5289 1.35482 17.293 1.35482 18.1359V18.9677H4.0645V17.6129H5.41936V18.9677H10.8387V17.6129H12.1935V18.9677Z" fill="url(#paint0_linear_1227:3082)"/>
<path fill-rule="evenodd" clip-rule="evenodd" d="M41.2875 34.7624C41.265 34.8316 40.876 35.9498 39.8553 36.666C41.139 37.1741 42 38.4293 42 39.8133V42H25.742V39.8133C25.742 38.4326 26.5996 37.18 27.8784 36.67C26.8665 35.9555 26.4769 34.8322 26.4538 34.7631L26.3211 34.3654L26.6178 34.0694C27.3528 33.3345 27.7742 32.317 27.7742 31.2777V27.7742C27.7742 24.4122 30.509 21.6775 33.871 21.6775C37.2329 21.6775 39.9677 24.4122 39.9677 27.7742V31.2777C39.9677 32.317 40.3891 33.3345 41.1235 34.0688L41.4202 34.3648L41.2875 34.7624ZM36.5806 34.86V35.4338L37.8462 35.9079L37.8859 35.9052C38.9943 35.9039 39.587 35.1385 39.8444 34.6744C39.3634 34.0966 39.0131 33.4191 38.8114 32.6984C38.4895 32.924 38.1177 33.0784 37.7152 33.1476C37.4883 33.8134 37.0933 34.3999 36.5806 34.86ZM29.8944 35.9085L31.1613 35.4338V34.86C30.6486 34.3993 30.2537 33.8128 30.0267 33.1483C29.6242 33.0791 29.2517 32.9246 28.9306 32.6984C28.7288 33.4198 28.3779 34.0972 27.8969 34.6758C28.1509 35.1378 28.7334 35.9032 29.8065 35.9032L29.8944 35.9085ZM37.9355 29.3179V31.6505C38.3387 31.4154 38.6129 30.9837 38.6129 30.4845C38.6129 29.9854 38.3387 29.5531 37.9355 29.3179ZM31.1613 31.8387C31.1613 33.3331 32.3765 34.5484 33.871 34.5484C35.3654 34.5484 36.5806 33.3331 36.5806 31.8387V29.129H31.1613V31.8387ZM29.129 30.4839C29.129 30.983 29.4033 31.4154 29.8065 31.6505V29.3172C29.4033 29.5525 29.129 29.9848 29.129 30.4839ZM33.871 35.9032C33.3953 35.9032 32.9409 35.8172 32.5161 35.666V35.9032C32.5161 36.6504 33.1238 37.2581 33.871 37.2581C34.6182 37.2581 35.2258 36.6504 35.2258 35.9032V35.666C34.8011 35.8165 34.3466 35.9032 33.871 35.9032ZM38.6129 27.7742C38.6129 25.1601 36.4851 23.0323 33.871 23.0323C31.2569 23.0323 29.129 25.1601 29.129 27.7742V28.151C29.5293 27.9177 29.988 27.7742 30.4839 27.7742H37.258C37.7539 27.7742 38.2127 27.9177 38.6129 28.151V27.7742ZM37.9355 40.6452H40.6452V39.8133C40.6452 38.9705 40.1153 38.2057 39.3264 37.9103L37.6441 37.2799L37.6232 37.2812L37.6226 37.2716L36.4106 36.8172C36.0339 37.8611 35.0429 38.6129 33.871 38.6129C32.6991 38.6129 31.7081 37.8611 31.3306 36.8165L28.4156 37.9096C27.6267 38.2057 27.0968 38.9705 27.0968 39.8133V40.6452H29.8065V39.2904H31.1613V40.6452H36.5806V39.2904H37.9355V40.6452Z" fill="url(#paint1_linear_1227:3082)"/>
<path d="M39.2903 2.70964H25.742V4.06454H39.2903V2.70964Z" fill="url(#paint2_linear_1227:3082)"/>
<path d="M39.2903 5.41936H25.742V6.77418H39.2903V5.41936Z" fill="url(#paint3_linear_1227:3082)"/>
<path d="M39.2903 8.129H29.8065V9.48391H39.2903V8.129Z" fill="url(#paint4_linear_1227:3082)"/>
<path d="M25.742 9.48391H28.4516V8.129H25.742V9.48391Z" fill="url(#paint5_linear_1227:3082)"/>
<path d="M36.5806 10.8387H25.742V12.1935H36.5806V10.8387Z" fill="url(#paint6_linear_1227:3082)"/>
<path d="M39.2903 12.1935V10.8387H37.9355V12.1935H39.2903Z" fill="url(#paint7_linear_1227:3082)"/>
<path fill-rule="evenodd" clip-rule="evenodd" d="M24.2898 4.40075C24.2898 5.2586 23.5958 5.95404 22.7365 5.95404H21.9442V6.28756H22.8928C22.9734 6.28756 23.0388 6.3529 23.0388 6.43354V7.05903C23.0388 7.13967 22.9734 7.20502 22.8928 7.20502H21.9442V7.68452C21.9442 7.76516 21.8789 7.83051 21.7982 7.83051H21.1728C21.0922 7.83051 21.0268 7.76516 21.0268 7.68452V7.20502H20.7037C20.623 7.20502 20.5577 7.13967 20.5577 7.05903V6.43354C20.5577 6.3529 20.623 6.28756 20.7037 6.28756H21.0268V5.95404H20.7037C20.623 5.95404 20.5577 5.8887 20.5577 5.80806V5.18257C20.5577 5.10201 20.623 5.03658 20.7037 5.03658H21.0268V2.99345C21.0268 2.9128 21.0922 2.84746 21.1728 2.84746H22.7365C23.593 2.84746 24.2898 3.54429 24.2898 4.40075ZM22.7365 3.76492H21.9442V5.03658H22.7365C23.0871 5.03658 23.3723 4.75138 23.3723 4.40075C23.3723 4.05021 23.0871 3.76492 22.7365 3.76492Z" fill="url(#paint8_linear_1227:3082)"/>
<path fill-rule="evenodd" clip-rule="evenodd" d="M21 0H38.6129C40.4804 0 42 1.51958 42 3.38709V11.5161C42 13.3837 40.4804 14.9032 38.6129 14.9032H33.871V19.4318L25.5693 14.9032H21C19.1325 14.9032 17.6129 13.3837 17.6129 11.5161V3.38709C17.6129 1.51958 19.1325 0 21 0ZM38.6129 13.5484C39.7332 13.5484 40.6452 12.6365 40.6452 11.5161V3.38709C40.6452 2.26681 39.7332 1.35482 38.6129 1.35482H21C19.8797 1.35482 18.9677 2.26681 18.9677 3.38709V11.5161C18.9677 12.6365 19.8797 13.5484 21 13.5484H25.9146L32.5161 17.1488V13.5484H38.6129Z" fill="url(#paint9_linear_1227:3082)"/>
<path d="M2.70968 31.1613H4.0645V29.8065H2.70968V31.1613Z" fill="url(#paint10_linear_1227:3082)"/>
<path d="M5.41936 31.1613H6.77418V29.8065H5.41936V31.1613Z" fill="url(#paint11_linear_1227:3082)"/>
<path d="M8.12905 31.1613H21.6774V29.8065H8.12905V31.1613Z" fill="url(#paint12_linear_1227:3082)"/>
<path d="M2.70968 32.5161V33.871H21.6774V32.5161H2.70968Z" fill="url(#paint13_linear_1227:3082)"/>
<path d="M2.70968 36.5806H21.6774V35.2258H2.70968V36.5806Z" fill="url(#paint14_linear_1227:3082)"/>
<path d="M21.6774 37.9355H20.3226V39.2904H21.6774V37.9355Z" fill="url(#paint15_linear_1227:3082)"/>
<path d="M2.70968 37.9355V39.2904H18.9677V37.9355H2.70968Z" fill="url(#paint16_linear_1227:3082)"/>
<path fill-rule="evenodd" clip-rule="evenodd" d="M21 42H3.38709C1.51958 42 0 40.4804 0 38.6129V30.4839C0 28.6163 1.51958 27.0967 3.38709 27.0967H8.12905V22.5682L16.4307 27.0967H21C22.8675 27.0967 24.3871 28.6163 24.3871 30.4839V38.6129C24.3871 40.4804 22.8675 42 21 42ZM3.38709 28.4516C2.26677 28.4516 1.35482 29.3635 1.35482 30.4839V38.6129C1.35482 39.7332 2.26677 40.6452 3.38709 40.6452H21C22.1203 40.6452 23.0323 39.7332 23.0323 38.6129V30.4839C23.0323 29.3635 22.1203 28.4516 21 28.4516H16.0854L9.48386 24.8511V28.4516H3.38709Z" fill="url(#paint17_linear_1227:3082)"/>
<defs>
<linearGradient id="paint0_linear_1227:3082" x1="21" y1="0" x2="21" y2="42" gradientUnits="userSpaceOnUse">
<stop stop-color="#90CAD6"/>
<stop offset="1" stop-color="#3660AB"/>
</linearGradient>
<linearGradient id="paint1_linear_1227:3082" x1="21" y1="0" x2="21" y2="42" gradientUnits="userSpaceOnUse">
<stop stop-color="#90CAD6"/>
<stop offset="1" stop-color="#3660AB"/>
</linearGradient>
<linearGradient id="paint2_linear_1227:3082" x1="21" y1="0" x2="21" y2="42" gradientUnits="userSpaceOnUse">
<stop stop-color="#90CAD6"/>
<stop offset="1" stop-color="#3660AB"/>
</linearGradient>
<linearGradient id="paint3_linear_1227:3082" x1="21" y1="0" x2="21" y2="42" gradientUnits="userSpaceOnUse">
<stop stop-color="#90CAD6"/>
<stop offset="1" stop-color="#3660AB"/>
</linearGradient>
<linearGradient id="paint4_linear_1227:3082" x1="21" y1="0" x2="21" y2="42" gradientUnits="userSpaceOnUse">
<stop stop-color="#90CAD6"/>
<stop offset="1" stop-color="#3660AB"/>
</linearGradient>
<linearGradient id="paint5_linear_1227:3082" x1="21" y1="0" x2="21" y2="42" gradientUnits="userSpaceOnUse">
<stop stop-color="#90CAD6"/>
<stop offset="1" stop-color="#3660AB"/>
</linearGradient>
<linearGradient id="paint6_linear_1227:3082" x1="21" y1="0" x2="21" y2="42" gradientUnits="userSpaceOnUse">
<stop stop-color="#90CAD6"/>
<stop offset="1" stop-color="#3660AB"/>
</linearGradient>
<linearGradient id="paint7_linear_1227:3082" x1="21" y1="0" x2="21" y2="42" gradientUnits="userSpaceOnUse">
<stop stop-color="#90CAD6"/>
<stop offset="1" stop-color="#3660AB"/>
</linearGradient>
<linearGradient id="paint8_linear_1227:3082" x1="21" y1="0" x2="21" y2="42" gradientUnits="userSpaceOnUse">
<stop stop-color="#90CAD6"/>
<stop offset="1" stop-color="#3660AB"/>
</linearGradient>
<linearGradient id="paint9_linear_1227:3082" x1="21" y1="0" x2="21" y2="42" gradientUnits="userSpaceOnUse">
<stop stop-color="#90CAD6"/>
<stop offset="1" stop-color="#3660AB"/>
</linearGradient>
<linearGradient id="paint10_linear_1227:3082" x1="21" y1="0" x2="21" y2="42" gradientUnits="userSpaceOnUse">
<stop stop-color="#90CAD6"/>
<stop offset="1" stop-color="#3660AB"/>
</linearGradient>
<linearGradient id="paint11_linear_1227:3082" x1="21" y1="0" x2="21" y2="42" gradientUnits="userSpaceOnUse">
<stop stop-color="#90CAD6"/>
<stop offset="1" stop-color="#3660AB"/>
</linearGradient>
<linearGradient id="paint12_linear_1227:3082" x1="21" y1="0" x2="21" y2="42" gradientUnits="userSpaceOnUse">
<stop stop-color="#90CAD6"/>
<stop offset="1" stop-color="#3660AB"/>
</linearGradient>
<linearGradient id="paint13_linear_1227:3082" x1="21" y1="0" x2="21" y2="42" gradientUnits="userSpaceOnUse">
<stop stop-color="#90CAD6"/>
<stop offset="1" stop-color="#3660AB"/>
</linearGradient>
<linearGradient id="paint14_linear_1227:3082" x1="21" y1="0" x2="21" y2="42" gradientUnits="userSpaceOnUse">
<stop stop-color="#90CAD6"/>
<stop offset="1" stop-color="#3660AB"/>
</linearGradient>
<linearGradient id="paint15_linear_1227:3082" x1="21" y1="0" x2="21" y2="42" gradientUnits="userSpaceOnUse">
<stop stop-color="#90CAD6"/>
<stop offset="1" stop-color="#3660AB"/>
</linearGradient>
<linearGradient id="paint16_linear_1227:3082" x1="21" y1="0" x2="21" y2="42" gradientUnits="userSpaceOnUse">
<stop stop-color="#90CAD6"/>
<stop offset="1" stop-color="#3660AB"/>
</linearGradient>
<linearGradient id="paint17_linear_1227:3082" x1="21" y1="0" x2="21" y2="42" gradientUnits="userSpaceOnUse">
<stop stop-color="#90CAD6"/>
<stop offset="1" stop-color="#3660AB"/>
</linearGradient>
</defs>
</svg>
