<svg width="43" height="42" viewBox="0 0 43 42" fill="none" xmlns="http://www.w3.org/2000/svg">
<g clip-path="url(#clip0_1227:3065)">
<path d="M1.77643 24.8581C1.0539 25.5799 0.656209 26.5407 0.656209 27.5625C0.656209 28.5842 1.0539 29.545 1.77643 30.2669L11.7331 40.2235C12.4549 40.946 13.4157 41.3437 14.4375 41.3437C15.4592 41.3437 16.42 40.946 17.1419 40.2235L40.2235 17.1419C40.946 16.42 41.3437 15.4592 41.3437 14.4375C41.3437 13.4157 40.946 12.4549 40.2235 11.7331L30.2669 1.77643C29.545 1.0539 28.5842 0.656209 27.5625 0.656209C26.5407 0.656209 25.5799 1.0539 24.8581 1.77643L19.6875 6.94702L13.125 0.384521L0.384521 13.125L6.94702 19.6875L1.77643 24.8581ZM16.2139 39.2956C15.265 40.2445 13.6099 40.2445 12.661 39.2956L2.70437 29.3389C2.2299 28.8645 1.96871 28.2332 1.96871 27.5625C1.96871 26.8918 2.2299 26.2605 2.70437 25.786L3.93746 24.5529L17.447 38.0625L16.2139 39.2956ZM29.3389 2.70437L39.2956 12.661C39.77 13.1355 40.0312 13.7668 40.0312 14.4375C40.0312 15.0701 39.7917 15.6627 39.3671 16.1266L34.9584 11.718L32.9896 12.3742L29.6257 9.01027L30.282 7.04152L25.8739 2.63349C26.834 1.76396 28.4169 1.78233 29.3389 2.70437ZM24.9375 3.5529L28.7805 7.3959L28.1242 9.36465L32.6353 13.8757L34.604 13.2195L38.447 17.0625L18.375 37.1345L4.8654 23.625L7.87496 20.6154L8.91577 21.6562L6.94702 23.625L18.375 35.0529L35.0529 18.375L23.625 6.94702L21.6562 8.91577L20.6154 7.87496L24.9375 3.5529ZM15.75 28.4904L28.4904 15.75L22.5841 9.84371L23.625 8.8029L33.197 18.375L18.375 33.197L8.8029 23.625L9.84371 22.5842L15.75 28.4904ZM25.7985 16.586L16.4062 25.9783V17.5251L25.7985 16.586ZM26.1194 15.2348L14.4959 16.397C13.4157 16.5027 12.4687 15.6397 12.4687 14.5621C12.4687 14.5011 12.472 14.4401 12.4779 14.3791L13.6401 2.75621L26.1194 15.2348ZM11.3498 12.4687H2.89665L12.2889 3.07646L11.3498 12.4687ZM11.2186 13.7812L11.172 14.2478C11.1615 14.3521 11.1562 14.4571 11.1562 14.5621C11.1562 16.3025 12.5724 17.7187 14.3128 17.7187C14.4178 17.7187 14.5228 17.7135 14.6271 17.703L15.0937 17.6564V25.9783L2.89665 13.7812H11.2186ZM7.68268 30.3797L11.6202 34.3172L10.6922 35.2452L6.75474 31.3077L7.68268 30.3797Z" fill="url(#paint0_linear_1227:3065)"/>
</g>
<defs>
<linearGradient id="paint0_linear_1227:3065" x1="20.8641" y1="41.3437" x2="20.8641" y2="0.384521" gradientUnits="userSpaceOnUse">
<stop stop-color="#3660AB"/>
<stop offset="1" stop-color="#8EC7D5"/>
</linearGradient>
<clipPath id="clip0_1227:3065">
<rect width="42" height="42" fill="white" transform="translate(0.229492)"/>
</clipPath>
</defs>
</svg>
