<svg width="44" height="44" viewBox="0 0 44 44" fill="none" xmlns="http://www.w3.org/2000/svg">
<path d="M29.3333 36.6668H14.6667C13.208 36.6668 11.809 36.0873 10.7776 35.0558C9.74613 34.0244 9.16667 32.6254 9.16667 31.1668V12.8334C9.16667 12.3472 8.97351 11.8809 8.6297 11.5371C8.28588 11.1932 7.81956 11.0001 7.33333 11.0001C6.8471 11.0001 6.38079 11.1932 6.03697 11.5371C5.69315 11.8809 5.5 12.3472 5.5 12.8334V31.1668C5.5 33.5979 6.46577 35.9295 8.18485 37.6486C9.90394 39.3677 12.2355 40.3334 14.6667 40.3334H29.3333C29.8196 40.3334 30.2859 40.1403 30.6297 39.7965C30.9735 39.4526 31.1667 38.9863 31.1667 38.5001C31.1667 38.0139 30.9735 37.5475 30.6297 37.2037C30.2859 36.8599 29.8196 36.6668 29.3333 36.6668ZM38.5 16.3901C38.4809 16.2217 38.444 16.0557 38.39 15.8951V15.7301C38.3019 15.5416 38.1843 15.3683 38.0417 15.2168L27.0417 4.21675C26.8901 4.07414 26.7168 3.95656 26.5283 3.86841H26.3633L25.7767 3.66675H18.3333C16.8746 3.66675 15.4757 4.24621 14.4442 5.27766C13.4128 6.30911 12.8333 7.70806 12.8333 9.16675V27.5001C12.8333 28.9588 13.4128 30.3577 14.4442 31.3892C15.4757 32.4206 16.8746 33.0001 18.3333 33.0001H33C34.4587 33.0001 35.8576 32.4206 36.8891 31.3892C37.9205 30.3577 38.5 28.9588 38.5 27.5001V16.5001C38.5 16.5001 38.5 16.5001 38.5 16.3901ZM27.5 9.91842L32.2483 14.6667H29.3333C28.8471 14.6667 28.3808 14.4736 28.037 14.1298C27.6932 13.786 27.5 13.3196 27.5 12.8334V9.91842ZM34.8333 27.5001C34.8333 27.9863 34.6402 28.4526 34.2964 28.7964C33.9525 29.1403 33.4862 29.3334 33 29.3334H18.3333C17.8471 29.3334 17.3808 29.1403 17.037 28.7964C16.6932 28.4526 16.5 27.9863 16.5 27.5001V9.16675C16.5 8.68052 16.6932 8.2142 17.037 7.87039C17.3808 7.52657 17.8471 7.33342 18.3333 7.33342H23.8333V12.8334C23.8333 14.2921 24.4128 15.6911 25.4442 16.7225C26.4757 17.754 27.8746 18.3334 29.3333 18.3334H34.8333V27.5001Z" fill="white"/>
</svg>
