<svg width="24" height="24" viewBox="0 0 24 24" fill="none" xmlns="http://www.w3.org/2000/svg">
<path d="M6.06756 10.9395C6.18906 10.671 6.45606 10.5 6.75006 10.5H9.75006V0.75C9.75006 0.336 10.0861 0 10.5001 0H13.5001C13.9141 0 14.2501 0.336 14.2501 0.75V10.5H17.2501C17.5441 10.5 17.8111 10.6725 17.9326 10.9395C18.0555 11.208 18.0076 11.5215 17.8141 11.7435L12.5641 17.7435C12.4216 17.907 12.2161 18 12.0001 18C11.7841 18 11.5786 17.9055 11.4361 17.7435L6.18606 11.7435C5.99106 11.523 5.94606 11.208 6.06756 10.9395Z" fill="white"/>
<path d="M3.75 16.5V21H20.25V16.5H23.25V22.5C23.25 23.3295 22.578 24 21.75 24H2.25C1.4205 24 0.75 23.3295 0.75 22.5V16.5H3.75Z" fill="white"/>
</svg>
