<svg width="43" height="42" viewBox="0 0 43 42" fill="none" xmlns="http://www.w3.org/2000/svg">
<g clip-path="url(#clip0_1227:3093)">
<path d="M35.9032 12.1935H30.4839V16.2581H35.9032V12.1935ZM34.5484 14.9032H31.8387V13.5484H34.5484V14.9032ZM38.6129 17.6129V10.7141C39.3994 10.4336 39.9677 9.68845 39.9677 8.80645V7.45161L37.7621 0H20.496L18.3188 7.25719L18.2903 8.80645C18.2903 9.68845 18.8587 10.4336 19.6452 10.7141V17.6129H13.755C15.6748 16.2635 16.9355 14.0361 16.9355 11.5161C16.9355 7.40758 13.5924 4.06452 9.48387 4.06452C5.37532 4.06452 2.03226 7.40758 2.03226 11.5161C2.03226 14.0361 3.29293 16.2635 5.21274 17.6129H3.3871C1.51945 17.6129 0 19.1324 0 21V38.6129C0 40.4805 1.51945 42 3.3871 42H38.6129C40.4805 42 42 40.4805 42 38.6129V21C42 19.1324 40.4805 17.6129 38.6129 17.6129ZM37.9355 9.48387H33.871C33.497 9.48387 33.1935 9.17971 33.1935 8.80645V8.12903H38.6129V8.80645C38.6129 9.17971 38.3094 9.48387 37.9355 9.48387ZM31.8387 8.80645C31.8387 9.17971 31.5352 9.48387 31.1613 9.48387H27.0968C26.7228 9.48387 26.4194 9.17971 26.4194 8.80645V8.12903H31.8387V8.80645ZM25.0645 8.80645C25.0645 9.17971 24.761 9.48387 24.3871 9.48387H20.3226C19.9486 9.48387 19.6452 9.17971 19.6452 8.80645V8.12903H25.0645V8.80645ZM26.4905 6.77419L27.0324 1.35484H31.2256L31.7703 6.77419H26.4905ZM38.3799 6.77419H33.1292L32.5873 1.35484H36.7541L38.3799 6.77419ZM21.504 1.35484H25.6708L25.1316 6.77419H19.8782L21.504 1.35484ZM21 10.8387H24.3871C24.9094 10.8387 25.3815 10.6348 25.7419 10.3103C26.1023 10.6355 26.5745 10.8387 27.0968 10.8387H31.1613C31.6836 10.8387 32.1557 10.6348 32.5161 10.3103C32.8765 10.6355 33.3487 10.8387 33.871 10.8387H37.2581V17.6129H29.129V12.1935H22.3548V17.6129H21V10.8387ZM27.7742 17.6129H23.7097V13.5484H27.7742V17.6129ZM3.3871 11.5161C3.3871 8.15477 6.12184 5.41935 9.48387 5.41935C12.8459 5.41935 15.5806 8.15477 15.5806 11.5161C15.5806 14.8775 12.8459 17.6129 9.48387 17.6129C6.12184 17.6129 3.3871 14.8775 3.3871 11.5161ZM40.6452 38.6129C40.6452 39.7334 39.7334 40.6452 38.6129 40.6452H3.3871C2.26664 40.6452 1.35484 39.7334 1.35484 38.6129V21C1.35484 19.8795 2.26664 18.9677 3.3871 18.9677H38.6129C39.7334 18.9677 40.6452 19.8795 40.6452 21V38.6129ZM35.2258 20.3226H6.77419C6.027 20.3226 5.41935 20.9302 5.41935 21.6774V37.9355C5.41935 38.6827 6.027 39.2903 6.77419 39.2903H35.2258C35.973 39.2903 36.5806 38.6827 36.5806 37.9355V21.6774C36.5806 20.9302 35.973 20.3226 35.2258 20.3226ZM35.2258 37.9355H6.77419V21.6774L35.2258 21.6767V37.9355ZM37.9355 26.4194H39.2903V33.1935H37.9355V26.4194ZM2.70968 31.8387H4.06452V33.1935H2.70968V31.8387ZM2.70968 26.4194H4.06452V30.4839H2.70968V26.4194ZM10.1613 27.0968H12.6705L13.4664 32.6665C12.7213 32.968 12.1935 33.6969 12.1935 34.5484C12.1935 35.6688 13.1054 36.5806 14.2258 36.5806C15.3463 36.5806 16.2581 35.6688 16.2581 34.5484C16.2581 34.3099 16.2093 34.0837 16.1334 33.871H20.4479C20.3714 34.0837 20.3226 34.3099 20.3226 34.5484C20.3226 35.6688 21.2344 36.5806 22.3548 36.5806C23.4753 36.5806 24.3871 35.6688 24.3871 34.5484C24.3871 33.7301 23.898 33.0269 23.1989 32.7051L24.3614 28.6372L24.3871 27.0968H14.0395L13.7083 24.7766C13.5653 23.7822 12.7009 23.0323 11.6963 23.0323H10.1613C9.04084 23.0323 8.12903 23.9441 8.12903 25.0645C8.12903 26.185 9.04084 27.0968 10.1613 27.0968ZM14.9032 34.5484C14.9032 34.9223 14.5997 35.2258 14.2258 35.2258C13.8519 35.2258 13.5484 34.9223 13.5484 34.5484C13.5484 34.1744 13.8519 33.871 14.2258 33.871C14.5997 33.871 14.9032 34.1744 14.9032 34.5484ZM22.3548 35.2258C21.9809 35.2258 21.6774 34.9223 21.6774 34.5484C21.6774 34.1744 21.9809 33.871 22.3548 33.871C22.7288 33.871 23.0323 34.1744 23.0323 34.5484C23.0323 34.9223 22.7288 35.2258 22.3548 35.2258ZM23.0052 28.4516L21.8434 32.5161H14.8131L14.2326 28.4516H23.0052ZM10.1613 24.3871H11.6963C12.031 24.3871 12.3195 24.6371 12.3663 24.9683L12.4767 25.7419H10.1613C9.78735 25.7419 9.48387 25.4384 9.48387 25.0645C9.48387 24.6906 9.78735 24.3871 10.1613 24.3871ZM33.871 23.0323H25.7419V31.1613H33.871V23.0323ZM32.5161 29.8064H27.0968V24.3871H32.5161V29.8064Z" fill="url(#paint0_linear_1227:3093)"/>
<path d="M10.0314 12.5191C11.1202 12.5191 11.9995 11.6379 11.9995 10.551C11.9995 9.46573 11.1166 8.58284 10.0314 8.58284H8.05012C7.94796 8.58284 7.86514 8.66566 7.86514 8.76781V11.3566H7.45573C7.35357 11.3566 7.27075 11.4395 7.27075 11.5416V12.3341C7.27075 12.4363 7.35357 12.5191 7.45573 12.5191H7.86514V12.9417H7.45573C7.35357 12.9417 7.27075 13.0245 7.27075 13.1266V13.9192C7.27075 14.0213 7.35357 14.1041 7.45573 14.1041H7.86514V14.7117C7.86514 14.8138 7.94796 14.8966 8.05012 14.8966H8.84263C8.94479 14.8966 9.02761 14.8138 9.02761 14.7117V14.1041H10.2295C10.3317 14.1041 10.4145 14.0213 10.4145 13.9192V13.1266C10.4145 13.0245 10.3317 12.9417 10.2295 12.9417H9.0276V12.5191H10.0314ZM9.0276 9.74531H10.0314C10.4756 9.74531 10.8371 10.1067 10.8371 10.551C10.8371 10.9952 10.4756 11.3566 10.0314 11.3566H9.0276V9.74531Z" fill="url(#paint1_linear_1227:3093)"/>
</g>
<defs>
<linearGradient id="paint0_linear_1227:3093" x1="9.63515" y1="4.58409" x2="9.63515" y2="41.8356" gradientUnits="userSpaceOnUse">
<stop stop-color="#90CAD6"/>
<stop offset="1" stop-color="#3660AB"/>
</linearGradient>
<linearGradient id="paint1_linear_1227:3093" x1="9.63515" y1="4.58409" x2="9.63515" y2="41.8356" gradientUnits="userSpaceOnUse">
<stop stop-color="#90CAD6"/>
<stop offset="1" stop-color="#3660AB"/>
</linearGradient>
<clipPath id="clip0_1227:3093">
<rect width="42" height="42" fill="white" transform="translate(0.229492)"/>
</clipPath>
</defs>
</svg>
