<svg width="43" height="42" viewBox="0 0 43 42" fill="none" xmlns="http://www.w3.org/2000/svg">
<g clip-path="url(#clip0_1227:3085)">
<path fill-rule="evenodd" clip-rule="evenodd" d="M11.1393 11.5661C11.1393 12.7465 10.1843 13.7036 9.00181 13.7036H7.91159V14.1625H9.21695C9.32792 14.1625 9.41785 14.2524 9.41785 14.3634V15.2241C9.41785 15.335 9.32792 15.425 9.21695 15.425H7.91162V16.0848C7.91162 16.1957 7.82166 16.2857 7.71073 16.2857H6.85C6.73907 16.2857 6.64911 16.1957 6.64911 16.0848V15.425H6.20448C6.09351 15.425 6.00358 15.335 6.00358 15.2241V14.3634C6.00358 14.2524 6.09351 14.1625 6.20448 14.1625H6.64911V13.7036H6.20448C6.09351 13.7036 6.00358 13.6136 6.00358 13.5027V12.6419C6.00358 12.531 6.09351 12.441 6.20448 12.441H6.64911V9.62946C6.64911 9.51855 6.73907 9.42857 6.85 9.42857H9.00181C10.1804 9.42857 11.1393 10.3874 11.1393 11.5661ZM9.00178 10.6911H7.91159V12.441H9.00178C9.48424 12.441 9.87679 12.0485 9.87679 11.5661C9.87679 11.0836 9.48424 10.6911 9.00178 10.6911Z" fill="url(#paint0_linear_1227:3085)"/>
<path fill-rule="evenodd" clip-rule="evenodd" d="M25.6551 28.197C25.6551 30.0414 24.1629 31.5368 22.3153 31.5368H20.6119V32.2539H22.6515C22.8249 32.2539 22.9654 32.3944 22.9654 32.5678V33.9127C22.9654 34.086 22.8249 34.2266 22.6515 34.2266H20.6119V35.2575C20.6119 35.4309 20.4713 35.5714 20.298 35.5714H18.9531C18.7798 35.5714 18.6392 35.4309 18.6392 35.2575V34.2266H17.9445C17.7711 34.2266 17.6306 34.0861 17.6306 33.9127V32.5678C17.6306 32.3945 17.7711 32.2539 17.9445 32.2539H18.6392V31.5368H17.9445C17.7711 31.5368 17.6306 31.3963 17.6306 31.2229V29.8781C17.6306 29.7047 17.7711 29.5642 17.9445 29.5642H18.6392V25.171C18.6392 24.9977 18.7798 24.8571 18.9531 24.8571H22.3153C24.1569 24.8571 25.6551 26.3554 25.6551 28.197ZM22.3153 26.8298H20.6119V29.5642H22.3153C23.0691 29.5642 23.6825 28.9509 23.6825 28.197C23.6825 27.4431 23.0691 26.8298 22.3153 26.8298Z" fill="url(#paint1_linear_1227:3085)"/>
<path fill-rule="evenodd" clip-rule="evenodd" d="M34.2875 13.7036C35.47 13.7036 36.425 12.7465 36.425 11.5661C36.425 10.3874 35.4661 9.42857 34.2875 9.42857H32.1357C32.0248 9.42857 31.9348 9.51855 31.9348 9.62946V12.441H31.4902C31.3792 12.441 31.2893 12.531 31.2893 12.6419V13.5027C31.2893 13.6136 31.3792 13.7036 31.4902 13.7036H31.9348V14.1625H31.4902C31.3792 14.1625 31.2893 14.2524 31.2893 14.3634V15.2241C31.2893 15.335 31.3792 15.425 31.4902 15.425H31.9348V16.0848C31.9348 16.1957 32.0248 16.2857 32.1357 16.2857H32.9964C33.1074 16.2857 33.1973 16.1957 33.1973 16.0848V15.425H34.5027C34.6136 15.425 34.7036 15.335 34.7036 15.2241V14.3634C34.7036 14.2524 34.6136 14.1625 34.5027 14.1625H33.1973V13.7036H34.2875ZM33.1973 10.6911H34.2875C34.77 10.6911 35.1625 11.0836 35.1625 11.5661C35.1625 12.0485 34.77 12.441 34.2875 12.441H33.1973V10.6911Z" fill="url(#paint2_linear_1227:3085)"/>
<path fill-rule="evenodd" clip-rule="evenodd" d="M33.1935 21.6774C38.0493 21.6774 42 17.7267 42 12.871C42 8.01521 38.0493 4.06452 33.1935 4.06452C28.5661 4.06452 24.7698 7.65412 24.4216 12.1936H21.6774V5.4194H25.0645C27.6793 5.4194 29.8065 3.29161 29.8065 0.677386V0H25.0645C23.3384 0 21.8298 0.930071 21 2.31205C20.1702 0.930071 18.6616 0 16.9355 0H12.1935V0.677386C12.1935 3.29161 14.3207 5.4194 16.9355 5.4194H20.3226V12.1936H17.5784C17.2302 7.65412 13.4339 4.06452 8.80646 4.06452C3.95071 4.06452 0 8.01521 0 12.871C0 17.7267 3.95071 21.6774 8.80646 21.6774C11.0826 21.6774 13.2659 20.7758 14.9032 19.1988V20.7249C11.5507 22.8229 9.48387 26.5264 9.48387 30.4839C9.48387 36.834 14.6499 42 21 42C27.3501 42 32.5161 36.834 32.5161 30.4839C32.5161 26.5264 30.4493 22.8236 27.0968 20.7249V19.1988C28.7341 20.7758 30.9174 21.6774 33.1935 21.6774ZM25.0645 4.06452H21.7458C22.0602 2.52068 23.4286 1.35488 25.0645 1.35488H28.3832C28.0689 2.89872 26.7005 4.06452 25.0645 4.06452ZM16.9355 1.35488C18.5714 1.35488 19.9398 2.52068 20.2542 4.06452H16.9355C15.2995 4.06452 13.9311 2.89872 13.6168 1.35488H16.9355ZM27.0968 16.2581V17.6129H14.9032V16.2581H27.0968ZM25.7419 13.5483V14.9032H16.2581V13.5483H25.7419ZM13.5484 18.5945C12.2186 19.698 10.5447 20.3226 8.80646 20.3226C4.69791 20.3226 1.35485 16.9795 1.35485 12.871C1.35485 8.76238 4.69791 5.4194 8.80646 5.4194C12.6867 5.4194 15.8801 8.4014 16.2235 12.1936H14.9032V14.9032H13.5484V18.5945ZM25.7419 21.4972L26.08 21.693C29.2137 23.5092 31.1613 26.8773 31.1613 30.4839C31.1613 36.0868 26.6029 40.6451 21 40.6451C15.3971 40.6451 10.8387 36.0868 10.8387 30.4839C10.8387 26.8773 12.7863 23.5092 15.92 21.693L16.2581 21.4972V18.9677H25.7419V21.4972ZM33.1935 5.4194C37.3021 5.4194 40.6452 8.76238 40.6452 12.871C40.6452 16.9795 37.3021 20.3226 33.1935 20.3226C31.4553 20.3226 29.7814 19.698 28.4516 18.5945V14.9032H27.0968V12.1936H25.7765C26.1199 8.4014 29.3133 5.4194 33.1935 5.4194Z" fill="url(#paint3_linear_1227:3085)"/>
</g>
<defs>
<linearGradient id="paint0_linear_1227:3085" x1="21" y1="0" x2="21" y2="42" gradientUnits="userSpaceOnUse">
<stop stop-color="#90CAD6"/>
<stop offset="1" stop-color="#3660AB"/>
</linearGradient>
<linearGradient id="paint1_linear_1227:3085" x1="21" y1="0" x2="21" y2="42" gradientUnits="userSpaceOnUse">
<stop stop-color="#90CAD6"/>
<stop offset="1" stop-color="#3660AB"/>
</linearGradient>
<linearGradient id="paint2_linear_1227:3085" x1="21" y1="0" x2="21" y2="42" gradientUnits="userSpaceOnUse">
<stop stop-color="#90CAD6"/>
<stop offset="1" stop-color="#3660AB"/>
</linearGradient>
<linearGradient id="paint3_linear_1227:3085" x1="21" y1="0" x2="21" y2="42" gradientUnits="userSpaceOnUse">
<stop stop-color="#90CAD6"/>
<stop offset="1" stop-color="#3660AB"/>
</linearGradient>
<clipPath id="clip0_1227:3085">
<rect width="42" height="42" fill="white" transform="translate(0.229492)"/>
</clipPath>
</defs>
</svg>
