<svg width="53" height="55" viewBox="0 0 53 55" fill="none" xmlns="http://www.w3.org/2000/svg">
<path d="M52.2029 0.568463C52.0493 0.38479 51.8439 0.251702 51.6135 0.186587C51.3831 0.121472 51.1384 0.127356 50.9115 0.20347L5.804 15.2851C5.6003 15.3531 5.41882 15.4749 5.2788 15.6378C5.13879 15.8006 5.04546 15.9983 5.00874 16.2099C4.97201 16.4214 4.99325 16.639 5.0702 16.8395C5.14715 17.04 5.27694 17.2159 5.4458 17.3486L16.9883 26.4183V34.9341C16.9881 35.1569 17.0506 35.3752 17.1685 35.5642C17.2864 35.7532 17.4551 35.9053 17.6552 36.0031C17.8554 36.1008 18.079 36.1404 18.3006 36.1173C18.5221 36.0941 18.7327 36.0092 18.9084 35.8721L23.989 31.9177L31.2297 37.6074C31.3656 37.7141 31.5231 37.7899 31.6913 37.8296C31.8594 37.8693 32.0342 37.8719 32.2035 37.8372C32.3728 37.8025 32.5324 37.7314 32.6715 37.6288C32.8105 37.5262 32.9255 37.3946 33.0085 37.243L52.334 1.89929C52.448 1.68985 52.4964 1.451 52.473 1.21371C52.4496 0.976419 52.3555 0.751624 52.2029 0.568463ZM44.5543 4.83826L18.1995 24.3446L8.65121 16.8415L44.5543 4.83826ZM19.3672 32.5015V28.2875L22.0614 30.4047L19.3672 32.5015ZM31.5961 34.8703L20.1386 25.8685L47.6537 5.50299L31.5961 34.8703Z" fill="#5B88D9"/>
<path d="M2.89094 49.6134C2.59043 49.5174 2.26415 49.5447 1.98376 49.6893C1.70338 49.8338 1.49184 50.0837 1.39562 50.3841C1.09248 51.3316 0.808375 52.341 0.552813 53.3843C0.477642 53.6907 0.527287 54.0145 0.690826 54.2843C0.854365 54.5542 1.1184 54.748 1.42485 54.8232C1.7313 54.8983 2.05506 54.8487 2.32491 54.6852C2.59475 54.5216 2.78858 54.2576 2.86375 53.9511C3.10708 52.9608 3.37555 52.0045 3.6617 51.1087C3.70938 50.9599 3.72726 50.8032 3.71433 50.6475C3.70139 50.4917 3.65788 50.3401 3.58629 50.2012C3.51471 50.0624 3.41645 49.939 3.29713 49.8381C3.17782 49.7372 3.03979 49.6609 2.89094 49.6134Z" fill="#5B88D9"/>
<path d="M14.693 38.3028C13.1896 37.861 11.5805 37.9444 10.1309 38.5393C10.4986 36.9351 11.1884 35.4224 12.1584 34.0928C12.3455 33.8444 12.4278 33.5325 12.3877 33.2241C12.3477 32.9157 12.1884 32.6353 11.9441 32.4429C11.6998 32.2505 11.3898 32.1614 11.0806 32.1947C10.7715 32.2281 10.4876 32.3812 10.2899 32.6213C10.154 32.7939 7.61265 36.0693 7.57594 40.053C5.76005 41.6172 4.29428 43.5466 3.2742 45.7154C3.20378 45.8549 3.16151 46.0069 3.14982 46.1627C3.13813 46.3185 3.15724 46.4751 3.20606 46.6235C3.25488 46.7719 3.33245 46.9092 3.43435 47.0277C3.53625 47.1461 3.66048 47.2433 3.79994 47.3137C3.93941 47.3842 4.09138 47.4264 4.24718 47.4381C4.40298 47.4498 4.55955 47.4307 4.70797 47.3819C5.0077 47.2833 5.256 47.0697 5.39822 46.788C6.0819 45.3788 6.96303 44.0742 8.01502 42.9138C8.06804 43.0728 8.12627 43.2314 8.1897 43.3896C8.62355 44.6018 9.4463 45.6365 10.5297 46.3322C11.6131 47.028 12.8962 47.3457 14.1791 47.2359C15.2207 47.1148 16.1882 46.637 16.9176 45.8836C17.6469 45.1302 18.0931 44.1477 18.1804 43.1027C18.4577 40.9964 17.0236 39.0212 14.693 38.3028ZM15.8219 42.7928C15.7981 43.3135 15.59 43.8089 15.2349 44.1905C14.8797 44.572 14.4005 44.815 13.8828 44.876C13.1219 44.9208 12.3676 44.7127 11.7374 44.284C11.1072 43.8553 10.6365 43.2301 10.3987 42.506C10.2361 42.1001 10.118 41.6778 10.0466 41.2465C10.6205 40.8644 11.2683 40.607 11.9479 40.491C12.6276 40.375 13.324 40.4029 13.9922 40.5729C15.1925 40.9461 15.9449 41.8589 15.8219 42.7928Z" fill="#5B88D9"/>
</svg>
