<svg width="23" height="22" viewBox="0 0 23 22" fill="none" xmlns="http://www.w3.org/2000/svg">
<path d="M0.99707 19.8039C0.99707 20.9085 1.8925 21.8039 2.99707 21.8039H20.5071C21.6116 21.8039 22.5071 20.9085 22.5071 19.8039V2.29394C22.5071 1.18938 21.6116 0.293945 20.5071 0.293945H2.99707C1.8925 0.293945 0.99707 1.18938 0.99707 2.29395V19.8039Z" fill="#5B88D9"/>
<path d="M11.7834 5.62157C12.6562 5.62157 13.3661 6.34053 13.3661 7.2244C13.3661 8.10754 12.656 8.82649 11.7834 8.82649C10.9112 8.82649 10.2011 8.10754 10.2011 7.2244C10.2009 6.34035 10.9114 5.62157 11.7834 5.62157ZM11.7834 11.0942C13.8916 11.0942 15.606 9.35848 15.606 7.2244C15.606 5.08921 13.8918 3.35278 11.7834 3.35278C9.67545 3.35278 7.96085 5.0894 7.96085 7.2244C7.96085 9.35848 9.67545 11.0942 11.7834 11.0942ZM13.3299 14.2518C14.1162 14.0705 14.8667 13.7558 15.5495 13.3211C15.8008 13.1609 15.9791 12.9062 16.045 12.6129C16.1109 12.3197 16.0591 12.0119 15.901 11.7574C15.8227 11.6312 15.7207 11.5219 15.6008 11.4356C15.4808 11.3494 15.3452 11.288 15.2018 11.2549C15.0584 11.2218 14.9099 11.2176 14.7649 11.2427C14.6199 11.2677 14.4812 11.3215 14.3567 11.4008C12.7907 12.3979 10.7751 12.3972 9.21034 11.4008C9.08588 11.3214 8.94718 11.2677 8.80218 11.2426C8.65718 11.2176 8.50872 11.2217 8.36531 11.2548C8.22189 11.2879 8.08633 11.3494 7.96638 11.4356C7.84643 11.5218 7.74445 11.6312 7.66627 11.7574C7.50808 12.0119 7.45618 12.3196 7.52199 12.6128C7.5878 12.9061 7.76593 13.1608 8.01721 13.3211C8.69994 13.7556 9.45023 14.0703 10.2364 14.2518L8.09954 16.4163C7.88954 16.6291 7.7716 16.9176 7.77165 17.2184C7.7717 17.5192 7.88975 17.8077 8.09982 18.0203C8.30989 18.233 8.59477 18.3525 8.89181 18.3524C9.18884 18.3524 9.47369 18.2328 9.68368 18.0201L11.7831 15.8936L13.8837 18.0202C13.9876 18.1256 14.1109 18.2092 14.2467 18.2662C14.3825 18.3232 14.5281 18.3525 14.6751 18.3525C14.8221 18.3525 14.9676 18.3232 15.1034 18.2662C15.2392 18.2092 15.3625 18.1256 15.4664 18.0202C15.5706 17.9151 15.6532 17.7901 15.7096 17.6525C15.766 17.5149 15.795 17.3674 15.795 17.2185C15.795 17.0695 15.766 16.922 15.7096 16.7844C15.6532 16.6468 15.5706 16.5219 15.4664 16.4167L13.3299 14.2518Z" fill="white"/>
</svg>
