<svg width="23" height="22" viewBox="0 0 23 22" fill="none" xmlns="http://www.w3.org/2000/svg">
<path fill-rule="evenodd" clip-rule="evenodd" d="M22.1555 2.2494C22.1555 1.16999 21.3804 0.293945 20.4254 0.293945H2.37566C1.42062 0.293945 0.645508 1.16999 0.645508 2.2494V19.8485C0.645508 20.9279 1.42062 21.8039 2.37566 21.8039H20.4254C21.3804 21.8039 22.1555 20.9279 22.1555 19.8485V2.2494Z" fill="#5B88D9"/>
<path d="M13.4886 10.9754C13.4886 12.11 12.5548 13.033 11.4069 13.033C10.2591 13.033 9.32532 12.11 9.32532 10.9754C9.32532 9.84086 10.2591 8.91786 11.4069 8.91786C12.5548 8.91786 13.4886 9.84086 13.4886 10.9754ZM11.4069 4.13477C7.59072 4.13477 4.48633 7.20329 4.48633 10.9754C4.48633 14.7476 7.59072 17.8161 11.4069 17.8161C12.7982 17.8182 14.1574 17.4033 15.3052 16.6263L15.325 16.6126L14.3927 15.5416L14.3769 15.5514C13.4914 16.1152 12.4602 16.4146 11.4069 16.4138C8.37324 16.4138 5.90505 13.9741 5.90505 10.9754C5.90505 7.97678 8.37324 5.5371 11.4069 5.5371C14.4406 5.5371 16.9088 7.97678 16.9088 10.9754C16.9088 11.3639 16.8648 11.7572 16.7793 12.1442C16.6053 12.8503 16.105 13.0662 15.7299 13.0379C15.3522 13.0076 14.9103 12.7418 14.9073 12.091V10.9754C14.9073 9.06738 13.3373 7.51552 11.4069 7.51552C9.47658 7.51552 7.90659 9.06738 7.90659 10.9754C7.90659 12.8835 9.47658 14.4353 11.4069 14.4353C11.8682 14.4366 12.3251 14.3469 12.751 14.1715C13.1768 13.9962 13.563 13.7387 13.887 13.4141C14.075 13.7056 14.3292 13.9497 14.6294 14.127C14.9295 14.3044 15.2674 14.4101 15.6162 14.4358C16.1855 14.4793 16.7513 14.3154 17.2069 13.9751C17.6217 13.6633 17.9316 13.2133 18.1026 12.6724C18.1298 12.5849 18.1802 12.3851 18.1802 12.3836L18.1817 12.3763C18.2826 11.9424 18.3276 11.51 18.3276 10.9754C18.3276 7.20329 15.2232 4.13477 11.4069 4.13477Z" fill="white"/>
</svg>
