<svg width="27" height="27" viewBox="0 0 27 27" fill="none" xmlns="http://www.w3.org/2000/svg">
<path d="M25.2795 0H1.7243C0.771646 0 0 0.771646 0 1.72239V25.2776C0 26.2284 0.771646 27 1.7243 27H25.2776C26.2284 27 27 26.2284 27 25.2776V1.72239C27.0019 0.769741 26.2303 0 25.2795 0ZM22.3968 16.4523C22.8903 16.9553 23.961 17.7993 23.7667 18.6586C23.5876 19.4474 22.4101 19.1597 21.267 19.2054C19.9618 19.2607 19.1883 19.2893 18.4033 18.6586C18.0337 18.3595 17.8165 18.0051 17.4621 17.6088C17.1401 17.2506 16.7342 16.6085 16.1817 16.6333C15.189 16.6828 15.4996 18.0661 15.1471 19.0092C9.62938 19.878 7.41352 16.4694 5.45868 13.1618C4.51175 11.5595 3.14374 8.11848 3.14374 8.11848L7.0458 8.10515C7.0458 8.10515 8.29758 10.382 8.6291 10.9688C8.91109 11.468 9.22165 11.8643 9.54174 12.3101C9.81039 12.6798 10.2353 13.4038 10.7002 13.3447C11.4566 13.2475 11.5937 10.3134 11.125 9.33025C10.9383 8.93204 10.4906 8.79296 10.0276 8.65768C10.1838 7.67074 14.4041 7.46496 15.0862 8.2309C16.0769 9.34359 14.4003 12.4416 15.7568 13.3447C17.6621 12.3463 19.2893 8.16611 19.2893 8.16611L23.8582 8.19469C23.8582 8.19469 23.1437 10.4544 22.3949 11.4566C21.9586 12.0434 20.5106 13.3504 20.5677 14.3202C20.6134 15.0881 21.7909 15.8349 22.3968 16.4523Z" fill="#060C1C"/>
</svg>
