<svg width="22" height="22" viewBox="0 0 22 22" fill="none" xmlns="http://www.w3.org/2000/svg">
<rect x="0.408203" y="0.174805" width="21.5" height="21.5" rx="2" fill="#5B88D9"/>
<path d="M18.3931 9.94536C18.3651 9.79309 18.2835 9.6553 18.1625 9.55607C18.0416 9.45684 17.889 9.40246 17.7314 9.40242H11.3975C11.3092 9.4024 11.2217 9.41946 11.1401 9.45264C11.0585 9.48581 10.9844 9.53445 10.9219 9.59577C10.8595 9.65709 10.81 9.72989 10.7762 9.81001C10.7424 9.89013 10.725 9.976 10.725 10.0627V12.6169C10.725 12.7036 10.7424 12.7894 10.7762 12.8696C10.81 12.9497 10.8595 13.0225 10.9219 13.0838C10.9844 13.1451 11.0585 13.1938 11.1401 13.2269C11.2217 13.2601 11.3092 13.2772 11.3975 13.2772H14.0622C13.8724 13.5918 13.6121 13.86 13.3011 14.0613C12.7327 14.4151 12.0703 14.5955 11.3975 14.5797C10.6998 14.5719 10.0223 14.3483 9.46138 13.9408C8.90045 13.5333 8.4846 12.9626 8.27292 12.3097L8.27273 12.3086C8.03717 11.6308 8.03717 10.8953 8.27273 10.2175L8.27289 10.2164C8.48471 9.56367 8.90063 8.99311 9.46155 8.58573C10.0225 8.17835 10.6999 7.95488 11.3975 7.94706C11.7852 7.93832 12.1707 8.00486 12.5321 8.14285C12.8935 8.28084 13.2235 8.48756 13.5033 8.75115C13.6304 8.87037 13.7999 8.93604 13.9757 8.93412C14.1514 8.93219 14.3194 8.86282 14.4438 8.74084L16.3726 6.84699C16.4365 6.78433 16.4869 6.70967 16.5208 6.62746C16.5546 6.54525 16.5712 6.45718 16.5696 6.36852C16.568 6.27986 16.5483 6.19243 16.5115 6.11144C16.4747 6.03045 16.4217 5.95758 16.3555 5.89717C15.0133 4.66156 13.2373 3.98202 11.3975 4.00011C10.0256 3.99612 8.67978 4.36856 7.5119 5.07543C6.34402 5.78229 5.4005 6.79547 4.78774 8.0007L4.78675 8.00187C4.26726 9.01329 3.99774 10.1306 4.00001 11.2634C4.00165 12.3957 4.27098 13.5122 4.78679 14.5249L4.78778 14.526C5.40053 15.7313 6.34404 16.7445 7.51192 17.4513C8.6798 18.1582 10.0256 18.5306 11.3975 18.5266C13.2034 18.5715 14.9585 17.9368 16.3032 16.7524L16.3037 16.7521L16.3042 16.7515L16.3044 16.7515L16.3044 16.7514C17.0333 16.0629 17.6074 15.2324 17.9901 14.3131C18.3727 13.3939 18.5553 12.4063 18.5261 11.4136C18.5264 10.9213 18.4819 10.4299 18.3931 9.94536ZM11.3975 5.3207C12.6558 5.30868 13.8844 5.69611 14.9002 6.42528L13.9227 7.38479C13.1814 6.88102 12.299 6.61601 11.3975 6.62647C10.5745 6.63062 9.76754 6.85004 9.0596 7.26212C8.35165 7.67421 7.76835 8.26409 7.36971 8.97104L6.65066 8.42382L6.25725 8.12426C6.79846 7.26445 7.55517 6.55526 8.45509 6.06443C9.35501 5.57361 10.3681 5.31754 11.3975 5.3207ZM5.66744 13.1804C5.2375 11.9373 5.2375 10.5895 5.66744 9.34632L6.86599 10.2587C6.71275 10.9198 6.71275 11.6063 6.86599 12.2674L5.66744 13.1804ZM11.3975 17.206C10.3681 17.2092 9.35498 16.9531 8.45505 16.4623C7.55512 15.9714 6.79841 15.2622 6.2572 14.4024L6.51168 14.2086L7.36971 13.5551C7.76817 14.2622 8.35142 14.8523 9.05939 15.2645C9.76736 15.6767 10.5744 15.8962 11.3975 15.9003C12.168 15.9092 12.9297 15.7393 13.6206 15.4045L14.7583 16.2717C13.7577 16.9047 12.5875 17.23 11.3975 17.206ZM15.7862 15.3831L15.6631 15.2894L14.7368 14.5833C15.2225 14.0681 15.549 13.4279 15.6781 12.7375C15.6962 12.6422 15.6926 12.5441 15.6677 12.4503C15.6428 12.3565 15.5972 12.2692 15.5341 12.1947C15.4709 12.1201 15.3919 12.0601 15.3025 12.019C15.2131 11.9779 15.1155 11.9565 15.0168 11.9566H12.07V10.723H17.1466C17.1696 10.9513 17.1811 11.1821 17.1811 11.4136C17.2204 12.8589 16.7248 14.2692 15.7862 15.3831H15.7862Z" fill="white"/>
</svg>
