<svg width="20" height="18" viewBox="0 0 20 18" fill="none" xmlns="http://www.w3.org/2000/svg">
<path d="M9.57397 3.17955L9.99991 3.87257L10.4259 3.17958C11.2897 1.77437 12.8333 0.837402 14.599 0.837402C17.3057 0.837402 19.5 3.03157 19.5 5.73829C19.5 7.2109 18.8481 8.52872 17.8174 9.42783L17.8045 9.43903L17.7925 9.45108L10.1392 17.1046C10.1023 17.1416 10.0522 17.1623 9.99994 17.1623C9.94765 17.1623 9.89756 17.1416 9.86064 17.1046L2.2074 9.45108L2.19535 9.43903L2.18252 9.42784C1.15184 8.52873 0.5 7.21092 0.5 5.73829C0.5 3.03149 2.69365 0.837402 5.40032 0.837402C7.16602 0.837402 8.71035 1.77444 9.57397 3.17955Z" stroke="#0C1538"/>
</svg>
