<svg width="20" height="17" viewBox="0 0 20 17" fill="none" xmlns="http://www.w3.org/2000/svg">
<path fill-rule="evenodd" clip-rule="evenodd" d="M0.967742 0H19.0323C19.2889 0 19.5351 0.127933 19.7166 0.355656C19.898 0.583379 20 0.892237 20 1.21429V12.5476C20 12.8697 19.898 13.1785 19.7166 13.4062C19.5351 13.634 19.2889 13.7619 19.0323 13.7619H12.0894L12.4765 14.9762H13.2258C13.2935 14.9763 13.3594 15.003 13.4143 15.0527C13.4692 15.1024 13.5102 15.1725 13.5316 15.253L13.8542 16.4673C13.8703 16.5281 13.8747 16.5929 13.867 16.6563C13.8593 16.7196 13.8397 16.7798 13.8099 16.8318C13.78 16.8838 13.7407 16.9262 13.6953 16.9554C13.6498 16.9847 13.5995 17 13.5484 17H6.45161C6.40053 17 6.35018 16.9847 6.30472 16.9554C6.25926 16.9262 6.21998 16.8838 6.19012 16.8318C6.16026 16.7798 6.14067 16.7196 6.13297 16.6563C6.12526 16.5929 6.12966 16.5281 6.14581 16.4673L6.46839 15.253C6.48977 15.1725 6.53081 15.1024 6.58569 15.0527C6.64057 15.003 6.70652 14.9763 6.77419 14.9762H7.52355L7.91065 13.7619H0.967742C0.711081 13.7619 0.464932 13.634 0.283445 13.4062C0.101958 13.1785 0 12.8697 0 12.5476V1.21429C0 0.892237 0.101958 0.583379 0.283445 0.355656C0.464932 0.127933 0.711081 0 0.967742 0ZM8.21839 14.9762H11.7816L11.3945 13.7619H8.60548L8.21839 14.9762ZM19.2604 12.8338C19.3209 12.7579 19.3548 12.655 19.3548 12.5476V11.3333H0.645161V12.5476C0.645161 12.655 0.679147 12.7579 0.739643 12.8338C0.800139 12.9097 0.882188 12.9524 0.967742 12.9524H19.0323C19.1178 12.9524 19.1999 12.9097 19.2604 12.8338ZM19.1336 10.9287V1.21438C19.1331 0.999879 19.0931 1.04804 19.0323 0.88521C18.9415 0.642281 18.6163 0.662833 18.4454 0.662192H1.29032C1.11937 0.662833 0.979472 0.663357 1.29032 0.662192C0.858584 0.784686 0.832619 1.15521 0.832108 1.36971V10.9287H19.1336Z" fill="#0C1538"/>
<path fill-rule="evenodd" clip-rule="evenodd" d="M19.7883 11.5641L19.1336 10.9287H0.832108L0.457869 11.3333L0.322579 12.5477C0.32309 12.7622 0.391226 12.9677 0.512107 13.1194C0.632988 13.2711 0.79679 13.3566 0.967741 13.3572H8.38709L7.74193 15.381H12.2581L11.6129 13.3572H19.0323C19.2032 13.3566 19.367 13.2711 19.4879 13.1194C19.6088 12.9677 19.7878 11.7786 19.7883 11.5641ZM3.54838 12.5475H1.29032C1.20477 12.5475 1.12272 12.5048 1.06222 12.4289C1.00172 12.353 0.967738 12.2501 0.967738 12.1427C0.967738 12.0354 1.00172 11.9324 1.06222 11.8565C1.12272 11.7806 1.20477 11.7379 1.29032 11.7379H3.54838C3.63394 11.7379 3.71599 11.7806 3.77648 11.8565C3.83698 11.9324 3.87096 12.0354 3.87096 12.1427C3.87096 12.2501 3.83698 12.353 3.77648 12.4289C3.71599 12.5048 3.63394 12.5475 3.54838 12.5475ZM4.83871 12.5475H4.51613C4.43057 12.5475 4.34852 12.5048 4.28803 12.4289C4.22753 12.353 4.19355 12.2501 4.19355 12.1427C4.19355 12.0354 4.22753 11.9324 4.28803 11.8565C4.34852 11.7806 4.43057 11.7379 4.51613 11.7379H4.83871C4.92426 11.7379 5.00631 11.7806 5.06681 11.8565C5.1273 11.9324 5.16129 12.0354 5.16129 12.1427C5.16129 12.2501 5.1273 12.353 5.06681 12.4289C5.00631 12.5048 4.92426 12.5475 4.83871 12.5475Z" fill="#0C1538"/>
</svg>
