<?xml version="1.0" encoding="utf-8"?>
<!-- Generator: Adobe Illustrator 21.1.0, SVG Export Plug-In . SVG Version: 6.00 Build 0)  -->
<svg version="1.1" id="Слой_1" xmlns="http://www.w3.org/2000/svg" xmlns:xlink="http://www.w3.org/1999/xlink" x="0px" y="0px"
	 viewBox="0 0 30 30" style="enable-background:new 0 0 30 30;" xml:space="preserve">
<style type="text/css">
	.st0{fill:#FFFFFF;}
</style>
<path class="st0" d="M15,0C6.7,0,0,6.7,0,15c0,8.3,6.7,15,15,15c8.3,0,15-6.7,15-15C30,6.7,23.3,0,15,0z M11.7,15.9v3.9h-1.3H9.1
	v-3.9V12h1.3h1.3V15.9z M10.9,10.9c-0.4,0.1-0.9,0.1-1.2-0.1C9.3,10.6,9,10.1,9,9.6c0-0.4,0.1-0.7,0.4-0.9c0.2-0.2,0.4-0.3,0.7-0.4
	c0.1,0,0.2,0,0.3,0c0.8,0,1.4,0.5,1.5,1.3C11.9,10.2,11.6,10.7,10.9,10.9z M21,19.7h-1.3h-1.3l0-2.3c0-2.4,0-2.4-0.1-2.7
	c-0.2-0.5-0.5-0.8-0.9-0.8c-0.7-0.1-1.3,0.2-1.6,0.9c0,0.1-0.1,0.2-0.1,0.4c0,0.1,0,1.2,0,2.4v2.2h-1.3h-1.3v-3.9V12h1.3h1.3l0,0.5
	l0,0.5l0.1-0.1c0.5-0.7,1.1-1,2-1.1c0.2,0,0.6,0,0.8,0c0.4,0.1,0.8,0.2,1.1,0.4c0.1,0,0.2,0.2,0.4,0.3c0.4,0.4,0.6,0.8,0.8,1.5
	c0.1,0.5,0.1,0.6,0.1,3.2V19.7z"/>
</svg>
