<svg width="12" height="13" viewBox="0 0 12 13" fill="none" xmlns="http://www.w3.org/2000/svg">
<path d="M5.96969 5.06945C5.68483 5.06945 5.40636 5.15392 5.16951 5.31218C4.93266 5.47044 4.74805 5.69538 4.63904 5.95855C4.53003 6.22173 4.50151 6.51132 4.55708 6.79071C4.61266 7.0701 4.74983 7.32673 4.95125 7.52816C5.15268 7.72958 5.40932 7.86676 5.6887 7.92233C5.96809 7.9779 6.25768 7.94938 6.52086 7.84037C6.78403 7.73136 7.00897 7.54675 7.16723 7.3099C7.32549 7.07305 7.40997 6.79459 7.40997 6.50973C7.40997 6.32059 7.37271 6.1333 7.30033 5.95855C7.22795 5.78381 7.12186 5.62504 6.98812 5.49129C6.85437 5.35755 6.6956 5.25146 6.52086 5.17908C6.34611 5.1067 6.15883 5.06945 5.96969 5.06945ZM11.7366 3.64659C11.7336 3.1981 11.651 2.75372 11.4927 2.33408C11.3761 2.02701 11.1958 1.74815 10.9635 1.5159C10.7313 1.28365 10.4524 1.10329 10.1453 0.98672C9.7257 0.828442 9.28131 0.745857 8.83282 0.742801C8.08364 0.702148 7.86296 0.702148 5.96969 0.702148C4.07642 0.702148 3.85573 0.702148 3.10655 0.742801C2.65807 0.745857 2.21368 0.828442 1.79404 0.98672C1.48697 1.10329 1.20811 1.28365 0.975859 1.5159C0.743609 1.74815 0.563249 2.02701 0.446681 2.33408C0.288403 2.75372 0.205818 3.1981 0.202762 3.64659C0.162109 4.39577 0.162109 4.61646 0.162109 6.50973C0.162109 8.403 0.162109 8.62368 0.202762 9.37286C0.209014 9.82292 0.291487 10.2687 0.446681 10.6912C0.562732 10.9968 0.742942 11.2741 0.97517 11.5042C1.20642 11.7379 1.48588 11.9182 1.79404 12.0327C2.21368 12.191 2.65807 12.2736 3.10655 12.2766C3.85573 12.3173 4.07642 12.3173 5.96969 12.3173C7.86296 12.3173 8.08364 12.3173 8.83282 12.2766C9.28131 12.2736 9.7257 12.191 10.1453 12.0327C10.4535 11.9182 10.7329 11.7379 10.9642 11.5042C11.1964 11.2741 11.3766 10.9968 11.4927 10.6912C11.6508 10.2695 11.7334 9.82322 11.7366 9.37286C11.7773 8.62368 11.7773 8.403 11.7773 6.50973C11.7773 4.61646 11.7773 4.39577 11.7366 3.64659ZM10.2615 8.29265C10.2428 8.65104 10.1664 9.00405 10.035 9.33802C9.92225 9.6166 9.75464 9.86966 9.54213 10.0822C9.32962 10.2947 9.07656 10.4623 8.79798 10.575C8.46085 10.6991 8.10587 10.7677 7.7468 10.7783C7.28801 10.7783 7.16605 10.7783 5.96969 10.7783C4.77333 10.7783 4.65137 10.7783 4.19257 10.7783C3.8335 10.7677 3.47852 10.6991 3.1414 10.575C2.8534 10.468 2.59332 10.2973 2.3806 10.0756C2.17018 9.86723 2.00767 9.61554 1.90438 9.33802C1.77984 9.00124 1.71308 8.64585 1.70692 8.28684C1.70692 7.82805 1.70692 7.70609 1.70692 6.50973C1.70692 5.31336 1.70692 5.1914 1.70692 4.73261C1.71308 4.3736 1.77984 4.01821 1.90438 3.68144C2.01141 3.39344 2.18214 3.13336 2.40383 2.92064C2.6131 2.71135 2.86453 2.54901 3.1414 2.44442C3.47852 2.32037 3.8335 2.25173 4.19257 2.24116C4.65137 2.24116 4.77333 2.24116 5.96969 2.24116C7.16605 2.24116 7.28801 2.24116 7.7468 2.24116C8.10587 2.25173 8.46085 2.32037 8.79798 2.44442C9.08597 2.55144 9.34605 2.72218 9.55877 2.94387C9.7692 3.15222 9.93171 3.40391 10.035 3.68144C10.159 4.01856 10.2277 4.37354 10.2383 4.73261C10.2383 5.1914 10.2383 5.31336 10.2383 6.50973C10.2383 7.70609 10.2789 7.82805 10.2615 8.28684V8.29265ZM9.33227 3.97181C9.26313 3.78422 9.15411 3.61386 9.01273 3.47249C8.87136 3.33111 8.701 3.22209 8.5134 3.15295C8.25582 3.06366 7.98454 3.02041 7.71196 3.02518C7.25897 3.02518 7.1312 3.02518 5.96969 3.02518C4.80817 3.02518 4.6804 3.02518 4.22741 3.02518C3.95345 3.02786 3.68212 3.07898 3.42597 3.17618C3.24125 3.24218 3.07269 3.34675 2.9315 3.48293C2.79031 3.61911 2.67973 3.78379 2.6071 3.96601C2.52276 4.22466 2.48156 4.49542 2.48514 4.76745C2.48514 5.22044 2.48514 5.34821 2.48514 6.50973C2.48514 7.67124 2.48514 7.79901 2.48514 8.252C2.4909 8.52565 2.54192 8.79646 2.63614 9.05344C2.70528 9.24104 2.8143 9.4114 2.95568 9.55277C3.09705 9.69414 3.26741 9.80317 3.45501 9.87231C3.7028 9.96344 3.96355 10.0144 4.22741 10.0233C4.6804 10.0233 4.80817 10.0233 5.96969 10.0233C7.1312 10.0233 7.25897 10.0233 7.71196 10.0233C7.98592 10.0206 8.25725 9.96951 8.5134 9.87231C8.701 9.80317 8.87136 9.69414 9.01273 9.55277C9.15411 9.4114 9.26313 9.24104 9.33227 9.05344C9.42947 8.79729 9.48059 8.52596 9.48327 8.252C9.48327 7.79901 9.48327 7.67124 9.48327 6.50973C9.48327 5.34821 9.48327 5.22044 9.48327 4.76745C9.48344 4.49322 9.43222 4.22138 9.33227 3.96601V3.97181ZM5.96969 8.72822C5.67862 8.72822 5.39042 8.6708 5.12158 8.55923C4.85275 8.44767 4.60857 8.28417 4.40302 8.07809C4.19748 7.872 4.03462 7.62739 3.92376 7.35827C3.8129 7.08914 3.75624 6.80079 3.757 6.50973C3.757 6.0707 3.88726 5.64155 4.13129 5.27659C4.37532 4.91164 4.72214 4.62729 5.12786 4.45955C5.53358 4.29181 5.97994 4.24822 6.41044 4.33429C6.84094 4.42037 7.23623 4.63223 7.54626 4.94308C7.85629 5.25392 8.06712 5.64976 8.15207 6.08049C8.23701 6.51122 8.19225 6.95746 8.02344 7.36274C7.85464 7.76801 7.56939 8.11409 7.20379 8.35716C6.8382 8.60023 6.40871 8.72937 5.96969 8.72822ZM8.29272 4.7268C8.16434 4.71321 8.04553 4.65259 7.95918 4.55662C7.87283 4.46065 7.82505 4.33612 7.82505 4.20702C7.82505 4.07792 7.87283 3.95339 7.95918 3.85742C8.04553 3.76145 8.16434 3.70083 8.29272 3.68724C8.4211 3.70083 8.53991 3.76145 8.62626 3.85742C8.7126 3.95339 8.76038 4.07792 8.76038 4.20702C8.76038 4.33612 8.7126 4.46065 8.62626 4.55662C8.53991 4.65259 8.4211 4.71321 8.29272 4.7268Z" fill="#D5D6D8"/>
</svg>
