<svg width="31" height="31" viewBox="0 0 31 31" fill="none" xmlns="http://www.w3.org/2000/svg">
<path d="M5.29182 30.0832L23.8564 30.0833C24.8799 30.0829 25.8708 29.7238 26.6569 29.0683C27.4429 28.4128 27.9743 27.5025 28.1585 26.4958L30.0106 16.2874C30.126 15.6568 30.1014 15.0085 29.9385 14.3884C29.7756 13.7683 29.4784 13.1916 29.068 12.6991C28.6576 12.2066 28.1439 11.8103 27.5634 11.5383C26.9828 11.2663 26.3496 11.1251 25.7085 11.1249L19.0585 11.1249L19.8752 9.03951C20.2149 8.12642 20.328 7.14456 20.2048 6.17814C20.0817 5.21173 19.726 4.28961 19.1681 3.49088C18.6103 2.69216 17.8671 2.04067 17.0022 1.5923C16.1372 1.14393 15.1765 0.912064 14.2022 0.91659C13.9217 0.917176 13.6473 0.998658 13.4119 1.15127C13.1765 1.30388 12.9902 1.52114 12.8752 1.77701L8.71891 11.1249L5.29182 11.1249C4.1315 11.1249 3.0187 11.5859 2.19823 12.4063C1.37776 13.2268 0.916822 14.3396 0.916822 15.4999L0.916821 25.7083C0.916821 26.8686 1.37776 27.9814 2.19823 28.8018C3.0187 29.6223 4.1315 30.0832 5.29182 30.0832ZM11.1252 12.8895L15.0918 3.96451C15.4977 4.08731 15.8741 4.29191 16.1979 4.5657C16.5217 4.8395 16.786 5.17669 16.9746 5.5565C17.1631 5.93632 17.2719 6.35071 17.2942 6.77416C17.3165 7.19761 17.2519 7.62114 17.1043 8.01867L16.3314 10.1041C16.1667 10.5449 16.1111 11.019 16.1693 11.4859C16.2276 11.9528 16.3979 12.3988 16.6659 12.7856C16.9338 13.1724 17.2913 13.4887 17.7079 13.7074C18.1246 13.9261 18.5879 14.0408 19.0585 14.0416L25.7085 14.0416C25.9227 14.0412 26.1344 14.0881 26.3285 14.1788C26.5226 14.2696 26.6943 14.402 26.8314 14.5666C26.9719 14.7289 27.0748 14.9203 27.1328 15.127C27.1908 15.3337 27.2024 15.5507 27.1668 15.7624L25.3147 25.9708C25.2526 26.3105 25.0719 26.6171 24.8049 26.8361C24.5378 27.0551 24.2017 27.1722 23.8564 27.1666L11.1252 27.1666L11.1252 12.8895ZM3.83349 15.4999C3.83349 15.1131 3.98713 14.7422 4.26062 14.4687C4.53411 14.1952 4.90505 14.0416 5.29182 14.0416L8.20849 14.0416L8.20849 27.1666L5.29182 27.1666C4.90505 27.1666 4.53411 27.0129 4.26062 26.7394C3.98713 26.466 3.83349 26.095 3.83349 25.7083L3.83349 15.4999Z" fill="#DD8F53"/>
</svg>
