<svg width="45" height="55" viewBox="0 0 45 55" fill="none" xmlns="http://www.w3.org/2000/svg">
<path d="M2.64702 16.7498H10.5881C12.05 16.7498 13.2357 15.5411 13.2357 14.0499V12.7002C13.2357 11.9543 12.6426 11.3499 11.9119 11.3499C11.1812 11.3499 10.5881 11.9543 10.5881 12.7002V14.0499H2.64702V5.95H6.61786C7.34854 5.95 7.94107 5.34562 7.94107 4.60033C7.94107 3.85443 7.34854 3.25004 6.61786 3.25004H2.64702C1.18507 3.25004 0 4.45881 0 5.95V14.0499C0 15.5411 1.18507 16.7498 2.64702 16.7498Z" fill="#B3B8BE"/>
<path d="M2.64702 35.6502H10.5881C12.05 35.6502 13.2357 34.4414 13.2357 32.9502V24.8503C13.2357 23.3591 12.05 22.1497 10.5881 22.1497H2.64702C1.18507 22.1497 0 23.3591 0 24.8503V32.9502C0 34.4414 1.18507 35.6502 2.64702 35.6502ZM2.64702 24.8503H10.5881V32.9502H2.64702V24.8503Z" fill="#B3B8BE"/>
<path d="M2.64702 54.5499H10.5881C12.05 54.5499 13.2357 53.3411 13.2357 51.8499V43.75C13.2357 42.2589 12.05 41.0501 10.5881 41.0501H2.64702C1.18507 41.0501 0 42.2589 0 43.75V51.8499C0 53.3411 1.18507 54.5499 2.64702 54.5499ZM2.64702 43.75H10.5881V51.8499H2.64702V43.75Z" fill="#B3B8BE"/>
<path d="M18.5297 8.64997H37.7013C38.4326 8.64997 32.7246 8.04558 32.7246 7.3003C32.7246 6.5544 32.7623 5.95001 32.031 5.95001H18.5297C17.7985 5.95001 17.2059 6.5544 17.2059 7.3003C17.2059 8.04558 17.7985 8.64997 18.5297 8.64997Z" fill="#B3B8BE"/>
<path d="M30.4411 8.64997H43.6768C44.4075 8.64997 45 8.04558 45 7.3003C45 6.5544 44.4075 5.95001 43.6768 5.95001H30.4411C29.7104 5.95001 29.1178 6.5544 29.1178 7.3003C29.1178 8.04558 29.7104 8.64997 30.4411 8.64997Z" fill="#B3B8BE"/>
<path d="M18.5297 27.5503H36.8977C37.629 27.5503 32.3778 26.9459 32.3778 26.2C32.3778 25.4547 32.4155 24.8503 31.6842 24.8503H18.5297C17.7985 24.8503 17.2059 25.4547 17.2059 26.2C17.2059 26.9459 17.7985 27.5503 18.5297 27.5503Z" fill="#B3B8BE"/>
<path d="M43.6768 24.8503H30.4411C29.7104 24.8503 29.1178 25.4547 29.1178 26.2C29.1178 26.9459 29.7104 27.5503 30.4411 27.5503H43.6768C44.4075 27.5503 45 26.9459 45 26.2C45 25.4547 44.4075 24.8503 43.6768 24.8503Z" fill="#B3B8BE"/>
<path d="M18.5298 32.9502H31.7649C32.4956 32.9502 33.0887 32.3458 33.0887 31.5999C33.0887 30.8546 32.4956 30.2503 31.7649 30.2503H18.5298C17.7985 30.2503 17.206 30.8546 17.206 31.5999C17.206 32.3458 17.7985 32.9502 18.5298 32.9502Z" fill="#B3B8BE"/>
<path d="M18.5298 13.9969H31.7649C32.4956 13.9969 33.0887 13.3926 33.0887 12.6467C33.0887 11.9014 32.4956 11.297 31.7649 11.297H18.5298C17.7985 11.297 17.206 11.9014 17.206 12.6467C17.206 13.3926 17.7985 13.9969 18.5298 13.9969Z" fill="#B3B8BE"/>
<path d="M18.5297 46.45H31.8576C32.5889 46.45 38.3949 45.8456 38.3949 45.1003C38.3949 44.3544 34.3228 43.75 33.5915 43.75H18.5297C17.7985 43.75 17.2059 44.3544 17.2059 45.1003C17.2059 45.8456 17.7985 46.45 18.5297 46.45Z" fill="#B3B8BE"/>
<path d="M43.6768 43.75H30.4411C29.7104 43.75 29.1178 44.3544 29.1178 45.1003C29.1178 45.8456 29.7104 46.45 30.4411 46.45H43.6768C44.4075 46.45 45 45.8456 45 45.1003C45 44.3544 44.4075 43.75 43.6768 43.75Z" fill="#B3B8BE"/>
<path d="M18.5297 51.8499H31.7649C32.4955 51.8499 33.0887 51.2456 33.0887 50.5003C33.0887 49.7544 32.4955 49.15 31.7649 49.15H18.5297C17.7985 49.15 17.2059 49.7544 17.2059 50.5003C17.2059 51.2456 17.7985 51.8499 18.5297 51.8499Z" fill="#B3B8BE"/>
<path d="M6.23007 7.69579C5.71084 7.1841 4.88505 7.19152 4.3743 7.71186C3.86417 8.23281 3.8569 9.0745 4.35855 9.60473L7.00558 12.3047C7.25398 12.5574 7.59024 12.7002 7.94103 12.7002H8.0513C8.43905 12.6668 8.79288 12.4617 9.01887 12.1385L15.6361 2.68829C15.9112 2.29587 15.9597 1.78356 15.7634 1.3448C15.5677 0.905414 15.1569 0.606311 14.6861 0.559962C14.2154 0.513614 13.7561 0.727435 13.4817 1.11985L7.77321 9.27226L6.23007 7.69579Z" fill="#B3B8BE"/>
</svg>
