<svg width="15" height="19" viewBox="0 0 15 19" fill="none" xmlns="http://www.w3.org/2000/svg">
<path d="M6.52729 0.0600592C5.15425 0.271583 4.2562 1.06572 3.90366 2.3794C3.7144 3.07705 3.62163 4.23857 3.68471 5.0958C3.83315 7.14424 5.08374 8.81045 6.77964 9.22979C7.12475 9.31143 7.87436 9.31143 8.21948 9.22979C9.9228 8.81045 11.1697 7.14053 11.3144 5.08467C11.3738 4.2126 11.2847 3.07334 11.0955 2.3794C10.7392 1.05088 9.84116 0.267872 8.43843 0.0563483C7.98569 -0.0104486 6.9689 -0.0104486 6.52729 0.0600592Z" fill="#B3B8BE"/>
<path d="M5.05039 9.69341C3.18008 10.0942 2.23379 10.4801 1.54727 11.1295C0.65664 11.9756 0.3375 13.1668 0.278125 15.9018L0.255859 16.9038L0.452539 17.1227C1.20586 17.9577 2.74219 18.5737 4.77207 18.852C6.21933 19.0487 8.77988 19.0487 10.2271 18.852C12.257 18.5737 13.7934 17.9577 14.5467 17.1227L14.7434 16.9038L14.7211 15.8647C14.6914 14.4657 14.6061 13.6493 14.4168 12.8959C14.1199 11.701 13.5113 10.9625 12.3869 10.4282C11.7894 10.1424 10.7393 9.83071 9.85234 9.68227L9.58515 9.63403L9.40703 9.7936C9.17695 9.99399 8.63887 10.2575 8.2789 10.3428C7.89668 10.4319 7.10254 10.4319 6.72031 10.3428C6.36406 10.2575 5.82226 9.9977 5.59961 9.80102C5.41777 9.63774 5.3584 9.62661 5.05039 9.69341Z" fill="#B3B8BE"/>
</svg>
