<svg width="11" height="14" viewBox="0 0 11 14" fill="none" xmlns="http://www.w3.org/2000/svg">
<path d="M0 7C0 7.18565 0.072433 7.3637 0.201364 7.49497C0.330295 7.62625 0.505164 7.7 0.6875 7.7H5.90563L4.32438 9.303C4.25994 9.36807 4.20879 9.44549 4.17389 9.5308C4.13898 9.6161 4.12101 9.70759 4.12101 9.8C4.12101 9.89241 4.13898 9.9839 4.17389 10.0692C4.20879 10.1545 4.25994 10.2319 4.32438 10.297C4.38829 10.3626 4.46433 10.4147 4.5481 10.4502C4.63188 10.4858 4.72174 10.5041 4.8125 10.5041C4.90326 10.5041 4.99312 10.4858 5.0769 10.4502C5.16067 10.4147 5.23671 10.3626 5.30062 10.297L8.05062 7.497C8.11322 7.43043 8.16228 7.35193 8.195 7.266C8.26376 7.09558 8.26376 6.90442 8.195 6.734C8.16228 6.64807 8.11322 6.56957 8.05062 6.503L5.30062 3.703C5.23652 3.63773 5.16042 3.58596 5.07667 3.55064C4.99292 3.51532 4.90315 3.49714 4.8125 3.49714C4.72185 3.49714 4.63208 3.51532 4.54833 3.55064C4.46458 3.58596 4.38848 3.63773 4.32438 3.703C4.26027 3.76827 4.20943 3.84575 4.17473 3.93103C4.14004 4.0163 4.12219 4.1077 4.12219 4.2C4.12219 4.2923 4.14004 4.3837 4.17473 4.46897C4.20943 4.55425 4.26027 4.63173 4.32438 4.697L5.90563 6.3H0.6875C0.505164 6.3 0.330295 6.37375 0.201364 6.50503C0.072433 6.6363 0 6.81435 0 7ZM8.9375 0H2.0625C1.51549 0 0.990886 0.221249 0.604092 0.615076C0.217299 1.0089 0 1.54305 0 2.1V4.2C0 4.38565 0.072433 4.5637 0.201364 4.69497C0.330295 4.82625 0.505164 4.9 0.6875 4.9C0.869836 4.9 1.0447 4.82625 1.17364 4.69497C1.30257 4.5637 1.375 4.38565 1.375 4.2V2.1C1.375 1.91435 1.44743 1.7363 1.57636 1.60503C1.7053 1.47375 1.88016 1.4 2.0625 1.4H8.9375C9.11984 1.4 9.29471 1.47375 9.42364 1.60503C9.55257 1.7363 9.625 1.91435 9.625 2.1V11.9C9.625 12.0857 9.55257 12.2637 9.42364 12.395C9.29471 12.5263 9.11984 12.6 8.9375 12.6H2.0625C1.88016 12.6 1.7053 12.5263 1.57636 12.395C1.44743 12.2637 1.375 12.0857 1.375 11.9V9.8C1.375 9.61435 1.30257 9.4363 1.17364 9.30503C1.0447 9.17375 0.869836 9.1 0.6875 9.1C0.505164 9.1 0.330295 9.17375 0.201364 9.30503C0.072433 9.4363 0 9.61435 0 9.8V11.9C0 12.457 0.217299 12.9911 0.604092 13.3849C0.990886 13.7788 1.51549 14 2.0625 14H8.9375C9.48451 14 10.0091 13.7788 10.3959 13.3849C10.7827 12.9911 11 12.457 11 11.9V2.1C11 1.54305 10.7827 1.0089 10.3959 0.615076C10.0091 0.221249 9.48451 0 8.9375 0Z" fill="black"/>
</svg>
