<?xml version="1.0" encoding="utf-8"?>
<!-- Generator: Adobe Illustrator 23.1.0, SVG Export Plug-In . SVG Version: 6.00 Build 0)  -->
<svg version="1.1" id="Слой_1" xmlns="http://www.w3.org/2000/svg" xmlns:xlink="http://www.w3.org/1999/xlink" x="0px" y="0px"
	 viewBox="0 0 21.5 21.5" style="enable-background:new 0 0 21.5 21.5;" xml:space="preserve">
<style type="text/css">
	.st0{fill-rule:evenodd;clip-rule:evenodd;fill:#5B88D9;}
</style>
<g>
	<path class="st0" d="M10.8,8.6c-1.1,0-2.1,0.9-2.1,2.1c0,1.1,0.9,2.1,2.1,2.1c1.1,0,2.1-0.9,2.1-2.1C12.8,9.5,11.9,8.6,10.8,8.6z"
		/>
	<path class="st0" d="M19.8,0h-18C0.8,0,0,0.9,0,2v17.6c0,1.1,0.8,2,1.7,2h18c1,0,1.7-0.9,1.7-2V2C21.5,0.9,20.7,0,19.8,0z
		 M17.5,12.1L17.5,12.1c0,0-0.1,0.2-0.1,0.3c-0.2,0.5-0.5,1-0.9,1.3c-0.5,0.3-1,0.5-1.6,0.5c-0.3,0-0.7-0.1-1-0.3
		c-0.3-0.2-0.6-0.4-0.7-0.7c-0.3,0.3-0.7,0.6-1.1,0.8c-0.4,0.2-0.9,0.3-1.3,0.3c-1.9,0-3.5-1.6-3.5-3.5c0-1.9,1.6-3.5,3.5-3.5
		s3.5,1.6,3.5,3.5v1.1c0,0.7,0.4,0.9,0.8,0.9c0.4,0,0.9-0.2,1-0.9c0.1-0.4,0.1-0.8,0.1-1.2c0-3-2.5-5.4-5.5-5.4s-5.5,2.4-5.5,5.4
		c0,3,2.5,5.4,5.5,5.4c1.1,0,2.1-0.3,3-0.9l0,0l0.9,1.1l0,0c-1.1,0.8-2.5,1.2-3.9,1.2c-3.8,0-6.9-3.1-6.9-6.8c0-3.8,3.1-6.8,6.9-6.8
		c3.8,0,6.9,3.1,6.9,6.8C17.7,11.2,17.6,11.6,17.5,12.1z"/>
</g>
</svg>
