<svg width="42" height="42" viewBox="0 0 42 42" fill="none" xmlns="http://www.w3.org/2000/svg">
<path d="M3.51074 26.9062V32.1562C3.51074 32.8801 4.0994 33.4688 4.82324 33.4688H6.13574C6.85959 33.4688 7.44824 32.8801 7.44824 32.1562V26.9062C7.44824 26.1824 6.85959 25.5938 6.13574 25.5938H4.82324C4.0994 25.5938 3.51074 26.1824 3.51074 26.9062ZM4.82324 26.9062H6.13574L6.1364 32.1562H4.82324V26.9062ZM38.9482 26.9062H37.6357V25.5938H38.9482V26.9062ZM38.9482 33.4688H37.6357V28.2188H38.9482V33.4688ZM10.0732 38.7188H35.0107C35.7346 38.7188 36.3232 38.1301 36.3232 37.4062V21.6562C36.3232 20.9324 35.7346 20.3438 35.0107 20.3438H10.0732C9.3494 20.3438 8.76074 20.9324 8.76074 21.6562V37.4062C8.76074 38.1301 9.3494 38.7188 10.0732 38.7188ZM10.0732 21.6562H35.0107L35.0114 37.4062H10.0732V21.6562ZM25.5299 23.0377C23.9037 23.8514 22.0826 24.2812 20.2635 24.2812H19.2607C17.4515 24.2812 15.9795 25.7532 15.9795 27.5625C15.9795 29.1467 17.1089 30.4723 18.6045 30.7775V34.5096C18.6045 35.383 19.3152 36.0938 20.1887 36.0938H22.2703C23.1438 36.0938 23.8545 35.383 23.8545 34.5096C23.8545 34.0863 23.6898 33.6886 23.3905 33.3893L22.6214 32.6202C22.5709 32.5697 22.542 32.4995 22.542 32.4279V31.0728C23.5776 31.2775 24.5869 31.6155 25.5299 32.0873L25.6684 32.1562H29.1045V22.9688H25.6684L25.5299 23.0377ZM17.292 27.5625C17.292 26.4771 18.1753 25.5938 19.2607 25.5938H20.2635C21.9382 25.5938 23.6136 25.263 25.167 24.6363V30.4887C23.6136 29.862 21.9382 29.5312 20.2635 29.5312H19.2607C18.1753 29.5312 17.292 28.6479 17.292 27.5625ZM21.6935 33.5482L22.4626 34.3173C22.5131 34.3678 22.542 34.438 22.542 34.5096C22.542 34.6592 22.4199 34.7812 22.2703 34.7812H20.1887C20.0391 34.7812 19.917 34.6592 19.917 34.5096V30.8438H20.2635C20.5857 30.8438 20.9079 30.8621 21.2295 30.889V32.4279C21.2295 32.8512 21.3942 33.2489 21.6935 33.5482ZM27.792 30.8438H26.4795V24.2812H27.792V30.8438ZM24.5107 8.53125H27.1692C27.5019 12.2049 30.5955 15.0938 34.3545 15.0938C38.3346 15.0938 41.5732 11.8552 41.5732 7.875C41.5732 3.89484 38.3346 0.65625 34.3545 0.65625C30.5955 0.65625 27.5019 3.54506 27.1692 7.21875H24.5107C23.4253 7.21875 22.542 8.10206 22.542 9.1875V17.7188H19.917V17.0625C19.917 15.9771 19.0337 15.0938 17.9482 15.0938H10.7295C10.3679 15.0938 10.0732 14.7991 10.0732 14.4375V13.7812H15.3232V11.8125C15.3232 9.33975 13.7942 7.22006 11.6331 6.34134C12.2835 5.74153 12.6982 4.88972 12.6982 3.9375C12.6982 2.12822 11.2263 0.65625 9.41699 0.65625C7.60771 0.65625 6.13574 2.12822 6.13574 3.9375C6.13574 4.88972 6.55049 5.74153 7.20084 6.34134C5.03981 7.22006 3.51074 9.33975 3.51074 11.8125V13.7812H8.76074V14.4375C8.76074 15.5229 9.64405 16.4062 10.7295 16.4062H17.9482C18.3098 16.4062 18.6045 16.7009 18.6045 17.0625V17.7188H4.16699C2.35771 17.7188 0.885742 19.1907 0.885742 21V38.0625C0.885742 39.8718 2.35771 41.3438 4.16699 41.3438H38.292C40.1013 41.3438 41.5732 39.8718 41.5732 38.0625V21C41.5732 19.1907 40.1013 17.7188 38.292 17.7188H23.8545V9.1875C23.8545 8.82591 24.1491 8.53125 24.5107 8.53125ZM34.3545 1.96875C37.6108 1.96875 40.2607 4.61869 40.2607 7.875C40.2607 11.1313 37.6108 13.7812 34.3545 13.7812C31.0982 13.7812 28.4482 11.1313 28.4482 7.875C28.4482 4.61869 31.0982 1.96875 34.3545 1.96875ZM7.44824 3.9375C7.44824 2.85206 8.33155 1.96875 9.41699 1.96875C10.5024 1.96875 11.3857 2.85206 11.3857 3.9375C11.3857 5.02294 10.5024 5.90625 9.41699 5.90625C8.33155 5.90625 7.44824 5.02294 7.44824 3.9375ZM4.82324 11.8125C4.82324 9.27938 6.88387 7.21875 9.41699 7.21875C11.9501 7.21875 14.0107 9.27938 14.0107 11.8125V12.4688H4.82324V11.8125ZM40.2607 21V38.0625C40.2607 39.1479 39.3774 40.0312 38.292 40.0312H4.16699C3.08155 40.0312 2.19824 39.1479 2.19824 38.0625V21C2.19824 19.9146 3.08155 19.0312 4.16699 19.0312H38.292C39.3774 19.0312 40.2607 19.9146 40.2607 21Z" fill="url(#paint0_linear_1227:3058)"/>
<path d="M34.8761 8.85628C35.901 8.85628 36.7288 8.02678 36.7288 7.00361C36.7288 5.98204 35.8977 5.15094 34.8761 5.15094H33.011C32.9149 5.15094 32.8369 5.2289 32.8369 5.32507V7.76201H32.4515C32.3554 7.76201 32.2774 7.83997 32.2774 7.93613V8.68216C32.2774 8.77832 32.3554 8.85628 32.4515 8.85628H32.8369V9.25406H32.4515C32.3554 9.25406 32.2774 9.33202 32.2774 9.42818V10.1742C32.2774 10.2704 32.3554 10.3483 32.4515 10.3483H32.8369V10.9202C32.8369 11.0164 32.9149 11.0943 33.011 11.0943H33.7571C33.8532 11.0943 33.9312 11.0164 33.9312 10.9202V10.3483H35.0626C35.1588 10.3483 35.2367 10.2704 35.2367 10.1742V9.42817C35.2367 9.33201 35.1588 9.25405 35.0626 9.25405H33.9312V8.85628H34.8761ZM33.9312 6.24521H34.8761C35.2943 6.24521 35.6345 6.58544 35.6345 7.00361C35.6345 7.42178 35.2943 7.76201 34.8761 7.76201H33.9312V6.24521Z" fill="url(#paint1_linear_1227:3058)"/>
<defs>
<linearGradient id="paint0_linear_1227:3058" x1="21.2295" y1="0.65625" x2="21.2295" y2="41.3438" gradientUnits="userSpaceOnUse">
<stop stop-color="#90CAD6"/>
<stop offset="1" stop-color="#3660AB"/>
</linearGradient>
<linearGradient id="paint1_linear_1227:3058" x1="21.2295" y1="0.65625" x2="21.2295" y2="41.3438" gradientUnits="userSpaceOnUse">
<stop stop-color="#90CAD6"/>
<stop offset="1" stop-color="#3660AB"/>
</linearGradient>
</defs>
</svg>
