<svg width="40" height="40" viewBox="0 0 40 40" fill="none" xmlns="http://www.w3.org/2000/svg">
<path d="M37.0744 18.019L37.9957 16.4505L34.668 13.0842L33.1176 14.0168C32.9201 13.9242 32.7202 13.8398 32.5221 13.7648L32.078 11.9991H30.3481V3.80704C30.3481 2.06969 28.9509 0.65625 27.2336 0.65625H3.56281C1.84544 0.65625 0.448242 2.06969 0.448242 3.80704V9.47846H5.43156V25.8626H3.56281C1.84544 25.8626 0.448242 27.276 0.448242 29.0133C0.448242 30.7507 1.84544 32.1641 3.56281 32.1641H5.43156V36.5752C5.43156 38.3126 6.82876 39.726 8.54613 39.726H32.2169C33.9343 39.726 35.3315 38.3126 35.3315 36.5752V33.4244H30.3481V30.9038H32.078L32.5221 29.1381C32.7202 29.0631 32.9201 28.9793 33.1176 28.886L34.668 29.8187L37.9957 26.4524L37.0744 24.8839C37.1659 24.6842 37.2494 24.4825 37.3235 24.2815L39.0689 23.8316V19.0707L37.3235 18.6214C37.2494 18.4204 37.1659 18.2194 37.0744 18.019ZM1.69407 8.21814V3.80704C1.69407 2.76476 2.53251 1.91657 3.56281 1.91657C4.59311 1.91657 5.43156 2.76476 5.43156 3.80704V8.21814H1.69407ZM5.43156 29.6435H16.644V30.9038H5.43156V29.6435ZM17.8898 27.5123L20.1685 28.6649C20.2999 28.7317 20.3815 28.8646 20.3815 29.0133C20.3815 29.1621 20.2999 29.295 20.1685 29.3618L17.8898 30.5144V27.5123ZM16.644 28.3832H5.43156V27.1229H16.644V28.3832ZM1.69407 29.0133C1.69407 27.9711 2.53251 27.1229 3.56281 27.1229H4.18573V30.9038H3.56281C2.53251 30.9038 1.69407 30.0556 1.69407 29.0133ZM34.0856 36.5752C34.0856 37.6175 33.2472 38.4657 32.2169 38.4657H11.0365C11.4284 37.9389 11.6607 37.2842 11.6607 36.5752V34.6848H34.0856V36.5752ZM29.1023 33.4244H10.4149V36.5752C10.4149 37.6175 9.57643 38.4657 8.54613 38.4657C7.51583 38.4657 6.67739 37.6175 6.67739 36.5752V32.1641H17.4139L20.7254 30.4892C21.2816 30.2081 21.6273 29.6422 21.6273 29.0133C21.6273 28.3844 21.2816 27.8186 20.726 27.5375L17.4139 25.8626H6.67739V3.80704C6.67739 3.09496 6.43383 2.44464 6.03828 1.91657H27.2336C28.2639 1.91657 29.1023 2.76476 29.1023 3.80704V11.9991H27.3725L26.9283 13.7648C26.7302 13.8398 26.5303 13.9236 26.3328 14.0168L24.7824 13.0842L21.4548 16.4505L22.3761 18.019C22.2845 18.2194 22.201 18.4204 22.1269 18.622L20.3815 19.0713V23.8322L22.1269 24.2815C22.201 24.4825 22.2845 24.6842 22.3761 24.8839L21.4548 26.4524L24.7824 29.8187L26.3328 28.886C26.5303 28.9787 26.7302 29.0631 26.9283 29.1381L27.3725 30.9038H29.1023V33.4244ZM37.8231 22.8523L36.3568 23.2298L36.2521 23.5625C36.1406 23.9147 35.993 24.2714 35.8136 24.623L35.6541 24.9337L36.4303 26.2545L34.4725 28.2351L33.1674 27.4499L32.861 27.61C32.5121 27.7921 32.1596 27.9408 31.8107 28.0536L31.4818 28.1601L31.11 29.6435H28.3411L27.9686 28.1601L27.6397 28.0536C27.2909 27.9408 26.9383 27.7921 26.5895 27.61L26.283 27.4499L24.978 28.2351L23.0202 26.2545L23.7963 24.9337L23.6369 24.623C23.4575 24.2714 23.3098 23.9147 23.1983 23.5625L23.0937 23.2298L21.6273 22.8523V20.0512L23.0937 19.6738L23.1983 19.3411C23.3098 18.9894 23.4575 18.6321 23.6375 18.2805L23.7963 17.9698L23.0202 16.6496L24.978 14.6691L26.283 15.4542L26.5895 15.2942C26.9383 15.1121 27.2909 14.9633 27.6397 14.8505L27.9686 14.7441L28.3405 13.2594H31.1093L31.4818 14.7428L31.8107 14.8493C32.1596 14.9621 32.5121 15.1108 32.861 15.2929L33.1674 15.453L34.4725 14.6678L36.4303 16.6484L35.6541 17.9686L35.813 18.2792C35.993 18.6315 36.1406 18.9882 36.2521 19.3398L36.3568 19.6725L37.8231 20.0506V22.8523ZM29.7252 15.78C26.6337 15.78 24.119 18.3246 24.119 21.4514C24.119 24.5783 26.6337 27.1229 29.7252 27.1229C32.8167 27.1229 35.3315 24.5783 35.3315 21.4514C35.3315 18.3246 32.8167 15.78 29.7252 15.78ZM29.7252 25.8626C27.3214 25.8626 25.3648 23.8839 25.3648 21.4514C25.3648 19.019 27.3214 17.0403 29.7252 17.0403C32.129 17.0403 34.0856 19.019 34.0856 21.4514C34.0856 23.8839 32.129 25.8626 29.7252 25.8626ZM27.8565 3.17688H7.92322V10.7388H27.8565V3.17688ZM26.6106 9.47846H9.16904V4.4372H26.6106V9.47846ZM17.8898 14.5197H19.1357V15.78H17.8898V14.5197ZM16.644 15.78H7.92322V14.5197H16.644V15.78ZM7.92322 17.0403H19.1357V18.3007H7.92322V17.0403ZM10.4149 19.561H19.1357V20.8213H10.4149V19.561ZM9.16904 20.8213H7.92322V19.561H9.16904V20.8213Z" fill="url(#paint0_linear_1227:3062)"/>
<defs>
<linearGradient id="paint0_linear_1227:3062" x1="19.7586" y1="39.726" x2="19.7586" y2="0.65625" gradientUnits="userSpaceOnUse">
<stop stop-color="#3761AB"/>
<stop offset="1" stop-color="#8EC7D5"/>
</linearGradient>
</defs>
</svg>
