<svg width="23" height="23" viewBox="0 0 23 23" fill="none" xmlns="http://www.w3.org/2000/svg">
<path d="M10.9443 14.502C10.8916 14.3496 10.8447 14.1533 10.8037 13.9131C10.7627 13.667 10.7422 13.4238 10.7422 13.1836C10.7422 12.8086 10.8154 12.4717 10.9619 12.1729C11.1143 11.8682 11.3018 11.584 11.5244 11.3203C11.7471 11.0566 11.9902 10.8047 12.2539 10.5645C12.5176 10.3184 12.7607 10.0723 12.9834 9.82617C13.2061 9.57422 13.3906 9.31348 13.5371 9.04395C13.6895 8.76855 13.7656 8.4668 13.7656 8.13867C13.7656 7.85742 13.71 7.6084 13.5986 7.3916C13.4932 7.1748 13.3467 6.99316 13.1592 6.84668C12.9717 6.7002 12.7549 6.5918 12.5088 6.52148C12.2627 6.44531 12.002 6.40723 11.7266 6.40723C10.7363 6.40723 9.87793 6.79688 9.15137 7.57617V6.0293C10.0479 5.4668 10.9766 5.18555 11.9375 5.18555C12.3828 5.18555 12.8018 5.24414 13.1943 5.36133C13.5869 5.47852 13.9297 5.6543 14.2227 5.88867C14.5215 6.11719 14.7559 6.4043 14.9258 6.75C15.0957 7.0957 15.1807 7.49707 15.1807 7.9541C15.1807 8.3877 15.1045 8.77441 14.9521 9.11426C14.7998 9.4541 14.6064 9.76758 14.3721 10.0547C14.1436 10.3359 13.8945 10.5996 13.625 10.8457C13.3555 11.0918 13.1035 11.3379 12.8691 11.584C12.6406 11.8242 12.4502 12.0762 12.2979 12.3398C12.1455 12.6035 12.0693 12.8936 12.0693 13.21C12.0693 13.4795 12.1016 13.7256 12.166 13.9482C12.2305 14.165 12.2949 14.3496 12.3594 14.502H10.9443ZM11.7354 18.1582C11.4775 18.1582 11.249 18.0645 11.0498 17.877C10.8564 17.6895 10.7598 17.4609 10.7598 17.1914C10.7598 16.916 10.8564 16.6875 11.0498 16.5059C11.2432 16.3125 11.4717 16.2158 11.7354 16.2158C11.999 16.2158 12.2275 16.3125 12.4209 16.5059C12.6143 16.6875 12.7109 16.916 12.7109 17.1914C12.7109 17.4609 12.6143 17.6895 12.4209 17.877C12.2217 18.0645 11.9932 18.1582 11.7354 18.1582Z" fill="#B3B8BE"/>
<path fill-rule="evenodd" clip-rule="evenodd" d="M11.5 22C17.299 22 22 17.299 22 11.5C22 5.70101 17.299 1 11.5 1C5.70101 1 1 5.70101 1 11.5C1 17.299 5.70101 22 11.5 22ZM11.5 23C17.8513 23 23 17.8513 23 11.5C23 5.14873 17.8513 0 11.5 0C5.14873 0 0 5.14873 0 11.5C0 17.8513 5.14873 23 11.5 23Z" fill="#B3B8BE"/>
</svg>
