<svg width="43" height="42" viewBox="0 0 43 42" fill="none" xmlns="http://www.w3.org/2000/svg">
<g clip-path="url(#clip0_1227:3073)">
<path fill-rule="evenodd" clip-rule="evenodd" d="M23.0323 21.355C23.0323 22.2417 22.5371 23.0045 21.8156 23.4062L22.9015 27.0968H42L41.9844 28.5986L40.511 35.2258H24.3871C24.0132 35.2258 23.7097 35.53 23.7097 35.9032C23.7097 36.2765 24.0132 36.5806 24.3871 36.5806H37.9355C39.4299 36.5806 40.6452 37.7959 40.6452 39.2903C40.6452 40.7847 39.4299 42 37.9355 42C36.4411 42 35.2258 40.7847 35.2258 39.2903C35.2258 38.7945 35.3694 38.3358 35.6031 37.9355H28.075C28.308 38.3358 28.4516 38.7945 28.4516 39.2903C28.4516 40.7847 27.2363 42 25.7419 42C24.2475 42 23.0323 40.7847 23.0323 39.2903C23.0323 38.7118 23.2179 38.178 23.5275 37.7377C22.8372 37.4125 22.3548 36.7155 22.3548 35.9032C22.3548 35.0863 22.8419 34.3851 23.5383 34.0627L20.4872 23.6887C20.2203 23.6663 19.9581 23.6114 19.7122 23.499L12.871 20.3896V39.2903C12.871 40.7847 11.6557 42 10.1613 42C9.34771 42 8.62626 41.6328 8.12903 41.0638C7.63181 41.6328 6.91035 42 6.09677 42C4.60239 42 3.3871 40.7847 3.3871 39.2903V31.1613C1.51945 31.1613 0 29.6418 0 27.7742V21C0 18.1054 2.02955 15.6802 4.7399 15.0611C3.50361 14.0666 2.70968 12.5445 2.70968 10.8387C2.70968 7.85061 5.14094 5.41935 8.12903 5.41935C11.1171 5.41935 13.5484 7.85061 13.5484 10.8387C13.5484 12.4706 12.8202 13.9325 11.676 14.9269C12.6901 14.9825 13.6954 15.2352 14.6045 15.6897L21.7343 19.255C22.535 19.6553 23.0323 20.4601 23.0323 21.355ZM8.12903 6.77419C5.88745 6.77419 4.06452 8.59713 4.06452 10.8387C4.06452 13.0803 5.88745 14.9032 8.12903 14.9032C10.3706 14.9032 12.1935 13.0803 12.1935 10.8387C12.1935 8.59713 10.3706 6.77419 8.12903 6.77419ZM11.5161 18.9677H13.018L20.2738 22.2661C20.4032 22.325 20.5414 22.3548 20.6843 22.3548C21.2324 22.3548 21.6774 21.9091 21.6774 21.3617C21.6774 20.9763 21.4667 20.6362 21.128 20.4669L13.9982 16.9016C13.1562 16.4809 12.2139 16.2581 11.2723 16.2581H6.09677C3.48261 16.2581 1.35484 18.3852 1.35484 21V27.7742C1.35484 28.8946 2.26665 29.8065 3.3871 29.8065V19.6452H4.74194V39.2903C4.74194 40.0375 5.34958 40.6452 6.09677 40.6452C6.84397 40.6452 7.45161 40.0375 7.45161 39.2903V26.4194H8.80645V39.2903C8.80645 40.0375 9.4141 40.6452 10.1613 40.6452C10.9085 40.6452 11.5161 40.0375 11.5161 39.2903V18.9677ZM25.7419 40.6452C26.4891 40.6452 27.0968 40.0375 27.0968 39.2903C27.0968 38.5431 26.4891 37.9355 25.7419 37.9355C24.9947 37.9355 24.3871 38.5431 24.3871 39.2903C24.3871 40.0375 24.9947 40.6452 25.7419 40.6452ZM37.9355 40.6452C38.6827 40.6452 39.2903 40.0375 39.2903 39.2903C39.2903 38.5431 38.6827 37.9355 37.9355 37.9355C37.1883 37.9355 36.5806 38.5431 36.5806 39.2903C36.5806 40.0375 37.1883 40.6452 37.9355 40.6452ZM39.4251 33.871L40.6289 28.4516H23.3005L24.8945 33.871H39.4251Z" fill="url(#paint0_linear_1227:3073)"/>
<path fill-rule="evenodd" clip-rule="evenodd" d="M34.8376 9.01765C34.8376 10.1466 33.9242 11.0619 32.7934 11.0619H31.7508V11.5008H32.9991C33.1053 11.5008 33.1913 11.5868 33.1913 11.6929V12.516C33.1913 12.6221 33.1053 12.7082 32.9991 12.7082H31.7508V13.3392C31.7508 13.4453 31.6647 13.5313 31.5586 13.5313H30.7355C30.6294 13.5313 30.5434 13.4453 30.5434 13.3392V12.7082H30.1181C30.012 12.7082 29.926 12.6221 29.926 12.516V11.6929C29.926 11.5868 30.012 11.5008 30.1181 11.5008H30.5434V11.0619H30.1181C30.012 11.0619 29.926 10.9758 29.926 10.8697V10.0466C29.926 9.94048 30.012 9.85445 30.1181 9.85445H30.5434V7.16556C30.5434 7.05945 30.6294 6.97343 30.7355 6.97343H32.7934C33.9206 6.97343 34.8376 7.89046 34.8376 9.01765ZM32.7934 8.18084H31.7508V9.85445H32.7934C33.2548 9.85445 33.6302 9.47906 33.6302 9.01765C33.6302 8.55624 33.2548 8.18084 32.7934 8.18084Z" fill="url(#paint1_linear_1227:3073)"/>
<path fill-rule="evenodd" clip-rule="evenodd" d="M24.3871 10.1613C24.3871 6.05274 27.7302 2.70968 31.8387 2.70968C35.9473 2.70968 39.2903 6.05274 39.2903 10.1613C39.2903 14.2698 35.9473 17.6129 31.8387 17.6129C27.7302 17.6129 24.3871 14.2698 24.3871 10.1613ZM25.7419 10.1613C25.7419 13.5226 28.4767 16.2581 31.8387 16.2581C35.2007 16.2581 37.9355 13.5226 37.9355 10.1613C37.9355 6.79993 35.2007 4.06452 31.8387 4.06452C28.4767 4.06452 25.7419 6.79993 25.7419 10.1613Z" fill="url(#paint2_linear_1227:3073)"/>
<path fill-rule="evenodd" clip-rule="evenodd" d="M21.6774 10.1613C21.6774 4.55835 26.2358 0 31.8387 0C37.4416 0 42 4.55835 42 10.1613C42 14.0517 39.7997 17.4341 36.5806 19.1412V26.838L31.8387 24.467L27.0968 26.838V19.1412C23.8777 17.4347 21.6774 14.0517 21.6774 10.1613ZM31.1613 20.288C30.2163 20.2257 29.3085 20.034 28.4516 19.7298V24.6452L31.1613 23.2904V20.288ZM32.5161 23.291L35.2258 24.6459V19.7305C34.3689 20.0347 33.4611 20.2257 32.5161 20.2887V23.291ZM23.0323 10.1613C23.0323 15.017 26.983 18.9677 31.8387 18.9677C36.6945 18.9677 40.6452 15.017 40.6452 10.1613C40.6452 5.30555 36.6945 1.35484 31.8387 1.35484C26.983 1.35484 23.0323 5.30555 23.0323 10.1613Z" fill="url(#paint3_linear_1227:3073)"/>
</g>
<defs>
<linearGradient id="paint0_linear_1227:3073" x1="21" y1="0" x2="21" y2="42" gradientUnits="userSpaceOnUse">
<stop stop-color="#90CAD6"/>
<stop offset="1" stop-color="#3660AB"/>
</linearGradient>
<linearGradient id="paint1_linear_1227:3073" x1="21" y1="0" x2="21" y2="42" gradientUnits="userSpaceOnUse">
<stop stop-color="#90CAD6"/>
<stop offset="1" stop-color="#3660AB"/>
</linearGradient>
<linearGradient id="paint2_linear_1227:3073" x1="21" y1="0" x2="21" y2="42" gradientUnits="userSpaceOnUse">
<stop stop-color="#90CAD6"/>
<stop offset="1" stop-color="#3660AB"/>
</linearGradient>
<linearGradient id="paint3_linear_1227:3073" x1="21" y1="0" x2="21" y2="42" gradientUnits="userSpaceOnUse">
<stop stop-color="#90CAD6"/>
<stop offset="1" stop-color="#3660AB"/>
</linearGradient>
<clipPath id="clip0_1227:3073">
<rect width="42" height="42" fill="white" transform="translate(0.229492)"/>
</clipPath>
</defs>
</svg>
