<svg width="14" height="26" viewBox="0 0 14 26" fill="none" xmlns="http://www.w3.org/2000/svg">
<path d="M4.47754 18.457V17.5342C4.47754 16.2012 4.68262 15.1074 5.09277 14.2529C5.50293 13.387 6.26628 12.4756 7.38281 11.5186C8.93229 10.2083 9.90641 9.22282 10.3052 8.56201C10.7153 7.9012 10.9204 7.10368 10.9204 6.16943C10.9204 5.00732 10.5444 4.11296 9.79248 3.48633C9.05192 2.84831 7.98096 2.5293 6.57959 2.5293C5.67952 2.5293 4.80225 2.63753 3.94775 2.854C3.09326 3.05908 2.11344 3.44076 1.0083 3.99902L0 1.69189C2.15332 0.563965 4.40348 0 6.75049 0C8.92659 0 10.6185 0.535482 11.8262 1.60645C13.0339 2.67741 13.6377 4.18701 13.6377 6.13525C13.6377 6.96696 13.5238 7.70182 13.2959 8.33984C13.0794 8.96647 12.7547 9.56462 12.3218 10.1343C11.8888 10.6925 10.9546 11.5983 9.51904 12.8516C8.36833 13.8314 7.60498 14.646 7.229 15.2954C6.86442 15.9448 6.68213 16.8107 6.68213 17.8931V18.457H4.47754ZM3.64014 23.5327C3.64014 21.9832 4.32373 21.2085 5.69092 21.2085C6.35173 21.2085 6.85872 21.4079 7.21191 21.8066C7.5765 22.2054 7.75879 22.7808 7.75879 23.5327C7.75879 24.2619 7.5765 24.8315 7.21191 25.2417C6.84733 25.6405 6.34033 25.8398 5.69092 25.8398C5.09847 25.8398 4.60856 25.6632 4.22119 25.3101C3.83382 24.9455 3.64014 24.353 3.64014 23.5327Z" fill="white"/>
</svg>
