<svg width="12" height="13" viewBox="0 0 12 13" fill="none" xmlns="http://www.w3.org/2000/svg">
<path d="M11.4485 7.63876C11.5311 7.25197 11.5723 6.85748 11.5714 6.46196C11.5673 5.73874 11.4206 5.02342 11.1399 4.35689C10.8592 3.69037 10.4498 3.08571 9.93525 2.57749C9.42068 2.06928 8.81098 1.66746 8.14102 1.39503C7.47106 1.12259 6.75398 0.984874 6.03076 0.989751C5.71436 0.988938 5.39853 1.0165 5.08706 1.07209C4.60351 0.768257 4.04774 0.598717 3.47693 0.580909C2.90612 0.563101 2.34087 0.697668 1.83932 0.970769C1.33776 1.24387 0.918009 1.64565 0.62323 2.13477C0.328451 2.6239 0.169287 3.18273 0.162109 3.75377C0.162475 4.31676 0.313582 4.86938 0.599733 5.35422C0.528737 5.71476 0.492051 6.08121 0.490168 6.44867C0.496231 7.16689 0.64489 7.87676 0.927517 8.53706C1.21014 9.19737 1.62111 9.79496 2.13656 10.2951C2.65201 10.7953 3.26168 11.1882 3.93017 11.4508C4.59867 11.7135 5.31268 11.8408 6.03076 11.8253C6.37052 11.8278 6.70965 11.7955 7.04283 11.7289C7.50263 12.0077 8.02459 12.1677 8.56165 12.1945C9.1035 12.2048 9.63885 12.0753 10.1161 11.8185C10.5934 11.5618 10.9965 11.1865 11.2866 10.7287C11.5767 10.2709 11.7439 9.74613 11.7723 9.20493C11.8007 8.66373 11.6891 8.12434 11.4485 7.63876ZM8.54769 8.70595C8.30734 9.02812 7.97993 9.2749 7.60403 9.41722C7.13885 9.60239 6.6408 9.69074 6.14032 9.67687C5.55895 9.69573 4.98163 9.57384 4.4575 9.32158C4.15093 9.15827 3.88808 8.92368 3.69111 8.63757C3.51625 8.39843 3.4164 8.11273 3.40421 7.81674C3.40284 7.74152 3.41807 7.66693 3.44884 7.59828C3.4796 7.52963 3.52514 7.46862 3.58219 7.41959C3.70515 7.30786 3.8671 7.24894 4.03311 7.25555C4.16739 7.25 4.29904 7.29396 4.40305 7.37907C4.51717 7.48551 4.6059 7.61623 4.6627 7.76158C4.73295 7.94379 4.82987 8.11457 4.95028 8.26832C5.06041 8.41283 5.20649 8.52594 5.37397 8.59638C5.60324 8.69299 5.85046 8.73963 6.09917 8.73317C6.45099 8.75243 6.80008 8.66168 7.09799 8.47353C7.213 8.4063 7.3087 8.31052 7.37583 8.19546C7.44296 8.08039 7.47925 7.94994 7.48117 7.81674C7.48511 7.72262 7.46883 7.62876 7.43343 7.54147C7.39804 7.45418 7.34434 7.37549 7.27597 7.3107C7.12531 7.16804 6.94196 7.0645 6.74199 7.00915C6.52354 6.94077 6.222 6.87237 5.85279 6.7907C5.42876 6.701 5.01258 6.57753 4.60825 6.42145C4.29747 6.29692 4.02411 6.09425 3.81464 5.83307C3.6165 5.56961 3.51498 5.24603 3.5271 4.9166C3.5267 4.58026 3.63736 4.2532 3.84189 3.98619C4.07364 3.69737 4.3817 3.47928 4.73111 3.35665C5.17464 3.20031 5.64298 3.12626 6.1131 3.13815C6.48336 3.13341 6.85224 3.184 7.20755 3.28824C7.48397 3.36831 7.74345 3.49817 7.97324 3.67142C8.15636 3.80791 8.30999 3.98004 8.42486 4.17745C8.51263 4.33181 8.5597 4.50596 8.56165 4.68352C8.56186 4.7605 8.54616 4.83669 8.51553 4.90732C8.48491 4.97794 8.44002 5.04147 8.38368 5.09392C8.32747 5.15286 8.25939 5.1992 8.18395 5.22988C8.1085 5.26056 8.02741 5.27489 7.94602 5.2719C7.81391 5.27972 7.68326 5.24094 7.5768 5.16234C7.46688 5.05958 7.37446 4.93957 7.30319 4.80705C7.19432 4.58998 7.04036 4.39865 6.8516 4.24586C6.59855 4.08754 6.30098 4.01554 6.00354 4.04066C5.69639 4.02635 5.3918 4.10256 5.12758 4.25983C5.0327 4.31086 4.95263 4.38556 4.89514 4.47667C4.83766 4.56779 4.80472 4.67223 4.79952 4.77983C4.80026 4.89805 4.83863 5.01296 4.90909 5.10789C4.99383 5.20952 5.10181 5.28925 5.22389 5.34031C5.34857 5.40833 5.48195 5.45905 5.62033 5.49107C5.75715 5.53226 5.97633 5.5867 6.29041 5.65512C6.67359 5.73746 7.02957 5.8331 7.34434 5.92869C7.62937 6.01313 7.90103 6.13744 8.15125 6.29794C8.36432 6.43797 8.54224 6.62523 8.67121 6.84516C8.80304 7.09354 8.8689 7.37159 8.86249 7.65271C8.87875 8.02917 8.76786 8.40015 8.54769 8.70595Z" fill="#D5D6D8"/>
</svg>
