<svg width="23" height="19" viewBox="0 0 23 19" fill="none" xmlns="http://www.w3.org/2000/svg">
<path fill-rule="evenodd" clip-rule="evenodd" d="M3.45 18.4H19.55C20.465 18.4 21.3425 18.0361 21.9895 17.3893C22.6366 16.7424 23 15.8653 23 14.95V4.7561L12.328 11.2417C12.1334 11.3529 11.9195 11.4259 11.6985 11.4562C11.6216 11.4663 11.5437 11.4719 11.4655 11.4719C11.1627 11.4719 10.8652 11.3922 10.603 11.2417L0 4.76284V14.95C0 15.8653 0.363446 16.7424 1.01046 17.3893C1.65748 18.0361 2.535 18.4 3.45 18.4ZM22.5366 1.72275L11.4655 8.625L0.459747 1.72949C0.609674 1.46895 0.794275 1.22637 1.01046 1.01074C1.65748 0.363867 2.535 0 3.45 0H19.55C20.465 0 21.3425 0.363867 21.9895 1.01074C22.204 1.22524 22.3874 1.46445 22.5366 1.72275Z" fill="white"/>
</svg>
