<?xml version="1.0" encoding="utf-8"?>
<!-- Generator: Adobe Illustrator 21.1.0, SVG Export Plug-In . SVG Version: 6.00 Build 0)  -->
<svg version="1.1" id="Слой_1" xmlns="http://www.w3.org/2000/svg" xmlns:xlink="http://www.w3.org/1999/xlink" x="0px" y="0px"
	 viewBox="0 0 30 30" style="enable-background:new 0 0 30 30;" xml:space="preserve">
<style type="text/css">
	.st0{fill:#FFFFFF;}
</style>
<path class="st0" d="M15,0C6.7,0,0,6.7,0,15c0,8.3,6.7,15,15,15c8.3,0,15-6.7,15-15C30,6.7,23.3,0,15,0z M22.8,10.5
	c-0.3,0.4-0.8,1-1.1,1.3L21.4,12l0,0.7c0,0.4,0,0.9-0.1,1.1c-0.5,3.4-2.3,6.2-5,7.6c-1,0.5-1.7,0.8-2.9,0.9c-0.4,0.1-1.8,0.1-2.2,0
	c-1.2-0.1-2.3-0.5-3.3-1C7.5,21.2,7,20.9,7,20.8c0,0,0.1,0,0.1,0c0.2,0,1.2,0,1.5,0c1.1-0.2,2.1-0.6,2.9-1.2
	c0.2-0.2,0.2-0.2-0.1-0.2c-0.9-0.1-1.9-0.8-2.4-1.7C8.9,17.4,8.8,17,8.8,17c0,0,0.1,0,0.3,0c0.3,0,0.5,0,0.9,0l0.2,0l-0.3-0.1
	c-1.2-0.5-2.1-1.6-2.2-3.1l0-0.3l0.1,0c0,0,0.1,0.1,0.2,0.1c0.3,0.1,0.6,0.2,1,0.3l0.1,0L9,13.8c0,0-0.2-0.2-0.3-0.3
	c-0.9-0.9-1.3-2.4-0.8-3.7c0.1-0.3,0.2-0.6,0.3-0.6c0,0,0.1,0.1,0.2,0.3c1.4,1.7,3.2,2.8,5.3,3.2c0.3,0.1,0.9,0.1,1.1,0.1h0.1l0-0.2
	c0-0.1,0-0.4,0-0.7c0-0.5,0.1-0.9,0.3-1.3c0.5-1.1,1.4-1.8,2.5-2c0,0,0.3,0,0.6,0c0.4,0,0.6,0,0.8,0.1c0.5,0.1,1.1,0.5,1.4,0.8
	l0.1,0.1l0.2-0.1c0.5-0.1,1-0.3,1.4-0.6c0.4-0.2,0.4-0.2,0.4-0.1c0,0.1-0.3,0.6-0.4,0.8c-0.2,0.2-0.5,0.7-0.8,0.8
	c-0.1,0.1-0.2,0.1-0.2,0.2c0,0,0.2,0,0.4-0.1c0.4-0.1,0.8-0.2,1.1-0.4c0.1-0.1,0.2-0.1,0.2-0.1C23,10.2,22.9,10.4,22.8,10.5z"/>
</svg>
