<svg width="18" height="23" viewBox="0 0 18 23" fill="none" xmlns="http://www.w3.org/2000/svg">
<path fill-rule="evenodd" clip-rule="evenodd" d="M14.625 5.75V8.05C15.5201 8.05 16.3786 8.41348 17.0115 9.06048C17.6444 9.70748 18 10.585 18 11.5V19.55C18 20.465 17.6444 21.3425 17.0115 21.9895C16.3786 22.6365 15.5201 23 14.625 23H3.375C2.47989 23 1.62145 22.6365 0.988515 21.9895C0.355579 21.3425 0 20.465 0 19.55V11.5C0 10.585 0.355579 9.70748 0.988515 9.06048C1.62145 8.41348 2.47989 8.05 3.375 8.05V5.75C3.375 4.22501 3.96763 2.76247 5.02252 1.68414C6.07742 0.605802 7.50816 0 9 0C10.4918 0 11.9226 0.605802 12.9775 1.68414C14.0324 2.76247 14.625 4.22501 14.625 5.75ZM6.61351 3.31048C5.98058 3.95748 5.625 4.835 5.625 5.75V8.05H12.375V5.75C12.375 4.835 12.0194 3.95748 11.3865 3.31048C10.7536 2.66348 9.89511 2.3 9 2.3C8.10489 2.3 7.24645 2.66348 6.61351 3.31048Z" fill="#DD8F53"/>
</svg>
