<svg width="20" height="16" viewBox="0 0 20 16" fill="none" xmlns="http://www.w3.org/2000/svg">
<path d="M19 6.58824H18V5.64706C18 5.39744 17.8946 5.15805 17.7071 4.98155C17.5196 4.80504 17.2652 4.70588 17 4.70588C16.7348 4.70588 16.4804 4.80504 16.2929 4.98155C16.1054 5.15805 16 5.39744 16 5.64706V6.58824H15C14.7348 6.58824 14.4804 6.6874 14.2929 6.8639C14.1054 7.0404 14 7.2798 14 7.52941C14 7.77903 14.1054 8.01842 14.2929 8.19492C14.4804 8.37143 14.7348 8.47059 15 8.47059H16V9.41177C16 9.66138 16.1054 9.90077 16.2929 10.0773C16.4804 10.2538 16.7348 10.3529 17 10.3529C17.2652 10.3529 17.5196 10.2538 17.7071 10.0773C17.8946 9.90077 18 9.66138 18 9.41177V8.47059H19C19.2652 8.47059 19.5196 8.37143 19.7071 8.19492C19.8946 8.01842 20 7.77903 20 7.52941C20 7.2798 19.8946 7.0404 19.7071 6.8639C19.5196 6.6874 19.2652 6.58824 19 6.58824ZM11.3 8.20706C11.8336 7.77236 12.2616 7.23471 12.5549 6.63061C12.8482 6.0265 13 5.37008 13 4.70588C13 3.4578 12.4732 2.26085 11.5355 1.37832C10.5979 0.495797 9.32608 0 8 0C6.67392 0 5.40215 0.495797 4.46447 1.37832C3.52678 2.26085 3 3.4578 3 4.70588C2.99999 5.37008 3.1518 6.0265 3.44513 6.63061C3.73845 7.23471 4.16642 7.77236 4.7 8.20706C3.30014 8.80366 2.11247 9.76709 1.27898 10.9822C0.445495 12.1972 0.00147185 13.6125 0 15.0588C0 15.3084 0.105357 15.5478 0.292893 15.7243C0.48043 15.9008 0.734784 16 1 16C1.26522 16 1.51957 15.9008 1.70711 15.7243C1.89464 15.5478 2 15.3084 2 15.0588C2 13.5611 2.63214 12.1248 3.75736 11.0658C4.88258 10.0067 6.4087 9.41177 8 9.41177C9.5913 9.41177 11.1174 10.0067 12.2426 11.0658C13.3679 12.1248 14 13.5611 14 15.0588C14 15.3084 14.1054 15.5478 14.2929 15.7243C14.4804 15.9008 14.7348 16 15 16C15.2652 16 15.5196 15.9008 15.7071 15.7243C15.8946 15.5478 16 15.3084 16 15.0588C15.9985 13.6125 15.5545 12.1972 14.721 10.9822C13.8875 9.76709 12.6999 8.80366 11.3 8.20706ZM8 7.52941C7.40666 7.52941 6.82664 7.36381 6.33329 7.05356C5.83994 6.74331 5.45542 6.30233 5.22836 5.7864C5.0013 5.27047 4.94189 4.70275 5.05764 4.15504C5.1734 3.60733 5.45912 3.10422 5.87868 2.70935C6.29824 2.31447 6.83279 2.04555 7.41473 1.93661C7.99667 1.82766 8.59987 1.88358 9.14805 2.09728C9.69623 2.31099 10.1648 2.67289 10.4944 3.13721C10.8241 3.60154 11 4.14744 11 4.70588C11 5.45473 10.6839 6.1729 10.1213 6.70242C9.55871 7.23193 8.79565 7.52941 8 7.52941Z" fill="white"/>
</svg>
