<svg width="34" height="34" viewBox="0 0 34 34" fill="none" xmlns="http://www.w3.org/2000/svg">
<path d="M23.6673 8.66671H7.00065C6.00065 8.66671 5.33398 9.33337 5.33398 10.3334V14.5H17.834C18.834 14.5 19.5007 15.1667 19.5007 16.1667V28.6667H23.6673C24.6673 28.6667 25.334 28 25.334 27V10.3334C25.334 9.33337 24.6673 8.66671 23.6673 8.66671ZM15.334 17H2.00065C1.00065 17 0.333984 17.6667 0.333984 18.6667V32C0.333984 33 1.00065 33.6667 2.00065 33.6667H15.334C16.334 33.6667 17.0007 33 17.0007 32V18.6667C17.0007 17.6667 16.334 17 15.334 17ZM32.0007 0.333374H12.0007C11.0007 0.333374 10.334 1.00004 10.334 2.00004V6.16671H26.1673C27.1673 6.16671 27.834 6.83337 27.834 7.83337V23.6667H32.0007C33.0006 23.6667 33.6673 23 33.6673 22V2.00004C33.6673 1.00004 33.0006 0.333374 32.0007 0.333374Z" fill="#5B88D9"/>
</svg>
