<svg width="12" height="13" viewBox="0 0 12 13" fill="none" xmlns="http://www.w3.org/2000/svg">
<path d="M7.75432 0.454346H4.19112C0.936439 0.454346 0.162109 1.22868 0.162109 4.47729V8.04049C0.162109 11.2951 0.930417 12.0695 4.18505 12.0695H7.74826C11.0029 12.0695 11.7773 11.3012 11.7773 8.04652V4.48335C11.7773 1.22868 11.009 0.454346 7.75432 0.454346ZM9.53891 8.74223H8.69199C8.37138 8.74223 8.27457 8.48209 7.69987 7.90739C7.19773 7.42344 6.98601 7.36293 6.85897 7.36293C6.68355 7.36293 6.63512 7.41132 6.63512 7.65331V8.41555C6.63512 8.62125 6.56859 8.74223 6.0302 8.74223C5.50774 8.70712 5.00109 8.54841 4.55199 8.27916C4.10288 8.0099 3.72416 7.63781 3.44702 7.19353C2.78908 6.37461 2.3313 5.41347 2.11008 4.38655C2.11008 4.25951 2.15846 4.14456 2.40046 4.14456H3.24738C3.46517 4.14456 3.54383 4.24136 3.62851 4.4652C4.03986 5.6751 4.74164 6.72773 5.02595 6.72773C5.13485 6.72773 5.18323 6.67934 5.18323 6.40711V5.16088C5.14693 4.59224 4.84447 4.54383 4.84447 4.33816C4.84845 4.2839 4.87342 4.23333 4.91409 4.19718C4.95475 4.16103 5.0079 4.14215 5.06225 4.14456H6.39317C6.57466 4.14456 6.63512 4.2353 6.63512 4.45308V6.13488C6.63512 6.31637 6.71378 6.37684 6.76823 6.37684C6.87712 6.37684 6.9618 6.31637 7.16144 6.11673C7.59043 5.59358 7.94096 5.01073 8.20197 4.38655C8.22861 4.31144 8.27911 4.24712 8.34575 4.20342C8.41239 4.15973 8.49151 4.13905 8.57101 4.14456H9.41793C9.67202 4.14456 9.72646 4.2716 9.67202 4.45308C9.36385 5.1432 8.98257 5.79829 8.53471 6.40711C8.44397 6.54624 8.40767 6.61883 8.53471 6.78217C8.61939 6.90921 8.91584 7.15724 9.11547 7.39317C9.40584 7.68282 9.64695 8.01794 9.82929 8.38532C9.90189 8.62125 9.78091 8.74223 9.53891 8.74223Z" fill="#D5D6D8"/>
</svg>
