<?xml version="1.0" encoding="utf-8"?>
<!-- Generator: Adobe Illustrator 21.1.0, SVG Export Plug-In . SVG Version: 6.00 Build 0)  -->
<svg version="1.1" id="Слой_1" xmlns="http://www.w3.org/2000/svg" xmlns:xlink="http://www.w3.org/1999/xlink" x="0px" y="0px"
	 viewBox="0 0 30 30" style="enable-background:new 0 0 30 30;" xml:space="preserve">
<style type="text/css">
	.st0{fill:#FFFFFF;}
</style>
<path class="st0" d="M15,0C6.7,0,0,6.7,0,15c0,8.3,6.7,15,15,15c8.3,0,15-6.7,15-15C30,6.7,23.3,0,15,0z M22.9,17.8
	C24.5,19,25,19.6,25,20c0,0.2-0.1,0.3-0.3,0.4l-0.2,0.1l-1,0c-1.3,0-2.4,0-2.6,0c-0.2,0-0.6-0.1-0.8-0.3c-0.3-0.2-0.6-0.4-1.2-1
	c-0.9-0.8-1.3-1-1.6-0.8c-0.4,0.2-0.5,0.6-0.6,1.2c0,0.5-0.1,0.7-0.5,0.8c-0.2,0.1-2,0.1-2.5,0c-1-0.1-1.8-0.4-2.9-1.1
	c-0.8-0.4-1.3-0.9-2.3-1.9c-1.2-1.3-2.3-2.8-3.3-4.6C5.1,12.4,5,12.3,5,12.2C5,12.1,5,12,5.1,12c0.1,0,0.2-0.1,0.3-0.1s0.9,0,1.7,0
	l1.6,0l0.2,0.1c0.2,0.1,0.3,0.2,0.5,0.6c0.3,0.6,1.3,2.1,1.7,2.6c0.4,0.5,1,0.9,1.3,0.8c0.2,0,0.4-0.3,0.5-0.8
	c0.2-1,0.1-2.1-0.2-2.5c-0.1-0.2-0.4-0.4-0.8-0.5c-0.2,0-0.2-0.1-0.1-0.2c0.3-0.4,0.8-0.5,2.1-0.5c0.4,0,0.9,0,1,0
	c0.1,0,0.4,0,0.6,0c0.5,0,1,0.1,1.1,0.2c0.1,0,0.1,0.1,0.2,0.2c0.2,0.3,0.2,0.4,0.1,1.8c0,1.4,0,1.7,0.1,2c0.1,0.1,0.1,0.2,0.2,0.2
	c0.1,0.1,0.2,0.1,0.3,0c0.5-0.2,1.4-1.2,2.2-2.5c0.2-0.3,0.5-0.8,0.6-1c0.2-0.4,0.3-0.5,0.5-0.5c0.1,0,0.9,0,2,0c2,0,2.1,0,2.3,0.2
	c0.1,0.1,0.1,0.4,0,0.6c-0.2,0.5-0.7,1.1-2,2.5c-1,1.1-1.1,1.2-1.2,1.5C21.7,16.8,21.8,16.9,22.9,17.8z"/>
</svg>
