<svg width="43" height="42" viewBox="0 0 43 42" fill="none" xmlns="http://www.w3.org/2000/svg">
<path d="M38.3516 23.8281L33.9032 23.0256V21.7903C34.5928 21.2406 35.1356 20.5194 35.4689 19.6925C37.1167 19.5509 38.4194 18.1909 38.4194 16.52V13.32C38.4194 9.085 34.9466 5.64 30.6774 5.64C26.4083 5.64 22.9355 9.085 22.9355 13.32V16.52C22.9355 18.1909 24.2381 19.5509 25.886 19.6925C26.2186 20.52 26.762 21.2406 27.4516 21.7903V23.0256L23.0026 23.8281C22.1722 23.9784 21.4735 24.4406 20.9994 25.0728C20.5253 24.4406 19.8266 23.9778 18.9962 23.8281L14.5484 23.0256V21.7903C15.238 21.2406 15.7807 20.5194 16.114 19.6925C17.7619 19.5509 19.0645 18.1909 19.0645 16.52V10.8638C19.0645 9.43063 18.1762 8.15719 16.838 7.64625L16.3638 7.17594C14.9491 5.7725 13.0691 5 11.0684 5C6.94002 5 3.58065 8.3325 3.58065 12.4278V16.52C3.58065 18.1909 4.88325 19.5509 6.53112 19.6925C6.86379 20.52 7.4072 21.2406 8.09677 21.7903V23.0256L3.64774 23.8281C2.11423 24.1059 1 25.4294 1 26.9763V37H41V26.9763C41 25.4294 39.8858 24.1059 38.3516 23.8281ZM35.811 18.3306C35.8289 18.1566 35.8387 17.9791 35.8387 17.8V14.7178C36.5878 14.9828 37.129 15.6869 37.129 16.52C37.129 17.3634 36.5743 18.0731 35.811 18.3306ZM24.2258 16.52C24.2258 15.6869 24.767 14.9828 25.5161 14.7178V17.8C25.5161 17.9791 25.5259 18.1566 25.5439 18.3306C24.7806 18.0731 24.2258 17.3634 24.2258 16.52ZM25.5161 12.04V13.3847C25.0367 13.4819 24.6026 13.6931 24.2258 13.9759V13.32C24.2258 9.79094 27.1199 6.92 30.6774 6.92C34.2349 6.92 37.129 9.79094 37.129 13.32V13.9766C36.7523 13.6938 36.3182 13.4819 35.8387 13.3853V12.04H34.5484V13.96H34.2079C32.4201 13.96 30.6295 13.5409 29.0311 12.7472L28.615 12.5413L27.9078 13.2425C27.6031 13.5447 27.2182 13.7506 26.8065 13.8628V12.04H25.5161ZM26.8065 17.8V15.1806C27.5625 15.0481 28.2735 14.6897 28.8201 14.1475L28.8755 14.0925C30.5432 14.8444 32.3766 15.24 34.2079 15.24H34.5484V17.8C34.5484 19.9178 32.8123 21.64 30.6774 21.64C28.5425 21.64 26.8065 19.9178 26.8065 17.8ZM30.9773 28.04H30.3775L29.7188 27.0603L30.6774 26.2997L31.6354 27.0603L30.9773 28.04ZM31.2769 32.3006L30.6774 32.895L30.0779 32.3006L30.5788 29.32H30.776L31.2769 32.3006ZM30.6774 24.68L28.7419 23.24V22.5431C29.3398 22.7844 29.9929 22.92 30.6774 22.92C31.362 22.92 32.015 22.7844 32.6129 22.5431V23.24L30.6774 24.68ZM29.624 25.4959L27.9071 26.8584L27.4806 24.3216L27.9355 24.2397L29.624 25.4959ZM33.4194 24.2397L33.8742 24.3216L33.4477 26.8584L31.7308 25.4959L33.4194 24.2397ZM16.4562 18.3306C16.4741 18.1566 16.4839 17.9791 16.4839 17.8V14.7178C17.233 14.9828 17.7742 15.6869 17.7742 16.52C17.7742 17.3634 17.2194 18.0731 16.4562 18.3306ZM4.87097 16.52C4.87097 15.6869 5.41217 14.9828 6.16129 14.7178V17.8C6.16129 17.9791 6.17106 18.1566 6.18901 18.3306C5.42572 18.0731 4.87097 17.3634 4.87097 16.52ZM6.16129 12.04V13.3847C5.68183 13.4819 5.24773 13.6931 4.87097 13.9759V12.4278C4.87097 9.03844 7.65165 6.28 11.0684 6.28C12.7238 6.28 14.2806 6.91938 15.4509 8.08031L16.1355 8.75937L16.2801 8.80687C17.1735 9.10312 17.7742 9.92938 17.7742 10.8638V13.9759C17.3974 13.6931 16.9633 13.4813 16.4839 13.3847V12.04H15.1935V12.5559C14.887 13.3603 14.1367 13.9038 13.2735 13.9509C13.5277 13.6375 13.7356 13.2816 13.8698 12.8828L12.6463 12.4778C12.3606 13.3263 11.5844 13.9019 10.6935 13.9509C10.9477 13.6375 11.1556 13.2816 11.2898 12.8828L10.0666 12.4778C9.76701 13.3641 8.9341 13.96 7.99219 13.96H7.45161V12.04H6.16129ZM7.45161 17.8V15.24H7.99219C8.74446 15.24 9.45294 15.0006 10.0323 14.5841V15.24H10.5728C11.3251 15.24 12.0336 15.0006 12.6129 14.5841V15.24H13.1535C13.9057 15.24 14.6142 15.0006 15.1935 14.5841V17.8C15.1935 19.9178 13.4575 21.64 11.3226 21.64C9.18769 21.64 7.45161 19.9178 7.45161 17.8ZM11.6225 28.04H11.0227L10.364 27.0603L11.3226 26.2997L12.2806 27.0603L11.6225 28.04ZM11.9221 32.3006L11.3226 32.895L10.7231 32.3006L11.224 29.32H11.4212L11.9221 32.3006ZM11.3226 24.68L9.3871 23.24V22.5431C9.98501 22.7844 10.638 22.92 11.3226 22.92C12.0071 22.92 12.6602 22.7844 13.2581 22.5431V23.24L11.3226 24.68ZM10.2692 25.4959L8.55229 26.8584L8.12576 24.3216L8.58065 24.2397L10.2692 25.4959ZM14.0645 24.2397L14.5194 24.3216L14.0929 26.8584L12.376 25.4959L14.0645 24.2397ZM20.3548 32.8828V35.72H2.29032V26.9763C2.29032 26.0484 2.9588 25.2541 3.87928 25.0872L6.85685 24.5506L7.64126 29.2216L9.35276 27.8634L9.9995 28.8253L9.34142 32.7403L11.3226 34.705L13.3037 32.7394L12.6457 28.8247L13.2924 27.8628L15.0039 29.2209L15.7883 24.55L18.7652 25.0862C19.6864 25.2534 20.3548 26.0484 20.3548 26.9763V29.5972L21.1613 29.3903C21.3484 29.3425 21.5018 29.32 21.6452 29.32C22.7121 29.32 23.5806 30.1816 23.5806 31.24C23.5806 32.2984 22.7121 33.16 21.6452 33.16C21.5018 33.16 21.3484 33.1375 21.1613 33.0903L20.3548 32.8828ZM39.7097 35.72H21.6452V34.44C23.4238 34.44 24.871 33.0044 24.871 31.24C24.871 29.4756 23.4238 28.04 21.6452 28.04V26.9763C21.6452 26.0484 22.3136 25.2541 23.2341 25.0872L26.2117 24.5506L26.9961 29.2216L28.7076 27.8634L29.3543 28.8253L28.6963 32.7403L30.6774 34.705L32.6586 32.7394L32.0005 28.8247L32.6472 27.8628L34.3587 29.2209L35.1431 24.55L38.1201 25.0862C39.0412 25.2534 39.7097 26.0484 39.7097 26.9763V35.72Z" fill="url(#paint0_linear_1227:3077)"/>
<defs>
<linearGradient id="paint0_linear_1227:3077" x1="21" y1="41.48" x2="21" y2="1.79997" gradientUnits="userSpaceOnUse">
<stop stop-color="#3660AB"/>
<stop offset="1" stop-color="#90CAD6"/>
</linearGradient>
</defs>
</svg>
