<?xml version="1.0" encoding="utf-8"?>
<!-- Generator: Adobe Illustrator 21.1.0, SVG Export Plug-In . SVG Version: 6.00 Build 0)  -->
<svg version="1.1" id="Слой_1" xmlns="http://www.w3.org/2000/svg" xmlns:xlink="http://www.w3.org/1999/xlink" x="0px" y="0px"
	 viewBox="0 0 30 30" style="enable-background:new 0 0 30 30;" xml:space="preserve">
<style type="text/css">
	.st0{fill:#FFFFFF;}
</style>
<g>
	<path class="st0" d="M14.1,12.9c-0.4-0.2-0.5-0.2-0.7-0.1c-0.1,0-0.1,0.1-0.2,0.2L13.2,13v1.9c0,1.7,0,1.9,0.1,2
		c0.1,0.2,0.3,0.3,0.5,0.3c0.2,0,3.5-1.8,3.6-1.9c0.2-0.2,0.2-0.5,0-0.7C17.3,14.5,15.2,13.4,14.1,12.9z"/>
	<path class="st0" d="M15,0C6.7,0,0,6.7,0,15c0,8.3,6.7,15,15,15c8.3,0,15-6.7,15-15C30,6.7,23.3,0,15,0z M22.8,18.4
		c-0.3,1.2-1,1.8-2.2,2.1c-0.7,0.1-0.8,0.1-5,0.2c-2.7,0-4.3,0-4.8,0c-1.5-0.1-2.3-0.3-3-1c-0.4-0.4-0.6-0.8-0.7-1.5
		C7,17.5,7,17.2,7,14.5c0-2.8,0-2.8,0.2-3.4c0.2-0.7,0.7-1.2,1.5-1.5c0.5-0.2,1-0.2,1.8-0.3c0.8,0,8.1,0,8.9,0
		c0.9,0,1.4,0.1,1.9,0.3c1,0.3,1.5,0.9,1.6,2.2c0,0.2,0,0.9,0,2.9C23,17.7,23,17.7,22.8,18.4z"/>
</g>
</svg>
