<svg width="370" height="609" viewBox="0 0 370 609" fill="none" xmlns="http://www.w3.org/2000/svg">
<rect width="370" height="609" fill="#C4C4C4"/>
<path d="M129.348 255.186C129.348 251.426 130.061 248.574 131.486 246.631C132.922 244.678 135.158 243.442 138.195 242.925C139.67 242.671 141.872 242.349 144.802 241.958L145.314 245.854C144.045 246.001 141.794 246.313 138.562 246.792C137.331 246.987 136.413 247.28 135.808 247.671C135.202 248.062 134.748 248.618 134.445 249.341C134.152 250.063 133.972 251.025 133.903 252.227H134.123C134.641 251.426 135.324 250.811 136.174 250.381C137.023 249.951 137.937 249.736 138.913 249.736C140.935 249.736 142.507 250.356 143.63 251.597C144.753 252.827 145.314 254.595 145.314 256.899C145.314 259.556 144.602 261.621 143.176 263.096C141.76 264.561 139.802 265.293 137.302 265.293C134.802 265.293 132.849 264.399 131.442 262.612C130.046 260.815 129.348 258.34 129.348 255.186ZM137.565 261.675C139.685 261.675 140.744 260.215 140.744 257.295C140.744 254.453 139.787 253.032 137.873 253.032C137.346 253.032 136.818 253.154 136.291 253.398C135.773 253.643 135.295 253.965 134.855 254.365C134.426 254.756 134.108 255.151 133.903 255.552C133.903 257.534 134.221 259.053 134.855 260.107C135.49 261.152 136.394 261.675 137.565 261.675ZM159.406 265L158.542 262.773H158.425C157.673 263.721 156.896 264.38 156.096 264.751C155.305 265.112 154.27 265.293 152.99 265.293C151.418 265.293 150.178 264.844 149.27 263.945C148.371 263.047 147.922 261.768 147.922 260.107C147.922 258.369 148.527 257.09 149.738 256.27C150.959 255.439 152.795 254.98 155.246 254.893L158.088 254.805V254.087C158.088 252.427 157.238 251.597 155.539 251.597C154.23 251.597 152.692 251.992 150.925 252.783L149.445 249.766C151.33 248.779 153.42 248.286 155.715 248.286C157.912 248.286 159.597 248.765 160.769 249.722C161.94 250.679 162.526 252.134 162.526 254.087V265H159.406ZM158.088 257.412L156.359 257.471C155.061 257.51 154.094 257.744 153.459 258.174C152.824 258.604 152.507 259.258 152.507 260.137C152.507 261.396 153.229 262.026 154.675 262.026C155.71 262.026 156.535 261.729 157.15 261.133C157.775 260.537 158.088 259.746 158.088 258.76V257.412ZM171.608 248.623V254.922H177.849V248.623H182.316V265H177.849V258.247H171.608V265H167.141V248.623H171.608ZM191.472 248.623V254.922H197.712V248.623H202.18V265H197.712V258.247H191.472V265H187.004V248.623H191.472ZM213.649 251.494C212.702 251.494 211.96 251.797 211.423 252.402C210.886 252.998 210.578 253.848 210.5 254.951H216.77C216.75 253.848 216.462 252.998 215.905 252.402C215.349 251.797 214.597 251.494 213.649 251.494ZM214.279 265.293C211.643 265.293 209.582 264.565 208.098 263.11C206.613 261.655 205.871 259.595 205.871 256.929C205.871 254.185 206.555 252.065 207.922 250.571C209.299 249.067 211.198 248.315 213.62 248.315C215.935 248.315 217.736 248.975 219.025 250.293C220.314 251.611 220.959 253.433 220.959 255.757V257.925H210.397C210.446 259.194 210.822 260.186 211.525 260.898C212.229 261.611 213.215 261.968 214.484 261.968C215.471 261.968 216.403 261.865 217.282 261.66C218.161 261.455 219.079 261.128 220.036 260.679V264.136C219.255 264.526 218.42 264.814 217.531 265C216.643 265.195 215.559 265.293 214.279 265.293ZM233.586 265.293C231.662 265.293 230.153 264.595 229.06 263.198H228.825C228.981 264.565 229.06 265.356 229.06 265.571V272.207H224.592V248.623H228.225L228.854 250.747H229.06C230.104 249.126 231.652 248.315 233.703 248.315C235.637 248.315 237.15 249.062 238.244 250.557C239.338 252.051 239.885 254.126 239.885 256.782C239.885 258.53 239.626 260.049 239.108 261.338C238.601 262.627 237.873 263.608 236.926 264.282C235.979 264.956 234.865 265.293 233.586 265.293ZM232.268 251.89C231.164 251.89 230.358 252.231 229.851 252.915C229.343 253.589 229.079 254.707 229.06 256.27V256.753C229.06 258.511 229.318 259.771 229.836 260.532C230.363 261.294 231.193 261.675 232.326 261.675C234.328 261.675 235.329 260.024 235.329 256.724C235.329 255.112 235.08 253.906 234.582 253.105C234.094 252.295 233.322 251.89 232.268 251.89Z" fill="black"/>
</svg>
