<svg width="626" height="296" viewBox="0 0 626 296" fill="none" xmlns="http://www.w3.org/2000/svg">
<path d="M0.714 14.978C1.89933 14.026 2.828 13.2467 3.5 12.64C4.172 12.024 4.73667 11.3847 5.194 10.722C5.66067 10.05 5.894 9.392 5.894 8.748C5.894 8.14133 5.74467 7.66533 5.446 7.32C5.15667 6.96533 4.68533 6.788 4.032 6.788C3.39733 6.788 2.90267 6.98867 2.548 7.39C2.20267 7.782 2.016 8.30933 1.988 8.972H0.756C0.793333 7.92667 1.11067 7.11933 1.708 6.55C2.30533 5.98067 3.07533 5.696 4.018 5.696C4.97933 5.696 5.74 5.962 6.3 6.494C6.86933 7.026 7.154 7.75867 7.154 8.692C7.154 9.46667 6.92067 10.2227 6.454 10.96C5.99667 11.688 5.474 12.332 4.886 12.892C4.298 13.4427 3.54667 14.0867 2.632 14.824H7.448V15.888H0.714V14.978ZM8.92073 10.834C8.92073 9.22867 9.18207 7.978 9.70473 7.082C10.2274 6.17667 11.1421 5.724 12.4487 5.724C13.7461 5.724 14.6561 6.17667 15.1787 7.082C15.7014 7.978 15.9627 9.22867 15.9627 10.834C15.9627 12.4673 15.7014 13.7367 15.1787 14.642C14.6561 15.5473 13.7461 16 12.4487 16C11.1421 16 10.2274 15.5473 9.70473 14.642C9.18207 13.7367 8.92073 12.4673 8.92073 10.834ZM14.7027 10.834C14.7027 10.022 14.6467 9.336 14.5347 8.776C14.4321 8.20667 14.2127 7.74933 13.8767 7.404C13.5501 7.05867 13.0741 6.886 12.4487 6.886C11.8141 6.886 11.3287 7.05867 10.9927 7.404C10.6661 7.74933 10.4467 8.20667 10.3347 8.776C10.2321 9.336 10.1807 10.022 10.1807 10.834C10.1807 11.674 10.2321 12.3787 10.3347 12.948C10.4467 13.5173 10.6661 13.9747 10.9927 14.32C11.3287 14.6653 11.8141 14.838 12.4487 14.838C13.0741 14.838 13.5501 14.6653 13.8767 14.32C14.2127 13.9747 14.4321 13.5173 14.5347 12.948C14.6467 12.3787 14.7027 11.674 14.7027 10.834Z" fill="#898D9C"/>
<path d="M0.532 77.04V75.878H3.164V86H1.876V77.04H0.532ZM11.8064 76.984H6.89238V80.176C7.10704 79.8773 7.42438 79.6347 7.84438 79.448C8.26438 79.252 8.71704 79.154 9.20238 79.154C9.97704 79.154 10.607 79.3173 11.0924 79.644C11.5777 79.9613 11.923 80.3767 12.1284 80.89C12.343 81.394 12.4504 81.9307 12.4504 82.5C12.4504 83.172 12.3244 83.774 12.0724 84.306C11.8204 84.838 11.433 85.258 10.9104 85.566C10.397 85.874 9.75771 86.028 8.99238 86.028C8.01238 86.028 7.21904 85.776 6.61238 85.272C6.00571 84.768 5.63704 84.096 5.50638 83.256H6.75238C6.87371 83.788 7.13038 84.2033 7.52238 84.502C7.91438 84.8007 8.40904 84.95 9.00638 84.95C9.74371 84.95 10.299 84.7307 10.6724 84.292C11.0457 83.844 11.2324 83.256 11.2324 82.528C11.2324 81.8 11.0457 81.24 10.6724 80.848C10.299 80.4467 9.74838 80.246 9.02038 80.246C8.52571 80.246 8.09171 80.3673 7.71838 80.61C7.35438 80.8433 7.08838 81.1653 6.92038 81.576H5.71638V75.864H11.8064V76.984Z" fill="#898D9C"/>
<path d="M0.532 147.04V145.878H3.164V156H1.876V147.04H0.532ZM5.35238 150.834C5.35238 149.229 5.61371 147.978 6.13638 147.082C6.65904 146.177 7.57371 145.724 8.88038 145.724C10.1777 145.724 11.0877 146.177 11.6104 147.082C12.133 147.978 12.3944 149.229 12.3944 150.834C12.3944 152.467 12.133 153.737 11.6104 154.642C11.0877 155.547 10.1777 156 8.88038 156C7.57371 156 6.65904 155.547 6.13638 154.642C5.61371 153.737 5.35238 152.467 5.35238 150.834ZM11.1344 150.834C11.1344 150.022 11.0784 149.336 10.9664 148.776C10.8637 148.207 10.6444 147.749 10.3084 147.404C9.98171 147.059 9.50571 146.886 8.88038 146.886C8.24571 146.886 7.76038 147.059 7.42438 147.404C7.09771 147.749 6.87838 148.207 6.76638 148.776C6.66371 149.336 6.61238 150.022 6.61238 150.834C6.61238 151.674 6.66371 152.379 6.76638 152.948C6.87838 153.517 7.09771 153.975 7.42438 154.32C7.76038 154.665 8.24571 154.838 8.88038 154.838C9.50571 154.838 9.98171 154.665 10.3084 154.32C10.6444 153.975 10.8637 153.517 10.9664 152.948C11.0784 152.379 11.1344 151.674 11.1344 150.834Z" fill="#898D9C"/>
<path d="M7.322 216.984H2.408V220.176C2.62267 219.877 2.94 219.635 3.36 219.448C3.78 219.252 4.23267 219.154 4.718 219.154C5.49267 219.154 6.12267 219.317 6.608 219.644C7.09333 219.961 7.43867 220.377 7.644 220.89C7.85867 221.394 7.966 221.931 7.966 222.5C7.966 223.172 7.84 223.774 7.588 224.306C7.336 224.838 6.94867 225.258 6.426 225.566C5.91267 225.874 5.27333 226.028 4.508 226.028C3.528 226.028 2.73467 225.776 2.128 225.272C1.52133 224.768 1.15267 224.096 1.022 223.256H2.268C2.38933 223.788 2.646 224.203 3.038 224.502C3.43 224.801 3.92467 224.95 4.522 224.95C5.25933 224.95 5.81467 224.731 6.188 224.292C6.56133 223.844 6.748 223.256 6.748 222.528C6.748 221.8 6.56133 221.24 6.188 220.848C5.81467 220.447 5.264 220.246 4.536 220.246C4.04133 220.246 3.60733 220.367 3.234 220.61C2.87 220.843 2.604 221.165 2.436 221.576H1.232V215.864H7.322V216.984Z" fill="#898D9C"/>
<line x1="32" y1="11.75" x2="624" y2="11.75" stroke="#B3B8BE" stroke-width="0.5"/>
<line x1="32" y1="80.75" x2="624" y2="80.75" stroke="#B3B8BE" stroke-width="0.5"/>
<line x1="32" y1="150.75" x2="624" y2="150.75" stroke="#B3B8BE" stroke-width="0.5"/>
<line x1="32" y1="220.75" x2="624" y2="220.75" stroke="#B3B8BE" stroke-width="0.5"/>
<line x1="32" y1="253.75" x2="624" y2="253.75" stroke="#B3B8BE" stroke-width="0.5"/>
<path d="M35 235.843C60.9065 228.936 82.2099 186.816 113.121 179.737C129.596 175.963 142.795 183.307 157.521 194.719C172.247 206.13 169.364 211.058 202.483 219.855C229.813 227.115 236.962 148.842 263.743 151.85C290.524 154.857 302.911 60.7494 331.186 68.6051C359.461 76.4608 365.111 56.1501 391.689 94.6433C418.268 133.136 442.823 43.4114 476.188 35.5557C509.552 27.6999 518.242 111.079 534.076 107.937C549.91 104.795 564.167 164.208 577.739 172.85C591.311 181.491 595.159 150.1 624 150.1" stroke="#5B88D9" stroke-width="4" stroke-linecap="round" stroke-linejoin="round"/>
<path d="M32.714 288.978C33.8993 288.026 34.828 287.247 35.5 286.64C36.172 286.024 36.7367 285.385 37.194 284.722C37.6607 284.05 37.894 283.392 37.894 282.748C37.894 282.141 37.7447 281.665 37.446 281.32C37.1567 280.965 36.6853 280.788 36.032 280.788C35.3973 280.788 34.9027 280.989 34.548 281.39C34.2027 281.782 34.016 282.309 33.988 282.972H32.756C32.7933 281.927 33.1107 281.119 33.708 280.55C34.3053 279.981 35.0753 279.696 36.018 279.696C36.9793 279.696 37.74 279.962 38.3 280.494C38.8693 281.026 39.154 281.759 39.154 282.692C39.154 283.467 38.9207 284.223 38.454 284.96C37.9967 285.688 37.474 286.332 36.886 286.892C36.298 287.443 35.5467 288.087 34.632 288.824H39.448V289.888H32.714V288.978Z" fill="#898D9C"/>
<path d="M121.218 282.426C121.283 281.567 121.615 280.895 122.212 280.41C122.809 279.925 123.584 279.682 124.536 279.682C125.171 279.682 125.717 279.799 126.174 280.032C126.641 280.256 126.991 280.564 127.224 280.956C127.467 281.348 127.588 281.791 127.588 282.286C127.588 282.865 127.42 283.364 127.084 283.784C126.757 284.204 126.328 284.475 125.796 284.596V284.666C126.403 284.815 126.883 285.109 127.238 285.548C127.593 285.987 127.77 286.561 127.77 287.27C127.77 287.802 127.649 288.283 127.406 288.712C127.163 289.132 126.799 289.463 126.314 289.706C125.829 289.949 125.245 290.07 124.564 290.07C123.575 290.07 122.763 289.813 122.128 289.3C121.493 288.777 121.139 288.04 121.064 287.088H122.296C122.361 287.648 122.59 288.105 122.982 288.46C123.374 288.815 123.897 288.992 124.55 288.992C125.203 288.992 125.698 288.824 126.034 288.488C126.379 288.143 126.552 287.699 126.552 287.158C126.552 286.458 126.319 285.954 125.852 285.646C125.385 285.338 124.681 285.184 123.738 285.184H123.416V284.12H123.752C124.611 284.111 125.259 283.971 125.698 283.7C126.137 283.42 126.356 282.991 126.356 282.412C126.356 281.917 126.193 281.521 125.866 281.222C125.549 280.923 125.091 280.774 124.494 280.774C123.915 280.774 123.449 280.923 123.094 281.222C122.739 281.521 122.529 281.922 122.464 282.426H121.218Z" fill="#898D9C"/>
<path d="M215.658 287.746V286.78L220.572 279.976H222.098V286.64H223.498V287.746H222.098V290H220.838V287.746H215.658ZM220.894 281.306L217.128 286.64H220.894V281.306Z" fill="#898D9C"/>
<path d="M319.426 280.984H314.512V284.176C314.727 283.877 315.044 283.635 315.464 283.448C315.884 283.252 316.337 283.154 316.822 283.154C317.597 283.154 318.227 283.317 318.712 283.644C319.198 283.961 319.543 284.377 319.748 284.89C319.963 285.394 320.07 285.931 320.07 286.5C320.07 287.172 319.944 287.774 319.692 288.306C319.44 288.838 319.053 289.258 318.53 289.566C318.017 289.874 317.378 290.028 316.612 290.028C315.632 290.028 314.839 289.776 314.232 289.272C313.626 288.768 313.257 288.096 313.126 287.256H314.372C314.494 287.788 314.75 288.203 315.142 288.502C315.534 288.801 316.029 288.95 316.626 288.95C317.364 288.95 317.919 288.731 318.292 288.292C318.666 287.844 318.852 287.256 318.852 286.528C318.852 285.8 318.666 285.24 318.292 284.848C317.919 284.447 317.368 284.246 316.64 284.246C316.146 284.246 315.712 284.367 315.338 284.61C314.974 284.843 314.708 285.165 314.54 285.576H313.336V279.864H319.426V280.984Z" fill="#898D9C"/>
<path d="M416.567 282.286C416.361 281.25 415.722 280.732 414.649 280.732C413.818 280.732 413.197 281.054 412.787 281.698C412.376 282.333 412.175 283.383 412.185 284.848C412.399 284.363 412.754 283.985 413.249 283.714C413.753 283.434 414.313 283.294 414.929 283.294C415.89 283.294 416.655 283.593 417.225 284.19C417.803 284.787 418.093 285.613 418.093 286.668C418.093 287.303 417.967 287.872 417.715 288.376C417.472 288.88 417.099 289.281 416.595 289.58C416.1 289.879 415.498 290.028 414.789 290.028C413.827 290.028 413.076 289.813 412.535 289.384C411.993 288.955 411.615 288.362 411.401 287.606C411.186 286.85 411.079 285.917 411.079 284.806C411.079 281.381 412.273 279.668 414.663 279.668C415.577 279.668 416.296 279.915 416.819 280.41C417.341 280.905 417.649 281.53 417.743 282.286H416.567ZM414.663 284.372C414.261 284.372 413.883 284.456 413.529 284.624C413.174 284.783 412.885 285.03 412.661 285.366C412.446 285.693 412.339 286.094 412.339 286.57C412.339 287.279 412.544 287.858 412.955 288.306C413.365 288.745 413.953 288.964 414.719 288.964C415.372 288.964 415.89 288.763 416.273 288.362C416.665 287.951 416.861 287.401 416.861 286.71C416.861 285.982 416.674 285.413 416.301 285.002C415.927 284.582 415.381 284.372 414.663 284.372Z" fill="#898D9C"/>
<path d="M517.277 280.872L513.385 290H512.097L516.045 280.998H510.641V279.906H517.277V280.872Z" fill="#898D9C"/>
<path d="M617.884 284.736C617.361 284.531 616.96 284.232 616.68 283.84C616.4 283.448 616.26 282.972 616.26 282.412C616.26 281.908 616.386 281.455 616.638 281.054C616.89 280.643 617.263 280.321 617.758 280.088C618.262 279.845 618.869 279.724 619.578 279.724C620.287 279.724 620.889 279.845 621.384 280.088C621.888 280.321 622.266 280.643 622.518 281.054C622.779 281.455 622.91 281.908 622.91 282.412C622.91 282.953 622.765 283.429 622.476 283.84C622.187 284.241 621.79 284.54 621.286 284.736C621.865 284.913 622.322 285.226 622.658 285.674C623.003 286.113 623.176 286.645 623.176 287.27C623.176 287.877 623.027 288.409 622.728 288.866C622.429 289.314 622.005 289.664 621.454 289.916C620.913 290.159 620.287 290.28 619.578 290.28C618.869 290.28 618.243 290.159 617.702 289.916C617.17 289.664 616.755 289.314 616.456 288.866C616.157 288.409 616.008 287.877 616.008 287.27C616.008 286.645 616.176 286.108 616.512 285.66C616.848 285.212 617.305 284.904 617.884 284.736ZM621.678 282.566C621.678 281.997 621.491 281.558 621.118 281.25C620.745 280.942 620.231 280.788 619.578 280.788C618.934 280.788 618.425 280.942 618.052 281.25C617.679 281.558 617.492 282.001 617.492 282.58C617.492 283.103 617.683 283.523 618.066 283.84C618.458 284.157 618.962 284.316 619.578 284.316C620.203 284.316 620.707 284.157 621.09 283.84C621.482 283.513 621.678 283.089 621.678 282.566ZM619.578 285.296C618.887 285.296 618.323 285.459 617.884 285.786C617.445 286.103 617.226 286.584 617.226 287.228C617.226 287.825 617.436 288.306 617.856 288.67C618.285 289.034 618.859 289.216 619.578 289.216C620.297 289.216 620.866 289.034 621.286 288.67C621.706 288.306 621.916 287.825 621.916 287.228C621.916 286.603 621.701 286.127 621.272 285.8C620.843 285.464 620.278 285.296 619.578 285.296Z" fill="#898D9C"/>
<g filter="url(#filter0_d_1339_2007)">
<rect x="127" y="169" width="20" height="20" rx="10" fill="#5B88D9"/>
<rect x="129" y="171" width="16" height="16" rx="8" stroke="white" stroke-width="4"/>
</g>
<g filter="url(#filter1_d_1339_2007)">
<rect x="200" y="209" width="20" height="20" rx="10" fill="#5B88D9"/>
<rect x="202" y="211" width="16" height="16" rx="8" stroke="white" stroke-width="4"/>
</g>
<g filter="url(#filter2_d_1339_2007)">
<rect x="260" y="143" width="20" height="20" rx="10" fill="#5B88D9"/>
<rect x="262" y="145" width="16" height="16" rx="8" stroke="white" stroke-width="4"/>
</g>
<g filter="url(#filter3_d_1339_2007)">
<rect x="326" y="57" width="20" height="20" rx="10" fill="#5B88D9"/>
<rect x="328" y="59" width="16" height="16" rx="8" stroke="white" stroke-width="4"/>
</g>
<g filter="url(#filter4_d_1339_2007)">
<rect x="401" y="95" width="20" height="20" rx="10" fill="#5B88D9"/>
<rect x="403" y="97" width="16" height="16" rx="8" stroke="white" stroke-width="4"/>
</g>
<g filter="url(#filter5_d_1339_2007)">
<rect x="475" y="27" width="20" height="20" rx="10" fill="#5B88D9"/>
<rect x="477" y="29" width="16" height="16" rx="8" stroke="white" stroke-width="4"/>
</g>
<g filter="url(#filter6_d_1339_2007)">
<rect x="527" y="97" width="20" height="20" rx="10" fill="#5B88D9"/>
<rect x="529" y="99" width="16" height="16" rx="8" stroke="white" stroke-width="4"/>
</g>
<g filter="url(#filter7_d_1339_2007)">
<rect x="572" y="165" width="20" height="20" rx="10" fill="#5B88D9"/>
<rect x="574" y="167" width="16" height="16" rx="8" stroke="white" stroke-width="4"/>
</g>
<defs>
<filter id="filter0_d_1339_2007" x="112" y="154" width="50" height="50" filterUnits="userSpaceOnUse" color-interpolation-filters="sRGB">
<feFlood flood-opacity="0" result="BackgroundImageFix"/>
<feColorMatrix in="SourceAlpha" type="matrix" values="0 0 0 0 0 0 0 0 0 0 0 0 0 0 0 0 0 0 127 0" result="hardAlpha"/>
<feOffset/>
<feGaussianBlur stdDeviation="7.5"/>
<feColorMatrix type="matrix" values="0 0 0 0 0.526962 0 0 0 0 0.527964 0 0 0 0 0.529167 0 0 0 0.35 0"/>
<feBlend mode="normal" in2="BackgroundImageFix" result="effect1_dropShadow_1339_2007"/>
<feBlend mode="normal" in="SourceGraphic" in2="effect1_dropShadow_1339_2007" result="shape"/>
</filter>
<filter id="filter1_d_1339_2007" x="185" y="194" width="50" height="50" filterUnits="userSpaceOnUse" color-interpolation-filters="sRGB">
<feFlood flood-opacity="0" result="BackgroundImageFix"/>
<feColorMatrix in="SourceAlpha" type="matrix" values="0 0 0 0 0 0 0 0 0 0 0 0 0 0 0 0 0 0 127 0" result="hardAlpha"/>
<feOffset/>
<feGaussianBlur stdDeviation="7.5"/>
<feColorMatrix type="matrix" values="0 0 0 0 0.526962 0 0 0 0 0.527964 0 0 0 0 0.529167 0 0 0 0.35 0"/>
<feBlend mode="normal" in2="BackgroundImageFix" result="effect1_dropShadow_1339_2007"/>
<feBlend mode="normal" in="SourceGraphic" in2="effect1_dropShadow_1339_2007" result="shape"/>
</filter>
<filter id="filter2_d_1339_2007" x="245" y="128" width="50" height="50" filterUnits="userSpaceOnUse" color-interpolation-filters="sRGB">
<feFlood flood-opacity="0" result="BackgroundImageFix"/>
<feColorMatrix in="SourceAlpha" type="matrix" values="0 0 0 0 0 0 0 0 0 0 0 0 0 0 0 0 0 0 127 0" result="hardAlpha"/>
<feOffset/>
<feGaussianBlur stdDeviation="7.5"/>
<feColorMatrix type="matrix" values="0 0 0 0 0.526962 0 0 0 0 0.527964 0 0 0 0 0.529167 0 0 0 0.35 0"/>
<feBlend mode="normal" in2="BackgroundImageFix" result="effect1_dropShadow_1339_2007"/>
<feBlend mode="normal" in="SourceGraphic" in2="effect1_dropShadow_1339_2007" result="shape"/>
</filter>
<filter id="filter3_d_1339_2007" x="311" y="42" width="50" height="50" filterUnits="userSpaceOnUse" color-interpolation-filters="sRGB">
<feFlood flood-opacity="0" result="BackgroundImageFix"/>
<feColorMatrix in="SourceAlpha" type="matrix" values="0 0 0 0 0 0 0 0 0 0 0 0 0 0 0 0 0 0 127 0" result="hardAlpha"/>
<feOffset/>
<feGaussianBlur stdDeviation="7.5"/>
<feColorMatrix type="matrix" values="0 0 0 0 0.526962 0 0 0 0 0.527964 0 0 0 0 0.529167 0 0 0 0.35 0"/>
<feBlend mode="normal" in2="BackgroundImageFix" result="effect1_dropShadow_1339_2007"/>
<feBlend mode="normal" in="SourceGraphic" in2="effect1_dropShadow_1339_2007" result="shape"/>
</filter>
<filter id="filter4_d_1339_2007" x="386" y="80" width="50" height="50" filterUnits="userSpaceOnUse" color-interpolation-filters="sRGB">
<feFlood flood-opacity="0" result="BackgroundImageFix"/>
<feColorMatrix in="SourceAlpha" type="matrix" values="0 0 0 0 0 0 0 0 0 0 0 0 0 0 0 0 0 0 127 0" result="hardAlpha"/>
<feOffset/>
<feGaussianBlur stdDeviation="7.5"/>
<feColorMatrix type="matrix" values="0 0 0 0 0.526962 0 0 0 0 0.527964 0 0 0 0 0.529167 0 0 0 0.35 0"/>
<feBlend mode="normal" in2="BackgroundImageFix" result="effect1_dropShadow_1339_2007"/>
<feBlend mode="normal" in="SourceGraphic" in2="effect1_dropShadow_1339_2007" result="shape"/>
</filter>
<filter id="filter5_d_1339_2007" x="460" y="12" width="50" height="50" filterUnits="userSpaceOnUse" color-interpolation-filters="sRGB">
<feFlood flood-opacity="0" result="BackgroundImageFix"/>
<feColorMatrix in="SourceAlpha" type="matrix" values="0 0 0 0 0 0 0 0 0 0 0 0 0 0 0 0 0 0 127 0" result="hardAlpha"/>
<feOffset/>
<feGaussianBlur stdDeviation="7.5"/>
<feColorMatrix type="matrix" values="0 0 0 0 0.526962 0 0 0 0 0.527964 0 0 0 0 0.529167 0 0 0 0.35 0"/>
<feBlend mode="normal" in2="BackgroundImageFix" result="effect1_dropShadow_1339_2007"/>
<feBlend mode="normal" in="SourceGraphic" in2="effect1_dropShadow_1339_2007" result="shape"/>
</filter>
<filter id="filter6_d_1339_2007" x="512" y="82" width="50" height="50" filterUnits="userSpaceOnUse" color-interpolation-filters="sRGB">
<feFlood flood-opacity="0" result="BackgroundImageFix"/>
<feColorMatrix in="SourceAlpha" type="matrix" values="0 0 0 0 0 0 0 0 0 0 0 0 0 0 0 0 0 0 127 0" result="hardAlpha"/>
<feOffset/>
<feGaussianBlur stdDeviation="7.5"/>
<feColorMatrix type="matrix" values="0 0 0 0 0.526962 0 0 0 0 0.527964 0 0 0 0 0.529167 0 0 0 0.35 0"/>
<feBlend mode="normal" in2="BackgroundImageFix" result="effect1_dropShadow_1339_2007"/>
<feBlend mode="normal" in="SourceGraphic" in2="effect1_dropShadow_1339_2007" result="shape"/>
</filter>
<filter id="filter7_d_1339_2007" x="557" y="150" width="50" height="50" filterUnits="userSpaceOnUse" color-interpolation-filters="sRGB">
<feFlood flood-opacity="0" result="BackgroundImageFix"/>
<feColorMatrix in="SourceAlpha" type="matrix" values="0 0 0 0 0 0 0 0 0 0 0 0 0 0 0 0 0 0 127 0" result="hardAlpha"/>
<feOffset/>
<feGaussianBlur stdDeviation="7.5"/>
<feColorMatrix type="matrix" values="0 0 0 0 0.526962 0 0 0 0 0.527964 0 0 0 0 0.529167 0 0 0 0.35 0"/>
<feBlend mode="normal" in2="BackgroundImageFix" result="effect1_dropShadow_1339_2007"/>
<feBlend mode="normal" in="SourceGraphic" in2="effect1_dropShadow_1339_2007" result="shape"/>
</filter>
</defs>
</svg>
