<svg width="177" height="128" viewBox="0 0 177 128" fill="none" xmlns="http://www.w3.org/2000/svg">
<path d="M144.657 26.8337L138.064 29.1892L135.235 20.5735C130.037 4.68621 113.471 -3.75031 98.2496 1.61373C83.028 6.97776 74.9243 24.4013 80.122 40.2886L82.9512 48.9043L76.3326 51.2727C73.8088 52.2516 71.7593 54.1654 70.6101 56.6164C69.4609 59.0673 69.3004 61.8669 70.162 64.4331L88.5072 120.493C88.8881 121.763 89.5203 122.944 90.3665 123.965C91.2127 124.987 92.2555 125.827 93.433 126.438C94.6105 127.048 95.8986 127.415 97.2209 127.518C98.5431 127.62 99.8725 127.456 101.13 127.035L169.454 102.596C172.011 101.619 174.09 99.6879 175.253 97.2095C176.415 94.7312 176.572 91.8986 175.689 89.3074L157.331 33.2475C156.94 31.9806 156.298 30.8055 155.443 29.7922C154.589 28.7789 153.538 27.9481 152.356 27.3495C151.173 26.7509 149.881 26.3967 148.559 26.3081C147.236 26.2195 145.909 26.3982 144.657 26.8337ZM92.5783 35.7951C91.1768 31.6641 91.4284 27.1511 93.2803 23.2015C95.1322 19.252 98.4407 16.1723 102.513 14.6078C104.523 13.9198 106.652 13.6439 108.772 13.7966C110.891 13.9493 112.958 14.5273 114.85 15.4963C116.741 16.4653 118.418 17.8053 119.78 19.4364C121.142 21.0676 122.162 22.9564 122.778 24.9902L125.595 33.6059L95.3947 44.4108L92.5783 35.7951ZM130.984 85.5436L135.67 99.8562C135.756 100.143 135.728 100.452 135.592 100.719C135.456 100.986 135.223 101.191 134.94 101.29L128.373 103.633C128.111 103.705 127.832 103.674 127.593 103.545C127.355 103.416 127.175 103.2 127.092 102.942L122.369 88.6929C119.764 88.551 117.264 87.6167 115.205 86.0151C113.146 84.4136 111.625 82.2212 110.847 79.7315C109.733 76.44 109.936 72.8454 111.414 69.7003C112.891 66.5552 115.527 64.1035 118.771 62.8585C120.373 62.3112 122.068 62.092 123.757 62.214C125.445 62.3359 127.091 62.7965 128.598 63.5682C130.104 64.3399 131.44 65.4071 132.525 66.7059C133.61 68.0048 134.423 69.5089 134.914 71.1286C135.738 73.6576 135.806 76.3721 135.11 78.9393C134.415 81.5065 132.985 83.815 130.997 85.582L130.984 85.5436Z" fill="#5B88D9"/>
<path d="M137.772 29.0353C137.772 29.2145 125.546 33.8105 110.337 39.2769C95.1286 44.7434 82.7234 49.1344 82.6594 49.0064C82.5954 48.8784 94.8853 44.2441 110.107 38.7648C125.328 33.2856 137.708 28.8689 137.772 29.0353Z" fill="#060C1C"/>
<path d="M152.288 31.3909C152.344 31.502 152.392 31.6176 152.429 31.7365C152.531 31.9926 152.646 32.3254 152.8 32.7351C153.133 33.6696 153.594 34.9626 154.17 36.5757L159.086 50.8883C161.134 56.9564 163.579 64.1512 166.293 72.1396C167.574 76.1466 169.084 80.3201 170.492 84.7112C171.246 86.974 171.572 89.3574 171.453 91.7395C171.344 92.9783 170.992 94.1835 170.416 95.2856C169.8 96.3841 168.979 97.3534 167.996 98.1405C166.018 99.5842 163.823 100.704 161.493 101.456L154.9 103.825L142.418 108.292L121.282 115.82L107.007 120.838L103.167 122.119L102.143 122.451C102.033 122.5 101.916 122.53 101.797 122.541C101.797 122.541 101.899 122.541 102.117 122.387L103.115 121.991L106.956 120.544L121.153 115.321L142.251 107.64L154.708 103.133L161.301 100.752C163.565 100.03 165.696 98.9448 167.612 97.5388C168.526 96.8085 169.291 95.9087 169.865 94.8888C170.407 93.8694 170.734 92.7496 170.825 91.5986C170.943 89.3035 170.63 87.0066 169.904 84.8264C168.521 80.4737 167.061 76.2619 165.743 72.2548C163.08 64.2536 160.622 57.0333 158.676 50.9651C156.73 44.897 155.092 40.0194 153.965 36.5885C153.427 34.9114 153.018 33.6056 152.685 32.6583L152.378 31.6341C152.339 31.5565 152.309 31.475 152.288 31.3909Z" fill="#060C1C"/>
<path d="M116.234 13.7372C116.234 13.7372 115.556 13.4043 114.301 12.8922C112.513 12.2051 110.622 11.8243 108.707 11.7657C105.869 11.6683 103.044 12.2018 100.437 13.3275C97.2661 14.7293 94.5551 16.9966 92.6147 19.8693C90.6613 22.7338 89.6132 26.1189 89.6062 29.586C89.6329 32.4277 90.0639 35.2512 90.8864 37.9713C91.5521 40.3013 92.2434 42.1576 92.7043 43.4506C92.9761 44.1074 93.1987 44.7835 93.37 45.4733C93.0064 44.8593 92.702 44.212 92.461 43.5402C91.9362 42.26 91.1809 40.4421 90.4383 38.0994C89.5269 35.3506 89.0307 32.4813 88.9661 29.586C88.932 25.9879 90.0046 22.4663 92.0386 19.4981C94.0467 16.5205 96.8685 14.183 100.168 12.7642C102.856 11.6323 105.769 11.133 108.681 11.3048C110.638 11.4045 112.559 11.86 114.352 12.649C114.832 12.8702 115.294 13.1269 115.735 13.4171C115.917 13.4971 116.086 13.6051 116.234 13.7372Z" fill="#060C1C"/>
<path d="M116.824 63.8314C117.029 63.7076 117.243 63.6006 117.465 63.5114C118.105 63.2222 118.769 62.9867 119.449 62.8073C120.528 62.4888 121.641 62.2997 122.765 62.244C124.293 62.1618 125.822 62.3927 127.258 62.9225C130.535 64.0747 133.544 67.416 135.029 71.8839C135.741 74.2816 135.741 76.8345 135.029 79.2322C134.239 81.8346 132.824 84.2038 130.907 86.1325L130.983 85.7869C132.686 90.4596 134.542 95.5292 136.463 100.816L136.578 101.136L136.258 101.252L133.326 102.225L126.925 104.363L126.605 104.465L126.503 104.145C124.749 98.8449 122.829 93.9033 121.382 89.0514L121.664 89.269C119.161 89.0611 116.775 88.1217 114.802 86.5678C113.017 85.193 111.553 83.4455 110.513 81.447C109.575 79.6747 109.107 77.6909 109.156 75.6861C109.215 73.637 109.727 71.6265 110.654 69.7984C111.582 67.9702 112.902 66.3698 114.52 65.1116C115.186 64.5709 115.934 64.1388 116.735 63.8314C116.012 64.2605 115.311 64.7262 114.635 65.2268C112.858 66.7309 111.496 68.666 110.679 70.8469C109.979 72.4915 109.651 74.2708 109.72 76.057C109.789 77.8432 110.252 79.5921 111.076 81.1781C112.099 83.1007 113.528 84.7781 115.263 86.0941C117.145 87.5712 119.42 88.4616 121.804 88.6545H122.022L122.086 88.8465C123.494 93.6089 125.427 98.5888 127.207 103.914L126.784 103.71L133.185 101.572L136.104 100.586L135.899 101.021C133.992 95.734 132.148 90.6516 130.459 85.9789V85.7869L130.612 85.6332C132.473 83.7845 133.861 81.514 134.658 79.0146C135.337 76.721 135.337 74.2799 134.658 71.9863C133.262 67.6848 130.382 64.4203 127.258 63.2681C125.875 62.735 124.399 62.4868 122.918 62.5384C121.812 62.5638 120.713 62.7141 119.641 62.9865C117.733 63.4602 116.837 63.8954 116.824 63.8314Z" fill="#060C1C"/>
<path d="M48.3403 50.5929L45.5036 50.0707L46.2747 46.4151C47.7036 39.6783 43.5411 33.2493 37.0072 32.0173C30.4733 30.7852 23.9858 35.3222 22.5569 42.059L21.7858 45.7146L18.9373 45.1917C17.8355 45.0193 16.7096 45.2782 15.7937 45.9145C14.8778 46.5508 14.2423 47.5156 14.0194 48.6083L8.97929 72.3809C8.85263 72.9124 8.8341 73.4639 8.9248 74.0027C9.01549 74.5415 9.21357 75.0566 9.50725 75.5174C9.80094 75.9781 10.1842 76.3751 10.6344 76.6848C11.0845 76.9945 11.5923 77.2105 12.1276 77.3201L41.5306 82.7213C42.644 82.9011 43.7837 82.6422 44.7101 81.9989C45.6365 81.3557 46.2773 80.3783 46.4978 79.2722L51.5333 55.497C51.6557 54.9647 51.6696 54.4133 51.5742 53.8755C51.4789 53.3377 51.2761 52.8247 50.9781 52.367C50.6801 51.9093 50.293 51.5163 49.8398 51.2115C49.3866 50.9067 48.8766 50.6963 48.3403 50.5929ZM27.9253 43.0302C28.279 41.2682 29.3008 39.7114 30.7768 38.6861C32.2527 37.6607 34.0682 37.2463 35.8428 37.5297C36.7017 37.6998 37.5174 38.0411 38.2415 38.5334C38.9655 39.0256 39.583 39.6586 40.057 40.3947C40.5311 41.1308 40.852 41.9548 41.0006 42.8176C41.1493 43.6804 41.1226 44.5643 40.9222 45.4166L40.1465 49.0695L27.1496 46.6831L27.9253 43.0302ZM31.3397 68.6966L30.0536 74.7663C30.025 74.8864 29.9512 74.9909 29.8477 75.058C29.7441 75.1251 29.6186 75.1497 29.4973 75.1267L26.6724 74.6053C26.5642 74.5771 26.4712 74.5082 26.4127 74.413C26.3543 74.3177 26.335 74.2036 26.3588 74.0944L27.618 68.0396C26.7189 67.451 26.0209 66.6017 25.6177 65.6055C25.2145 64.6092 25.1253 63.5136 25.362 62.4653C25.645 61.062 26.4598 59.8226 27.636 59.0066C28.8122 58.1906 30.2584 57.8613 31.672 58.0875C32.3559 58.2233 33.0056 58.4954 33.5822 58.8876C34.1588 59.2797 34.6505 59.784 35.0281 60.3702C35.4057 60.9565 35.6614 61.6127 35.7799 62.2999C35.8985 62.9871 35.8775 63.6911 35.7182 64.37C35.4894 65.4416 34.953 66.4233 34.1747 67.1947C33.3964 67.9661 32.41 68.4937 31.3364 68.7129L31.3397 68.6966Z" fill="#C6DAFF"/>
<path d="M45.4313 49.9555C45.3943 50.0194 40.0869 49.1324 33.5365 47.9395C26.986 46.7466 21.657 45.7495 21.6606 45.6907C21.6643 45.6318 27.0024 46.5184 33.5601 47.7094C40.1178 48.9003 45.4429 49.883 45.4313 49.9555Z" fill="#060C1C"/>
<path d="M50.1192 53.7937C50.1164 53.845 50.1093 53.8959 50.098 53.946C50.0817 54.0584 50.054 54.2009 50.0241 54.3786C49.9497 54.7805 49.847 55.3366 49.7191 56.0306L48.5151 62.1479C47.9919 64.7341 47.3774 67.8038 46.6948 71.212C46.3234 72.9048 45.9999 74.7045 45.5949 76.5606C45.3961 77.5229 45.0199 78.4397 44.4854 79.2642C44.1908 79.6834 43.8162 80.0402 43.3833 80.3141C42.9371 80.5786 42.444 80.7544 41.9311 80.832C40.9278 80.9381 39.9141 80.8836 38.928 80.6706L36.0886 80.153L30.7164 79.1674L21.6273 77.485L15.5026 76.3254L13.8691 75.9884L13.4353 75.8955C13.3862 75.8903 13.3383 75.877 13.2935 75.8561C13.2935 75.8561 13.33 75.8773 13.4394 75.8674L13.8773 75.9322L15.5451 76.2099L21.6848 77.2805L30.792 78.9003L36.163 79.8669L39.005 80.3799C39.9612 80.5902 40.9451 80.6436 41.9185 80.5382C42.3953 80.4667 42.8538 80.304 43.269 80.0589C43.6728 79.8076 44.0206 79.4759 44.2909 79.0845C44.807 78.2907 45.17 77.4073 45.3611 76.48C45.7674 74.6429 46.1171 72.8401 46.4747 71.1393C47.1783 67.7372 47.7935 64.6557 48.3532 62.0907C48.913 59.5257 49.3364 57.4486 49.6435 55.9929C49.7982 55.284 49.9219 54.7339 49.9989 54.3275L50.101 53.8989C50.1032 53.8633 50.1093 53.828 50.1192 53.7937Z" fill="#060C1C"/>
<path d="M40.914 40.0536C40.914 40.0536 40.7409 39.7948 40.3994 39.3532C39.9039 38.7388 39.3084 38.2124 38.6379 37.796C37.6463 37.1751 36.5293 36.7818 35.3674 36.6445C33.9476 36.4893 32.5129 36.7375 31.2279 37.3608C29.9399 37.9783 28.8671 38.9685 28.1484 40.203C27.571 41.2214 27.1414 42.3169 26.8727 43.4565C26.6288 44.4245 26.4917 45.229 26.389 45.7851C26.3502 46.0754 26.2899 46.3623 26.2085 46.6436C26.2057 46.3496 26.2309 46.056 26.2837 45.7668C26.3611 45.202 26.4673 44.398 26.6866 43.4095C26.9294 42.2414 27.3452 41.1161 27.9202 40.0708C28.6513 38.7811 29.761 37.7473 31.0992 37.1094C32.43 36.4628 33.9187 36.2124 35.3879 36.3882C36.5801 36.5401 37.7214 36.9637 38.724 37.6264C39.4008 38.0661 39.9918 38.6254 40.4679 39.277C40.5932 39.4549 40.7049 39.6419 40.8021 39.8364C40.8505 39.9026 40.8883 39.9758 40.914 40.0536Z" fill="#060C1C"/>
<path d="M30.777 58.0323C30.8754 58.0304 30.9739 58.0364 31.0713 58.0504C31.3595 58.0797 31.6447 58.1328 31.9241 58.2093C32.3745 58.3186 32.8103 58.4811 33.2224 58.6934C33.7841 58.9798 34.2815 59.3779 34.684 59.8634C35.6142 60.9511 35.9964 62.7635 35.6029 64.6629C35.3615 65.6647 34.8342 66.5747 34.0851 67.2823C33.2661 68.0468 32.2722 68.599 31.1904 68.8905L31.2892 68.7832C30.9309 70.8005 30.5455 72.9911 30.1379 75.2724L30.1128 75.4103L29.975 75.3853L28.729 75.1265L26.0057 74.5665L25.8704 74.5369L25.9 74.4016C26.3696 72.1501 26.7058 69.992 27.1923 67.9636L27.2477 68.0994C26.3985 67.5083 25.742 66.6805 25.3597 65.7191C25.0074 64.8604 24.8466 63.9351 24.8887 63.0079C24.9202 62.1823 25.1634 61.3786 25.5949 60.6741C26.0392 59.9559 26.6369 59.3449 27.3451 58.8848C28.0533 58.4247 28.8544 58.1268 29.6912 58.0126C30.0403 57.9575 30.396 57.9579 30.7451 58.0138C30.3987 58.0173 30.0527 58.0386 29.7084 58.0775C28.7641 58.2465 27.8789 58.6549 27.1375 59.2638C26.5481 59.7053 26.0638 60.2719 25.7193 60.9228C25.3748 61.5737 25.1787 62.2928 25.145 63.0284C25.1125 63.925 25.2751 64.818 25.6218 65.6455C25.9876 66.5607 26.6147 67.3481 27.4249 67.9094L27.5024 67.9544L27.4856 68.036C27.0039 70.0245 26.6643 72.199 26.1986 74.4649L26.0903 74.3046L28.8136 74.8647L30.0577 75.1162L29.8948 75.2291C30.3069 72.9504 30.6996 70.7579 31.0624 68.7432L31.1021 68.6748L31.1886 68.6517C32.2339 68.3771 33.1975 67.8545 33.9977 67.128C34.7135 66.4507 35.2177 65.5805 35.4495 64.6227C35.8405 62.8012 35.4881 61.0425 34.6126 59.9866C34.2298 59.511 33.7549 59.1176 33.2163 58.8301C32.8169 58.6107 32.3939 58.4372 31.9555 58.3128C31.1777 58.0877 30.7684 58.0577 30.777 58.0323Z" fill="#060C1C"/>
</svg>
