<svg width="223" height="193" viewBox="0 0 223 193" fill="none" xmlns="http://www.w3.org/2000/svg">
<g opacity="0.7">
<path d="M180.84 108.242C181.132 108.165 181.361 107.947 181.44 107.659C181.527 107.356 181.464 107.033 181.245 106.799L164.178 88.1753C163.97 87.9387 163.655 87.8396 163.349 87.9081L138.934 93.1802C138.628 93.2487 138.387 93.4701 138.289 93.7753C138.202 94.0775 138.265 94.401 138.484 94.6347L155.551 113.259C155.759 113.495 156.074 113.594 156.38 113.526L180.795 108.254C180.818 108.248 180.829 108.245 180.84 108.242ZM163.251 89.7314L178.939 106.849L156.5 111.697L140.813 94.5794L163.251 89.7314Z" fill="#5B88D9"/>
<path d="M180.884 108.112C181.175 108.036 181.405 107.818 181.484 107.532L188.913 83.5108C189 83.21 188.937 82.8881 188.718 82.6555L171.683 64.1219C171.476 63.8864 171.15 63.7907 170.855 63.856C170.539 63.9272 170.309 64.1446 170.222 64.4454L162.793 88.4662C162.706 88.767 162.769 89.0889 162.988 89.3214L180.023 107.855C180.23 108.091 180.556 108.186 180.851 108.121C180.862 108.118 180.873 108.115 180.884 108.112ZM187.098 83.456L180.266 105.555L164.605 88.5097L171.436 66.4105L187.098 83.456Z" fill="#5B88D9"/>
<path d="M163.835 89.8083C164.126 89.7313 164.356 89.5128 164.435 89.2247L171.866 65.0764C171.953 64.774 171.89 64.4504 171.671 64.2166C171.463 63.9799 171.148 63.8807 170.842 63.9493L146.423 69.2248C146.117 69.2933 145.876 69.5148 145.778 69.8202L138.346 93.9685C138.259 94.2709 138.322 94.5945 138.541 94.8283C138.749 95.0651 139.064 95.1642 139.37 95.0956L163.79 89.8201C163.812 89.8142 163.823 89.8113 163.835 89.8083ZM169.755 65.9857L162.922 88.2022L140.468 93.0563L147.302 70.8398L169.755 65.9857Z" fill="#5B88D9"/>
</g>
<g opacity="0.7">
<path d="M27.0987 94.2411C27.2571 94.1993 27.3818 94.0807 27.4245 93.9243C27.4717 93.7602 27.4374 93.5845 27.3184 93.4576L18.0489 83.3423C17.936 83.2137 17.7648 83.1599 17.5987 83.1971L4.33811 86.0606C4.17192 86.0978 4.04114 86.218 3.98788 86.3838C3.94071 86.5479 3.97496 86.7236 4.09398 86.8505L13.3635 96.9658C13.4764 97.0943 13.6475 97.1482 13.8137 97.1109L27.0743 94.2475C27.0865 94.2443 27.0926 94.2427 27.0987 94.2411ZM17.5455 84.1874L26.0661 93.4844L13.8791 96.1174L5.35852 86.8205L17.5455 84.1874Z" fill="#5B88D9"/>
<path d="M27.113 94.1707C27.2712 94.1291 27.3958 94.011 27.4386 93.8554L31.4738 80.8089C31.5209 80.6455 31.4868 80.4707 31.368 80.3444L22.1157 70.2782C22.003 70.1503 21.826 70.0983 21.6661 70.1338C21.494 70.1724 21.3695 70.2905 21.3223 70.4539L17.2871 83.5003C17.2399 83.6637 17.274 83.8385 17.3928 83.9649L26.6452 94.0311C26.7579 94.159 26.9348 94.2109 27.0947 94.1755C27.1008 94.1739 27.1069 94.1723 27.113 94.1707ZM30.4881 80.7791L26.7775 92.7819L18.2711 83.524L21.9816 71.5212L30.4881 80.7791Z" fill="#5B88D9"/>
<path d="M17.8576 84.2298C18.0161 84.188 18.1408 84.0693 18.1836 83.9129L22.2199 70.7972C22.2671 70.6329 22.2329 70.4572 22.1139 70.3302C22.001 70.2016 21.8298 70.1477 21.6636 70.185L8.40077 73.0503C8.23455 73.0875 8.10372 73.2078 8.05044 73.3737L4.01406 86.4894C3.96687 86.6536 4.0011 86.8294 4.12012 86.9563C4.23305 87.0849 4.40419 87.1388 4.57041 87.1015L17.8332 84.2363C17.8454 84.233 17.8515 84.2314 17.8576 84.2298ZM21.0735 71.291L17.3618 83.3575L5.16664 85.9939L8.87828 73.9274L21.0735 71.291Z" fill="#5B88D9"/>
</g>
<g opacity="0.7">
<path d="M79.8086 59.9304C80.86 60.859 82.0139 61.7749 83.2574 62.5737L131.341 56.5991C132.353 55.5201 133.249 54.3494 134.043 53.1915L79.8086 59.9304Z" fill="#5B88D9"/>
<path d="M71.9648 50.4954C72.5035 51.4892 73.1447 52.4704 73.773 53.347L138.363 45.3137C138.76 44.3095 139.144 43.2009 139.426 42.105L71.9648 50.4954Z" fill="#5B88D9"/>
<path d="M97.1895 68.1941C100.817 68.9053 104.585 69.0713 108.481 68.588C112.377 68.1047 115.99 67.0231 119.334 65.447L97.1895 68.1941Z" fill="#5B88D9"/>
<path d="M67.9121 40.5876C68.1432 41.6203 68.4767 42.6403 68.7975 43.5557L140.872 34.5885C140.948 33.5175 140.935 32.5639 141.012 31.4929L67.9121 40.5876Z" fill="#5B88D9"/>
<path d="M68.8308 19.6487C68.4339 20.6529 68.1524 21.7489 67.8709 22.8449L136.357 14.3265C135.818 13.3325 135.279 12.3386 134.651 11.4618L68.8308 19.6487Z" fill="#5B88D9"/>
<path d="M66.832 30.3093C66.7554 31.3803 66.7686 32.334 66.7946 33.3922L139.997 24.2846C139.765 23.2519 139.534 22.2192 139.214 21.3038L66.832 30.3093Z" fill="#5B88D9"/>
</g>
<g opacity="0.7">
<path d="M134.15 159.645C134.524 159.975 134.934 160.3 135.375 160.583L152.451 158.462C152.81 158.079 153.129 157.663 153.411 157.252L134.15 159.645Z" fill="#5B88D9"/>
<path d="M131.603 142.565L151.665 140.071C151.291 139.741 150.918 139.412 150.549 139.119L132.49 141.363C132.167 141.742 131.885 142.153 131.603 142.565Z" fill="#5B88D9"/>
<path d="M146.33 137.036C144.677 136.529 142.884 136.377 141.027 136.607C139.207 136.833 137.505 137.418 135.99 138.317L146.33 137.036Z" fill="#5B88D9"/>
<path d="M131.363 156.294C131.555 156.647 131.782 156.996 132.005 157.307L154.943 154.454C155.084 154.098 155.221 153.704 155.321 153.315L131.363 156.294Z" fill="#5B88D9"/>
<path d="M140.322 162.58C141.61 162.832 142.949 162.891 144.332 162.719C145.716 162.548 146.999 162.164 148.187 161.604L140.322 162.58Z" fill="#5B88D9"/>
<path d="M129.926 152.776C130.008 153.142 130.126 153.505 130.24 153.83L155.836 150.645C155.863 150.265 155.859 149.926 155.886 149.546L129.926 152.776Z" fill="#5B88D9"/>
<path d="M130.251 145.34C130.11 145.696 130.01 146.085 129.91 146.475L154.231 143.45C154.04 143.097 153.849 142.744 153.626 142.432L130.251 145.34Z" fill="#5B88D9"/>
<path d="M129.54 149.126C129.513 149.506 129.518 149.845 129.527 150.221L155.523 146.986C155.441 146.619 155.359 146.253 155.245 145.928L129.54 149.126Z" fill="#5B88D9"/>
</g>
<path opacity="0.7" d="M93.9425 122.831L87.5891 137.568L102.473 139.672L102.246 141.663L84.6992 139.237L91.0527 124.5L74.8715 122.215L81.2535 107.368L65.0438 105.192L71.2646 90.0668L55.0549 87.8913L61.7272 71.4817L63.5648 72.2811L57.9447 86.2228L74.0856 88.438L67.9336 103.524L84.0745 105.739L77.8016 120.616L93.9425 122.831Z" fill="#5B88D9"/>
<path opacity="0.7" d="M20.9596 34.9605L12.4857 33.721L13.4571 41.6836L12.3994 41.8418L11.2266 32.4619L19.7005 33.7013L18.6434 25.0451L27.1776 26.2841L26.0602 17.6283L34.716 18.7458L33.5985 10.0899L42.9785 11.2628L42.8202 12.3204L34.8577 11.3491L35.9452 19.9749L27.3193 18.8874L28.4068 27.5133L19.8721 26.3346L20.9596 34.9605Z" fill="#5B88D9"/>
<path opacity="0.7" d="M186.456 175.95L185.46 167.444L178.02 170.443L177.593 169.462L186.35 165.902L187.346 174.408L195.434 171.146L196.446 179.71L204.517 176.391L205.678 185.041L213.75 181.721L215.045 191.085L213.982 191.206L212.86 183.263L204.809 186.546L203.627 177.933L195.577 181.216L194.506 172.667L186.456 175.95Z" fill="#5B88D9"/>
<path opacity="0.7" d="M220.544 8.49061L235.281 14.8441L237.384 -0.0398768L239.376 0.186651L236.949 17.7339L222.212 11.3804L219.927 27.5616L205.08 21.1797L202.905 37.3894L187.779 31.1685L185.604 47.3782L169.194 40.706L169.994 38.8683L183.935 44.4884L186.15 28.3475L201.236 34.4995L203.452 18.3586L218.328 24.6315L220.544 8.49061Z" fill="#5B88D9"/>
</svg>
