<svg width="65" height="13" viewBox="0 0 65 13" fill="none" xmlns="http://www.w3.org/2000/svg">
<path d="M0 5.03094L4.67351 4.63445L6.50002 0.324951L8.32649 4.63445L13 5.03094L9.451 8.10545L10.517 12.6749L6.50002 10.2504L2.48302 12.6749L3.549 8.10545L0 5.03094Z" fill="#DD8F53"/>
<path d="M13 5.03094L17.6735 4.63445L19.5 0.324951L21.3265 4.63445L26 5.03094L22.451 8.10545L23.517 12.6749L19.5 10.2504L15.483 12.6749L16.549 8.10545L13 5.03094Z" fill="#DD8F53"/>
<path d="M26 5.03094L30.6735 4.63445L32.5 0.324951L34.3265 4.63445L39 5.03094L35.451 8.10545L36.517 12.6749L32.5 10.2504L28.483 12.6749L29.549 8.10545L26 5.03094Z" fill="#DD8F53"/>
<path d="M39 5.03094L43.6735 4.63445L45.5 0.324951L47.3265 4.63445L52 5.03094L48.451 8.10545L49.517 12.6749L45.5 10.2504L41.483 12.6749L42.549 8.10545L39 5.03094Z" fill="#DD8F53"/>
<path d="M57.1339 4.82956L57.0162 5.10717L56.7158 5.13266L53.2231 5.42897L55.8764 7.72754L56.1045 7.92514L56.0359 8.21904L55.2391 11.6346L58.2416 9.82237L58.5 9.66643L58.7584 9.82237L61.7609 11.6346L60.9641 8.21904L60.8955 7.92514L61.1236 7.72754L63.7769 5.42897L60.2842 5.13266L59.9838 5.10717L59.8661 4.82956L58.5 1.60625L57.1339 4.82956Z" stroke="#DD8F53"/>
</svg>
