<svg width="438" height="242" viewBox="0 0 438 242" fill="none" xmlns="http://www.w3.org/2000/svg">
<path d="M30.0657 49.5887L49.2167 67.8246L44.8378 98.119L65.6561 85.0327L75.2274 95.2525L120.891 50.0908L30.0657 49.5887Z" fill="#0C1538"/>
<path d="M120.891 50.0908L56.3669 75.1652L44.8378 98.119L49.2167 67.8246L120.891 50.0908Z" fill="#5B88D9"/>
<path d="M34.8583 104.349C35.0509 104.151 35.0466 103.834 34.8487 103.642C34.6509 103.449 34.3343 103.453 34.1417 103.651L34.8583 104.349ZM19 195L18.6404 195.347L19 195ZM129 200L129.279 200.415L129 200ZM275.5 227.5L275.124 227.829L275.5 227.5ZM34.1417 103.651C32.5539 105.283 31.0377 106.889 29.5905 108.471L30.3282 109.146C31.7683 107.572 33.2774 105.973 34.8583 104.349L34.1417 103.651ZM21.0214 118.541C18.0649 122.308 15.5217 125.919 13.3486 129.377L14.1954 129.909C16.3483 126.483 18.8711 122.901 21.8081 119.158L21.0214 118.541ZM7.10573 141.054C5.13183 145.577 3.83407 149.792 3.08012 153.716L4.06215 153.905C4.80094 150.06 6.07527 145.916 8.02225 141.454L7.10573 141.054ZM2.53086 166.987C3.12001 171.848 4.57079 176.072 6.41081 179.714L7.30338 179.263C5.50909 175.711 4.09714 171.598 3.52359 166.866L2.53086 166.987ZM14.0631 190.591C15.8175 192.528 17.4521 194.117 18.6404 195.347L19.3595 194.653C18.1427 193.393 16.5455 191.842 14.8043 189.92L14.0631 190.591ZM18.6404 195.347C19.9521 196.705 21.4344 198.035 23.0701 199.325L23.6892 198.54C22.0851 197.275 20.6369 195.975 19.3595 194.653L18.6404 195.347ZM33.0905 205.709C36.4354 207.447 40.0919 209.029 43.9975 210.403L44.3293 209.459C40.4657 208.1 36.8526 206.537 33.5515 204.822L33.0905 205.709ZM55.3998 213.634C59.1691 214.46 63.0859 215.09 67.1089 215.49L67.2077 214.495C63.224 214.099 59.3457 213.475 55.6139 212.657L55.3998 213.634ZM78.955 215.971C82.8485 215.9 86.7998 215.601 90.7756 215.044L90.6369 214.053C86.7024 214.605 82.7914 214.901 78.9368 214.971L78.955 215.971ZM102.394 212.669C106.152 211.649 109.903 210.377 113.619 208.829L113.235 207.906C109.56 209.437 105.85 210.695 102.132 211.704L102.394 212.669ZM124.24 203.563C125.934 202.58 127.614 201.531 129.279 200.415L128.722 199.585C127.076 200.689 125.413 201.726 123.738 202.698L124.24 203.563ZM129.279 200.415C130.922 199.313 132.573 198.258 134.231 197.251L133.712 196.396C132.041 197.411 130.377 198.474 128.722 199.585L129.279 200.415ZM144.547 191.639C148.13 189.914 151.74 188.407 155.369 187.119L155.034 186.176C151.37 187.477 147.728 188.998 144.113 190.738L144.547 191.639ZM166.627 183.843C170.469 182.968 174.327 182.337 178.194 181.952L178.095 180.957C174.186 181.346 170.287 181.984 166.405 182.868L166.627 183.843ZM189.904 181.543C193.793 181.658 197.684 182.024 201.57 182.643L201.727 181.655C197.799 181.03 193.865 180.66 189.934 180.544L189.904 181.543ZM213.009 185.203C216.704 186.272 220.39 187.574 224.06 189.112L224.447 188.189C220.742 186.637 217.02 185.322 213.286 184.243L213.009 185.203ZM234.628 194.222C237.984 196.064 241.321 198.111 244.636 200.363L245.198 199.536C241.858 197.267 238.494 195.204 235.109 193.345L234.628 194.222ZM254.055 207.371C257.027 209.778 259.975 212.357 262.897 215.11L263.583 214.382C260.644 211.613 257.676 209.018 254.685 206.594L254.055 207.371ZM271.182 223.458C272.502 224.878 273.816 226.335 275.124 227.829L275.876 227.171C274.562 225.669 273.241 224.205 271.914 222.777L271.182 223.458ZM275.124 227.829C276.476 229.375 277.898 230.847 279.383 232.246L280.069 231.519C278.606 230.14 277.207 228.692 275.876 227.171L275.124 227.829ZM289.018 239.806C292.402 242.018 295.992 243.974 299.752 245.695L300.168 244.786C296.45 243.083 292.903 241.151 289.565 238.969L289.018 239.806ZM311.173 250.076C315.005 251.292 318.956 252.318 322.993 253.172L323.2 252.194C319.192 251.346 315.273 250.328 311.475 249.123L311.173 250.076ZM335.039 255.199C339.05 255.714 343.113 256.086 347.199 256.331L347.259 255.333C343.193 255.089 339.153 254.719 335.167 254.208L335.039 255.199ZM359.4 256.705C363.48 256.715 367.556 256.617 371.601 256.425L371.553 255.426C367.524 255.617 363.465 255.715 359.403 255.705L359.4 256.705ZM383.77 255.569C387.883 255.189 391.933 254.724 395.888 254.193L395.754 253.202C391.813 253.731 387.777 254.195 383.678 254.574L383.77 255.569ZM407.954 252.325C412.117 251.595 416.122 250.805 419.923 249.979L419.71 249.001C415.922 249.825 411.931 250.613 407.781 251.34L407.954 252.325ZM431.796 247.12C433.845 246.574 435.797 246.026 437.642 245.479L437.358 244.521C435.523 245.064 433.579 245.61 431.539 246.153L431.796 247.12Z" fill="#263238"/>
</svg>
