<svg width="293" height="136" viewBox="0 0 293 136" fill="none" xmlns="http://www.w3.org/2000/svg">
<path d="M102.335 10.8693C101.114 9.53893 100.115 8.02106 99.3766 6.37377C98.3175 4.90816 97.5067 3.27828 96.9768 1.54944C98.4351 2.6769 99.595 4.14449 100.355 5.82384C101.421 7.31661 102.101 9.04993 102.335 10.8693Z" fill="#263238"/>
<path d="M107.686 31.6052C106.99 29.9249 106.58 28.1401 106.473 26.3246C105.997 24.5774 105.806 22.7646 105.909 20.9566C106.881 22.5203 107.451 24.3002 107.568 26.1375C108.072 27.9204 108.112 29.8022 107.686 31.6052Z" fill="#263238"/>
<path d="M104.558 52.7627C105.144 49.2475 106.05 45.7934 107.266 42.4439C107.568 44.262 107.39 46.1273 106.749 47.8554C106.462 49.6551 105.707 51.3475 104.558 52.7627Z" fill="#263238"/>
<path d="M90.3967 68.2396C90.2824 67.9379 92.3852 66.9138 94.7233 65.1452C97.0615 63.3766 98.6683 61.6987 98.9831 61.9106C99.298 62.1225 97.8495 64.182 95.4127 66.0363C94.0445 67.3268 92.2726 68.1051 90.3967 68.2396Z" fill="#263238"/>
<path d="M73.3349 59.8608C73.6611 59.8477 74.4642 62.041 76.2092 64.2985C77.9541 66.5559 80.0633 67.7165 79.9117 68.0084C79.7601 68.3004 77.2776 67.5021 75.3385 64.987C74.0423 63.5957 73.3258 61.7623 73.3349 59.8608Z" fill="#263238"/>
<path d="M80.2377 41.1236C80.4123 41.4024 78.467 42.7877 76.5954 44.9867C74.7238 47.1858 73.8324 49.3862 73.5184 49.1946C73.5913 47.2947 74.3881 45.4947 75.7455 44.1634C76.8382 42.6527 78.429 41.5762 80.2377 41.1236Z" fill="#263238"/>
<path d="M101.024 39.5914C99.2421 39.5117 97.4728 39.2477 95.7449 38.8037C93.956 38.7231 92.1801 38.4594 90.445 38.0168C92.203 37.3978 94.1064 37.3211 95.9085 37.7966C97.7563 37.8624 99.5405 38.4884 101.024 39.5914Z" fill="#263238"/>
<path d="M117.59 52.9111C117.333 53.1052 115.729 51.3117 113.743 49.1661C111.758 47.0204 110.052 45.231 110.25 45.0801C110.448 44.9291 112.5 46.1737 114.468 48.4018C116.437 50.6298 117.849 52.7373 117.59 52.9111Z" fill="#263238"/>
<path d="M128.266 71.5731C126.992 70.2736 125.992 68.7305 125.327 67.036C124.339 65.5055 123.679 63.7871 123.388 61.9889C125.663 64.8093 127.325 68.0736 128.266 71.5731Z" fill="#263238"/>
<path d="M138.784 90.3622C138.526 90.536 137 88.6576 135.347 86.1514C134.241 84.6951 133.476 83.0096 133.107 81.2186C133.406 81.0432 134.733 83.0725 136.304 85.5616C137.453 86.9733 138.298 88.6078 138.784 90.3622Z" fill="#263238"/>
<path d="M153.468 106.106C153.273 106.339 151.218 105.012 149.032 102.957C147.586 101.832 146.418 100.392 145.616 98.745C145.852 98.5312 147.713 100.11 149.836 102.128C151.959 104.145 153.658 105.772 153.468 106.106Z" fill="#263238"/>
<path d="M171.534 117.629C169.721 117.359 167.995 116.674 166.491 115.627C163.879 114.16 161.98 112.623 162.153 112.371C163.906 112.83 165.563 113.6 167.044 114.645C169.614 116.093 171.665 117.337 171.534 117.629Z" fill="#263238"/>
<path d="M191.828 124.653C190.006 124.83 188.168 124.568 186.468 123.889C184.659 123.577 182.95 122.841 181.481 121.742C185.049 122.196 188.529 123.177 191.808 124.654L191.828 124.653Z" fill="#263238"/>
<path d="M213.225 126.608C209.68 127.492 205.961 127.388 202.472 126.307C204.24 125.925 206.061 125.851 207.854 126.09C209.661 125.946 211.479 126.122 213.225 126.608Z" fill="#263238"/>
<path d="M234.373 122.937C232.834 123.916 231.107 124.562 229.304 124.836C227.593 125.505 225.742 125.734 223.92 125.502C225.52 124.647 227.247 124.053 229.035 123.744C230.74 123.11 232.557 122.835 234.373 122.937Z" fill="#263238"/>
<path d="M253.813 113.843C253.987 114.101 252.088 115.627 249.45 117.061C247.942 118.107 246.204 118.772 244.383 119.001C245.714 117.771 247.25 116.783 248.921 116.082C250.407 115.054 252.063 114.296 253.813 113.843Z" fill="#263238"/>
<path d="M270.478 100.266C270.69 100.462 269.215 102.359 267.014 104.49C265.787 105.854 264.266 106.921 262.566 107.609C262.351 107.352 264.08 105.67 266.245 103.663C268.411 101.656 270.245 100.051 270.478 100.266Z" fill="#263238"/>
<path d="M283.47 83.1627C283.066 84.9535 282.245 86.6237 281.073 88.0374C279.417 90.5137 277.731 92.256 277.48 92.1028C278.09 90.3923 278.993 88.8012 280.149 87.4008C281.787 84.9662 283.198 83.0103 283.47 83.1627Z" fill="#263238"/>
<path d="M291.945 63.4225C292.007 65.2573 291.625 67.0799 290.832 68.7355C290.409 70.5234 289.549 72.1786 288.33 73.5532C288.522 71.7573 289.01 70.0057 289.775 68.3697C290.231 66.6159 290.963 64.9459 291.945 63.4225Z" fill="#263238"/>
<path d="M275.457 31.7639C276.942 33.601 278.264 35.5631 279.41 37.6282L280.263 39.0232L280.416 39.2825L280.177 39.4351C278.686 40.4615 277.101 41.3457 275.444 42.0762C276.81 40.8832 278.294 39.8315 279.871 38.9369L279.765 39.3292L278.892 37.935C277.569 35.9818 276.42 33.917 275.457 31.7639Z" fill="white"/>
</svg>
