<svg aria-hidden="true" style="position: absolute; width: 0; height: 0; overflow: hidden;" version="1.1" xmlns="http://www.w3.org/2000/svg" xmlns:xlink="http://www.w3.org/1999/xlink">
<defs>
<symbol id="icon-add" viewBox="0 0 32 32">
<path d="M11.424 17.524h2.97v3.048c0 0.404 0.156 0.792 0.435 1.078s0.656 0.446 1.050 0.446c0.394 0 0.771-0.161 1.050-0.446s0.435-0.673 0.435-1.078v-3.048h2.97c0.394 0 0.771-0.161 1.050-0.446s0.435-0.673 0.435-1.078-0.156-0.792-0.435-1.078c-0.278-0.286-0.656-0.446-1.050-0.446h-2.97v-3.048c0-0.404-0.156-0.792-0.435-1.078s-0.656-0.446-1.050-0.446c-0.394 0-0.772 0.161-1.050 0.446s-0.435 0.673-0.435 1.078v3.048h-2.97c-0.394 0-0.772 0.161-1.050 0.446s-0.435 0.673-0.435 1.078c0 0.404 0.156 0.792 0.435 1.078s0.656 0.446 1.050 0.446v0zM29.243 0.762h-26.728c-0.394 0-0.772 0.161-1.050 0.446s-0.435 0.673-0.435 1.078v27.429c0 0.404 0.156 0.792 0.435 1.078s0.656 0.446 1.050 0.446h26.728c0.394 0 0.771-0.161 1.050-0.446s0.435-0.673 0.435-1.078v-27.429c0-0.404-0.156-0.792-0.435-1.077s-0.656-0.446-1.050-0.446v0zM27.758 28.19h-23.758v-24.381h23.758v24.381z"></path>
</symbol>
<symbol id="icon-arrow" viewBox="0 0 32 32">
<path d="M14.279 2.157c-0.227 0.225-0.408 0.493-0.531 0.789s-0.186 0.612-0.186 0.932c0 0.32 0.063 0.637 0.186 0.932s0.303 0.564 0.531 0.789l8 7.976h-18.4c-0.643 0-1.26 0.255-1.714 0.71s-0.71 1.071-0.71 1.714c0 0.643 0.255 1.26 0.71 1.714s1.071 0.71 1.714 0.71h18.4l-8 7.976c-0.457 0.457-0.713 1.076-0.713 1.721s0.256 1.265 0.713 1.721 1.076 0.713 1.721 0.713c0.646 0 1.265-0.257 1.721-0.713l12.121-12.121c0.221-0.231 0.394-0.502 0.509-0.8 0.128-0.29 0.194-0.604 0.194-0.921s-0.066-0.631-0.194-0.921c-0.116-0.298-0.288-0.569-0.509-0.8l-12.121-12.121c-0.225-0.227-0.493-0.408-0.789-0.531s-0.612-0.186-0.932-0.186c-0.32 0-0.637 0.063-0.932 0.186s-0.564 0.303-0.789 0.531z"></path>
</symbol>
<symbol id="icon-arrow-bottom" viewBox="0 0 32 32">
<path d="M27.077 21.333h-7.385l0-21.333h-7.385v21.333l-7.385 0 11.077 10.667 11.077-10.667z"></path>
</symbol>
<symbol id="icon-arrow-right" viewBox="0 0 32 32">
<path d="M30.707 16.707c0.39-0.391 0.39-1.024 0-1.414l-6.364-6.364c-0.391-0.391-1.024-0.391-1.414 0s-0.391 1.024 0 1.414l5.657 5.657-5.657 5.657c-0.391 0.391-0.391 1.024 0 1.414s1.024 0.391 1.414 0l6.364-6.364zM0 17h30v-2h-30v2z"></path>
</symbol>
<symbol id="icon-arrow-top" viewBox="0 0 32 32">
<path d="M4.923 10.667h7.385v21.333h7.385v-21.333l7.385-0-11.077-10.667-11.077 10.667z"></path>
</symbol>
<symbol id="icon-bell" viewBox="0 0 32 32">
<path d="M28.138 25.466c-0.094-0.061-0.802-0.557-1.511-2.057-1.302-2.755-1.575-6.636-1.575-9.407 0-0.012-0-0.024-0.001-0.036-0.014-3.662-2.207-6.818-5.345-8.235v-2.166c0-1.966-1.597-3.565-3.559-3.565h-0.295c-1.962 0-3.559 1.599-3.559 3.565v2.166c-3.148 1.421-5.345 4.594-5.345 8.271 0 2.771-0.273 6.652-1.575 9.407-0.709 1.5-1.417 1.996-1.511 2.057-0.396 0.183-0.592 0.607-0.501 1.037 0.092 0.434 0.497 0.733 0.94 0.733h6.872c0.038 2.634 2.188 4.765 4.826 4.765s4.788-2.131 4.826-4.765h6.872c0.443 0 0.848-0.299 0.94-0.733 0.091-0.429-0.104-0.853-0.501-1.037zM14.169 3.565c0-0.93 0.755-1.687 1.684-1.687h0.295c0.928 0 1.684 0.757 1.684 1.687v1.557c-0.592-0.122-1.204-0.187-1.832-0.187s-1.239 0.064-1.831 0.186v-1.557zM16 30.122c-1.605 0-2.913-1.289-2.951-2.887h5.903c-0.038 1.598-1.347 2.887-2.951 2.887zM19.776 25.357c-0 0-13.337 0-13.337 0 0.162-0.253 0.327-0.539 0.491-0.862 1.256-2.478 1.894-6.008 1.894-10.493 0-3.964 3.219-7.188 7.176-7.188s7.176 3.225 7.176 7.191c0 0.012 0 0.023 0.001 0.035 0.004 4.467 0.641 7.985 1.894 10.455 0.164 0.323 0.329 0.61 0.491 0.862h-5.787z"></path>
</symbol>
<symbol id="icon-book" viewBox="0 0 32 32">
<path d="M31.307 5.469c-0.184 0-0.36 0.072-0.49 0.2s-0.203 0.301-0.203 0.482v24.563h-3.765c-4.462 0-8.909 0.499-13.257 1.486-0.273 0.061-0.558 0.040-0.818-0.062s-0.482-0.279-0.638-0.507c2.475-1.491 5.321-2.281 8.224-2.282h8.174c0.184 0 0.36-0.072 0.49-0.2s0.203-0.302 0.203-0.482v-8.188c0-0.181-0.217 0.469-0.347 0.341s-0.163-2.247-0.347-2.247c-0.184 0-0.36 2.119-0.49 2.247s-0.203 0.16-0.203 0.341v6.823h-7.48c-2.967-0.003-5.884 0.752-8.466 2.192v-22.333c0-0.181-0.129-0.341-0.259-0.469s-0.306-0.2-0.49-0.2c-0.184 0-0.36 0.072-0.49 0.2s-0.147 0.301-0.147 0.482v22.319c-2.582-1.439-5.499-2.194-8.466-2.191h-7.48v-24.563h10.677c1.398 0.001 2.738 0.548 3.726 1.521s1.543 2.292 1.543 3.668c0 0.181 0.073 0.354 0.203 0.482s0.306 0.2 0.49 0.2 0.36-0.072 0.49-0.2c0.13-0.128 0.203-0.302 0.203-0.482 0-1.376 0.555-2.695 1.543-3.668s2.328-1.52 3.726-1.521h10.677v17.74c0 0.181 0.073 0.355 0.203 0.482s0.306 0.2 0.49 0.2c0.184 0 0.36-0.072 0.49-0.2s0.203-0.302 0.203-0.482v-18.422c0-0.181-0.073-0.354-0.203-0.482s-0.306-0.2-0.49-0.2h-11.371c-1.239 0.001-2.454 0.342-3.507 0.985s-1.904 1.562-2.456 2.654c-0.552-1.092-1.402-2.011-2.456-2.654s-2.268-0.984-3.507-0.985h-11.371c-0.184 0-0.36 0.072-0.49 0.2s-0.203 0.301-0.203 0.482v25.928c0 0.181 0.073 0.355 0.203 0.482s0.306 0.2 0.49 0.2h8.174c2.903 0.001 5.749 0.79 8.225 2.282-0.156 0.228-0.379 0.405-0.639 0.506s-0.545 0.123-0.818 0.063c-4.348-0.987-8.796-1.486-13.258-1.486h-3.765v-24.563c0-0.181-0.073-0.354-0.203-0.482s-0.306-0.2-0.49-0.2c-0.184 0-0.36 0.072-0.49 0.2s-0.203 0.301-0.203 0.482v25.246c0 0.181 0.073 0.355 0.203 0.482s0.306 0.2 0.49 0.2h4.458c4.357 0.001 8.699 0.488 12.945 1.451 0.488 0.111 0.998 0.089 1.474-0.063s0.902-0.43 1.23-0.802c0.328 0.372 0.754 0.649 1.23 0.802s0.986 0.174 1.474 0.063c4.245-0.964 8.588-1.45 12.945-1.451h4.458c0.184 0 0.36-0.072 0.49-0.2s0.203-0.302 0.203-0.482v-25.246c0-0.181-0.073-0.354-0.203-0.482s-0.306-0.2-0.49-0.2z"></path>
<path d="M8.928 7.934c-1.093-0.718-2.377-1.101-3.691-1.101h-7.904c-0.184 0-0.36 0.072-0.49 0.2s-0.203 0.301-0.203 0.482c0 0.181 0.073 0.354 0.203 0.482s0.306 0.2 0.49 0.2h7.904c1.041-0.001 2.059 0.302 2.924 0.871 0.153 0.1 0.34 0.137 0.521 0.102s0.339-0.14 0.441-0.29c0.102-0.151 0.139-0.335 0.103-0.512s-0.142-0.334-0.295-0.434h-0.003z"></path>
<path d="M25.066 6.833h-7.904c-1.315-0.001-2.601 0.382-3.694 1.101-0.076 0.050-0.141 0.114-0.191 0.188s-0.086 0.158-0.104 0.246c-0.018 0.088-0.018 0.178-0 0.266s0.053 0.172 0.103 0.246c0.050 0.075 0.115 0.139 0.191 0.188s0.161 0.085 0.25 0.102 0.181 0.018 0.271 0c0.089-0.017 0.174-0.052 0.25-0.102 0.866-0.569 1.883-0.872 2.924-0.871h7.904c0.184 0 0.36-0.072 0.49-0.2s0.203-0.302 0.203-0.482c0-0.181-0.073-0.354-0.203-0.482s-0.306-0.2-0.49-0.2z"></path>
<path d="M8.928 11.345c-1.093-0.718-2.377-1.101-3.691-1.101h-7.904c-0.184 0-0.36 0.072-0.49 0.2s-0.203 0.302-0.203 0.482c0 0.181 0.073 0.354 0.203 0.482s0.306 0.2 0.49 0.2h7.904c1.041-0.001 2.059 0.302 2.924 0.871 0.153 0.1 0.34 0.137 0.521 0.102s0.339-0.14 0.441-0.29c0.102-0.151 0.139-0.335 0.103-0.512s-0.142-0.334-0.295-0.434h-0.003z"></path>
<path d="M25.066 10.245h-7.904c-1.315-0.001-2.601 0.382-3.694 1.101-0.076 0.050-0.141 0.114-0.191 0.188s-0.086 0.158-0.104 0.246-0.018 0.178-0 0.266c0.018 0.088 0.053 0.172 0.103 0.246s0.115 0.139 0.191 0.188c0.076 0.050 0.161 0.085 0.25 0.102s0.181 0.018 0.271 0c0.089-0.017 0.174-0.052 0.25-0.102 0.866-0.569 1.883-0.872 2.924-0.871h7.904c0.184 0 0.36-0.072 0.49-0.2s0.203-0.302 0.203-0.482c0-0.181-0.073-0.354-0.203-0.482s-0.306-0.2-0.49-0.2z"></path>
<path d="M8.928 14.757c-1.093-0.718-2.377-1.101-3.691-1.101h-7.904c-0.184 0-0.36 0.072-0.49 0.2s-0.203 0.302-0.203 0.482c0 0.181 0.073 0.354 0.203 0.482s0.306 0.2 0.49 0.2h7.904c1.041-0.001 2.059 0.302 2.924 0.871 0.153 0.1 0.34 0.137 0.521 0.101s0.339-0.14 0.441-0.29c0.102-0.151 0.139-0.335 0.103-0.512s-0.142-0.334-0.295-0.434h-0.003z"></path>
<path d="M25.066 13.656h-7.904c-1.315-0.001-2.601 0.382-3.694 1.101-0.076 0.050-0.141 0.114-0.191 0.188s-0.086 0.158-0.104 0.246c-0.018 0.088-0.018 0.178-0 0.266s0.053 0.172 0.103 0.246c0.050 0.075 0.115 0.139 0.191 0.188s0.161 0.085 0.25 0.102c0.089 0.018 0.181 0.018 0.271 0s0.174-0.052 0.25-0.102c0.866-0.569 1.883-0.872 2.924-0.871h7.904c0.184 0 0.36-0.072 0.49-0.2s0.203-0.302 0.203-0.482c0-0.181-0.073-0.354-0.203-0.482s-0.306-0.2-0.49-0.2z"></path>
<path d="M8.928 18.169c-1.093-0.718-2.377-1.101-3.691-1.101h-7.904c-0.184 0-0.36 0.072-0.49 0.2s-0.203 0.302-0.203 0.482c0 0.181 0.073 0.355 0.203 0.482s0.306 0.2 0.49 0.2h7.904c1.041-0.001 2.059 0.302 2.924 0.871 0.076 0.050 0.161 0.084 0.25 0.102s0.181 0.017 0.271-0c0.089-0.018 0.174-0.052 0.25-0.102s0.141-0.114 0.191-0.188c0.051-0.075 0.086-0.158 0.103-0.246s0.018-0.178-0-0.266c-0.018-0.088-0.053-0.171-0.104-0.246s-0.116-0.138-0.191-0.188h-0.003z"></path>
<path d="M25.066 17.068h-7.904c-1.315-0.001-2.601 0.382-3.694 1.101-0.153 0.1-0.259 0.257-0.295 0.434s0.001 0.362 0.103 0.512c0.102 0.151 0.261 0.255 0.441 0.291s0.368-0.001 0.521-0.102c0.866-0.569 1.883-0.872 2.924-0.871h7.904c0.184 0 0.36-0.072 0.49-0.2s0.203-0.302 0.203-0.482c0-0.181-0.073-0.355-0.203-0.482s-0.306-0.2-0.49-0.2z"></path>
<path d="M8.928 21.58c-1.093-0.718-2.377-1.101-3.691-1.101h-7.904c-0.184 0-0.36 0.072-0.49 0.2s-0.203 0.302-0.203 0.482c0 0.181 0.073 0.355 0.203 0.482s0.306 0.2 0.49 0.2h7.904c1.041-0.001 2.059 0.302 2.924 0.871 0.153 0.1 0.34 0.137 0.521 0.102s0.339-0.14 0.441-0.291c0.102-0.151 0.139-0.335 0.103-0.512s-0.142-0.334-0.295-0.434h-0.003z"></path>
<path d="M25.066 20.48h-7.904c-1.315-0.001-2.601 0.382-3.694 1.101-0.076 0.050-0.141 0.114-0.191 0.188s-0.086 0.158-0.104 0.246c-0.018 0.088-0.018 0.178-0 0.266s0.053 0.171 0.103 0.246c0.102 0.151 0.261 0.255 0.441 0.291 0.089 0.018 0.181 0.018 0.271 0s0.174-0.052 0.25-0.102c0.866-0.569 1.883-0.872 2.924-0.871h7.904c0.184 0 0.36-0.072 0.49-0.2s0.203-0.302 0.203-0.482c0-0.181-0.073-0.355-0.203-0.482s-0.306-0.2-0.49-0.2z"></path>
<path d="M5.237 23.891h-7.904c-0.184 0-0.36 0.072-0.49 0.2s-0.203 0.302-0.203 0.482c0 0.181 0.073 0.355 0.203 0.482s0.306 0.2 0.49 0.2h7.904c1.041-0.001 2.059 0.302 2.924 0.871 0.076 0.050 0.161 0.084 0.25 0.102s0.181 0.017 0.271-0c0.089-0.018 0.174-0.052 0.25-0.102s0.141-0.114 0.191-0.188c0.051-0.075 0.086-0.158 0.103-0.246s0.018-0.178-0-0.266c-0.018-0.088-0.053-0.171-0.104-0.246s-0.116-0.138-0.191-0.188c-1.093-0.719-2.379-1.102-3.694-1.101z"></path>
<path d="M25.066 23.891h-7.904c-1.315-0.001-2.601 0.382-3.694 1.101-0.076 0.050-0.141 0.114-0.191 0.188s-0.086 0.158-0.104 0.246c-0.018 0.088-0.018 0.178-0 0.266s0.053 0.172 0.103 0.246c0.050 0.075 0.115 0.139 0.191 0.188s0.161 0.085 0.25 0.102 0.181 0.018 0.271 0c0.089-0.017 0.174-0.052 0.25-0.102 0.866-0.569 1.883-0.872 2.924-0.871h7.904c0.184 0 0.36-0.072 0.49-0.2s0.203-0.302 0.203-0.482c0-0.181-0.073-0.355-0.203-0.482s-0.306-0.2-0.49-0.2z"></path>
</symbol>
<symbol id="icon-bookmark" viewBox="0 0 32 32">
<path stroke-linejoin="miter" stroke-linecap="butt" stroke-miterlimit="4" stroke-width="1.2308" d="M15.698 24.545l-11.391 6.403v-30.333h23.385v30.333l-11.692-6.573-0.302 0.169z"></path>
</symbol>
<symbol id="icon-bookmark2" viewBox="0 0 32 32">
<path d="M4.108 0h23.784v32l-11.892-9.143-11.892 9.143v-32z"></path>
</symbol>
<symbol id="icon-case" viewBox="0 0 32 32">
<path d="M9.143 9.143h-9.143v18.286h32v-18.286h-9.143v-4.571h-13.714v4.571zM11.429 6.857h9.143v2.286h-9.143v-2.286z"></path>
</symbol>
<symbol id="icon-case2" viewBox="0 0 32 32">
<path d="M23.936 21.333v2.286c0 0.914-0.635 1.524-1.587 1.524s-1.587-0.61-1.587-1.524v-2.286h-9.524v2.286c0 0.914-0.635 1.524-1.587 1.524s-1.587-0.61-1.587-1.524v-2.286h-3.175c-1.111 0-2.222-0.305-3.175-0.762v6.095c0 2.59 2.063 4.571 4.762 4.571h19.048c2.698 0 4.762-1.981 4.762-4.571v-6.095c-0.952 0.457-2.064 0.762-3.175 0.762h-3.175zM30.285 6.857h-6.349v-1.524c0-2.59-2.064-4.571-4.762-4.571h-6.349c-2.698 0-4.762 1.981-4.762 4.571v1.524h-6.349c-0.952 0-1.587 0.61-1.587 1.524v6.095c0 2.59 2.064 4.571 4.762 4.571h22.222c2.698 0 4.762-1.981 4.762-4.571v-6.095c0-0.914-0.635-1.524-1.587-1.524zM20.761 6.857h-9.524v-1.524c0-0.914 0.635-1.524 1.587-1.524h6.349c0.952 0 1.587 0.61 1.587 1.524v1.524z"></path>
</symbol>
<symbol id="icon-chart" viewBox="0 0 32 32">
<path d="M8 17.333h-5.333c-0.8 0-1.333 0.533-1.333 1.333v10.667c0 0.8 0.533 1.333 1.333 1.333h5.333c0.8 0 1.333-0.533 1.333-1.333v-10.667c0-0.8-0.533-1.333-1.333-1.333zM29.333 12h-5.333c-0.8 0-1.333 0.533-1.333 1.333v16c0 0.8 0.533 1.333 1.333 1.333h5.333c0.8 0 1.333-0.533 1.333-1.333v-16c0-0.8-0.533-1.333-1.333-1.333zM18.667 1.333h-5.333c-0.8 0-1.333 0.533-1.333 1.333v26.667c0 0.8 0.533 1.333 1.333 1.333h5.333c0.8 0 1.333-0.533 1.333-1.333v-26.667c0-0.8-0.533-1.333-1.333-1.333z"></path>
</symbol>
<symbol id="icon-check" viewBox="0 0 32 32">
<path stroke-linejoin="miter" stroke-linecap="butt" stroke-miterlimit="4" stroke-width="1.3333" d="M28.943 5.758c-0.521-0.566-1.365-0.566-1.886 0l-15.974 17.367-6.14-6.675c-0.521-0.566-1.365-0.566-1.886 0s-0.521 1.484 0 2.050l7.083 7.7c0.521 0.566 1.365 0.566 1.886 0l16.917-18.391c0.521-0.566 0.521-1.484 0-2.050z"></path>
</symbol>
<symbol id="icon-checked" viewBox="0 0 32 32">
<path d="M27.314 4.686c-3.022-3.022-7.040-4.686-11.314-4.686s-8.292 1.664-11.314 4.686c-3.022 3.022-4.686 7.040-4.686 11.314s1.664 8.292 4.686 11.314c3.022 3.022 7.040 4.686 11.314 4.686s8.292-1.664 11.314-4.686c3.022-3.022 4.686-7.040 4.686-11.314s-1.664-8.292-4.686-11.314zM23.644 12.192l-8.942 8.942c-0.183 0.183-0.423 0.275-0.663 0.275s-0.48-0.092-0.663-0.275l-5.021-5.021c-0.366-0.366-0.366-0.96 0-1.326s0.96-0.366 1.326 0l4.358 4.358 8.279-8.279c0.366-0.366 0.96-0.366 1.326 0s0.366 0.96 0 1.326z"></path>
</symbol>
<symbol id="icon-clip" viewBox="0 0 32 32">
<path d="M26.328 16.672l-9.888 9.904c-1.296 1.152-2.984 1.765-4.717 1.714s-3.382-0.763-4.608-1.989-1.938-2.875-1.989-4.608c-0.051-1.733 0.562-3.421 1.714-4.717l12.8-12.8c0.764-0.726 1.778-1.131 2.832-1.131s2.068 0.405 2.832 1.131c0.744 0.755 1.162 1.772 1.162 2.832s-0.417 2.077-1.162 2.832l-11.040 11.024c-0.109 0.118-0.241 0.213-0.387 0.28s-0.304 0.104-0.464 0.11c-0.16 0.006-0.321-0.020-0.471-0.076s-0.289-0.141-0.406-0.25-0.213-0.241-0.28-0.387c-0.067-0.146-0.104-0.304-0.11-0.464s0.020-0.321 0.076-0.471c0.056-0.151 0.141-0.289 0.25-0.406l8.208-8.192c0.301-0.301 0.471-0.71 0.471-1.136s-0.169-0.835-0.471-1.136c-0.301-0.301-0.71-0.471-1.136-0.471s-0.835 0.169-1.136 0.471l-8.208 8.224c-0.411 0.408-0.737 0.892-0.959 1.426s-0.337 1.107-0.337 1.686c0 0.579 0.115 1.151 0.337 1.685s0.548 1.019 0.959 1.427c0.839 0.799 1.953 1.245 3.112 1.245s2.273-0.446 3.112-1.245l11.024-11.040c1.272-1.365 1.964-3.17 1.931-5.035s-0.788-3.645-2.108-4.964-3.099-2.075-4.964-2.108c-1.865-0.033-3.671 0.659-5.035 1.931l-12.8 12.8c-1.726 1.912-2.648 4.416-2.574 6.99s1.139 5.021 2.973 6.83c1.834 1.809 4.294 2.84 6.87 2.88s5.067-0.916 6.955-2.668l9.904-9.888c0.149-0.149 0.268-0.326 0.348-0.521s0.122-0.404 0.122-0.615c0-0.211-0.042-0.42-0.122-0.615s-0.199-0.372-0.348-0.521c-0.149-0.149-0.326-0.268-0.521-0.348s-0.404-0.122-0.615-0.122c-0.211 0-0.42 0.041-0.615 0.122s-0.372 0.199-0.521 0.348v0.032z"></path>
</symbol>
<symbol id="icon-close" viewBox="0 0 32 32">
<path d="M19.756 15.995l11.456-11.429c0.502-0.502 0.783-1.182 0.783-1.891s-0.282-1.39-0.783-1.891c-0.502-0.502-1.182-0.783-1.892-0.783s-1.39 0.282-1.891 0.783l-11.429 11.456-11.429-11.456c-0.502-0.502-1.182-0.783-1.891-0.783s-1.39 0.282-1.891 0.783c-0.502 0.502-0.783 1.182-0.783 1.891s0.282 1.39 0.783 1.891l11.456 11.429-11.456 11.429c-0.25 0.248-0.448 0.542-0.583 0.867s-0.205 0.673-0.205 1.025c0 0.352 0.070 0.7 0.205 1.025s0.333 0.619 0.583 0.867c0.248 0.25 0.542 0.448 0.867 0.583s0.673 0.205 1.025 0.205c0.352 0 0.7-0.070 1.025-0.205s0.619-0.333 0.867-0.583l11.429-11.456 11.429 11.456c0.248 0.25 0.542 0.448 0.867 0.583s0.673 0.205 1.025 0.205c0.352 0 0.7-0.070 1.025-0.205s0.619-0.333 0.867-0.583c0.25-0.248 0.448-0.542 0.583-0.867s0.205-0.673 0.205-1.025c0-0.352-0.070-0.7-0.205-1.025s-0.333-0.619-0.583-0.867l-11.456-11.429z"></path>
</symbol>
<symbol id="icon-copy" viewBox="0 0 32 32">
<path d="M21.333 26.667h-10.667c-1.061 0-2.078-0.421-2.828-1.172s-1.172-1.768-1.172-2.828v-13.333c0-0.354-0.14-0.693-0.391-0.943s-0.589-0.391-0.943-0.391-0.693 0.14-0.943 0.391c-0.25 0.25-0.391 0.589-0.391 0.943v13.333c0 1.768 0.702 3.464 1.953 4.714s2.946 1.953 4.714 1.953h10.667c0.354 0 0.693-0.14 0.943-0.39s0.391-0.589 0.391-0.943-0.14-0.693-0.391-0.943c-0.25-0.25-0.589-0.39-0.943-0.39zM28 11.92c-0.014-0.122-0.041-0.243-0.080-0.36v-0.12c-0.064-0.137-0.15-0.263-0.253-0.373l-8-8c-0.11-0.104-0.236-0.189-0.373-0.253h-0.12l-0.427-0.147h-5.413c-1.061 0-2.078 0.421-2.828 1.172s-1.172 1.768-1.172 2.828v13.333c0 1.061 0.421 2.078 1.172 2.828s1.768 1.172 2.828 1.172h10.667c1.061 0 2.078-0.421 2.828-1.172s1.172-1.768 1.172-2.828v-8c0 0 0 0 0-0.080zM20 7.213l3.453 3.453h-2.12c-0.354 0-0.693-0.14-0.943-0.39s-0.391-0.589-0.391-0.943v-2.12zM25.333 20c0 0.354-0.14 0.693-0.39 0.943s-0.589 0.391-0.943 0.391h-10.667c-0.354 0-0.693-0.14-0.943-0.391s-0.391-0.589-0.391-0.943v-13.333c0-0.354 0.14-0.693 0.391-0.943s0.589-0.391 0.943-0.391h4v4c0 1.061 0.421 2.078 1.172 2.828s1.768 1.172 2.828 1.172h4v6.667z"></path>
</symbol>
<symbol id="icon-crown" viewBox="0 0 32 32">
<path d="M32 29.867h-32v-27.733l8.889 9.905 7.111-9.905 7.111 9.905 8.889-9.905v27.733z"></path>
</symbol>
<symbol id="icon-crown2" viewBox="0 0 32 32">
<path d="M31.375 18.092h-1.313c-0.345 0-0.625-0.28-0.625-0.625s0.28-0.625 0.625-0.625h1.313c0.345 0 0.625 0.28 0.625 0.625s-0.28 0.625-0.625 0.625z"></path>
<path d="M1.938 18.092h-1.313c-0.345 0-0.625-0.28-0.625-0.625s0.28-0.625 0.625-0.625h1.313c0.345 0 0.625 0.28 0.625 0.625s-0.28 0.625-0.625 0.625z"></path>
<path d="M25.48 8.612c-0.16 0-0.32-0.061-0.442-0.183-0.244-0.244-0.244-0.64 0-0.884l0.928-0.928c0.244-0.244 0.64-0.244 0.884 0s0.244 0.64 0 0.884l-0.928 0.928c-0.122 0.122-0.282 0.183-0.442 0.183z"></path>
<path d="M6.521 8.612c-0.16 0-0.32-0.061-0.442-0.183l-0.928-0.928c-0.244-0.244-0.244-0.64 0-0.884s0.64-0.244 0.884 0l0.928 0.928c0.244 0.244 0.244 0.64 0 0.884-0.122 0.122-0.282 0.183-0.442 0.183z"></path>
<path d="M16 4.686c-0.345 0-0.625-0.28-0.625-0.625v-1.313c0-0.345 0.28-0.625 0.625-0.625s0.625 0.28 0.625 0.625v1.313c0 0.345-0.28 0.625-0.625 0.625z"></path>
<path d="M16 21.478c-0.178 0-0.348-0.076-0.466-0.209l-2.668-2.992c-0.185-0.208-0.211-0.513-0.063-0.749l2.668-4.242c0.114-0.182 0.314-0.292 0.529-0.292s0.415 0.11 0.529 0.292l2.668 4.242c0.148 0.236 0.123 0.541-0.063 0.749l-2.668 2.992c-0.119 0.133-0.288 0.209-0.466 0.209zM14.111 17.797l1.889 2.118 1.889-2.118-1.889-3.003-1.889 3.003z"></path>
<path d="M29.338 9.466c-0.215-0.138-0.491-0.132-0.7 0.016l-4.085 2.895-1.235-2.763c-0.075-0.167-0.219-0.293-0.394-0.345s-0.365-0.024-0.518 0.076l-3.263 2.129-2.615-4.137c-0.114-0.181-0.314-0.291-0.528-0.291s-0.414 0.11-0.528 0.291l-2.615 4.137-3.263-2.129c-0.153-0.1-0.342-0.128-0.518-0.076s-0.319 0.178-0.394 0.345l-1.235 2.763-4.085-2.895c-0.208-0.148-0.485-0.154-0.7-0.016s-0.324 0.393-0.276 0.643l2.648 13.834 0.311 4.674c0.020 0.296 0.245 0.538 0.54 0.578 3.356 0.455 6.735 0.683 10.114 0.683s6.759-0.228 10.114-0.683c0.294-0.040 0.52-0.281 0.54-0.578l0.311-4.673 2.648-13.834c0.048-0.251-0.061-0.505-0.276-0.643zM22.476 10.792l1.038 2.321-2.303 1.632-1.4-2.214 2.665-1.739zM9.524 10.792l2.665 1.739-1.4 2.214-2.303-1.632 1.038-2.321zM25.811 23.328l-0.928 0.112c-3.305 0.4-10.861 0.262-14.19 0.212-0.194-0.013-0.9 0.098-0.608-0.037-0.341 0 0.12 0.22 0.114 0.562-0.005 0.345 0.197 0.728 0.542 0.733 0.374 0.006 0.833 0.001 1.208 0.001 0.203 0 10.094 0.131 13.083-0.23l0.636-0.077-0.228 3.417c-6.268 0.806-12.614 0.806-18.882 0l-0.228-3.417 0.636 0.077c0.713 0.086 3.058 0.163 3.774 0.229 0.343 0.032 0.648-0.222 0.68-0.565s-0.222-0.648-0.565-0.679c-0.704-0.065-3.037-0.14-3.738-0.225l-0.928-0.112-2.284-11.929 6.698 4.747c0.14 0.099 0.314 0.136 0.483 0.103s0.315-0.134 0.407-0.279l4.507-7.129 4.507 7.129c0.092 0.145 0.239 0.246 0.407 0.279s0.343-0.004 0.483-0.103l6.698-4.747-2.284 11.929z"></path>
</symbol>
<symbol id="icon-dislike" viewBox="0 0 32 32">
<path d="M5.463 0.947h19.163c1.057 0 2.079 0.371 2.891 1.048s1.36 1.616 1.55 2.655l1.912 10.538c0.119 0.651 0.094 1.32-0.074 1.96s-0.475 1.235-0.899 1.744c-0.424 0.508-0.954 0.917-1.553 1.198s-1.253 0.426-1.915 0.427h-6.865l0.843 2.153c0.351 0.943 0.467 1.956 0.34 2.954s-0.494 1.949-1.070 2.774c-0.576 0.824-1.343 1.497-2.236 1.96s-1.885 0.702-2.89 0.698c-0.29-0.001-0.573-0.085-0.816-0.242s-0.435-0.382-0.554-0.646l-4.29-9.649h-3.538c-1.198 0-2.346-0.476-3.193-1.323s-1.323-1.996-1.323-3.193v-10.538c0-1.198 0.476-2.346 1.323-3.193s1.996-1.323 3.193-1.323zM11.484 18.695l4.095 9.213c0.419-0.127 0.808-0.338 1.142-0.621s0.607-0.631 0.802-1.023c0.195-0.392 0.307-0.82 0.33-1.257s-0.044-0.874-0.196-1.285l-0.798-2.153c-0.17-0.455-0.227-0.944-0.167-1.426s0.236-0.942 0.513-1.342c0.277-0.399 0.646-0.726 1.076-0.952s0.908-0.344 1.394-0.345h6.865c0.221 0 0.44-0.048 0.64-0.142s0.378-0.23 0.519-0.4c0.145-0.168 0.251-0.365 0.311-0.578s0.072-0.437 0.035-0.656l-1.912-10.538c-0.064-0.351-0.251-0.667-0.526-0.893s-0.623-0.347-0.979-0.341h-13.142v14.738zM3.957 16.001c0 0.399 0.159 0.782 0.441 1.064s0.665 0.441 1.064 0.441h3.011v-13.548h-3.011c-0.399 0-0.782 0.159-1.064 0.441s-0.441 0.665-0.441 1.064v10.538z"></path>
</symbol>
<symbol id="icon-doc" viewBox="0 0 25 32">
<path d="M0.403 0.908v30.902h14.584v-8.553h8.553v-22.348h-23.137zM3.938 4.917h16.069v2.015h-16.069v-2.015zM3.938 9.561h16.069v1.85h-16.069v-1.85zM3.938 13.887h16.069v1.854h-16.069v-1.854zM3.938 20.367v-2.015h16.069v2.015h-16.069z"></path>
<path d="M16.472 24.394v7.417l7.175-7.417h-7.175z"></path>
</symbol>
<symbol id="icon-download" viewBox="0 0 32 32">
<path d="M8.090 14.586c0.162-0.358 0.518-0.586 0.91-0.586h4v-13c0-0.552 0.448-1 1-1h4c0.552 0 1 0.448 1 1v13h4c0.392 0 0.748 0.23 0.91 0.586 0.164 0.358 0.1 0.776-0.158 1.072l-7 8c-0.19 0.218-0.464 0.342-0.752 0.342s-0.562-0.126-0.752-0.342l-7-8c-0.26-0.294-0.32-0.714-0.158-1.072z"></path>
<path d="M5 22v6h22v-6h4v8c0 1.106-0.896 2-2 2h-26c-1.106 0-2-0.894-2-2v-8h4z"></path>
</symbol>
<symbol id="icon-error" viewBox="0 0 32 32">
<path d="M16 0c-8.8 0-16 7.2-16 16s7.2 16 16 16 16-7.2 16-16-7.2-16-16-16zM21.92 20c0.48 0.48 0.48 1.44 0 1.92-0.32 0.32-0.64 0.32-0.96 0.32s-0.64-0.16-0.96-0.32l-4-4-4 4c-0.32 0.32-0.64 0.32-0.96 0.32s-0.64-0.16-0.96-0.32c-0.48-0.48-0.48-1.44 0-1.92l4-4-4-4c-0.48-0.48-0.48-1.44 0-1.92s1.44-0.48 1.92 0l4 4 4-4c0.48-0.48 1.44-0.48 1.92 0s0.48 1.44 0 1.92l-4 4 4 4z"></path>
</symbol>
<symbol id="icon-eye" viewBox="0 0 32 32">
<path d="M16 11.201c-2.648 0-4.8 2.152-4.8 4.8s2.152 4.8 4.8 4.8c2.648 0 4.8-2.152 4.8-4.8s-2.152-4.8-4.8-4.8z"></path>
<path d="M16 5.091c-7.273 0-13.484 4.524-16 10.909 2.516 6.385 8.727 10.909 16 10.909 7.28 0 13.484-4.524 16-10.909-2.516-6.386-8.72-10.909-16-10.909zM16 23.273c-4.014 0-7.273-3.258-7.273-7.273s3.258-7.273 7.273-7.273c4.015 0 7.273 3.258 7.273 7.273s-3.258 7.273-7.273 7.273z"></path>
</symbol>
<symbol id="icon-fb" viewBox="0 0 32 32">
<path d="M16 0c-8.853 0-16 7.147-16 16s7.147 16 16 16c8.853 0 16-7.147 16-16s-7.147-16-16-16zM20.587 10.56c-0.107 0.213-0.107 0.213-1.28 0.32-1.173 0-1.28 0-1.493 0.213s-0.213 0.32-0.213 1.493v1.067h2.667l0.213 0.213v1.493c0 1.173 0 1.6 0 1.6-0.107 0.213-0.107 0.213-1.6 0.213h-1.387v7.253l-0.107 0.107h-3.2l-0.213-0.213v-7.253h-1.173c-1.28 0-1.28 0-1.387-0.213 0-0.107 0-2.987 0-3.093 0 0 0.107-0.107 0.107-0.107 0.107-0.107 0.107-0.107 1.28-0.107h1.173v-0.96c0-1.173 0-1.707 0.213-2.24 0.107-0.64 0.427-1.067 0.747-1.6 0.533-0.64 1.387-1.173 2.347-1.28 0.213 0 0.64 0 1.707 0h1.493l0.213 0.213v1.387c-0.107 0.853-0.107 1.387-0.107 1.493z"></path>
</symbol>
<symbol id="icon-fb-square" viewBox="0 0 32 32">
<path d="M29.328 0.984h-26.689c-0.914 0.001-1.655 0.742-1.655 1.656v26.689c0.001 0.914 0.742 1.655 1.656 1.654h14.369v-11.602h-3.896v-4.541h3.896v-3.342c0-3.875 2.366-5.985 5.823-5.985 1.656 0 3.079 0.123 3.494 0.179v4.050h-2.384c-1.881 0-2.245 0.894-2.245 2.206v2.892h4.497l-0.586 4.541h-3.911v11.602h7.631c0.914 0 1.656-0.741 1.656-1.655 0-0 0-0 0-0.001v-26.689c-0-0.914-0.742-1.655-1.656-1.655z"></path>
</symbol>
<symbol id="icon-filter" viewBox="0 0 32 32">
<path d="M28.8 9.888v-8.288c0-0.424-0.168-0.831-0.469-1.131s-0.707-0.469-1.131-0.469-0.831 0.169-1.131 0.469c-0.3 0.3-0.469 0.707-0.469 1.131v8.288c-0.927 0.336-1.727 0.95-2.293 1.757s-0.869 1.769-0.869 2.755 0.304 1.948 0.869 2.755c0.566 0.807 1.366 1.421 2.293 1.757v11.488c0 0.424 0.169 0.831 0.469 1.131s0.707 0.469 1.131 0.469c0.424 0 0.831-0.169 1.131-0.469s0.469-0.707 0.469-1.131v-11.488c0.927-0.336 1.727-0.95 2.293-1.757s0.869-1.769 0.869-2.755-0.304-1.948-0.869-2.755c-0.566-0.807-1.366-1.421-2.293-1.757zM27.2 16c-0.316 0-0.626-0.094-0.889-0.27s-0.468-0.426-0.589-0.718-0.153-0.614-0.091-0.924c0.062-0.31 0.214-0.595 0.438-0.819s0.509-0.376 0.819-0.438 0.632-0.030 0.924 0.091c0.292 0.121 0.542 0.326 0.718 0.589s0.27 0.572 0.27 0.889c0 0.424-0.168 0.831-0.469 1.131s-0.707 0.469-1.131 0.469zM17.6 19.488v-17.888c0-0.424-0.168-0.831-0.469-1.131s-0.707-0.469-1.131-0.469c-0.424 0-0.831 0.169-1.131 0.469s-0.469 0.707-0.469 1.131v17.888c-0.927 0.336-1.727 0.95-2.293 1.757s-0.869 1.769-0.869 2.755 0.304 1.948 0.869 2.755c0.566 0.807 1.366 1.421 2.293 1.757v1.888c0 0.424 0.169 0.831 0.469 1.131s0.707 0.469 1.131 0.469c0.424 0 0.831-0.169 1.131-0.469s0.469-0.707 0.469-1.131v-1.888c0.927-0.336 1.727-0.95 2.293-1.757s0.869-1.769 0.869-2.755-0.304-1.948-0.869-2.755c-0.566-0.807-1.366-1.421-2.293-1.757zM16 25.6c-0.316 0-0.626-0.094-0.889-0.27s-0.468-0.426-0.589-0.718c-0.121-0.292-0.153-0.614-0.091-0.924s0.214-0.596 0.438-0.819c0.224-0.224 0.509-0.376 0.819-0.438s0.632-0.030 0.924 0.091c0.292 0.121 0.542 0.326 0.718 0.589s0.27 0.572 0.27 0.889c0 0.424-0.168 0.831-0.469 1.131s-0.707 0.469-1.131 0.469zM6.4 6.688v-5.088c0-0.424-0.169-0.831-0.469-1.131s-0.707-0.469-1.131-0.469c-0.424 0-0.831 0.169-1.131 0.469s-0.469 0.707-0.469 1.131v5.088c-0.927 0.336-1.727 0.95-2.293 1.757s-0.869 1.769-0.869 2.755c0 0.986 0.304 1.948 0.869 2.755s1.366 1.421 2.293 1.757v14.688c0 0.424 0.169 0.831 0.469 1.131s0.707 0.469 1.131 0.469c0.424 0 0.831-0.169 1.131-0.469s0.469-0.707 0.469-1.131v-14.688c0.927-0.336 1.727-0.95 2.293-1.757s0.869-1.769 0.869-2.755c0-0.986-0.304-1.948-0.869-2.755s-1.366-1.421-2.293-1.757zM4.8 12.8c-0.316 0-0.626-0.094-0.889-0.27s-0.468-0.426-0.589-0.718c-0.121-0.292-0.153-0.614-0.091-0.924s0.214-0.595 0.438-0.819c0.224-0.224 0.509-0.376 0.819-0.438s0.632-0.030 0.924 0.091c0.292 0.121 0.542 0.326 0.718 0.589s0.27 0.572 0.27 0.889c0 0.424-0.169 0.831-0.469 1.131s-0.707 0.469-1.131 0.469z"></path>
</symbol>
<symbol id="icon-fly" viewBox="0 0 32 32">
<path d="M30.954 0.331c-0.089-0.107-0.209-0.184-0.343-0.222s-0.276-0.034-0.408 0.010l-26.244 8.775c-0.119 0.040-0.224 0.11-0.306 0.205s-0.136 0.21-0.157 0.333c-0.021 0.123-0.009 0.25 0.036 0.366s0.12 0.219 0.219 0.296l6.716 5.277v4.955c-0 0.13 0.036 0.257 0.105 0.367s0.167 0.198 0.283 0.255c0.116 0.057 0.247 0.080 0.376 0.066s0.251-0.063 0.354-0.143l2.956-2.301 4.213 3.31c0.079 0.062 0.171 0.106 0.269 0.129s0.2 0.025 0.298 0.004 0.191-0.062 0.272-0.121c0.081-0.060 0.148-0.136 0.196-0.224l11.244-20.564c0.066-0.122 0.095-0.261 0.081-0.399s-0.068-0.269-0.157-0.375zM26.504 2.815l-15.334 11.349-5.555-4.365 20.889-6.984zM11.85 18.91v-2.452l1.568 1.232-1.568 1.22zM18.965 20.288l-6.666-5.237 16.009-11.849-9.343 17.086z"></path>
<path d="M2.264 28.866c-0.175-0.056-0.365-0.040-0.528 0.044s-0.286 0.229-0.342 0.404c-0.176 0.551-0.342 1.139-0.49 1.746-0.044 0.178-0.015 0.367 0.080 0.524s0.249 0.27 0.427 0.314c0.178 0.044 0.367 0.015 0.524-0.080s0.27-0.249 0.313-0.427c0.142-0.576 0.298-1.133 0.464-1.654 0.028-0.087 0.038-0.178 0.031-0.268s-0.033-0.179-0.075-0.26c-0.042-0.081-0.099-0.153-0.168-0.211s-0.15-0.103-0.236-0.131z"></path>
<path d="M9.13 22.285c-0.875-0.257-1.811-0.209-2.654 0.138 0.214-0.933 0.615-1.813 1.18-2.587 0.109-0.145 0.157-0.326 0.133-0.505s-0.116-0.343-0.258-0.455-0.322-0.164-0.502-0.144c-0.18 0.019-0.345 0.108-0.46 0.248-0.079 0.1-1.558 2.006-1.579 4.324-1.057 0.91-1.909 2.033-2.503 3.294-0.041 0.081-0.066 0.17-0.072 0.26s0.004 0.182 0.033 0.268c0.028 0.086 0.074 0.166 0.133 0.235s0.132 0.125 0.213 0.166c0.081 0.041 0.17 0.066 0.26 0.072s0.182-0.004 0.268-0.033c0.174-0.057 0.319-0.182 0.402-0.346 0.398-0.82 0.91-1.579 1.522-2.254 0.031 0.093 0.065 0.185 0.102 0.277 0.252 0.705 0.731 1.307 1.361 1.712s1.377 0.59 2.123 0.526c0.606-0.070 1.169-0.348 1.593-0.787s0.684-1.010 0.735-1.618c0.161-1.225-0.673-2.375-2.029-2.793zM9.787 24.898c-0.014 0.303-0.135 0.591-0.342 0.813s-0.485 0.363-0.787 0.399c-0.443 0.026-0.882-0.095-1.248-0.344s-0.641-0.613-0.779-1.034c-0.095-0.236-0.163-0.482-0.205-0.733 0.334-0.222 0.711-0.372 1.106-0.44s0.801-0.051 1.189 0.048c0.698 0.217 1.136 0.748 1.065 1.292z"></path>
</symbol>
<symbol id="icon-footer-toggle" viewBox="0 0 32 32">
<path d="M32 16c0 8.837-7.163 16-16 16s-16-7.163-16-16c0-8.837 7.163-16 16-16s16 7.163 16 16z"></path>
<path stroke-linejoin="miter" stroke-linecap="round" stroke-miterlimit="4" stroke-width="2.1333" d="M10.105 14.316l6.316 6.316 6.316-6.316"></path>
</symbol>
<symbol id="icon-globe" viewBox="0 0 32 32">
<path d="M5.161 25.555c-2.339-2.631-3.626-6.033-3.613-9.554 0.002-7.982 6.475-14.452 14.458-14.45 2.634 0.001 5.217 0.721 7.472 2.083l0.535-0.882c-7.32-4.424-16.84-2.077-21.264 5.242-1.46 2.416-2.232 5.185-2.233 8.008-0.014 3.812 1.394 7.492 3.948 10.322h-1.883v1.032h3.097c0.285 0 0.516-0.231 0.516-0.516v-3.096h-1.032v1.813z"></path>
<path d="M27.536 5.679h1.883v-1.032h-3.097c-0.285 0-0.516 0.231-0.516 0.516v3.096h1.032v-1.813c2.339 2.631 3.626 6.033 3.613 9.554-0.003 7.983-6.477 14.452-14.46 14.449-2.635-0.001-5.22-0.722-7.475-2.086l-0.535 0.882c7.319 4.426 16.84 2.082 21.267-5.236 1.462-2.416 2.235-5.186 2.236-8.010 0.014-3.812-1.394-7.492-3.948-10.322z"></path>
<path d="M16 27.87c0.077 0 0.155 0 0.187-0.005 0.009 0 0.018 0 0.027 0h0.012c6.553-0.121 11.768-5.531 11.646-12.084-0.058-3.132-1.352-6.114-3.6-8.296-2.153-2.107-5.034-3.306-8.046-3.349-0.137-0.011-0.275-0.011-0.413 0-6.555 0.104-11.785 5.502-11.681 12.057 0.050 3.14 1.343 6.133 3.595 8.322 2.153 2.108 5.034 3.307 8.046 3.349 0.071 0.005 0.149 0.005 0.226 0.005zM17.405 26.735c1.206-1.088 2.221-2.37 3.002-3.794 0.928 0.325 1.817 0.751 2.652 1.271-1.595 1.379-3.562 2.257-5.654 2.524zM23.828 23.478c-0.924-0.6-1.915-1.091-2.951-1.465 0.799-1.726 1.241-3.596 1.302-5.497h4.635c-0.116 2.606-1.177 5.081-2.986 6.961zM26.813 15.485h-4.635c-0.060-1.901-0.503-3.77-1.302-5.496 1.037-0.374 2.027-0.866 2.952-1.466 1.808 1.881 2.869 4.356 2.985 6.962zM23.059 7.79c-0.834 0.52-1.723 0.946-2.651 1.27-0.783-1.426-1.8-2.71-3.009-3.799 2.095 0.267 4.064 1.147 5.66 2.529zM16.516 5.857c1.152 0.999 2.127 2.185 2.883 3.509-0.943 0.243-1.91 0.384-2.883 0.42v-3.929zM16.516 10.821c1.139-0.040 2.27-0.213 3.368-0.516 0.77 1.622 1.2 3.385 1.262 5.18h-4.63v-4.664zM16.516 16.517h4.63c-0.062 1.795-0.492 3.558-1.262 5.181-1.099-0.303-2.229-0.476-3.368-0.516v-4.665zM16.516 22.216c0.973 0.036 1.94 0.177 2.883 0.42-0.756 1.323-1.731 2.509-2.883 3.507v-3.927zM14.595 5.266c-1.206 1.088-2.221 2.37-3.002 3.794-0.928-0.325-1.817-0.751-2.652-1.271 1.595-1.379 3.562-2.257 5.654-2.524zM8.172 8.523c0.925 0.6 1.915 1.091 2.952 1.465-0.799 1.726-1.242 3.596-1.302 5.497h-4.635c0.116-2.606 1.177-5.081 2.985-6.962zM5.187 16.517h4.635c0.060 1.901 0.503 3.77 1.302 5.496-1.037 0.374-2.027 0.866-2.952 1.466-1.808-1.881-2.869-4.356-2.985-6.962zM8.941 24.211c0.834-0.52 1.724-0.945 2.651-1.27 0.783 1.426 1.8 2.71 3.008 3.799-2.095-0.267-4.064-1.147-5.66-2.529zM15.484 26.145c-1.152-0.999-2.127-2.185-2.883-3.509 0.943-0.243 1.91-0.384 2.883-0.42v3.929zM15.484 21.184c-1.139 0.040-2.269 0.213-3.368 0.516-0.771-1.623-1.201-3.387-1.262-5.183h4.63v4.667zM15.484 15.485h-4.63c0.062-1.795 0.492-3.558 1.262-5.181 1.099 0.303 2.229 0.476 3.368 0.516v4.665zM15.484 9.786c-0.973-0.036-1.94-0.177-2.883-0.42 0.756-1.323 1.731-2.509 2.883-3.507v3.927z"></path>
<path stroke-linejoin="miter" stroke-linecap="butt" stroke-miterlimit="4" stroke-width="0.3871" d="M5.161 25.555c-2.339-2.631-3.626-6.033-3.613-9.554 0.002-7.982 6.475-14.452 14.458-14.45 2.634 0.001 5.217 0.721 7.472 2.083l0.535-0.882c-7.32-4.424-16.84-2.077-21.264 5.242-1.46 2.416-2.232 5.185-2.233 8.008-0.014 3.812 1.394 7.492 3.948 10.322h-1.883v1.032h3.097c0.285 0 0.516-0.231 0.516-0.516v-3.096h-1.032v1.813z"></path>
<path stroke-linejoin="miter" stroke-linecap="butt" stroke-miterlimit="4" stroke-width="0.3871" d="M27.536 5.679h1.883v-1.032h-3.097c-0.285 0-0.516 0.231-0.516 0.516v3.096h1.032v-1.813c2.339 2.631 3.626 6.033 3.613 9.554-0.003 7.983-6.477 14.452-14.46 14.449-2.635-0.001-5.22-0.722-7.475-2.086l-0.535 0.882c7.319 4.426 16.84 2.082 21.267-5.236 1.462-2.416 2.235-5.186 2.236-8.010 0.014-3.812-1.394-7.492-3.948-10.322z"></path>
<path stroke-linejoin="miter" stroke-linecap="butt" stroke-miterlimit="4" stroke-width="0.3871" d="M16 27.87c0.077 0 0.155 0 0.187-0.005 0.009 0 0.018 0 0.027 0h0.012c6.553-0.121 11.768-5.531 11.646-12.084-0.058-3.132-1.352-6.114-3.6-8.296-2.153-2.107-5.034-3.306-8.046-3.349-0.137-0.011-0.275-0.011-0.413 0-6.555 0.104-11.785 5.502-11.681 12.057 0.050 3.14 1.343 6.133 3.595 8.322 2.153 2.108 5.034 3.307 8.046 3.349 0.071 0.005 0.149 0.005 0.226 0.005zM17.405 26.735c1.206-1.088 2.221-2.37 3.002-3.794 0.928 0.325 1.817 0.751 2.652 1.271-1.595 1.379-3.562 2.257-5.654 2.524zM23.828 23.478c-0.924-0.6-1.915-1.091-2.951-1.465 0.799-1.726 1.241-3.596 1.302-5.497h4.635c-0.116 2.606-1.177 5.081-2.986 6.961zM26.813 15.485h-4.635c-0.060-1.901-0.503-3.77-1.302-5.496 1.037-0.374 2.027-0.866 2.952-1.466 1.808 1.881 2.869 4.356 2.985 6.962zM23.059 7.79c-0.834 0.52-1.723 0.946-2.651 1.27-0.783-1.426-1.8-2.71-3.009-3.799 2.095 0.267 4.064 1.147 5.66 2.529zM16.516 5.857c1.152 0.999 2.127 2.185 2.883 3.509-0.943 0.243-1.91 0.384-2.883 0.42v-3.929zM16.516 10.821c1.139-0.040 2.27-0.213 3.368-0.516 0.77 1.622 1.2 3.385 1.262 5.18h-4.63v-4.664zM16.516 16.517h4.63c-0.062 1.795-0.492 3.558-1.262 5.181-1.099-0.303-2.229-0.476-3.368-0.516v-4.665zM16.516 22.216c0.973 0.036 1.94 0.177 2.883 0.42-0.756 1.323-1.731 2.509-2.883 3.507v-3.927zM14.595 5.266c-1.206 1.088-2.221 2.37-3.002 3.794-0.928-0.325-1.817-0.751-2.652-1.271 1.595-1.379 3.562-2.257 5.654-2.524zM8.172 8.523c0.925 0.6 1.915 1.091 2.952 1.465-0.799 1.726-1.242 3.596-1.302 5.497h-4.635c0.116-2.606 1.177-5.081 2.985-6.962zM5.187 16.517h4.635c0.060 1.901 0.503 3.77 1.302 5.496-1.037 0.374-2.027 0.866-2.952 1.466-1.808-1.881-2.869-4.356-2.985-6.962zM8.941 24.211c0.834-0.52 1.724-0.945 2.651-1.27 0.783 1.426 1.8 2.71 3.008 3.799-2.095-0.267-4.064-1.147-5.66-2.529zM15.484 26.145c-1.152-0.999-2.127-2.185-2.883-3.509 0.943-0.243 1.91-0.384 2.883-0.42v3.929zM15.484 21.184c-1.139 0.040-2.269 0.213-3.368 0.516-0.771-1.623-1.201-3.387-1.262-5.183h4.63v4.667zM15.484 15.485h-4.63c0.062-1.795 0.492-3.558 1.262-5.181 1.099 0.303 2.229 0.476 3.368 0.516v4.665zM15.484 9.786c-0.973-0.036-1.94-0.177-2.883-0.42 0.756-1.323 1.731-2.509 2.883-3.507v3.927z"></path>
</symbol>
<symbol id="icon-google" viewBox="0 0 32 32">
<path d="M10.419 13.098c0.595-1.042 1.488-1.935 2.53-2.53s2.233-0.893 3.423-0.893c1.34 0 2.679 0.447 3.721 1.191l1.488-1.488c-1.488-1.042-3.274-1.637-5.209-1.637-1.488 0-2.977 0.446-4.316 1.042-1.488 0.744-2.53 1.786-3.423 2.977l1.786 1.34z"></path>
<path d="M16.372 23.367c-1.191 0-2.381-0.298-3.423-0.893s-1.935-1.488-2.53-2.53l-1.786 1.191c0.744 1.34 1.935 2.381 3.274 3.126s2.977 1.042 4.465 1.042c1.786 0 3.572-0.447 5.060-1.34l-1.637-1.34c-1.191 0.595-2.233 0.744-3.423 0.744z"></path>
<path d="M9.674 15.033l-1.786-1.34c-0.595 1.786-0.595 3.87 0 5.656l1.786-1.34c-0.298-1.042-0.298-2.084 0-2.977z"></path>
<path d="M29.023 0h-26.047c-1.637 0-2.977 1.34-2.977 2.977v26.047c0 1.637 1.34 2.977 2.977 2.977h26.047c1.637 0 2.977-1.34 2.977-2.977v-26.047c0-1.637-1.34-2.977-2.977-2.977zM26.195 20.986c-0.595 1.34-1.488 2.53-2.53 3.572v0 0 0 0c-1.935 1.786-4.614 2.679-7.293 2.679-2.084 0-4.019-0.595-5.805-1.637s-3.126-2.53-4.019-4.316v0c-0.744-1.488-1.191-3.126-1.191-4.912 0-1.637 0.447-3.423 1.191-4.912v0c0.893-1.637 2.233-3.126 4.019-4.167s3.721-1.637 5.805-1.637c2.679 0 5.358 1.042 7.442 2.828 0.149 0.149 0.149 0.149 0.298 0.298 0 0.149 0.149 0.298 0.149 0.447s0 0.298 0 0.447c0 0.149-0.149 0.298-0.149 0.298l-3.274 2.828c-0.149 0.149-0.447 0.298-0.744 0.298s-0.447-0.149-0.744-0.298c-0.447-0.447-0.893-0.744-1.488-0.893s-1.042-0.298-1.637-0.298c-1.042 0-2.084 0.298-2.828 0.893-0.893 0.595-1.488 1.488-1.786 2.381v0c-0.298 1.042-0.298 2.084 0 3.126v0c0.298 1.042 0.893 1.786 1.786 2.381s1.786 0.893 2.828 0.893c1.042 0 1.935-0.298 2.828-0.744 0.447-0.298 0.893-0.744 1.191-1.191h-3.87c-0.149 0-0.298 0-0.447-0.149s-0.298-0.149-0.298-0.149c-0.149-0.149-0.149-0.149-0.149-0.298s-0.149-0.298-0.149-0.447v-3.572c0-0.149 0-0.298 0.149-0.447 0-0.149 0.149-0.298 0.149-0.298 0.149-0.149 0.149-0.149 0.298-0.149s0.298-0.149 0.447-0.149h9.377c0.298 0 0.447 0.149 0.595 0.298 0.298 0.149 0.447 0.298 0.447 0.595 0.149 0.744 0.149 1.488 0.149 2.233 0 1.34-0.149 2.828-0.744 4.167z"></path>
<path d="M17.414 15.628v1.786h4.316c0.149 0 0.298 0 0.447 0.149 0.149 0 0.298 0.149 0.298 0.298 0.149 0.149 0.149 0.298 0.149 0.447s0 0.298 0 0.447c-0.149 1.042-0.744 1.935-1.34 2.679l1.34 1.042 0.149 0.149c1.34-1.637 2.084-3.721 2.084-5.954 0-0.298 0-0.744 0-1.042h-7.442z"></path>
</symbol>
<symbol id="icon-heart" viewBox="0 0 32 32">
<path stroke-linejoin="miter" stroke-linecap="butt" stroke-miterlimit="4" stroke-width="1.6" d="M15.318 6.687l0.681 1.109 0.682-1.109c1.382-2.248 3.852-3.748 6.677-3.748 4.331 0 7.842 3.511 7.842 7.841 0 2.356-1.043 4.465-2.692 5.903l-0.021 0.018-0.019 0.019-12.245 12.246c-0.059 0.059-0.139 0.092-0.223 0.092s-0.164-0.033-0.223-0.092l-12.285-12.283c-1.649-1.439-2.692-3.547-2.692-5.903 0-4.331 3.51-7.841 7.84-7.841 2.825 0 5.296 1.499 6.678 3.747z"></path>
</symbol>
<symbol id="icon-imac" viewBox="0 0 32 32">
<path d="M1.548 2.4h28.903c0.411 0 0.804 0.205 1.095 0.569s0.453 0.859 0.453 1.374v18.133c0 0.515-0.163 1.009-0.453 1.374s-0.684 0.569-1.095 0.569h-11.109l0.619 1.943h1.199c0.108 0 0.214 0.043 0.302 0.122s0.153 0.192 0.188 0.32l0.516 1.943c0.026 0.097 0.033 0.201 0.020 0.302s-0.044 0.198-0.091 0.281c-0.048 0.083-0.111 0.151-0.183 0.198s-0.153 0.071-0.235 0.071h-11.355c-0.082 0-0.162-0.024-0.235-0.071s-0.136-0.115-0.183-0.198-0.079-0.18-0.091-0.281c-0.012-0.101-0.005-0.205 0.021-0.302l0.516-1.943c0.034-0.129 0.1-0.241 0.188-0.32s0.193-0.122 0.302-0.122h1.199l0.619-1.943h-11.109c-0.411 0-0.804-0.205-1.095-0.569s-0.454-0.858-0.454-1.374v-18.133c0-0.515 0.163-1.009 0.454-1.374s0.684-0.569 1.095-0.569zM13.149 26.362h5.701l-0.619-1.943h-4.462l-0.619 1.943zM30.817 22.934c0.097-0.121 0.151-0.286 0.151-0.458v-1.943h-29.935v1.943c0 0.172 0.054 0.336 0.151 0.458s0.228 0.19 0.365 0.19h28.903c0.137 0 0.268-0.068 0.365-0.19zM30.614 19.886v-15.543c-0.001-0.343-0.065-0.266-0.162-0.527-0.145-0.389-0.666-0.356-0.939-0.357h-27.448c-0.274 0.001-0.497 0.002 0 0-0.691 0.196-0.732 0.789-0.733 1.132v15.294h29.282z"></path>
<path d="M31.661 20.903l-1.048-1.017h-29.282l-0.599 0.647-0.216 1.943c0.001 0.343 0.11 0.672 0.303 0.915s0.456 0.38 0.729 0.38h11.871l-1.032 3.238h7.226l-1.032-3.238h11.871c0.273-0.001 0.536-0.138 0.729-0.38s0.48-2.145 0.481-2.488zM5.677 22.476h-3.613c-0.137 0-0.268-0.068-0.365-0.19s-0.151-0.286-0.151-0.458c0-0.172 0.054-0.336 0.151-0.458s0.228-0.19 0.365-0.19h3.613c0.137 0 0.268 0.068 0.365 0.19s0.151 0.286 0.151 0.458c0 0.172-0.054 0.336-0.151 0.458s-0.228 0.19-0.365 0.19zM7.742 22.476h-0.516c-0.137 0-0.268-0.068-0.365-0.19s-0.151-0.286-0.151-0.458c0-0.172 0.054-0.336 0.151-0.458s0.228-0.19 0.365-0.19h0.516c0.137 0 0.268 0.068 0.365 0.19s0.151 0.286 0.151 0.458c0 0.172-0.054 0.336-0.151 0.458s-0.228 0.19-0.365 0.19z"></path>
</symbol>
<symbol id="icon-img" viewBox="0 0 32 32">
<path d="M18.4 6.4c-1.28 0-2.4 1.12-2.4 2.4s1.12 2.4 2.4 2.4c1.28 0 2.4-1.12 2.4-2.4s-1.12-2.4-2.4-2.4zM27.2 0h-22.4c-2.72 0-4.8 2.080-4.8 4.8v22.4c0 2.72 2.080 4.8 4.8 4.8h22.4c2.72 0 4.8-2.080 4.8-4.8v-22.4c0-2.72-2.080-4.8-4.8-4.8zM28.8 19.040l-3.040-3.040c-1.92-1.76-4.96-1.76-6.72 0l-1.44 1.44-4.64-4.64c-1.92-1.76-4.96-1.76-6.72 0l-3.040 3.040v-11.040c0-0.96 0.64-1.6 1.6-1.6h22.4c0.96 0 1.6 0.64 1.6 1.6v14.24z"></path>
</symbol>
<symbol id="icon-in" viewBox="0 0 32 32">
<path d="M16 0c-8.853 0-16 7.147-16 16s7.147 16 16 16c8.853 0 16-7.147 16-16s-7.147-16-16-16zM12.48 16.96v4.16h-2.773v-8.32h2.773v4.16zM11.627 11.627c-0.427 0.107-0.96 0.107-1.28-0.107-0.427-0.213-0.747-0.747-0.747-1.28 0-0.427 0.107-0.747 0.427-0.96 0.213-0.213 0.427-0.32 0.747-0.427 0.107 0 0.213 0 0.32 0 0.853 0 1.493 0.533 1.6 1.387 0 0.64-0.32 1.173-1.067 1.387zM22.4 21.013h-2.773v-2.453c0-2.56 0-2.56-0.107-2.88-0.213-0.533-0.533-0.853-0.96-0.853-0.747-0.107-1.387 0.213-1.707 0.96 0 0.107-0.107 0.213-0.107 0.427 0 0.107 0 1.28 0 2.56v2.347h-2.773v-8.32h2.773v1.067l0.107-0.107c0.533-0.747 1.173-1.067 2.133-1.173 0.213 0 0.64 0 0.853 0 0.427 0.107 0.853 0.213 1.173 0.427 0.107 0 0.213 0.213 0.427 0.32 0.427 0.427 0.64 0.853 0.853 1.6 0.107 0.533 0.107 0.64 0.107 3.413v2.667z"></path>
</symbol>
<symbol id="icon-in-square" viewBox="0 0 32 32">
<path d="M28.030 1.272h-24.217c-0.272-0.004-0.543 0.046-0.795 0.147s-0.484 0.25-0.679 0.44c-0.195 0.19-0.351 0.416-0.459 0.666s-0.165 0.519-0.169 0.791v24.503c0.004 0.272 0.061 0.541 0.169 0.791s0.263 0.477 0.459 0.666c0.195 0.19 0.426 0.339 0.679 0.44s0.523 0.151 0.795 0.147h24.217c0.272 0.004 0.543-0.046 0.795-0.147s0.484-0.25 0.679-0.44c0.195-0.19 0.351-0.416 0.459-0.666s0.165-0.519 0.169-0.791v-24.503c-0.004-0.272-0.061-0.541-0.169-0.791s-0.264-0.476-0.459-0.666c-0.195-0.19-0.426-0.339-0.679-0.44s-0.523-0.151-0.795-0.147zM10.332 25.203h-4.289v-12.866h4.289v12.866zM8.187 10.536c-0.591 0-1.159-0.235-1.577-0.653s-0.653-0.985-0.653-1.577c0-0.591 0.235-1.159 0.653-1.577s0.985-0.653 1.577-0.653c0.314-0.036 0.632-0.004 0.933 0.091s0.579 0.254 0.815 0.465c0.236 0.211 0.424 0.468 0.554 0.757s0.196 0.601 0.196 0.917c0 0.316-0.067 0.629-0.196 0.917s-0.318 0.546-0.554 0.757c-0.236 0.211-0.513 0.369-0.815 0.465s-0.619 0.127-0.933 0.091zM25.8 25.203h-4.289v-6.905c0-1.73-0.615-2.859-2.173-2.859-0.482 0.004-0.952 0.155-1.345 0.433s-0.692 0.671-0.856 1.125c-0.112 0.336-0.16 0.69-0.143 1.044v7.148h-4.289c0 0 0-11.694 0-12.866h4.289v1.816c0.39-0.676 0.956-1.233 1.639-1.611s1.455-0.562 2.235-0.534c2.859 0 4.932 1.844 4.932 5.804v7.405z"></path>
</symbol>
<symbol id="icon-inst" viewBox="0 0 32 32">
<path d="M22.827 10.667c-0.32-0.64-0.747-1.067-1.387-1.387-0.213-0.107-0.533-0.213-0.64-0.213l-0.32-0.107h-4.373c-2.347 0-4.373 0-4.48 0-0.32 0-0.64 0.213-0.96 0.32-0.64 0.32-1.067 0.747-1.387 1.387-0.107 0.213-0.213 0.533-0.213 0.64l-0.107 0.32v8.747l0.107 0.32c0 0.107 0.107 0.427 0.213 0.64 0.32 0.64 0.747 1.067 1.387 1.387 0.213 0.107 0.533 0.213 0.64 0.213l0.32 0.107h8.747l0.32-0.107c0.107 0 0.427-0.107 0.64-0.213 0.64-0.32 1.067-0.747 1.387-1.387 0.107-0.213 0.213-0.533 0.213-0.64l0.107-0.32v-8.747l-0.107-0.32c0.107-0.213 0-0.427-0.107-0.64zM19.733 16.747c-0.213 1.173-1.067 2.24-2.24 2.667-0.107 0.107-0.427 0.107-0.64 0.213-0.32 0.107-0.427 0.107-0.96 0.107s-0.64 0-0.853-0.107c-1.493-0.427-2.453-1.387-2.88-2.773-0.107-0.427-0.107-1.067-0.107-1.6 0.32-1.6 1.493-2.88 3.093-3.2 0.32-0.107 0.96-0.107 1.28 0 1.6 0.32 2.987 1.6 3.2 3.2 0.213 0.533 0.213 1.173 0.107 1.493zM20.267 12.373c-0.107 0-0.213 0-0.32-0.107-0.533-0.32-0.427-1.173 0.213-1.28 0.427-0.107 0.853 0.213 0.853 0.64s-0.32 0.747-0.747 0.747z"></path>
<path d="M16.427 13.547c-0.107 0-0.32 0-0.427 0-0.427 0-0.853 0.107-1.173 0.32-0.213 0.107-0.747 0.64-0.853 0.853-0.213 0.427-0.427 1.067-0.32 1.493 0.107 0.533 0.32 0.96 0.64 1.387 0.96 1.067 2.56 1.067 3.52 0 0.853-0.853 0.96-2.027 0.32-2.987-0.427-0.533-1.067-0.96-1.707-1.067z"></path>
<path d="M16 0c-8.853 0-16 7.147-16 16s7.147 16 16 16c8.853 0 16-7.147 16-16s-7.147-16-16-16zM24.533 20.693c-0.107 0.96-0.64 1.92-1.387 2.56-0.64 0.64-1.6 1.067-2.453 1.28-0.427 0-8.96 0-9.387 0-0.96-0.107-1.92-0.64-2.56-1.387-0.64-0.64-1.067-1.6-1.28-2.453 0-0.427 0-8.96 0-9.387 0.107-0.96 0.64-1.813 1.28-2.453s1.6-1.173 2.56-1.387c0.427 0 8.96 0 9.387 0 0.96 0.107 1.813 0.64 2.453 1.28s1.173 1.6 1.387 2.56c0 0.427 0 8.96 0 9.387z"></path>
</symbol>
<symbol id="icon-inst-square" viewBox="0 0 32 32">
<path d="M15.925 12.479c-0.701 0-1.387 0.208-1.97 0.598s-1.037 0.943-1.306 1.591c-0.268 0.648-0.339 1.361-0.202 2.048s0.474 1.319 0.97 1.815c0.496 0.496 1.128 0.833 1.815 0.97s1.401 0.067 2.048-0.202c0.648-0.268 1.201-0.723 1.591-1.306s0.598-1.268 0.598-1.97c0-0.466-0.092-0.927-0.27-1.357s-0.439-0.821-0.769-1.15c-0.329-0.329-0.72-0.59-1.15-0.769s-0.891-0.27-1.357-0.27zM30.121 8.976c-0.007-1.104-0.211-2.198-0.6-3.231-0.287-0.756-0.731-1.442-1.303-2.014s-1.258-1.016-2.014-1.303c-1.033-0.39-2.127-0.593-3.231-0.6-1.844-0.1-2.387-0.1-7.048-0.1s-5.204 0-7.048 0.1c-1.104 0.008-2.198 0.211-3.231 0.6-0.756 0.287-1.442 0.731-2.014 1.303s-1.016 1.258-1.303 2.014c-0.39 1.033-0.593 2.127-0.6 3.231-0.1 1.844-0.1 2.387-0.1 7.048s0 5.204 0.1 7.048c0.015 1.108 0.218 2.205 0.6 3.245 0.286 0.752 0.729 1.435 1.301 2.001 0.569 0.575 1.257 1.019 2.016 1.301 1.033 0.39 2.127 0.593 3.231 0.6 1.844 0.1 2.387 0.1 7.048 0.1s5.204 0 7.048-0.1c1.104-0.007 2.198-0.211 3.231-0.6 0.759-0.282 1.446-0.726 2.016-1.301 0.572-0.566 1.015-1.249 1.301-2.001 0.389-1.038 0.593-2.137 0.6-3.245 0.1-1.844 0.1-2.387 0.1-7.048s0-5.204-0.1-7.048zM26.49 20.413c-0.046 0.882-0.234 1.751-0.558 2.573-0.278 0.686-0.69 1.309-1.213 1.832s-1.146 0.936-1.832 1.213c-0.83 0.305-1.704 0.474-2.588 0.5-1.129 0-1.43 0-4.374 0s-3.245 0-4.374 0c-0.884-0.026-1.758-0.195-2.588-0.5-0.709-0.263-1.349-0.684-1.873-1.229-0.518-0.513-0.918-1.132-1.172-1.816-0.307-0.829-0.471-1.704-0.486-2.588 0-1.129 0-1.43 0-4.374s0-3.245 0-4.374c0.015-0.884 0.179-1.759 0.486-2.588 0.263-0.709 0.684-1.349 1.229-1.873 0.515-0.515 1.134-0.915 1.816-1.172 0.83-0.305 1.704-0.474 2.588-0.5 1.129 0 1.43 0 4.374 0s3.245 0 4.374 0c0.884 0.026 1.758 0.195 2.588 0.5 0.709 0.263 1.349 0.684 1.873 1.229 0.518 0.513 0.918 1.132 1.172 1.816 0.305 0.83 0.474 1.704 0.5 2.588 0 1.129 0 1.43 0 4.374s0.1 3.245 0.057 4.374v0.014zM24.203 9.777c-0.17-0.462-0.439-0.881-0.787-1.229s-0.767-0.616-1.229-0.787c-0.634-0.22-1.302-0.326-1.973-0.314-1.115 0-1.43 0-4.289 0s-3.174 0-4.289 0c-0.674 0.007-1.342 0.132-1.973 0.372-0.455 0.162-0.87 0.42-1.217 0.755s-0.62 0.741-0.799 1.189c-0.208 0.637-0.309 1.303-0.3 1.973 0 1.115 0 1.43 0 4.289s0 3.174 0 4.289c0.014 0.674 0.14 1.34 0.372 1.973 0.17 0.462 0.439 0.881 0.787 1.229s0.767 0.616 1.229 0.787c0.61 0.224 1.252 0.35 1.901 0.372 1.115 0 1.43 0 4.289 0s3.174 0 4.289 0c0.674-0.007 1.342-0.132 1.973-0.372 0.462-0.17 0.881-0.439 1.229-0.787s0.616-0.767 0.787-1.229c0.239-0.631 0.365-1.298 0.372-1.973 0-1.115 0-1.43 0-4.289s0-3.174 0-4.289c0-0.675-0.126-1.344-0.372-1.973v0.014zM15.925 21.485c-0.716 0-1.426-0.141-2.088-0.416s-1.263-0.677-1.769-1.184c-0.506-0.507-0.907-1.109-1.18-1.772s-0.412-1.372-0.411-2.089c0-1.081 0.321-2.137 0.921-3.035s1.454-1.598 2.453-2.011c0.999-0.413 2.097-0.52 3.157-0.308s2.033 0.733 2.796 1.499c0.763 0.765 1.282 1.74 1.491 2.8s0.099 2.159-0.317 3.156c-0.416 0.998-1.118 1.849-2.018 2.448s-1.957 0.916-3.038 0.913zM21.644 11.635c-0.316-0.033-0.608-0.183-0.821-0.419s-0.33-0.543-0.33-0.861c0-0.318 0.118-0.624 0.33-0.861s0.505-0.385 0.821-0.419c0.316 0.033 0.608 0.183 0.821 0.419s0.33 0.543 0.33 0.861c0 0.318-0.118 0.624-0.33 0.861s-0.505 0.385-0.821 0.419z"></path>
</symbol>
<symbol id="icon-internet" viewBox="0 0 32 32">
<path d="M31.056 10.624c0 0 0 0 0-0.080-1.127-3.078-3.173-5.736-5.86-7.613s-5.886-2.884-9.164-2.884c-3.278 0-6.477 1.007-9.164 2.884s-4.733 4.535-5.86 7.613c0 0 0 0 0 0.080-1.259 3.473-1.259 7.279 0 10.752 0 0 0 0 0 0.080 1.127 3.078 3.173 5.736 5.86 7.613s5.886 2.884 9.164 2.884c3.278 0 6.477-1.007 9.164-2.884s4.733-4.535 5.86-7.613c0 0 0 0 0-0.080 1.259-3.473 1.259-7.279 0-10.752zM3.616 19.2c-0.555-2.097-0.555-4.303 0-6.4h2.976c-0.256 2.126-0.256 4.274 0 6.4h-2.976zM4.928 22.4h2.24c0.376 1.427 0.912 2.806 1.6 4.112-1.569-1.069-2.881-2.474-3.84-4.112zM7.168 9.6h-2.24c0.945-1.633 2.24-3.038 3.792-4.112-0.671 1.308-1.192 2.687-1.552 4.112zM14.4 28.32c-1.965-1.442-3.345-3.544-3.888-5.92h3.888v5.92zM14.4 19.2h-4.576c-0.299-2.123-0.299-4.277 0-6.4h4.576v6.4zM14.4 9.6h-3.888c0.543-2.376 1.923-4.478 3.888-5.92v5.92zM27.072 9.6h-2.24c-0.376-1.427-0.912-2.806-1.6-4.112 1.569 1.069 2.881 2.473 3.84 4.112zM17.6 3.68c1.965 1.442 3.345 3.544 3.888 5.92h-3.888v-5.92zM17.6 28.32v-5.92h3.888c-0.543 2.376-1.923 4.478-3.888 5.92zM22.176 19.2h-4.576v-6.4h4.576c0.299 2.123 0.299 4.277 0 6.4zM23.28 26.512c0.688-1.306 1.224-2.685 1.6-4.112h2.24c-0.959 1.638-2.271 3.043-3.84 4.112zM28.384 19.2h-2.976c0.13-1.062 0.194-2.13 0.192-3.2 0.002-1.070-0.062-2.138-0.192-3.2h2.976c0.555 2.097 0.555 4.303 0 6.4z"></path>
</symbol>
<symbol id="icon-layers" viewBox="0 0 32 32">
<path d="M22.275 8.157h-15.686c-0.941 0-1.569 0.627-1.569 1.569v3.921h11.765c0.941 0 1.569 0.627 1.569 1.569v11.765h3.922c0.941 0 1.569-0.627 1.569-1.569v-15.686c0-0.941-0.627-1.569-1.569-1.569zM14.432 16h-12.549c-0.941 0-1.569 0.627-1.569 1.569v12.549c0 0.941 0.627 1.569 1.569 1.569h12.549c0.941 0 1.569-0.627 1.569-1.569v-12.549c0-0.941-0.627-1.569-1.569-1.569zM30.118 0.314h-18.824c-0.941 0-1.569 0.627-1.569 1.569v3.922h14.902c0.941 0 1.569 0.627 1.569 1.569v14.902h3.922c0.941 0 1.569-0.627 1.569-1.569v-18.823c0-0.941-0.627-1.569-1.569-1.569z"></path>
</symbol>
<symbol id="icon-lend" viewBox="0 0 32 32">
<path d="M0 2.575h32v26.851h-32v-26.851z"></path>
<path d="M2.943 5.149h26.115v12.138h-26.115v-12.138z"></path>
<path d="M2.943 18.391h18.023v2.207h-18.023v-2.207z"></path>
<path d="M2.943 21.701h26.115v2.207h-26.115v-2.207z"></path>
<path d="M2.943 25.012h26.115v2.207h-26.115v-2.207z"></path>
</symbol>
<symbol id="icon-letter" viewBox="0 0 32 32">
<path d="M4.8 28.383h22.4c1.273 0 2.494-0.506 3.394-1.406s1.406-2.12 1.406-3.394v-14.183l-14.848 9.023c-0.271 0.155-0.568 0.256-0.876 0.298-0.107 0.014-0.215 0.022-0.324 0.022-0.421 0-0.835-0.111-1.2-0.32l-14.752-9.014v14.173c0 1.273 0.506 2.494 1.406 3.394s2.121 1.406 3.394 1.406zM31.355 5.179l-15.403 9.603-15.312-9.594c0.209-0.362 0.465-0.7 0.766-1 0.9-0.9 2.121-1.406 3.394-1.406h22.4c1.273 0 2.494 0.506 3.394 1.406 0.298 0.298 0.554 0.631 0.761 0.991z"></path>
</symbol>
<symbol id="icon-like" viewBox="0 0 32 32">
<path d="M5.463 31.054l19.163 0c1.057-0 2.079-0.371 2.891-1.048s1.36-1.616 1.55-2.655l1.912-10.538c0.119-0.651 0.094-1.32-0.074-1.96s-0.475-1.235-0.899-1.744c-0.424-0.508-0.954-0.917-1.553-1.198s-1.253-0.427-1.915-0.427h-6.865l0.843-2.153c0.351-0.943 0.467-1.956 0.34-2.954s-0.494-1.949-1.070-2.774c-0.576-0.825-1.343-1.497-2.236-1.96s-1.885-0.702-2.89-0.698c-0.29 0.001-0.573 0.085-0.816 0.242s-0.435 0.382-0.554 0.646l-4.29 9.649h-3.538c-1.198 0-2.346 0.476-3.193 1.323s-1.323 1.996-1.323 3.193v10.538c0 1.198 0.476 2.346 1.323 3.193s1.996 1.323 3.193 1.323zM11.484 13.305l4.095-9.213c0.419 0.127 0.808 0.338 1.142 0.621s0.607 0.631 0.802 1.023c0.195 0.392 0.307 0.82 0.33 1.257s-0.044 0.874-0.196 1.285l-0.798 2.153c-0.17 0.455-0.227 0.944-0.167 1.426s0.236 0.942 0.513 1.342c0.277 0.399 0.646 0.726 1.076 0.952s0.908 0.344 1.394 0.345h6.865c0.221-0 0.44 0.048 0.64 0.142s0.378 0.23 0.519 0.4c0.145 0.168 0.251 0.365 0.311 0.578s0.072 0.437 0.035 0.656l-1.912 10.538c-0.064 0.351-0.251 0.667-0.526 0.893s-0.623 0.347-0.979 0.341h-13.142v-14.738zM3.957 16c0-0.399 0.159-0.782 0.441-1.064s0.665-0.441 1.064-0.441h3.011v13.548h-3.011c-0.399 0-0.782-0.159-1.064-0.441s-0.441-0.665-0.441-1.064v-10.538z"></path>
</symbol>
<symbol id="icon-link" viewBox="0 0 32 32">
<path d="M31.531 0.469c0.351 0.351 0.505 0.825 0.461 1.284 0.005 0.055 0.007 0.111 0.007 0.168v7.68c0 0.884-0.716 1.6-1.6 1.6s-1.6-0.716-1.6-1.6v-4.137l-11.669 11.669c-0.625 0.625-1.638 0.625-2.263 0s-0.625-1.638 0-2.263l11.669-11.669h-4.137c-0.884 0-1.6-0.716-1.6-1.6s0.716-1.6 1.6-1.6h7.68c0.057 0 0.113 0.002 0.168 0.007 0.459-0.044 0.933 0.11 1.284 0.461z"></path>
<path d="M3.2 8c0-0.884 0.716-1.6 1.6-1.6h12.8c0.884 0 1.6-0.716 1.6-1.6s-0.716-1.6-1.6-1.6h-12.8c-2.651 0-4.8 2.149-4.8 4.8v19.2c0 2.651 2.149 4.8 4.8 4.8h19.2c2.651 0 4.8-2.149 4.8-4.8v-12.8c0-0.884-0.716-1.6-1.6-1.6s-1.6 0.716-1.6 1.6v12.8c0 0.884-0.716 1.6-1.6 1.6h-19.2c-0.884 0-1.6-0.716-1.6-1.6v-19.2z"></path>
</symbol>
<symbol id="icon-list" viewBox="0 0 32 32">
<path d="M4.449 9.745h4.62c0.851 0 1.54-0.703 1.54-1.571v-0.785c0-0.434-0.345-0.786-0.77-0.786s-0.77 0.352-0.77 0.786v0.785h-4.62v-4.713h2.31c0.425 0 0.77-0.352 0.77-0.785s-0.345-0.786-0.77-0.786h-2.31c-0.851 0-1.54 0.703-1.54 1.571v4.713c0 0.868 0.69 1.571 1.54 1.571z"></path>
<path d="M4.449 20.742h4.62c0.851 0 1.54-0.703 1.54-1.571v-4.713c0-0.868-0.69-1.571-1.54-1.571h-4.62c-0.851 0-1.54 0.704-1.54 1.571v4.713c0 0.868 0.69 1.571 1.54 1.571zM4.449 14.458h4.62v4.713h-4.62v-4.713z"></path>
<path d="M4.449 31.738h4.62c0.851 0 1.54-0.703 1.54-1.571v-4.713c0-0.868-0.69-1.571-1.54-1.571h-4.62c-0.851 0-1.54 0.703-1.54 1.571v4.713c0 0.868 0.69 1.571 1.54 1.571zM4.449 25.455h4.62v4.713h-4.62v-4.713z"></path>
<path d="M13.69 5.033h11.154c0.425 0-2.896-0.352-2.896-0.785s0.022-0.786-0.404-0.786h-7.855c-0.425 0-0.77 0.352-0.77 0.786s0.345 0.785 0.77 0.785z"></path>
<path d="M20.62 5.033h7.701c0.425 0 0.77-0.352 0.77-0.785s-0.345-0.786-0.77-0.786h-7.701c-0.425 0-0.77 0.352-0.77 0.786s0.345 0.785 0.77 0.785z"></path>
<path d="M13.69 16.029h10.687c0.425 0-2.63-0.352-2.63-0.786s0.022-0.785-0.404-0.785h-7.654c-0.425 0-0.77 0.352-0.77 0.785s0.345 0.786 0.77 0.786z"></path>
<path d="M28.321 14.458h-7.701c-0.425 0-0.77 0.352-0.77 0.785s0.345 0.786 0.77 0.786h7.701c0.425 0 0.77-0.352 0.77-0.786s-0.345-0.785-0.77-0.785z"></path>
<path d="M13.69 19.171h7.7c0.425 0 0.77-0.352 0.77-0.786s-0.345-0.785-0.77-0.785h-7.7c-0.425 0-0.77 0.352-0.77 0.785s0.345 0.786 0.77 0.786z"></path>
<path d="M13.69 8.144h7.7c0.425 0 0.77-0.352 0.77-0.786s-0.345-0.785-0.77-0.785h-7.7c-0.425 0-0.77 0.352-0.77 0.785s0.345 0.786 0.77 0.786z"></path>
<path d="M13.69 27.025h7.754c0.425 0 3.804-0.352 3.804-0.785s-2.369-0.786-2.795-0.786h-8.763c-0.425 0-0.77 0.352-0.77 0.786s0.345 0.785 0.77 0.785z"></path>
<path d="M28.321 25.455h-7.701c-0.425 0-0.77 0.352-0.77 0.786s0.345 0.785 0.77 0.785h7.701c0.425 0 0.77-0.352 0.77-0.785s-0.345-0.786-0.77-0.786z"></path>
<path d="M13.69 30.167h7.7c0.425 0 0.77-0.352 0.77-0.785s-0.345-0.786-0.77-0.786h-7.7c-0.425 0-0.77 0.352-0.77 0.786s0.345 0.785 0.77 0.785z"></path>
<path d="M6.534 4.478c-0.302-0.298-0.783-0.293-1.080 0.009s-0.301 0.793-0.009 1.101l1.54 1.571c0.145 0.147 0.34 0.23 0.544 0.23h0.064c0.226-0.019 0.431-0.139 0.563-0.327l3.85-5.498c0.16-0.228 0.188-0.526 0.074-0.782s-0.353-0.43-0.627-0.457c-0.274-0.027-0.541 0.097-0.701 0.326l-3.321 4.743-0.898-0.917z"></path>
</symbol>
<symbol id="icon-lock" viewBox="0 0 32 32">
<path d="M23.826 8v3.2c1.245 0 2.44 0.506 3.32 1.406s1.375 2.121 1.375 3.394v11.2c0 1.273-0.495 2.494-1.375 3.394s-2.075 1.406-3.32 1.406h-15.652c-1.245 0-2.44-0.506-3.32-1.406s-1.375-2.121-1.375-3.394v-11.2c0-1.273 0.495-2.494 1.375-3.394s2.075-1.406 3.32-1.406v-3.2c0-2.122 0.825-4.157 2.292-5.657s3.458-2.343 5.534-2.343c2.076 0 4.066 0.843 5.534 2.343s2.292 3.535 2.292 5.657zM12.68 4.606c-0.881 0.9-1.375 2.121-1.375 3.394v3.2h9.391v-3.2c0-1.273-0.495-2.494-1.375-3.394s-2.075-1.406-3.32-1.406c-1.245 0-2.44 0.506-3.32 1.406z"></path>
</symbol>
<symbol id="icon-login" viewBox="0 0 32 32">
<path d="M14.362 0.101c-2.313 0.356-3.825 1.694-4.419 3.906-0.319 1.175-0.475 3.131-0.369 4.575 0.25 3.45 2.356 6.256 5.213 6.963 0.581 0.137 1.844 0.137 2.425 0 2.869-0.706 4.969-3.519 5.212-6.981 0.1-1.469-0.050-3.388-0.369-4.556-0.6-2.237-2.113-3.556-4.475-3.913-0.762-0.113-2.475-0.113-3.219 0.006z"></path>
<path d="M11.874 16.326c-3.15 0.675-4.744 1.325-5.9 2.419-1.5 1.425-2.038 3.431-2.138 8.038l-0.038 1.688 0.331 0.369c1.269 1.406 3.856 2.444 7.275 2.913 2.438 0.331 6.75 0.331 9.187 0 3.419-0.469 6.006-1.506 7.275-2.913l0.331-0.369-0.038-1.75c-0.050-2.356-0.194-3.731-0.512-5-0.5-2.012-1.525-3.256-3.419-4.156-1.006-0.481-2.775-1.006-4.269-1.256l-0.45-0.081-0.3 0.269c-0.387 0.337-1.294 0.781-1.9 0.925-0.644 0.15-1.981 0.15-2.625 0-0.6-0.144-1.512-0.581-1.887-0.912-0.306-0.275-0.406-0.294-0.925-0.181z"></path>
</symbol>
<symbol id="icon-logout" viewBox="0 0 32 32">
<path d="M3.429 16c0 0.424 0.166 0.831 0.46 1.131s0.694 0.469 1.111 0.469h11.927l-3.614 3.664c-0.147 0.149-0.264 0.326-0.344 0.521s-0.121 0.404-0.121 0.615c0 0.211 0.041 0.42 0.121 0.615s0.197 0.372 0.344 0.521c0.146 0.15 0.32 0.269 0.511 0.35s0.397 0.123 0.604 0.123 0.413-0.042 0.604-0.123c0.191-0.081 0.365-0.2 0.511-0.35l6.286-6.4c0.143-0.152 0.255-0.332 0.33-0.528 0.157-0.39 0.157-0.826 0-1.216-0.075-0.196-0.187-0.376-0.33-0.528l-6.286-6.4c-0.146-0.149-0.32-0.268-0.512-0.348s-0.397-0.122-0.604-0.122c-0.207 0-0.412 0.042-0.604 0.122s-0.365 0.199-0.512 0.348c-0.147 0.149-0.263 0.326-0.342 0.521s-0.12 0.404-0.12 0.615c0 0.211 0.041 0.42 0.12 0.615s0.196 0.372 0.342 0.521l3.614 3.664h-11.927c-0.417 0-0.816 0.169-1.111 0.469s-0.46 0.707-0.46 1.131zM23.857 0h-15.714c-1.25 0-2.449 0.506-3.333 1.406s-1.381 2.121-1.381 3.394v4.8c0 0.424 0.166 0.831 0.46 1.131s0.694 0.469 1.111 0.469c0.417 0 0.816-0.169 1.111-0.469s0.46-0.707 0.46-1.131v-4.8c0-0.424 0.166-0.831 0.46-1.131s0.694-0.469 1.111-0.469h15.714c0.417 0 0.816 0.169 1.111 0.469s0.46 0.707 0.46 1.131v22.4c0 0.424-0.166 0.831-0.46 1.131s-0.694 0.469-1.111 0.469h-15.714c-0.417 0-0.816-0.168-1.111-0.469s-0.46-0.707-0.46-1.131v-4.8c0-0.424-0.166-0.831-0.46-1.131s-0.694-0.469-1.111-0.469c-0.417 0-0.816 0.169-1.111 0.469s-0.46 0.707-0.46 1.131v4.8c0 1.273 0.497 2.494 1.381 3.394s2.083 1.406 3.333 1.406h15.714c1.25 0 2.449-0.506 3.334-1.406s1.381-2.121 1.381-3.394v-22.4c0-1.273-0.497-2.494-1.381-3.394s-2.083-1.406-3.334-1.406z"></path>
</symbol>
<symbol id="icon-mail" viewBox="0 0 32 32">
<path d="M16.074 12.8c-1.637 0-3.126 1.34-3.126 3.126 0 1.637 1.34 3.126 3.126 3.126 1.637 0 3.126-1.34 3.126-3.126-0.149-1.786-1.488-3.126-3.126-3.126z"></path>
<path d="M29.47 0h-26.791c-1.488 0-2.679 1.34-2.679 2.977v26.195c0 1.637 1.191 2.977 2.53 2.977h26.791c1.488 0 2.53-1.34 2.53-2.977v-26.195c0.149-1.637-1.042-2.977-2.381-2.977zM26.047 18.009v0c0 0-0.149 0.298-0.149 0.447-0.298 0.744-0.744 1.488-1.34 1.935-0.744 0.447-1.488 0.744-2.381 0.744-0.447 0-1.042-0.149-1.488-0.447s-0.893-0.595-1.042-1.042c-0.447 0.447-1.042 0.893-1.637 1.191s-1.34 0.447-1.935 0.447c-2.828 0-5.209-2.381-5.209-5.209s2.381-5.209 5.209-5.209 5.209 2.381 5.209 5.209v1.637c0 1.042 0.595 1.34 1.191 1.34s1.34-0.298 1.488-1.34c0.149-0.595 0.149-1.191 0.149-1.786 0-4.465-3.721-8.037-8.186-8.037s-8.186 3.572-8.186 8.037c0 4.465 3.721 8.037 8.186 8.037 1.637 0 3.126-0.447 4.465-1.34v0l1.34 1.637c-1.637 1.191-3.721 1.786-5.805 1.786-5.656 0-10.27-4.614-10.27-10.121 0-5.656 4.614-10.121 10.27-10.121s10.27 4.614 10.27 10.121c0.149 0.744 0 1.34-0.149 2.084z"></path>
</symbol>
<symbol id="icon-message" viewBox="0 0 32 32">
<path d="M0 4.571h32v19.248h-32v-19.248z"></path>
<path d="M6.521 27.429l3.079-3.609h-6.158l3.079 3.609z"></path>
</symbol>
<symbol id="icon-minus" viewBox="0 0 32 32">
<path d="M0 11.636h32v8.727h-32v-8.727z"></path>
</symbol>
<symbol id="icon-more" viewBox="0 0 32 32">
<path d="M12.8 32.711l-5.689-4.267 8.889-12.089-8.889-12.089 5.689-4.267 12.089 16.356z"></path>
</symbol>
<symbol id="icon-ok" viewBox="0 0 32 32">
<path d="M15.147 13.333c0.427 0.107 1.067 0.213 1.493 0 0.853-0.213 1.6-0.96 1.707-1.92 0.107-0.533 0-1.067-0.213-1.6-0.32-0.533-0.853-0.96-1.387-1.173-0.107-0.107-0.32-0.107-0.64-0.107-0.533 0-0.747 0-1.173 0.213-0.747 0.32-1.173 0.96-1.387 1.707-0.107 0.533 0 1.067 0.213 1.6 0.32 0.64 0.853 1.067 1.387 1.28z"></path>
<path d="M16 0c-8.853 0-16 7.147-16 16s7.147 16 16 16c8.853 0 16-7.147 16-16s-7.147-16-16-16zM11.093 10.027c0.32-1.28 1.067-2.453 2.133-3.2 0.533-0.32 1.28-0.64 1.92-0.747 0.427-0.107 1.28-0.107 1.707 0 0.96 0.107 1.707 0.533 2.347 1.173 1.387 1.173 2.133 3.307 1.6 5.12-0.533 2.133-2.347 3.627-4.48 3.84-0.96 0.107-1.813-0.107-2.667-0.533-1.387-0.747-2.347-1.92-2.773-3.52 0-0.533 0.107-1.6 0.213-2.133zM21.867 17.813c-0.32 0.64-1.6 1.493-2.773 1.813-0.427 0.107-1.173 0.32-1.6 0.32-0.213 0-0.427 0.107-0.427 0.107s0.853 0.853 1.92 1.92c1.28 1.28 1.92 1.92 2.027 2.133 0.107 0.107 0.107 0.213 0.107 0.533s0 0.427-0.107 0.533c-0.107 0.32-0.533 0.533-0.747 0.64-0.32 0.107-0.64 0.107-0.96 0-0.107-0.107-0.64-0.533-1.707-1.6s-1.493-1.493-1.6-1.493-0.533 0.427-1.6 1.493c-1.707 1.707-1.707 1.707-2.24 1.707-0.32 0-0.64-0.107-0.853-0.427-0.213-0.213-0.32-0.533-0.427-0.853 0-0.533-0.107-0.427 2.133-2.667 1.067-1.067 1.92-1.92 1.92-1.92s-0.213 0-0.427-0.107c-0.96-0.107-1.92-0.427-2.453-0.747-0.853-0.427-1.707-1.067-1.92-1.493-0.107-0.213-0.107-0.747 0-0.96 0.213-0.427 0.533-0.64 0.853-0.747s0.747 0 1.28 0.32c1.067 0.64 1.813 0.96 2.88 1.067 0.64 0.107 1.707 0.107 2.24-0.107 0.853-0.213 1.6-0.427 2.24-0.853 0.533-0.32 0.747-0.427 0.96-0.427 0.747-0.107 1.387 0.427 1.493 1.28-0.107 0.32-0.107 0.32-0.213 0.533z"></path>
</symbol>
<symbol id="icon-ok-square" viewBox="0 0 32 32">
<path d="M16.074 12.651c1.34 0 2.381-1.042 2.381-2.381s-1.042-2.381-2.381-2.381c-1.34 0-2.381 1.042-2.381 2.381s1.042 2.381 2.381 2.381z"></path>
<path d="M29.023 0h-26.047c-1.637 0-2.977 1.34-2.977 2.977v26.047c0 1.637 1.34 2.977 2.977 2.977h26.047c1.637 0 2.977-1.34 2.977-2.977v-26.047c0-1.637-1.34-2.977-2.977-2.977zM16.074 4.614c3.126 0 5.656 2.53 5.656 5.805 0 3.126-2.53 5.805-5.656 5.805-3.126-0.149-5.656-2.679-5.656-5.954 0-3.126 2.53-5.656 5.656-5.656zM22.326 18.307c-0.149 0.447-0.298 0.744-0.744 1.042-1.042 0.595-2.084 1.042-3.274 1.34l3.126 3.274c0.149 0.149 0.298 0.298 0.298 0.595 0.149 0.149 0.149 0.447 0.149 0.595s0 0.447-0.149 0.595c-0.149 0.149-0.149 0.447-0.298 0.595s-0.298 0.298-0.595 0.298c-0.149 0.149-0.447 0.149-0.595 0.149s-0.447 0-0.595-0.149c-0.149-0.149-0.447-0.149-0.595-0.298l-3.126-3.126-3.126 3.126c-0.298 0.298-0.744 0.447-1.191 0.447s-0.893-0.149-1.191-0.447c-0.298-0.298-0.447-0.744-0.447-1.191s0.149-0.893 0.447-1.191l3.274-3.126c-1.042-0.298-2.233-0.744-3.274-1.488-0.447-0.298-0.595-0.595-0.744-1.042s0-0.893 0.149-1.34c0.149-0.149 0.298-0.298 0.447-0.447s0.447-0.149 0.744-0.149c0.149 0 0.447 0 0.595 0 0.298 0 0.447 0 0.595 0.149 2.381 1.488 5.358 1.488 7.591 0 0.149-0.149 0.447-0.149 0.595-0.298 0.149 0 0.447 0 0.595 0s0.447 0.149 0.595 0.298c0.149 0.149 0.298 0.298 0.447 0.447 0.447 0.447 0.447 0.893 0.298 1.34z"></path>
</symbol>
<symbol id="icon-path" viewBox="0 0 32 32">
<path d="M11.676 32h3.892l12.541-16.432-12.541-15.568h-11.243l12.973 15.568-12.108 16.432h6.487z"></path>
</symbol>
<symbol id="icon-phone" viewBox="0 0 32 32">
<path d="M22.732 0h-13.464c-1.289 0-2.329 1.045-2.329 2.331v27.34c0 1.285 1.040 2.329 2.329 2.329h13.464c1.286 0 2.329-1.044 2.329-2.329v-27.34c0-1.286-1.043-2.331-2.329-2.331zM12.678 1.416h6.647c0.168 0 0.304 0.251 0.304 0.561s-0.136 0.562-0.304 0.562h-6.647c-0.169 0-0.303-0.252-0.303-0.562s0.134-0.561 0.303-0.561zM16.001 29.699c-0.82 0-1.487-0.667-1.487-1.488s0.667-1.486 1.487-1.486c0.817 0 1.484 0.665 1.484 1.486s-0.667 1.488-1.484 1.488zM23.316 24.605h-14.631v-20.671h14.631v20.671z"></path>
</symbol>
<symbol id="icon-pin" viewBox="0 0 32 32">
<path d="M25.27 3.964c-2.457-2.538-5.788-3.964-9.262-3.964s-6.806 1.426-9.262 3.964c-2.457 2.538-3.837 5.981-3.837 9.571s1.38 7.032 3.837 9.571l8.135 8.422c0.143 0.15 0.314 0.268 0.502 0.349s0.39 0.123 0.594 0.123 0.406-0.042 0.594-0.123c0.188-0.081 0.359-0.2 0.502-0.349l8.197-8.502c2.446-2.528 3.82-5.956 3.82-9.531s-1.374-7.003-3.82-9.531zM20.794 17.377l-4.039 0.992-4.391-0.914c-1.394-1.441-1.071-0.183-1.455-2.182s-0.755-1.754 0-3.636 0.179-1.866 1.818-2.998c1.64-1.132 0.429 0 2.401 0s0.305-1.77 1.945-0.638c1.64 1.132 2.535 0.338 3.29 2.22s1.111 2.327 0.727 4.325c-0.384 1.999 1.096 1.39-0.297 2.831zM11.377 8.638c-1.246 1.292-1.946 3.041-1.946 4.865s0.7 3.573 1.946 4.865c0.926 0.958 2.105 1.613 3.389 1.881s2.617 0.139 3.831-0.372c1.214-0.511 2.254-1.381 2.991-2.501s1.137-2.44 1.151-3.794c0.007-0.904-0.162-1.8-0.496-2.636s-0.827-1.594-1.449-2.229c-0.612-0.647-1.341-1.162-2.147-1.516s-1.67-0.54-2.546-0.548-1.743 0.164-2.554 0.505c-0.811 0.341-1.548 0.843-2.17 1.48zM18.617 16.103c-0.585 0.614-1.358 0.998-2.187 1.088s-1.663-0.121-2.358-0.596c-0.696-0.475-1.21-1.185-1.455-2.008s-0.206-1.709 0.111-2.506 0.892-1.455 1.627-1.862c0.735-0.407 1.583-0.538 2.401-0.37s1.554 0.624 2.082 1.29c0.528 0.666 0.816 1.502 0.814 2.363-0.022 0.985-0.422 1.92-1.111 2.6h0.077z"></path>
</symbol>
<symbol id="icon-pinterest" viewBox="0 0 32 32">
<path d="M16 0c-8.853 0-16 7.147-16 16s7.147 16 16 16c8.853 0 16-7.147 16-16s-7.147-16-16-16zM22.613 14.187c-0.32 2.56-1.387 4.373-3.2 5.333-0.747 0.32-1.28 0.533-2.133 0.533-0.64 0-0.747 0-1.28-0.213-0.32-0.107-0.533-0.213-0.747-0.427-0.107-0.107-0.213-0.107-0.213-0.107s-0.107 0.427-0.32 1.067c-0.32 1.387-0.533 2.027-0.96 2.88-0.32 0.64-0.64 1.173-0.96 1.387 0-0.107-0.107-0.107-0.32-0.107-0.32 0-0.533-0.213-0.64-0.747s-0.107-1.813 0.107-2.88c0-0.213 0.32-1.493 0.64-2.88l0.64-2.56-0.107-0.32c-0.107-0.533-0.213-0.853-0.213-1.387 0-0.32 0-0.533 0.107-0.747 0.32-1.173 1.067-1.813 2.027-1.813 0.427 0 0.747 0.107 1.067 0.427s0.427 0.64 0.533 1.173c0 0.533-0.107 0.96-0.427 2.347-0.32 1.067-0.427 1.387-0.427 1.6 0 0.853 0.853 1.387 1.707 1.067 0.32-0.107 0.427-0.213 0.747-0.32 0.64-0.427 1.067-1.28 1.28-2.347 0.213-0.747 0.213-1.067 0.213-1.92 0-0.64 0-0.747-0.107-1.067-0.32-1.173-1.067-1.92-2.347-2.24-1.067-0.32-2.24-0.213-3.2 0.32-0.533 0.213-0.747 0.427-1.173 0.853-0.747 0.64-1.173 1.6-1.173 2.667 0 0.747 0.107 1.173 0.427 1.6s0.32 0.533 0.32 0.747c0 0.107 0 0.32-0.107 0.64-0.213 0.747-0.32 0.853-0.747 0.853-0.213 0-0.32 0-0.533-0.107-0.853-0.427-1.493-1.387-1.707-2.773-0.107-0.533-0.107-1.387 0-1.92 0.427-2.88 2.88-5.013 6.080-5.333 0.427 0 1.6 0 1.92 0 0.853 0.107 1.493 0.32 2.133 0.64 1.707 0.853 2.773 2.347 3.2 4.16 0 0.427 0 1.387-0.107 1.92z"></path>
</symbol>
<symbol id="icon-play" viewBox="0 0 32 32">
<path d="M16 0c-8.835 0-16 7.165-16 16s7.165 16 16 16 16-7.165 16-16-7.165-16-16-16zM12.348 21.739v-11.478l9.913 5.739-9.913 5.739z"></path>
</symbol>
<symbol id="icon-play-gray" viewBox="0 0 32 32">
<path d="M16.141 0.57c-8.538 0-15.484 6.929-15.484 15.446s6.946 15.446 15.484 15.446c8.538 0 15.484-6.929 15.484-15.446s-6.946-15.446-15.484-15.446zM12.27 23.739v-15.446l11.613 7.723-11.613 7.723z"></path>
</symbol>
<symbol id="icon-play-square" viewBox="0 0 32 32">
<path d="M2.065 0h27.871c1.14 0 2.064 0.924 2.064 2.065v27.871c0 1.14-0.924 2.064-2.064 2.064h-27.871c-1.14 0-2.065-0.924-2.065-2.064v-27.871c0-1.14 0.924-2.065 2.065-2.065zM11.871 22.774l10.839-6.258-10.839-6.258v12.515z"></path>
</symbol>
<symbol id="icon-plus" viewBox="0 0 32 32">
<path d="M12.471 19.606h-12.471v-7.050h12.471v-12.555h7.057v12.555h12.471v7.050h-12.471v12.394h-7.057v-12.394z"></path>
</symbol>
<symbol id="icon-question" viewBox="0 0 32 32">
<path d="M15.227 20.177c-0.073-0.212-0.139-0.485-0.196-0.819-0.057-0.342-0.086-0.681-0.086-1.015 0-0.522 0.102-0.99 0.306-1.406 0.212-0.424 0.473-0.819 0.783-1.186s0.648-0.717 1.015-1.052c0.367-0.342 0.705-0.685 1.015-1.027 0.31-0.351 0.567-0.713 0.77-1.088 0.212-0.383 0.318-0.803 0.318-1.26 0-0.391-0.077-0.738-0.232-1.039-0.147-0.302-0.35-0.554-0.611-0.758s-0.563-0.355-0.905-0.452c-0.342-0.106-0.705-0.159-1.088-0.159-1.378 0-2.572 0.542-3.583 1.626v-2.152c1.247-0.783 2.539-1.174 3.876-1.174 0.62 0 1.203 0.082 1.749 0.245s1.023 0.408 1.431 0.734c0.416 0.318 0.742 0.717 0.978 1.198s0.355 1.039 0.355 1.675c0 0.603-0.106 1.141-0.318 1.614s-0.481 0.909-0.807 1.308c-0.318 0.391-0.665 0.758-1.039 1.101s-0.726 0.685-1.052 1.027c-0.318 0.334-0.583 0.685-0.795 1.052s-0.318 0.77-0.318 1.211c0 0.375 0.045 0.717 0.135 1.027 0.090 0.302 0.179 0.558 0.269 0.77h-1.969zM16.328 25.264c-0.359 0-0.677-0.13-0.954-0.391-0.269-0.261-0.403-0.579-0.403-0.954 0-0.383 0.134-0.701 0.403-0.954 0.269-0.269 0.587-0.404 0.954-0.404s0.685 0.135 0.954 0.404c0.269 0.253 0.403 0.571 0.403 0.954 0 0.375-0.134 0.693-0.403 0.954-0.277 0.261-0.595 0.391-0.954 0.391z"></path>
<path d="M16 30.609c-8.068 0-14.609-6.541-14.609-14.609s6.541-14.609 14.609-14.609c8.068 0 14.609 6.541 14.609 14.609s-6.541 14.609-14.609 14.609zM16 32c8.837 0 16-7.163 16-16s-7.163-16-16-16c-8.837 0-16 7.163-16 16s7.163 16 16 16z"></path>
</symbol>
<symbol id="icon-rating" viewBox="0 0 32 32">
<path d="M22.857 3.429h9.143v25.143h-9.143v-25.143z"></path>
<path d="M11.429 12.571h9.143v16h-9.143v-16z"></path>
<path d="M0 19.429h9.143v9.143h-9.143v-9.143z"></path>
</symbol>
<symbol id="icon-rocket" viewBox="0 0 32 32">
<path d="M31.963 2.389c-0.069-1.271-1.080-2.282-2.351-2.351-2.565-0.14-7.584-0.004-12.383 2.478-2.447 1.266-5.034 3.411-7.099 5.887-0.025 0.031-0.050 0.061-0.075 0.092l-4.686 0.362c-0.771 0.060-1.458 0.464-1.885 1.109l-3.197 4.836c-0.324 0.489-0.375 1.102-0.138 1.638s0.725 0.91 1.305 1l3.948 0.612c-0.014 0.077-0.028 0.153-0.041 0.23-0.131 0.786 0.129 1.595 0.697 2.162l5.5 5.5c0.471 0.471 1.107 0.73 1.759 0.73 0.134 0 0.269-0.011 0.404-0.034 0.077-0.013 0.153-0.027 0.23-0.041l0.611 3.948c0.090 0.58 0.464 1.067 1 1.305 0.223 0.099 0.459 0.147 0.694 0.147 0.33-0 0.658-0.096 0.944-0.285l4.836-3.197c0.645-0.427 1.050-1.114 1.109-1.885l0.362-4.686c0.031-0.025 0.061-0.050 0.092-0.075 2.476-2.065 4.621-4.652 5.887-7.099 2.482-4.799 2.619-9.819 2.479-12.383zM21 26.954l-4.626 3.058-0.596-3.848c1.955-0.575 3.889-1.495 5.731-2.729l-0.236 3.053c-0.015 0.19-0.115 0.36-0.274 0.465zM12.882 24.618l-5.5-5.5c-0.14-0.14-0.205-0.338-0.173-0.527 0.164-0.978 0.418-1.908 0.732-2.785l8.252 8.252c-1.053 0.377-1.996 0.602-2.783 0.734-0.19 0.032-0.387-0.033-0.527-0.173zM5.512 10.726l3.053-0.236c-1.233 1.842-2.154 3.776-2.729 5.731l-3.848-0.596 3.058-4.626c0.105-0.159 0.275-0.259 0.465-0.274zM22.396 20.431c-1.515 1.263-2.985 2.177-4.34 2.838l-9.326-9.326c0.866-1.769 1.923-3.242 2.839-4.339 1.911-2.291 4.288-4.267 6.521-5.422 4.405-2.278 9.045-2.401 11.42-2.272 0.314 0.017 0.564 0.267 0.581 0.581 0.129 2.374 0.006 7.015-2.272 11.42-1.155 2.233-3.131 4.61-5.422 6.521z"></path>
</symbol>
<symbol id="icon-search" viewBox="0 0 32 32">
<path d="M31.407 29.422l-9.032-8.964c1.713-2.099 2.744-4.767 2.744-7.673 0-6.735-5.521-12.214-12.308-12.214s-12.308 5.479-12.308 12.214c0 6.735 5.521 12.214 12.308 12.214 2.927 0 5.616-1.023 7.731-2.724l9.032 8.964c0.253 0.251 0.663 0.251 0.916 0l0.916-0.909c0.253-0.251 0.253-0.658 0-0.909zM12.812 22.429c-5.358 0-9.717-4.326-9.717-9.643s4.359-9.643 9.717-9.643c5.358 0 9.716 4.325 9.716 9.643s-4.358 9.643-9.716 9.643z"></path>
</symbol>
<symbol id="icon-select" viewBox="0 0 32 32">
<path d="M1.236 10.083l12.139 14.283c1.14 1.342 3.143 1.497 4.474 0.347 0.123-0.107 0.238-0.223 0.344-0.347l12.139-14.283c1.14-1.342 0.986-3.362-0.344-4.512-0.575-0.497-1.308-0.77-2.065-0.77h-24.277c-1.752 0-3.173 1.433-3.173 3.2 0 0.764 0.271 1.503 0.764 2.083z"></path>
</symbol>
<symbol id="icon-settings" viewBox="0 0 32 32">
<path d="M30.912 12.080l-3.024-1.008 1.424-2.848c0.144-0.298 0.193-0.634 0.138-0.96s-0.209-0.628-0.442-0.864l-3.408-3.408c-0.236-0.237-0.541-0.393-0.871-0.448s-0.669-0.004-0.969 0.144l-2.848 1.424-1.008-3.024c-0.106-0.315-0.309-0.589-0.578-0.784s-0.593-0.301-0.926-0.304h-4.8c-0.335-0.001-0.663 0.104-0.935 0.299s-0.477 0.471-0.585 0.789l-1.008 3.024-2.848-1.424c-0.298-0.144-0.634-0.193-0.96-0.138s-0.628 0.209-0.864 0.442l-3.408 3.408c-0.237 0.236-0.393 0.541-0.448 0.871s-0.004 0.669 0.144 0.969l1.424 2.848-3.024 1.008c-0.315 0.106-0.589 0.309-0.784 0.578s-0.301 0.593-0.304 0.926v4.8c-0.001 0.335 0.104 0.663 0.299 0.935s0.471 0.477 0.789 0.585l3.024 1.008-1.424 2.848c-0.144 0.298-0.193 0.634-0.138 0.96s0.209 0.628 0.442 0.864l3.408 3.408c0.236 0.237 0.541 0.393 0.871 0.448s0.669 0.004 0.969-0.144l2.848-1.424 1.008 3.024c0.107 0.318 0.312 0.594 0.585 0.789s0.6 0.3 0.935 0.299h4.8c0.335 0.001 0.663-0.104 0.935-0.299s0.477-0.471 0.585-0.789l1.008-3.024 2.848 1.424c0.296 0.141 0.629 0.187 0.952 0.133s0.622-0.207 0.856-0.437l3.408-3.408c0.237-0.236 0.393-0.541 0.448-0.871s0.004-0.669-0.144-0.969l-1.424-2.848 3.024-1.008c0.315-0.106 0.59-0.309 0.784-0.578s0.301-0.593 0.304-0.926v-4.8c0.001-0.335-0.104-0.663-0.299-0.935s-0.471-0.477-0.789-0.585zM28.8 17.248l-1.92 0.64c-0.442 0.143-0.847 0.381-1.187 0.696s-0.608 0.701-0.785 1.13c-0.176 0.429-0.258 0.892-0.238 1.355s0.141 0.918 0.354 1.33l0.912 1.824-1.76 1.76-1.776-0.96c-0.41-0.204-0.86-0.318-1.318-0.334s-0.914 0.067-1.338 0.243c-0.423 0.176-0.804 0.441-1.116 0.777s-0.548 0.735-0.693 1.17l-0.64 1.92h-2.544l-0.64-1.92c-0.143-0.442-0.381-0.847-0.696-1.187s-0.701-0.608-1.13-0.785c-0.429-0.176-0.892-0.258-1.356-0.238s-0.918 0.141-1.33 0.354l-1.824 0.912-1.76-1.76 0.96-1.776c0.213-0.412 0.334-0.866 0.354-1.33s-0.061-0.926-0.238-1.355c-0.177-0.429-0.444-0.815-0.785-1.13s-0.746-0.553-1.187-0.696l-1.92-0.64v-2.496l1.92-0.64c0.442-0.143 0.847-0.381 1.187-0.696s0.608-0.701 0.785-1.13c0.177-0.429 0.258-0.892 0.238-1.356s-0.141-0.918-0.354-1.33l-0.912-1.776 1.76-1.76 1.776 0.912c0.412 0.213 0.866 0.334 1.33 0.354s0.926-0.061 1.356-0.238c0.429-0.177 0.815-0.444 1.13-0.785s0.553-0.746 0.696-1.187l0.64-1.92h2.496l0.64 1.92c0.143 0.442 0.381 0.847 0.696 1.187s0.701 0.608 1.13 0.785c0.429 0.177 0.892 0.258 1.355 0.238s0.918-0.141 1.33-0.354l1.824-0.912 1.76 1.76-0.96 1.776c-0.204 0.41-0.318 0.86-0.334 1.318s0.067 0.914 0.243 1.338c0.176 0.423 0.441 0.804 0.777 1.116s0.735 0.548 1.17 0.693l1.92 0.64v2.544zM16 9.6c-1.266 0-2.503 0.375-3.556 1.079s-1.873 1.703-2.357 2.872c-0.484 1.169-0.611 2.456-0.364 3.698s0.856 2.382 1.752 3.277c0.895 0.895 2.035 1.505 3.277 1.752s2.528 0.12 3.698-0.364c1.169-0.484 2.169-1.305 2.872-2.357s1.079-2.29 1.079-3.556c0-1.697-0.674-3.325-1.875-4.525s-2.828-1.874-4.526-1.874zM16 19.2c-0.633 0-1.252-0.188-1.778-0.539s-0.936-0.851-1.179-1.436c-0.242-0.585-0.306-1.228-0.182-1.849s0.428-1.191 0.876-1.638c0.448-0.448 1.018-0.752 1.638-0.876s1.264-0.060 1.849 0.182c0.585 0.242 1.084 0.652 1.436 1.179s0.539 1.145 0.539 1.778c0 0.849-0.337 1.663-0.937 2.263s-1.414 0.937-2.263 0.937z"></path>
</symbol>
<symbol id="icon-shield" viewBox="0 0 32 32">
<path d="M28.356 5c-5.119 0-9.041-1.56-12.357-5-3.316 3.44-7.237 5-12.356 5 0 8.958-1.738 21.789 12.356 27 14.095-5.211 12.357-18.043 12.357-27zM14.976 20.762l-4.117-4.392 1.843-1.966 2.273 2.426 4.321-4.609 1.843 1.966-6.164 6.575z"></path>
</symbol>
<symbol id="icon-sign" viewBox="0 0 32 32">
<path d="M12.895 22.716v-1.136c0-1.641 0.252-2.987 0.757-4.039 0.505-1.066 1.444-2.187 2.819-3.365 1.907-1.613 3.106-2.826 3.597-3.639 0.505-0.813 0.757-1.795 0.757-2.945 0-1.43-0.463-2.531-1.388-3.302-0.911-0.785-2.23-1.178-3.954-1.178-1.108 0-2.188 0.133-3.239 0.4-1.052 0.252-2.258 0.722-3.618 1.409l-1.241-2.84c2.65-1.388 5.42-2.082 8.308-2.082 2.678 0 4.761 0.659 6.247 1.977s2.23 3.176 2.23 5.574c0 1.024-0.14 1.928-0.421 2.713-0.266 0.771-0.666 1.507-1.199 2.209-0.533 0.687-1.683 1.802-3.45 3.344-1.416 1.206-2.356 2.209-2.819 3.008-0.449 0.799-0.673 1.865-0.673 3.197v0.694h-2.713zM11.865 28.963c0-1.907 0.841-2.861 2.524-2.861 0.813 0 1.437 0.245 1.872 0.736 0.449 0.491 0.673 1.199 0.673 2.124 0 0.897-0.224 1.599-0.673 2.103-0.449 0.491-1.073 0.736-1.872 0.736-0.729 0-1.332-0.217-1.809-0.652-0.477-0.449-0.715-1.178-0.715-2.188z"></path>
</symbol>
<symbol id="icon-skype" viewBox="0 0 32 32">
<path d="M29.412 18.803c0.203-0.952 0.305-1.923 0.303-2.897-0.010-1.78-0.371-3.541-1.062-5.182s-1.699-3.129-2.965-4.38c-1.267-1.251-2.767-2.24-4.417-2.911s-3.414-1.010-5.194-0.998c-0.779-0.002-1.556 0.066-2.323 0.203-1.19-0.748-2.558-1.165-3.963-1.209s-2.796 0.287-4.031 0.96c-1.235 0.672-2.268 1.661-2.993 2.865s-1.117 2.58-1.135 3.985c0.001 1.386 0.373 2.746 1.077 3.94-0.175 0.887-0.265 1.79-0.27 2.694 0.015 1.768 0.381 3.515 1.077 5.141s1.707 3.096 2.976 4.327c1.269 1.231 2.77 2.198 4.415 2.845s3.403 0.96 5.171 0.922c0.836 0.006 1.671-0.073 2.491-0.237 1.132 0.686 2.417 1.080 3.739 1.146 1.334 0.025 2.652-0.293 3.826-0.926s2.167-1.556 2.881-2.683 1.126-2.419 1.196-3.751c0.070-1.332-0.205-2.66-0.797-3.855zM22.271 21.43c-0.592 0.793-1.398 1.401-2.323 1.751-1.145 0.456-2.371 0.673-3.603 0.639-1.431 0.046-2.852-0.254-4.142-0.875-0.755-0.402-1.402-0.979-1.886-1.684-0.43-0.589-0.676-1.292-0.706-2.021-0.003-0.185 0.034-0.369 0.11-0.538s0.188-0.319 0.328-0.44c0.303-0.275 0.701-0.42 1.11-0.404 0.331-0.014 0.655 0.095 0.911 0.304 0.281 0.262 0.499 0.584 0.639 0.942 0.173 0.449 0.412 0.869 0.708 1.247 0.271 0.356 0.631 0.634 1.043 0.808 0.564 0.238 1.173 0.353 1.785 0.337 0.866 0.047 1.725-0.176 2.459-0.639 0.283-0.166 0.519-0.401 0.684-0.684s0.255-0.604 0.259-0.932c0.010-0.232-0.030-0.463-0.117-0.678s-0.219-0.409-0.388-0.568c-0.371-0.351-0.822-0.606-1.314-0.742-0.538-0.168-1.28-0.337-2.189-0.538-1.044-0.221-2.068-0.525-3.063-0.909-0.765-0.307-1.438-0.805-1.954-1.448-0.488-0.649-0.738-1.445-0.708-2.256-0.001-0.828 0.271-1.633 0.775-2.29 0.57-0.711 1.329-1.248 2.189-1.55 1.092-0.385 2.245-0.567 3.402-0.538 0.911-0.012 1.819 0.113 2.694 0.369 0.68 0.197 1.319 0.517 1.885 0.943 0.451 0.336 0.829 0.76 1.112 1.246 0.216 0.38 0.332 0.809 0.337 1.246 0.001 0.19-0.038 0.377-0.114 0.551s-0.186 0.33-0.325 0.459c-0.138 0.145-0.306 0.259-0.492 0.335s-0.385 0.111-0.586 0.103c-0.325 0.019-0.647-0.076-0.909-0.27-0.271-0.253-0.498-0.548-0.674-0.875-0.268-0.534-0.647-1.005-1.112-1.381-0.623-0.39-1.355-0.567-2.088-0.505-0.756-0.035-1.506 0.152-2.156 0.54-0.234 0.126-0.431 0.309-0.572 0.534s-0.223 0.481-0.235 0.746c0.002 0.291 0.096 0.574 0.27 0.808 0.209 0.25 0.474 0.446 0.775 0.572 0.307 0.167 0.635 0.292 0.976 0.371 0.337 0.101 0.876 0.235 1.649 0.404 0.943 0.203 1.819 0.438 2.594 0.673 0.702 0.208 1.37 0.514 1.986 0.909 0.524 0.345 0.962 0.806 1.28 1.347 0.325 0.611 0.487 1.296 0.471 1.988 0.040 0.927-0.233 1.84-0.775 2.593z"></path>
</symbol>
<symbol id="icon-smile" viewBox="0 0 32 32">
<path d="M19.013 19.398c-1.019 0.821-2.288 1.269-3.596 1.269s-2.578-0.448-3.596-1.269c-0.311-0.259-0.712-0.383-1.115-0.346s-0.775 0.233-1.033 0.544c-0.259 0.311-0.383 0.712-0.346 1.115s0.233 0.775 0.544 1.033c1.556 1.299 3.519 2.011 5.547 2.011s3.99-0.712 5.547-2.011c0.311-0.259 0.507-0.63 0.544-1.033s-0.087-0.804-0.346-1.115c-0.128-0.154-0.285-0.281-0.462-0.375s-0.371-0.151-0.571-0.169c-0.403-0.037-0.804 0.087-1.115 0.346zM10.845 14.476c0.301 0 0.596-0.089 0.847-0.257s0.446-0.405 0.561-0.684c0.115-0.278 0.146-0.585 0.087-0.88s-0.204-0.567-0.417-0.78c-0.213-0.213-0.485-0.358-0.78-0.417s-0.602-0.029-0.88 0.087c-0.278 0.115-0.516 0.311-0.684 0.561s-0.257 0.545-0.257 0.847c0 0.404 0.161 0.792 0.446 1.078s0.673 0.446 1.078 0.446zM19.988 11.429c-0.301 0-0.596 0.089-0.847 0.257s-0.446 0.405-0.561 0.684-0.146 0.585-0.087 0.88c0.059 0.296 0.204 0.567 0.417 0.78s0.485 0.358 0.78 0.417 0.602 0.029 0.88-0.087c0.278-0.115 0.516-0.311 0.684-0.561s0.257-0.545 0.257-0.847c0-0.404-0.161-0.792-0.446-1.078s-0.673-0.446-1.078-0.446zM15.417 0.762c-3.014 0-5.96 0.894-8.466 2.568s-4.459 4.054-5.612 6.839c-1.153 2.784-1.455 5.848-0.867 8.804s2.039 5.671 4.17 7.802c2.131 2.131 4.846 3.582 7.802 4.17s6.020 0.286 8.804-0.867c2.784-1.153 5.164-3.106 6.839-5.612s2.568-5.452 2.568-8.466c0-2.001-0.394-3.983-1.16-5.831s-1.888-3.529-3.303-4.944c-1.415-1.415-3.095-2.537-4.944-3.303s-3.83-1.16-5.831-1.16zM15.417 28.19c-2.411 0-4.768-0.715-6.773-2.054s-3.567-3.243-4.49-5.471-1.164-4.679-0.694-7.043c0.47-2.365 1.631-4.537 3.336-6.242s3.877-2.866 6.242-3.336c2.365-0.47 4.816-0.229 7.043 0.694s4.131 2.485 5.471 4.49c1.34 2.005 2.055 4.362 2.055 6.773 0 3.233-1.284 6.334-3.571 8.62s-5.387 3.57-8.62 3.57z"></path>
</symbol>
<symbol id="icon-sort-bottom" viewBox="0 0 32 32">
<path d="M15.293 30.707c0.391 0.39 1.024 0.39 1.414 0l6.364-6.364c0.391-0.391 0.391-1.024 0-1.414s-1.024-0.391-1.414 0l-5.657 5.657-5.657-5.657c-0.391-0.391-1.024-0.391-1.414 0s-0.391 1.024 0 1.414l6.364 6.364zM15 0v30h2v-30h-2z"></path>
</symbol>
<symbol id="icon-sort-top" viewBox="0 0 32 32">
<path d="M16.707 1.293c-0.391-0.391-1.024-0.391-1.414 0l-6.364 6.364c-0.391 0.391-0.391 1.024 0 1.414s1.024 0.391 1.414 0l5.657-5.657 5.657 5.657c0.391 0.391 1.024 0.391 1.414 0s0.391-1.024 0-1.414l-6.364-6.364zM17 32v-30h-2v30h2z"></path>
</symbol>
<symbol id="icon-star2" viewBox="0 0 32 32">
<path d="M16 0.4l3.174 7.28 7.111-3.536-2.248 7.617 7.72 1.862-6.618 4.39 4.717 6.389-7.891-0.891-0.493 7.926-5.472-5.755-5.472 5.755-0.493-7.926-7.891 0.891 4.717-6.389-6.618-4.39 7.72-1.862-2.248-7.617 7.111 3.536 3.174-7.28z"></path>
</symbol>
<symbol id="icon-stars" viewBox="0 0 32 32">
<path d="M30.096 4.884h-20.554c-0.815 0-0.816 1.26 0 1.26h20.554c0.35 0 0.635 0.283 0.635 0.63v14.883c0 0.347-0.285 0.63-0.635 0.63h-11.114c-0.194 0-0.378 0.088-0.498 0.24l-2.56 3.218-2.716-3.231c-0.121-0.143-0.299-0.226-0.488-0.226h-10.816c-0.35 0-0.635-0.283-0.635-0.63v-14.883c0-0.347 0.285-0.63 0.635-0.63h8.096c0.815 0 0.691-1.26-0.125-1.26h-7.971c-1.050 0-1.904 0.848-1.904 1.889v14.883c0 1.042 0.854 1.889 1.904 1.889h10.518l3.026 3.601c0.256 0.304 0.738 0.298 0.986-0.013l2.855-3.588h10.806c1.050 0 1.904-0.848 1.904-1.889v-14.883c0-1.042-0.854-1.889-1.904-1.889z"></path>
<path d="M3.515 12.987c-0.067 0.205-0.024 0.43 0.115 0.596l1.236 1.48-0.123 1.919c-0.097 1.503 2.178-0.093 2.668-0.083 0.495 0.010 2.764 1.569 2.668 0.083l-0.123-1.919 1.236-1.48c0.289-0.346 0.11-0.9-0.331-1.012l-1.877-0.477-1.037-1.624c-0.242-0.379-0.829-0.382-1.072 0l-1.037 1.624-1.877 0.477c-0.211 0.053-0.379 0.21-0.446 0.415zM6.397 13.253c0.469-0.119 0.778-0.898 1.014-1.268 0.232 0.364 0.55 1.15 1.014 1.268l1.151 0.292-0.758 0.908c-0.103 0.124-0.155 0.282-0.145 0.442l0.075 1.176-1.104-0.434c-0.15-0.059-0.318-0.059-0.468 0l-1.104 0.434 0.075-1.176c0.010-0.16-0.041-0.318-0.145-0.442l-0.758-0.908 1.151-0.292z"></path>
<path d="M19.833 12.987c-0.067-0.205-0.236-0.362-0.446-0.416l-1.877-0.477-1.037-1.624c-0.242-0.379-0.829-0.382-1.072 0l-1.037 1.624-1.877 0.477c-0.211 0.054-0.379 0.21-0.446 0.416s-0.024 0.43 0.115 0.596l1.236 1.48-0.123 1.919c-0.097 1.503 2.178-0.093 2.669-0.083 0.495 0.010 2.764 1.569 2.669 0.083l-0.123-1.919 1.236-1.48c0.139-0.166 0.182-0.391 0.115-0.596zM17.344 14.453c-0.103 0.124-0.155 0.282-0.145 0.442l0.075 1.176c-0.396-0.156-0.903-0.479-1.338-0.479-0.434 0-0.943 0.323-1.338 0.479l0.075-1.176c0.010-0.16-0.041-0.318-0.145-0.442l-0.758-0.908 1.151-0.292c0.469-0.119 0.778-0.898 1.014-1.268 0.232 0.364 0.55 1.15 1.014 1.268l1.151 0.292-0.758 0.908z"></path>
<path d="M28.358 12.987c-0.067-0.205-0.236-0.362-0.446-0.416l-1.877-0.477-1.037-1.624c-0.242-0.379-0.829-0.382-1.072 0l-1.037 1.624-1.877 0.477c-0.438 0.111-0.622 0.664-0.331 1.012l1.236 1.48-0.123 1.919c-0.097 1.503 2.177-0.093 2.668-0.083 0.494 0.010 2.764 1.57 2.669 0.083l-0.123-1.919 1.236-1.48c0.139-0.166 0.182-0.391 0.115-0.596zM25.869 14.453c-0.103 0.124-0.155 0.282-0.145 0.442l0.075 1.176-1.104-0.434c-0.156-0.059-0.312-0.059-0.468 0l-1.104 0.434 0.075-1.176c0.010-0.16-0.041-0.318-0.145-0.442l-0.758-0.908 1.151-0.292c0.469-0.119 0.778-0.898 1.015-1.268 0.233 0.364 0.55 1.15 1.014 1.268l1.151 0.292-0.758 0.908z"></path>
<path d="M6.592 6.037c0.478 0.325 1.116-0.147 0.963-0.691-0.073-0.259-0.309-0.448-0.58-0.461s-0.526 0.152-0.623 0.402c-0.105 0.27-0.006 0.59 0.24 0.75z"></path>
</symbol>
<symbol id="icon-telegram" viewBox="0 0 32 32">
<path d="M15.909 0.884c-3.063 0-6.057 0.908-8.604 2.61s-4.532 4.12-5.704 6.95c-1.172 2.83-1.479 5.944-0.881 8.948s2.073 5.764 4.238 7.93c2.166 2.166 4.925 3.641 7.93 4.238s6.118 0.291 8.948-0.881c2.83-1.172 5.249-3.157 6.95-5.704s2.61-5.541 2.61-8.604c0-2.034-0.401-4.048-1.179-5.927s-1.919-3.586-3.357-5.024c-1.438-1.438-3.145-2.579-5.024-3.357s-3.893-1.179-5.927-1.179v0zM20.833 24.351c-0.058 0.145-0.146 0.275-0.259 0.383s-0.247 0.19-0.394 0.242c-0.147 0.052-0.303 0.071-0.458 0.057s-0.306-0.061-0.441-0.137l-4.204-3.267-2.698 2.489c-0.063 0.046-0.136 0.076-0.213 0.087s-0.156 0.002-0.228-0.026l0.517-4.628 0.017 0.013 0.011-0.091c0 0 7.565-6.888 7.874-7.181 0.312-0.293 0.209-0.356 0.209-0.356 0.018-0.357-0.56 0-0.56 0l-10.024 6.449-4.174-1.422c0 0-0.641-0.23-0.702-0.736-0.064-0.502 0.722-0.774 0.722-0.774l16.597-6.594c0 0 1.364-0.608 1.364 0.399l-2.956 15.094z"></path>
</symbol>
<symbol id="icon-time" viewBox="0 0 32 32">
<path d="M16 0c-8.836 0-16 7.164-16 16s7.163 16 16 16c8.836 0 16-7.164 16-16s-7.164-16-16-16zM22.917 19.043h-6.783c-0.023 0-0.044-0.006-0.067-0.006-0.023 0.001-0.044 0.006-0.067 0.006-0.611 0-1.107-0.495-1.107-1.107v-11.296c0-0.611 0.495-1.107 1.107-1.107s1.107 0.495 1.107 1.107v10.19h5.81c0.611 0 1.107 0.495 1.107 1.107s-0.495 1.107-1.106 1.107z"></path>
</symbol>
<symbol id="icon-toggle" viewBox="0 0 32 32">
<path d="M16.943 24.276l14.667-14.667c0.521-0.521 0.521-1.365 0-1.886s-1.365-0.521-1.885 0l-13.724 13.724-13.724-13.724c-0.521-0.521-1.365-0.521-1.886 0s-0.521 1.365 0 1.886l14.667 14.667c0.521 0.521 1.365 0.521 1.886-0z"></path>
</symbol>
<symbol id="icon-tool" viewBox="0 0 32 32">
<path d="M31.488 6.772l-5.27 5.27-4.61-1.647-1.647-4.61 5.27-5.27c-3.458-1.157-7.425-0.361-10.179 2.393-2.702 2.702-2.783 7.013-1.719 10.425-0.143 0.113-0.282 0.234-0.414 0.367l-10.823 10.823c-1.811 1.811-2.547 4.309-0.736 6.12s4.306 1.072 6.117-0.739l10.823-10.823c0.132-0.132 0.253-0.271 0.366-0.414 3.412 1.064 7.726 0.987 10.428-1.716 2.753-2.753 3.549-6.721 2.393-10.178z"></path>
</symbol>
<symbol id="icon-trophy" viewBox="0 0 32 32">
<path d="M25.65 2.98c0.021-1.121-0.016-1.829-0.016-1.829h-19.269c0 0-0.036 0.708-0.016 1.829h-6.35v1.196c0 0.273 0.040 6.715 3.52 10.244 1.452 1.472 3.262 2.212 5.397 2.213 0.323 0 0.655-0.025 0.991-0.058 1.213 1.898 2.614 3.226 4.189 3.889v5.255h-4.626v3.291h-1.528v1.846h16.114v-1.844h-1.529v-3.291h-4.626v-5.255c1.575-0.662 2.977-1.991 4.189-3.889 0.338 0.033 0.67 0.057 0.993 0.057 2.134-0.002 3.944-0.741 5.396-2.214 3.48-3.529 3.52-9.971 3.52-10.244v-1.195h-6.35zM4.917 12.637c-1.988-2.010-2.575-5.45-2.749-7.264h4.302c0.182 2.259 0.61 5.074 1.599 7.549 0.181 0.454 0.371 0.884 0.566 1.305-1.483-0.065-2.73-0.594-3.718-1.59zM27.083 12.637c-0.986 0.998-2.235 1.525-3.716 1.59 0.195-0.42 0.385-0.851 0.566-1.305 0.988-2.474 1.416-5.29 1.598-7.549h4.302c-0.174 1.812-0.76 5.253-2.749 7.264z"></path>
</symbol>
<symbol id="icon-twitter" viewBox="0 0 32 32">
<path d="M16 0c-8.853 0-16 7.147-16 16s7.147 16 16 16c8.853 0 16-7.147 16-16s-7.147-16-16-16zM24.32 11.2c-0.32 0.427-0.853 1.067-1.173 1.387l-0.32 0.213v0.747c0 0.427 0 0.96-0.107 1.173-0.533 3.627-2.453 6.613-5.333 8.107-1.067 0.533-1.813 0.853-3.093 0.96-0.427 0.107-1.92 0.107-2.347 0-1.28-0.107-2.453-0.533-3.52-1.067-0.427-0.107-0.96-0.427-0.96-0.533 0 0 0.107 0 0.107 0 0.213 0 1.28 0 1.6 0 1.173-0.213 2.24-0.64 3.093-1.28 0.213-0.213 0.213-0.213-0.107-0.213-0.96-0.107-2.027-0.853-2.56-1.813-0.107-0.32-0.213-0.747-0.213-0.747s0.107 0 0.32 0 0.533 0 0.96 0h0.213l-0.32-0.107c-1.28-0.533-2.24-1.707-2.347-3.307v-0.32h0.107c0 0 0.107 0.107 0.213 0.107 0.32 0.107 0.64 0.213 1.067 0.32h0.107l-0.107-0.107c0 0-0.213-0.213-0.32-0.32-0.96-0.96-1.387-2.56-0.853-3.947 0.107-0.32 0.213-0.64 0.32-0.64 0 0 0.107 0.107 0.213 0.32 1.493 1.813 3.413 2.987 5.653 3.413 0.32 0.107 0.96 0.107 1.173 0.107h0.107v-0.213c0-0.107 0-0.427 0-0.747 0-0.533 0.107-0.96 0.32-1.387 0.533-1.173 1.493-1.92 2.667-2.133 0 0 0.32 0 0.64 0 0.427 0 0.64 0 0.853 0.107 0.533 0.107 1.173 0.533 1.493 0.853l0.107 0.107 0.213-0.107c0.533-0.107 1.067-0.32 1.493-0.64 0.427-0.213 0.427-0.213 0.427-0.107s-0.32 0.64-0.427 0.853c-0.213 0.213-0.533 0.747-0.853 0.853-0.107 0.107-0.213 0.107-0.213 0.213 0 0 0.213 0 0.427-0.107 0.427-0.107 0.853-0.213 1.173-0.427 0.107-0.107 0.213-0.107 0.213-0.107 0.107 0.213 0 0.427-0.107 0.533z"></path>
</symbol>
<symbol id="icon-twitter-square" viewBox="0 0 32 32">
<path d="M29.692 0.593h-27.869c-1.275 0-1.823 0.761-1.823 1.988v26.839c0 1.227 0.646 1.988 1.921 1.988h28.076c1.275 0 2.004-0.761 2.004-1.988v-27.050c0-1.227-0.79-1.777-2.064-1.777h-0.243zM23.305 12.606c0.007 0.152 0.011 0.304 0.011 0.457 0 4.673-3.694 10.062-10.449 10.062-2.074 0-4.004-0.585-5.629-1.588 0.287 0.033 0.58 0.049 0.876 0.049 1.721 0 3.304-0.565 4.561-1.514-1.608-0.029-2.963-1.051-3.431-2.456 0.224 0.041 0.454 0.064 0.69 0.064 0.335 0 0.66-0.044 0.969-0.125-1.68-0.324-2.946-1.754-2.946-3.467 0-0.016 0-0.030 0-0.045 0.495 0.265 1.061 0.424 1.663 0.442-0.986-0.633-1.634-1.717-1.634-2.944 0-0.648 0.182-1.255 0.497-1.778 1.811 2.14 4.518 3.547 7.57 3.695-0.063-0.259-0.095-0.529-0.095-0.806 0-1.952 1.645-3.536 3.673-3.536 1.056 0 2.011 0.43 2.681 1.117 0.837-0.159 1.622-0.453 2.332-0.858-0.275 0.825-0.857 1.518-1.615 1.956 0.743-0.086 1.451-0.275 2.109-0.557-0.491 0.709-1.115 1.332-1.832 1.831z"></path>
</symbol>
<symbol id="icon-user" viewBox="0 0 32 32">
<path d="M30.4 13.741h-1.6v-1.506c0-0.399-0.169-0.782-0.469-1.065s-0.707-0.441-1.131-0.441c-0.424 0-0.831 0.159-1.131 0.441s-0.469 0.665-0.469 1.065v1.506h-1.6c-0.424 0-0.831 0.159-1.131 0.441s-0.469 0.665-0.469 1.065c0 0.399 0.169 0.782 0.469 1.065s0.707 0.441 1.131 0.441h1.6v1.506c0 0.399 0.169 0.782 0.469 1.065s0.707 0.441 1.131 0.441 0.831-0.159 1.131-0.441c0.3-0.282 0.469-0.665 0.469-1.065v-1.506h1.6c0.424 0 0.831-0.159 1.131-0.441s0.469-0.665 0.469-1.065c0-0.399-0.169-0.782-0.469-1.065s-0.707-0.441-1.131-0.441zM18.080 16.331c0.854-0.696 1.539-1.556 2.008-2.522s0.712-2.017 0.712-3.080c0-1.997-0.843-3.912-2.343-5.324s-3.535-2.205-5.657-2.205-4.157 0.793-5.657 2.205c-1.5 1.412-2.343 3.327-2.343 5.324-0 1.063 0.243 2.113 0.712 3.080s1.154 1.827 2.008 2.522c-2.24 0.955-4.14 2.496-5.474 4.44s-2.044 4.208-2.046 6.523c0 0.399 0.169 0.782 0.469 1.065s0.707 0.441 1.131 0.441c0.424 0 0.831-0.159 1.131-0.441s0.469-0.665 0.469-1.065c0-2.396 1.011-4.694 2.812-6.389s4.242-2.646 6.788-2.646 4.988 0.952 6.788 2.646c1.8 1.694 2.812 3.992 2.812 6.389 0 0.399 0.169 0.782 0.469 1.065s0.707 0.441 1.131 0.441c0.424 0 0.831-0.159 1.131-0.441s0.469-0.665 0.469-1.065c-0.002-2.314-0.713-4.579-2.046-6.523s-3.234-3.486-5.474-4.44zM12.8 15.247c-0.949 0-1.877-0.265-2.667-0.761s-1.405-1.202-1.768-2.027c-0.363-0.825-0.458-1.734-0.273-2.61s0.642-1.681 1.314-2.313c0.671-0.632 1.527-1.062 2.458-1.236s1.896-0.085 2.773 0.257c0.877 0.342 1.627 0.921 2.154 1.664s0.809 1.616 0.809 2.51c0 1.198-0.506 2.347-1.406 3.194s-2.121 1.323-3.394 1.323z"></path>
</symbol>
<symbol id="icon-vk" viewBox="0 0 32 32">
<path d="M16 0c-8.853 0-16 7.147-16 16s7.147 16 16 16c8.853 0 16-7.147 16-16s-7.147-16-16-16zM24.427 18.987c1.707 1.28 2.24 1.92 2.24 2.347 0 0.213-0.107 0.32-0.32 0.427l-0.213 0.107h-1.067c-1.387 0-2.56 0-2.773 0s-0.64-0.107-0.853-0.32c-0.32-0.213-0.64-0.427-1.28-1.067-0.96-0.853-1.387-1.067-1.707-0.853-0.427 0.213-0.533 0.64-0.64 1.28 0 0.533-0.107 0.747-0.533 0.853-0.213 0.107-2.133 0.107-2.667 0-1.067-0.107-1.92-0.427-3.093-1.173-0.853-0.427-1.387-0.96-2.453-2.027-1.28-1.387-2.453-2.987-3.52-4.907-0.107-0.427-0.213-0.533-0.213-0.64s0-0.213 0.107-0.213c0.107 0 0.213-0.107 0.32-0.107s0.96 0 1.813 0h1.707l0.213 0.107c0.213 0.107 0.32 0.213 0.533 0.64 0.32 0.64 1.387 2.24 1.813 2.773s1.067 0.96 1.387 0.853c0.213 0 0.427-0.32 0.533-0.853 0.213-1.067 0.107-2.24-0.213-2.667-0.107-0.213-0.427-0.427-0.853-0.533-0.213 0-0.213-0.107-0.107-0.213 0.32-0.427 0.853-0.533 2.24-0.533 0.427 0 0.96 0 1.067 0s0.427 0 0.64 0 1.067 0.107 1.173 0.213c0.107 0 0.107 0.107 0.213 0.213 0.213 0.32 0.213 0.427 0.107 1.92 0 1.493 0 1.813 0.107 2.133 0.107 0.107 0.107 0.213 0.213 0.213 0.107 0.107 0.213 0.107 0.32 0 0.533-0.213 1.493-1.28 2.347-2.667 0.213-0.32 0.533-0.853 0.64-1.067 0.213-0.427 0.32-0.533 0.533-0.533 0.107 0 0.96 0 2.133 0 2.133 0 2.24 0 2.453 0.213 0.107 0.107 0.107 0.427 0 0.64-0.213 0.533-0.747 1.173-2.133 2.667-1.067 1.173-1.173 1.28-1.28 1.6-0.213 0.107-0.107 0.213 1.067 1.173z"></path>
</symbol>
<symbol id="icon-vk-square" viewBox="0 0 32 32">
<path d="M29.961 0h-27.917c-1.129 0-2.044 0.915-2.044 2.041v27.917c0 1.127 0.915 2.041 2.044 2.041h27.915c1.127 0 2.041-0.915 2.041-2.041v-27.917c0.002-1.129-0.912-2.041-2.039-2.041zM26.544 19.499c0.585 0.596 1.854 1.596 1.624 2.615-0.212 0.935-1.608 0.594-2.963 0.648-1.547 0.066-2.464 0.099-3.394-0.648-0.438-0.355-0.695-0.775-1.116-1.244-0.382-0.425-0.863-1.186-1.518-1.156-1.177 0.059-0.808 1.698-1.226 2.816-6.54 1.030-9.166-3.010-11.483-6.93-1.122-1.899-2.744-5.977-2.744-5.977l4.625-0.016c0 0 1.484 2.698 1.877 3.394 0.334 0.592 0.702 1.061 1.082 1.59 0.318 0.438 0.822 1.296 1.373 1.226 0.896-0.115 1.059-3.593 0.503-4.758-0.221-0.472-0.752-0.637-1.301-0.797 0.185-1.17 5.187-1.414 5.995-0.506 1.174 1.319-0.813 4.99 0.795 6.061 2.258-1.183 4.187-6.138 4.187-6.138l5.415 0.034c0 0-0.847 2.678-1.734 3.866-0.517 0.695-2.233 2.245-2.166 3.394 0.054 0.91 1.45 1.795 2.168 2.527z"></path>
</symbol>
<symbol id="icon-vk-square2" viewBox="0 0 32 32">
<path d="M20.318 1.118h-8.771c-8.012 0-9.918 1.906-9.918 9.903v8.771c0 8.011 1.891 9.918 9.903 9.918h8.771c8.011 0 9.918-1.891 9.918-9.903v-8.771c0-8.011-1.891-9.918-9.903-9.918zM24.711 21.519h-2.085c-0.789 0-1.027-0.64-2.442-2.055-1.236-1.191-1.757-1.34-2.070-1.34-0.432 0-0.551 0.119-0.551 0.715v1.876c0 0.506-0.164 0.804-1.489 0.804-1.286-0.086-2.533-0.477-3.639-1.14s-2.038-1.579-2.72-2.672c-1.62-2.016-2.746-4.382-3.291-6.91 0-0.313 0.119-0.596 0.715-0.596h2.085c0.536 0 0.73 0.238 0.938 0.789 1.013 2.978 2.74 5.569 3.44 5.569 0.268 0 0.387-0.119 0.387-0.789v-3.068c-0.089-1.4-0.834-1.519-0.834-2.025 0.010-0.134 0.071-0.258 0.171-0.347s0.231-0.135 0.365-0.13h3.276c0.447 0 0.596 0.223 0.596 0.759v4.14c0 0.447 0.194 0.596 0.328 0.596 0.268 0 0.476-0.149 0.968-0.64 1.056-1.288 1.919-2.722 2.561-4.259 0.066-0.185 0.19-0.343 0.354-0.451s0.359-0.158 0.555-0.145h2.085c0.625 0 0.759 0.313 0.625 0.759-0.759 1.699-1.697 3.311-2.8 4.81-0.223 0.342-0.313 0.521 0 0.923 0.208 0.313 0.938 0.923 1.43 1.504 0.715 0.713 1.308 1.538 1.757 2.442 0.179 0.581-0.119 0.879-0.715 0.879z"></path>
</symbol>
<symbol id="icon-youtube" viewBox="0 0 32 32">
<path d="M15.040 13.76c-0.427-0.213-0.533-0.213-0.747-0.107-0.107 0-0.107 0.107-0.213 0.213v0 2.027c0 1.813 0 2.027 0.107 2.133 0.107 0.213 0.32 0.32 0.533 0.32s3.733-1.92 3.84-2.027c0.213-0.213 0.213-0.533 0-0.747-0.107-0.107-2.347-1.28-3.52-1.813z"></path>
<path d="M16 0c-8.853 0-16 7.147-16 16s7.147 16 16 16c8.853 0 16-7.147 16-16s-7.147-16-16-16zM24.32 19.627c-0.32 1.28-1.067 1.92-2.347 2.24-0.747 0.107-0.853 0.107-5.333 0.213-2.88 0-4.587 0-5.12 0-1.6-0.107-2.453-0.32-3.2-1.067-0.427-0.427-0.64-0.853-0.747-1.6s-0.107-1.067-0.107-3.947c0-2.987 0-2.987 0.213-3.627 0.213-0.747 0.747-1.28 1.6-1.6 0.533-0.213 1.067-0.213 1.92-0.32 0.853 0 8.64 0 9.493 0 0.96 0 1.493 0.107 2.027 0.32 1.067 0.32 1.6 0.96 1.707 2.347 0 0.213 0 0.96 0 3.093 0.107 3.2 0.107 3.2-0.107 3.947z"></path>
</symbol>
<symbol id="icon-youtube-square" viewBox="0 0 32 32">
<path d="M30.528 13.981c0.066-1.9-0.35-3.786-1.208-5.482-0.582-0.696-1.39-1.166-2.283-1.327-3.694-0.335-7.402-0.473-11.111-0.412-3.695-0.064-7.39 0.069-11.071 0.398-0.728 0.132-1.401 0.474-1.938 0.982-1.195 1.102-1.327 2.987-1.46 4.58-0.193 2.864-0.193 5.738 0 8.602 0.038 0.897 0.172 1.787 0.398 2.655 0.16 0.67 0.484 1.291 0.942 1.805 0.541 0.536 1.23 0.896 1.978 1.035 2.862 0.353 5.745 0.5 8.628 0.438 4.646 0.066 8.721 0 13.54-0.372 0.766-0.131 1.475-0.492 2.031-1.035 0.372-0.372 0.649-0.827 0.81-1.327 0.475-1.457 0.708-2.981 0.69-4.513 0.053-0.743 0.053-5.23 0.053-6.027zM12.926 20.804v-8.217l7.858 4.128c-2.204 1.221-5.111 2.602-7.858 4.089z"></path>
</symbol>
</defs>
</svg>
