<svg width="176" height="103" viewBox="0 0 176 103" fill="none" xmlns="http://www.w3.org/2000/svg">
<g opacity="0.7">
<path d="M139.912 87.4116C140.139 87.3518 140.317 87.1822 140.378 86.9586C140.446 86.7239 140.397 86.4727 140.226 86.2912L126.972 71.8279C126.811 71.6441 126.566 71.5671 126.329 71.6204L107.368 75.7146C107.13 75.7678 106.943 75.9398 106.867 76.1768C106.8 76.4115 106.849 76.6627 107.019 76.8442L120.273 91.3075C120.434 91.4913 120.679 91.5682 120.917 91.515L139.877 87.4208C139.895 87.4162 139.903 87.4139 139.912 87.4116ZM126.253 73.0363L138.436 86.3295L121.01 90.0944L108.827 76.8012L126.253 73.0363Z" fill="#5B88D9"/>
<path d="M139.942 87.3111C140.168 87.2516 140.346 87.0828 140.407 86.8603L146.177 68.2058C146.244 67.9722 146.195 67.7222 146.026 67.5416L132.796 53.1484C132.635 52.9655 132.382 52.8913 132.153 52.942C131.907 52.9972 131.729 53.1661 131.662 53.3997L125.892 72.0541C125.825 72.2877 125.873 72.5377 126.043 72.7183L139.273 87.1115C139.434 87.2944 139.687 87.3687 139.915 87.318C139.924 87.3157 139.933 87.3134 139.942 87.3111ZM144.767 68.1632L139.462 85.3254L127.299 72.0879L132.605 54.9257L144.767 68.1632Z" fill="#5B88D9"/>
<path d="M126.701 73.0956C126.927 73.0359 127.106 72.8661 127.167 72.6424L132.938 53.889C133.006 53.6541 132.957 53.4028 132.787 53.2212C132.625 53.0374 132.38 52.9604 132.143 53.0136L113.179 57.1105C112.941 57.1638 112.754 57.3358 112.678 57.573L106.907 76.3264C106.839 76.5612 106.888 76.8125 107.058 76.9941C107.22 77.178 107.464 77.255 107.702 77.2017L126.666 73.1048C126.683 73.1002 126.692 73.0979 126.701 73.0956ZM131.299 54.5951L125.992 71.8483L108.555 75.618L113.862 58.3647L131.299 54.5951Z" fill="#5B88D9"/>
</g>
<g opacity="0.7">
<path d="M20.5151 76.5381C20.6382 76.5057 20.735 76.4135 20.7682 76.2921C20.8048 76.1646 20.7782 76.0282 20.6858 75.9296L13.4871 68.0741C13.3994 67.9743 13.2665 67.9325 13.1375 67.9614L2.83937 70.1851C2.71031 70.214 2.60874 70.3074 2.56738 70.4361C2.53075 70.5636 2.55735 70.7 2.64978 70.7986L9.84845 78.6541C9.93614 78.7539 10.069 78.7957 10.1981 78.7668L20.4962 76.5431C20.5057 76.5406 20.5104 76.5394 20.5151 76.5381ZM13.0962 68.7305L19.7132 75.9504L10.2488 77.9953L3.63182 70.7753L13.0962 68.7305Z" fill="#5B88D9"/>
<path d="M20.5264 76.4836C20.6492 76.4513 20.746 76.3596 20.7792 76.2388L23.9129 66.1069C23.9495 65.98 23.923 65.8443 23.8308 65.7462L16.6454 57.9288C16.5579 57.8295 16.4205 57.7891 16.2963 57.8166C16.1627 57.8467 16.0659 57.9384 16.0293 58.0652L12.8956 68.1971C12.8589 68.324 12.8854 68.4597 12.9777 68.5578L20.163 76.3752C20.2506 76.4745 20.388 76.5149 20.5122 76.4873C20.5169 76.4861 20.5216 76.4849 20.5264 76.4836ZM23.1474 66.0838L20.2658 75.4051L13.6598 68.2154L16.5414 58.8941L23.1474 66.0838Z" fill="#5B88D9"/>
<path d="M13.3403 68.7633C13.4633 68.7308 13.5602 68.6386 13.5934 68.5171L16.728 58.3315C16.7647 58.204 16.7381 58.0675 16.6457 57.9689C16.558 57.869 16.4251 57.8272 16.296 57.8561L5.99611 60.0813C5.86703 60.1102 5.76543 60.2036 5.72405 60.3324L2.58942 70.518C2.55277 70.6455 2.57935 70.782 2.67178 70.8807C2.75948 70.9805 2.89239 71.0223 3.02148 70.9934L13.3213 68.7683C13.3308 68.7658 13.3355 68.7645 13.3403 68.7633ZM15.8377 58.715L12.9552 68.0858L3.4845 70.1332L6.36695 60.7625L15.8377 58.715Z" fill="#5B88D9"/>
</g>
<g opacity="0.7">
<path d="M61.4492 49.8925C62.2657 50.6136 63.1618 51.3249 64.1276 51.9452L101.469 47.3054C102.255 46.4674 102.951 45.5583 103.568 44.659L61.4492 49.8925Z" fill="#5B88D9"/>
<path d="M55.3564 42.5652C55.7748 43.337 56.2727 44.099 56.7607 44.7798L106.921 38.5411C107.229 37.7613 107.528 36.9003 107.746 36.0493L55.3564 42.5652Z" fill="#5B88D9"/>
<path d="M74.9453 56.3101C77.7623 56.8624 80.6886 56.9913 83.7141 56.6159C86.7396 56.2406 89.5458 55.4006 92.1428 54.1767L74.9453 56.3101Z" fill="#5B88D9"/>
<path d="M52.21 34.8712C52.3894 35.6732 52.6485 36.4653 52.8975 37.1762L108.87 30.2123C108.93 29.3806 108.919 28.64 108.979 27.8083L52.21 34.8712Z" fill="#5B88D9"/>
<path d="M52.9227 18.6099C52.6145 19.3898 52.3959 20.241 52.1772 21.0921L105.363 14.4768C104.945 13.7048 104.526 12.9329 104.038 12.252L52.9227 18.6099Z" fill="#5B88D9"/>
<path d="M51.3702 26.8892C51.3108 27.7209 51.321 28.4615 51.3412 29.2834L108.19 22.2105C108.01 21.4085 107.831 20.6065 107.582 19.8956L51.3702 26.8892Z" fill="#5B88D9"/>
</g>
<path opacity="0.7" d="M72.4253 98.7414L67.4912 110.186L79.05 111.82L78.8741 113.366L65.247 111.482L70.181 100.037L57.6148 98.2626L62.571 86.7327L49.9826 85.0433L54.8137 73.2967L42.2253 71.6072L47.407 58.8636L48.8341 59.4844L44.4696 70.3115L57.0045 72.0318L52.2269 83.7476L64.7618 85.4679L59.8903 97.0211L72.4253 98.7414Z" fill="#5B88D9"/>
<path opacity="0.7" d="M15.7464 30.5012L9.16561 29.5386L9.91994 35.7223L9.09859 35.8452L8.18778 28.5608L14.7685 29.5233L13.9476 22.8009L20.5753 23.7632L19.7075 17.0411L26.4295 17.9089L25.5617 11.1868L32.8462 12.0976L32.7233 12.919L26.5396 12.1646L27.3841 18.8635L20.6853 18.0189L21.5298 24.7177L14.9018 23.8024L15.7464 30.5012Z" fill="#5B88D9"/>
<path opacity="0.7" d="M170.743 9.94484L182.188 14.8789L183.822 3.3201L185.368 3.49602L183.484 17.1231L172.039 12.1891L170.265 24.7553L158.735 19.7991L157.045 32.3875L145.299 27.5564L143.609 40.1448L130.866 34.9631L131.486 33.536L142.313 37.9006L144.034 25.3656L155.75 30.1433L157.47 17.6083L169.023 22.4798L170.743 9.94484Z" fill="#5B88D9"/>
</svg>
