<svg width="382" height="390" viewBox="0 0 382 390" fill="none" xmlns="http://www.w3.org/2000/svg">
<circle cx="192.794" cy="188.538" r="149.578" stroke="#B3B8BE" stroke-width="0.987314" stroke-dasharray="9.87 9.87"/>
<circle cx="191.117" cy="190.726" r="190.232" stroke="#B3B8BE" stroke-width="0.987314" stroke-dasharray="9.87 9.87"/>
<path d="M292.089 175.943C292.561 179.176 292.88 182.458 293.039 185.782L292.546 185.806C292.624 187.436 292.664 189.076 292.664 190.726C292.664 192.376 292.624 194.016 292.546 195.646L293.039 195.67C292.88 198.994 292.561 202.277 292.089 205.509L291.6 205.438C291.123 208.709 290.489 211.929 289.706 215.089L290.185 215.208C289.388 218.427 288.436 221.585 287.34 224.674L286.875 224.508C285.772 227.614 284.522 230.648 283.133 233.604L283.58 233.814C282.173 236.807 280.624 239.719 278.942 242.542L278.518 242.289C276.835 245.113 275.018 247.847 273.076 250.482L273.474 250.775C271.516 253.432 269.431 255.989 267.229 258.436L266.862 258.106C264.667 260.546 262.355 262.876 259.935 265.089L260.268 265.453C257.836 267.676 255.296 269.78 252.655 271.757L252.359 271.362C249.738 273.325 247.017 275.162 244.207 276.864L244.462 277.286C241.65 278.989 238.748 280.557 235.765 281.981L235.552 281.536C232.604 282.944 229.577 284.211 226.479 285.329L226.646 285.793C223.562 286.905 220.409 287.87 217.193 288.68L217.073 288.201C213.915 288.996 210.697 289.64 207.428 290.125L207.5 290.613C204.269 291.092 200.987 291.416 197.663 291.578L197.639 291.085C196.009 291.165 194.369 291.205 192.719 291.205C191.07 291.205 189.43 291.165 187.8 291.085L187.776 291.578C184.452 291.416 181.17 291.092 177.938 290.613L178.01 290.125C174.741 289.64 171.524 288.996 168.366 288.201L168.245 288.68C165.03 287.87 161.876 286.905 158.792 285.793L158.96 285.329C155.862 284.211 152.834 282.944 149.886 281.536L149.673 281.981C146.69 280.557 143.788 278.989 140.976 277.286L141.232 276.864C138.421 275.162 135.701 273.325 133.079 271.362L132.783 271.757C130.143 269.78 127.602 267.676 125.171 265.453L125.504 265.089C123.083 262.876 120.771 260.546 118.576 258.106L118.209 258.436C116.007 255.989 113.923 253.432 111.965 250.775L112.362 250.482C110.42 247.847 108.603 245.113 106.92 242.289L106.496 242.542C104.814 239.719 103.265 236.807 101.859 233.814L102.305 233.604C100.916 230.648 99.6661 227.614 98.5637 224.508L98.0985 224.674C97.002 221.585 96.0509 218.427 95.2535 215.208L95.7326 215.089C94.9496 211.929 94.3155 208.709 93.8382 205.438L93.3497 205.509C92.8779 202.277 92.5586 198.994 92.3992 195.67L92.8922 195.646C92.8141 194.016 92.7745 192.376 92.7745 190.726C92.7745 189.076 92.8141 187.436 92.8922 185.806L92.3992 185.782C92.5586 182.458 92.8779 179.176 93.3497 175.943L93.8382 176.014C94.3155 172.743 94.9496 169.523 95.7326 166.363L95.2535 166.244C96.0509 163.025 97.002 159.867 98.0985 156.778L98.5637 156.944C99.6661 153.838 100.916 150.804 102.305 147.848L101.859 147.638C103.265 144.645 104.814 141.733 106.496 138.91L106.92 139.163C108.603 136.339 110.42 133.605 112.362 130.97L111.965 130.677C113.923 128.02 116.007 125.463 118.209 123.016L118.576 123.346C120.771 120.906 123.083 118.576 125.504 116.363L125.171 115.999C127.602 113.776 130.143 111.672 132.783 109.695L133.079 110.09C135.701 108.127 138.421 106.29 141.232 104.588L140.976 104.166C143.789 102.463 146.69 100.895 149.673 99.4707L149.886 99.9162C152.834 98.5082 155.862 97.2411 158.96 96.1235L158.792 95.6591C161.876 94.5467 165.03 93.5816 168.245 92.7723L168.366 93.2511C171.524 92.4561 174.741 91.8122 178.01 91.3275L177.938 90.8392C181.17 90.36 184.452 90.0355 187.776 89.8736L187.8 90.3667C189.43 90.2872 191.07 90.2471 192.719 90.2471C194.369 90.2471 196.009 90.2872 197.639 90.3667L197.663 89.8736C200.987 90.0355 204.269 90.36 207.5 90.8392L207.428 91.3275C210.697 91.8122 213.915 92.4561 217.073 93.2511L217.193 92.7723C220.409 93.5816 223.562 94.5467 226.646 95.6591L226.479 96.1235C229.577 97.2411 232.604 98.5082 235.552 99.9162L235.765 99.4707C238.748 100.895 241.65 102.463 244.462 104.166L244.207 104.588C247.017 106.29 249.738 108.127 252.359 110.09L252.655 109.695C255.296 111.672 257.836 113.776 260.268 115.999L259.935 116.363C262.355 118.576 264.667 120.906 266.862 123.346L267.229 123.016C269.431 125.463 271.516 128.02 273.474 130.677L273.076 130.97C275.018 133.605 276.835 136.339 278.518 139.163L278.942 138.91C280.624 141.733 282.173 144.645 283.58 147.638L283.133 147.848C284.522 150.804 285.772 153.838 286.875 156.944L287.34 156.778C288.436 159.867 289.388 163.025 290.185 166.244L289.706 166.363C290.489 169.523 291.123 172.743 291.6 176.014L292.089 175.943Z" stroke="#B3B8BE" stroke-width="0.987314" stroke-dasharray="9.87 9.87"/>
<circle cx="168.144" cy="380.384" r="9.61644" fill="#0C1538"/>
<circle cx="214.089" cy="333.37" r="9.61644" fill="#5B88D9"/>
<circle cx="309.185" cy="342.986" r="7.47945" fill="#B3B8BE"/>
<circle cx="183.103" cy="38.4658" r="9.61644" fill="#B3B8BE"/>
<circle cx="273.925" cy="17.0959" r="9.61644" fill="#0C1538"/>
<circle cx="66.1028" cy="48.6163" r="6.94521" fill="#5B88D9"/>
</svg>
