<svg width="203" height="130" viewBox="0 0 203 130" fill="none" xmlns="http://www.w3.org/2000/svg">
<path d="M202.658 50.6733C202.658 48.9034 201.955 47.206 200.704 45.9546C199.452 44.7031 197.755 44 195.985 44L29.6733 44.8141C27.9034 44.8141 26.206 45.5172 24.9545 46.7687C23.7031 48.0202 23 49.7176 23 51.4874L23.2535 103.953C23.2535 104.835 23.4283 105.708 23.7679 106.522C24.1074 107.336 24.6049 108.075 25.2317 108.695C25.8584 109.316 26.602 109.806 27.4193 110.137C28.2367 110.469 29.1116 110.635 29.9936 110.626H33.5971L33.7039 129.832L52.4692 110.533L196.252 109.825C198.022 109.825 199.719 109.122 200.97 107.871C202.222 106.619 202.925 104.922 202.925 103.152L202.658 50.6733Z" fill="#5B88D9"/>
<path d="M129.793 63.7251L43.3613 64.1475L43.3846 68.9121L129.816 68.4897L129.793 63.7251Z" fill="#060C1C"/>
<path d="M152.268 86.3357C152.161 83.3193 152.268 78.8749 152.268 74.911C151.374 72.6173 151.178 70.1109 151.702 67.7058C152.227 65.3008 153.45 63.1041 155.218 61.3909C161.41 54.9312 165.601 56.3459 168.004 56.3726C170.406 56.3993 181.537 59.042 184.74 72.2684C184.904 73.1198 185.02 73.9798 185.087 74.8443C185.154 75.4983 185.221 76.1789 185.274 76.5793C185.415 78.95 186.16 81.2452 187.438 83.2471C188.716 85.2489 190.484 86.891 192.575 88.0173C194.106 84.5216 194.883 80.7426 194.857 76.9264C194.839 72.1112 193.556 67.3852 191.137 63.2214C188.719 59.0576 185.249 55.602 181.076 53.2004C176.902 50.7988 172.171 49.5354 167.356 49.5366C162.541 49.5379 157.81 50.8037 153.638 53.2075C149.466 55.6113 145.998 59.0687 143.581 63.2338C141.165 67.3988 139.885 72.1255 139.869 76.9407C139.854 81.7558 141.103 86.4907 143.492 90.6715C145.881 94.8523 149.326 98.3323 153.482 100.763C152.187 96.0708 151.776 91.1786 152.268 86.3357Z" fill="white"/>
<path d="M161.002 74C158.451 76.1914 159.37 80.9909 159.002 83.9117L155.377 83.9117C155.401 77.6938 161.002 74 161.002 74Z" fill="#DD8F53"/>
<path d="M185.286 76.5923V76.699H185.139C185.139 82.0377 184.539 100.096 175.623 103.392C179.379 102.206 182.836 100.228 185.763 97.5915C188.689 94.9553 191.016 91.7222 192.587 88.1104C190.485 86.977 188.709 85.3224 187.431 83.3055C186.152 81.2885 185.414 78.9768 185.286 76.5923Z" fill="#060C1C"/>
<path d="M152.29 86.9894C152.29 86.7759 152.29 86.5623 152.29 86.3354C151.796 91.1828 152.208 96.0797 153.505 100.776C155.323 101.86 157.263 102.725 159.284 103.352C159.177 99.5219 158.83 94.0097 158.83 94.0097C157.091 93.7904 155.483 92.9676 154.288 91.6847C153.093 90.4018 152.386 88.7402 152.29 86.9894Z" fill="#060C1C"/>
<path d="M175.317 75.2046C175.317 75.2046 165.147 74.0968 163.452 64.5273C162.838 65.9688 161.743 69.0652 162.437 71.5743L153.362 73.8566L152.347 74.8042C152.254 78.8082 152.214 83.2125 152.347 86.2289C152.347 86.4557 152.347 86.6693 152.347 86.8828C152.427 88.6413 153.123 90.3155 154.314 91.6116C155.505 92.9076 157.115 93.7426 158.861 93.9699C161.803 93.9029 164.661 92.9749 167.082 91.3006C167.082 91.3006 165.174 95.9318 158.981 95.5981L158.861 94.0366C158.861 94.0366 159.208 99.482 159.314 103.379C161.984 104.21 164.766 104.625 167.563 104.607C169.92 104.582 172.266 104.259 174.543 103.646L175.317 75.2046ZM162.825 76.8062C162.832 76.6518 162.886 76.5032 162.977 76.3788C163.069 76.2545 163.195 76.1598 163.341 76.1068C163.486 76.0537 163.643 76.0445 163.794 76.0803C163.944 76.1162 164.08 76.1955 164.186 76.3084C164.292 76.4212 164.362 76.5627 164.387 76.7151C164.413 76.8675 164.393 77.0241 164.331 77.1654C164.268 77.3067 164.165 77.4264 164.035 77.5097C163.905 77.593 163.753 77.6361 163.599 77.6337C163.493 77.6302 163.39 77.6061 163.294 77.5626C163.198 77.5192 163.112 77.4572 163.04 77.3804C162.968 77.3035 162.912 77.2133 162.875 77.1147C162.838 77.0162 162.821 76.9114 162.825 76.8062ZM162.638 75.4715C162.978 75.1819 163.405 75.0129 163.852 74.991C164.301 74.9687 164.745 75.0903 165.12 75.3381C165.4 75.5383 165.507 75.7385 165.454 75.7918C165.4 75.8452 164.733 75.4715 163.879 75.5116C163.025 75.5516 162.437 76.0588 162.344 75.952C162.251 75.8452 162.371 75.6717 162.638 75.4448V75.4715ZM153.202 75.3514C153.547 75.0599 153.978 74.8909 154.43 74.8709C154.876 74.8475 155.318 74.9744 155.684 75.2313C155.964 75.4315 156.071 75.6183 156.018 75.6717C155.964 75.7251 155.297 75.3514 154.443 75.3914C153.589 75.4315 153.001 75.9387 152.908 75.8319C152.815 75.7251 152.908 75.5516 153.202 75.3247V75.3514ZM153.655 76.6861C153.658 76.5277 153.708 76.3737 153.798 76.2435C153.888 76.1133 154.015 76.0128 154.162 75.9547C154.309 75.8965 154.471 75.8833 154.625 75.9168C154.78 75.9503 154.922 76.0289 155.032 76.1428C155.142 76.2566 155.216 76.4006 155.244 76.5564C155.272 76.7122 155.254 76.8729 155.191 77.0182C155.128 77.1635 155.023 77.2868 154.89 77.3726C154.757 77.4584 154.601 77.5028 154.443 77.5002C154.233 77.4967 154.033 77.4108 153.885 77.261C153.738 77.1112 153.655 76.9095 153.655 76.6994V76.6861ZM157.406 83.2659C157.323 83.249 157.246 83.2105 157.183 83.1542C157.119 83.098 157.072 83.026 157.045 82.9456C156.972 82.6368 157.005 82.3125 157.139 82.0247C157.312 81.4508 157.513 80.8502 157.713 80.2096C158.162 78.6432 158.729 77.113 159.408 75.6317C159.079 77.2283 158.632 78.7985 158.073 80.3297C157.86 80.9525 157.659 81.5531 157.473 82.1315C157.36 82.3492 157.314 82.5951 157.339 82.8388C157.339 82.9856 157.579 83.0257 157.806 83.039C158.259 83.0503 158.708 83.1222 159.141 83.2526C158.675 83.3067 158.205 83.3067 157.739 83.2526C157.63 83.2754 157.518 83.2844 157.406 83.2793V83.2659ZM160.662 86.3623C160.167 86.5671 159.615 86.5939 159.102 86.4382C158.588 86.2825 158.145 85.9539 157.846 85.5081C159.581 85.5081 162.851 83.5329 161.984 84.1735C162.09 84.6401 162.012 85.1298 161.766 85.5402C161.519 85.9506 161.124 86.2499 160.662 86.3757V86.3623Z" fill="#FFBE9D"/>
<path d="M155.242 76.7129C155.242 76.5545 155.195 76.3997 155.107 76.268C155.019 76.1363 154.894 76.0337 154.748 75.9731C154.602 75.9124 154.441 75.8966 154.285 75.9275C154.13 75.9584 153.987 76.0347 153.875 76.1467C153.763 76.2586 153.687 76.4013 153.656 76.5567C153.625 76.712 153.641 76.873 153.702 77.0193C153.762 77.1657 153.865 77.2907 153.997 77.3787C154.128 77.4667 154.283 77.5137 154.441 77.5137C154.654 77.5137 154.857 77.4293 155.008 77.2791C155.158 77.129 155.242 76.9253 155.242 76.7129Z" fill="#060C1C"/>
<path d="M156.018 75.6449C156.018 75.6449 156.018 75.4046 155.684 75.2044C155.318 74.9475 154.876 74.8206 154.43 74.8441C153.979 74.864 153.547 75.033 153.202 75.3245C152.935 75.5514 152.855 75.7516 152.908 75.805C152.962 75.8584 153.602 75.4046 154.443 75.3646C155.284 75.3245 155.938 75.8317 156.018 75.6449Z" fill="#060C1C"/>
<path d="M164.399 76.8329C164.399 76.624 164.316 76.4237 164.168 76.276C164.021 76.1284 163.821 76.0454 163.612 76.0454C163.403 76.0454 163.203 76.1284 163.055 76.276C162.907 76.4237 162.824 76.624 162.824 76.8329C162.824 77.0417 162.907 77.242 163.055 77.3897C163.203 77.5373 163.403 77.6203 163.612 77.6203C163.821 77.6203 164.021 77.5373 164.168 77.3897C164.316 77.242 164.399 77.0417 164.399 76.8329Z" fill="#060C1C"/>
<path d="M165.45 75.8317C165.45 75.8317 165.45 75.5782 165.116 75.378C164.741 75.1301 164.297 75.0086 163.848 75.0309C163.401 75.0528 162.974 75.2217 162.633 75.5114C162.367 75.7383 162.286 75.9385 162.34 75.9919C162.393 76.0453 163.02 75.5915 163.875 75.5515C164.729 75.5114 165.369 75.8317 165.45 75.8317Z" fill="#060C1C"/>
<path d="M157.844 85.5214C158.142 85.9672 158.586 86.2958 159.099 86.4515C159.613 86.6073 160.164 86.5804 160.66 86.3756C161.136 86.253 161.543 85.9467 161.794 85.5238C162.044 85.101 162.116 84.5961 161.995 84.1201C162.849 83.5462 159.579 85.5481 157.844 85.5214Z" fill="white"/>
<path d="M167.028 91.3403C164.607 93.0146 161.749 93.9427 158.807 94.0096L158.927 95.5712C165.12 95.9716 167.028 91.3403 167.028 91.3403Z" fill="#DD8F53"/>
<path d="M185.138 76.672H185.285V76.5652C185.285 76.1115 185.165 75.4842 185.098 74.8302C185.031 73.9657 184.915 73.1057 184.751 72.2543C181.548 58.9878 170.257 56.3852 168.014 56.3585C165.772 56.3318 161.421 54.9171 155.228 61.3768C153.461 63.09 152.238 65.2867 151.713 67.6917C151.188 70.0968 151.385 72.6032 152.279 74.8969L153.293 73.9493L162.369 71.667C161.675 69.1579 162.769 66.0615 163.383 64.6201C165.078 74.1362 175.248 75.2973 175.248 75.2973L174.421 103.712C174.794 103.605 175.182 103.525 175.555 103.405C184.537 100.069 185.191 81.9439 185.138 76.672Z" fill="#060C1C"/>
<path d="M129.871 75.9765L43.4395 76.3989L43.4627 81.1636L129.894 80.7412L129.871 75.9765Z" fill="#060C1C"/>
<path d="M86.3263 88.0943L43.4844 88.3037L43.5077 93.0684L86.3496 92.859L86.3263 88.0943Z" fill="#060C1C"/>
<path d="M6.53127 28.6868L10.976 31.8482L15.8764 29.9848L14.5007 35.1763L17.9396 39.4718L12.6437 39.5152L9.87013 44.0268L7.9694 38.8631L2.81383 37.3583L6.94132 34.1258L6.53127 28.6868Z" fill="#898D9C"/>
<path d="M60.0819 8.3635L58.7842 18.5617L66.2409 25.0454L56.3911 27.3793L52.3142 36.9153L47.5296 28.1549L37.5655 27.5612L44.4537 19.8082L42.3662 9.90333L51.4099 13.8846L60.0819 8.3635Z" fill="#898D9C"/>
</svg>
