<svg aria-hidden="true" style="position: absolute; width: 0; height: 0; overflow: hidden;" version="1.1" xmlns="http://www.w3.org/2000/svg" xmlns:xlink="http://www.w3.org/1999/xlink">
<defs>
<symbol id="icon-arrow-bottom" viewBox="0 0 22 32">
<path d="M22.154 21.333h-7.385l0-21.333h-7.385v21.333l-7.385 0 11.077 10.667 11.077-10.667z"></path>
</symbol>
<symbol id="icon-arrow-right" viewBox="0 0 64 32">
<path d="M61.414 17.414c0.781-0.781 0.781-2.047 0-2.828l-12.728-12.728c-0.781-0.781-2.048-0.781-2.828 0s-0.781 2.047 0 2.828l11.314 11.314-11.314 11.314c-0.781 0.781-0.781 2.047 0 2.828s2.047 0.781 2.828 0l12.728-12.728zM0 18h60v-4h-60v4z"></path>
</symbol>
<symbol id="icon-arrow-top" viewBox="0 0 22 32">
<path d="M0 10.667h7.385v21.333h7.385v-21.333l7.385-0-11.077-10.667-11.077 10.667z"></path>
</symbol>
<symbol id="icon-bookmark" viewBox="0 0 25 32">
<path stroke-linejoin="miter" stroke-linecap="butt" stroke-miterlimit="4" stroke-width="1.2308" d="M12.006 24.545l-11.391 6.403v-30.333h23.385v30.333l-11.692-6.573-0.302 0.169z"></path>
</symbol>
<symbol id="icon-case" viewBox="0 0 45 32">
<path d="M12.8 6.4h-12.8v25.6h44.8v-25.6h-12.8v-6.4h-19.2v6.4zM16 3.2h12.8v3.2h-12.8v-3.2z"></path>
</symbol>
<symbol id="icon-check" viewBox="0 0 38 32">
<path stroke-linejoin="miter" stroke-linecap="butt" stroke-miterlimit="4" stroke-width="1.6" d="M34.732 3.709c-0.625-0.679-1.638-0.679-2.263 0l-19.169 20.84-7.368-8.010c-0.625-0.679-1.638-0.679-2.263 0s-0.625 1.781 0 2.46l8.5 9.24c0.625 0.679 1.638 0.679 2.263 0l20.3-22.070c0.625-0.679 0.625-1.781 0-2.46z"></path>
</symbol>
<symbol id="icon-checked" viewBox="0 0 32 32">
<path d="M27.314 4.686c-3.022-3.022-7.040-4.686-11.314-4.686s-8.292 1.664-11.314 4.686c-3.022 3.022-4.686 7.040-4.686 11.314s1.664 8.292 4.686 11.314c3.022 3.022 7.040 4.686 11.314 4.686s8.292-1.664 11.314-4.686c3.022-3.022 4.686-7.040 4.686-11.314s-1.664-8.292-4.686-11.314zM23.644 12.192l-8.942 8.942c-0.183 0.183-0.423 0.275-0.663 0.275s-0.48-0.092-0.663-0.275l-5.021-5.021c-0.366-0.366-0.366-0.96 0-1.326s0.96-0.366 1.326 0l4.358 4.358 8.279-8.279c0.366-0.366 0.96-0.366 1.326 0s0.366 0.96 0 1.326z"></path>
</symbol>
<symbol id="icon-download" viewBox="0 0 32 32">
<path d="M8.090 14.586c0.162-0.358 0.518-0.586 0.91-0.586h4v-13c0-0.552 0.448-1 1-1h4c0.552 0 1 0.448 1 1v13h4c0.392 0 0.748 0.23 0.91 0.586 0.164 0.358 0.1 0.776-0.158 1.072l-7 8c-0.19 0.218-0.464 0.342-0.752 0.342s-0.562-0.126-0.752-0.342l-7-8c-0.26-0.294-0.32-0.714-0.158-1.072z"></path>
<path d="M5 22v6h22v-6h4v8c0 1.106-0.896 2-2 2h-26c-1.106 0-2-0.894-2-2v-8h4z"></path>
</symbol>
<symbol id="icon-eye" viewBox="0 0 46 32">
<path d="M22.857 9.144c-3.783 0-6.857 3.074-6.857 6.857s3.074 6.857 6.857 6.857c3.783 0 6.857-3.074 6.857-6.857s-3.074-6.857-6.857-6.857z"></path>
<path d="M22.857 0.416c-10.39 0-19.262 6.462-22.857 15.584 3.595 9.122 12.468 15.584 22.857 15.584 10.4 0 19.262-6.462 22.857-15.584-3.595-9.122-12.457-15.584-22.857-15.584zM22.857 26.39c-5.735 0-10.39-4.654-10.39-10.39s4.655-10.39 10.39-10.39c5.735 0 10.39 4.655 10.39 10.39s-4.655 10.389-10.39 10.389z"></path>
</symbol>
<symbol id="icon-fb" viewBox="0 0 32 32">
<path d="M16 0c-8.853 0-16 7.147-16 16s7.147 16 16 16c8.853 0 16-7.147 16-16s-7.147-16-16-16zM20.587 10.56c-0.107 0.213-0.107 0.213-1.28 0.32-1.173 0-1.28 0-1.493 0.213s-0.213 0.32-0.213 1.493v1.067h2.667l0.213 0.213v1.493c0 1.173 0 1.6 0 1.6-0.107 0.213-0.107 0.213-1.6 0.213h-1.387v7.253l-0.107 0.107h-3.2l-0.213-0.213v-7.253h-1.173c-1.28 0-1.28 0-1.387-0.213 0-0.107 0-2.987 0-3.093 0 0 0.107-0.107 0.107-0.107 0.107-0.107 0.107-0.107 1.28-0.107h1.173v-0.96c0-1.173 0-1.707 0.213-2.24 0.107-0.64 0.427-1.067 0.747-1.6 0.533-0.64 1.387-1.173 2.347-1.28 0.213 0 0.64 0 1.707 0h1.493l0.213 0.213v1.387c-0.107 0.853-0.107 1.387-0.107 1.493z"></path>
</symbol>
<symbol id="icon-globe" viewBox="0 0 32 32">
<path d="M5.161 25.555c-2.339-2.631-3.626-6.033-3.613-9.554 0.002-7.982 6.475-14.452 14.458-14.45 2.634 0.001 5.217 0.721 7.472 2.083l0.535-0.882c-7.32-4.424-16.84-2.077-21.264 5.242-1.46 2.416-2.232 5.185-2.233 8.008-0.014 3.812 1.394 7.492 3.948 10.322h-1.883v1.032h3.097c0.285 0 0.516-0.231 0.516-0.516v-3.096h-1.032v1.813z"></path>
<path d="M27.536 5.679h1.883v-1.032h-3.097c-0.285 0-0.516 0.231-0.516 0.516v3.096h1.032v-1.813c2.339 2.631 3.626 6.033 3.613 9.554-0.003 7.983-6.477 14.452-14.46 14.449-2.635-0.001-5.22-0.722-7.475-2.086l-0.535 0.882c7.319 4.426 16.84 2.082 21.267-5.236 1.462-2.416 2.235-5.186 2.236-8.010 0.014-3.812-1.394-7.492-3.948-10.322z"></path>
<path d="M16 27.87c0.077 0 0.155 0 0.187-0.005 0.009 0 0.018 0 0.027 0h0.012c6.553-0.121 11.768-5.531 11.646-12.084-0.058-3.132-1.352-6.114-3.6-8.296-2.153-2.107-5.034-3.306-8.046-3.349-0.137-0.011-0.275-0.011-0.413 0-6.555 0.104-11.785 5.502-11.681 12.057 0.050 3.14 1.343 6.133 3.595 8.322 2.153 2.108 5.034 3.307 8.046 3.349 0.071 0.005 0.149 0.005 0.226 0.005zM17.405 26.735c1.206-1.088 2.221-2.37 3.002-3.794 0.928 0.325 1.817 0.751 2.652 1.271-1.595 1.379-3.562 2.257-5.654 2.524zM23.828 23.478c-0.924-0.6-1.915-1.091-2.951-1.465 0.799-1.726 1.241-3.596 1.302-5.497h4.635c-0.116 2.606-1.177 5.081-2.986 6.961zM26.813 15.485h-4.635c-0.060-1.901-0.503-3.77-1.302-5.496 1.037-0.374 2.027-0.866 2.952-1.466 1.808 1.881 2.869 4.356 2.985 6.962zM23.059 7.79c-0.834 0.52-1.723 0.946-2.651 1.27-0.783-1.426-1.8-2.71-3.009-3.799 2.095 0.267 4.064 1.147 5.66 2.529zM16.516 5.857c1.152 0.999 2.127 2.185 2.883 3.509-0.943 0.243-1.91 0.384-2.883 0.42v-3.929zM16.516 10.821c1.139-0.040 2.27-0.213 3.368-0.516 0.77 1.622 1.2 3.385 1.262 5.18h-4.63v-4.664zM16.516 16.517h4.63c-0.062 1.795-0.492 3.558-1.262 5.181-1.099-0.303-2.229-0.476-3.368-0.516v-4.665zM16.516 22.216c0.973 0.036 1.94 0.177 2.883 0.42-0.756 1.323-1.731 2.509-2.883 3.507v-3.927zM14.595 5.266c-1.206 1.088-2.221 2.37-3.002 3.794-0.928-0.325-1.817-0.751-2.652-1.271 1.595-1.379 3.562-2.257 5.654-2.524zM8.172 8.523c0.925 0.6 1.915 1.091 2.952 1.465-0.799 1.726-1.242 3.596-1.302 5.497h-4.635c0.116-2.606 1.177-5.081 2.985-6.962zM5.187 16.517h4.635c0.060 1.901 0.503 3.77 1.302 5.496-1.037 0.374-2.027 0.866-2.952 1.466-1.808-1.881-2.869-4.356-2.985-6.962zM8.941 24.211c0.834-0.52 1.724-0.945 2.651-1.27 0.783 1.426 1.8 2.71 3.008 3.799-2.095-0.267-4.064-1.147-5.66-2.529zM15.484 26.145c-1.152-0.999-2.127-2.185-2.883-3.509 0.943-0.243 1.91-0.384 2.883-0.42v3.929zM15.484 21.184c-1.139 0.040-2.269 0.213-3.368 0.516-0.771-1.623-1.201-3.387-1.262-5.183h4.63v4.667zM15.484 15.485h-4.63c0.062-1.795 0.492-3.558 1.262-5.181 1.099 0.303 2.229 0.476 3.368 0.516v4.665zM15.484 9.786c-0.973-0.036-1.94-0.177-2.883-0.42 0.756-1.323 1.731-2.509 2.883-3.507v3.927z"></path>
<path stroke-linejoin="miter" stroke-linecap="butt" stroke-miterlimit="4" stroke-width="0.3871" d="M5.161 25.555c-2.339-2.631-3.626-6.033-3.613-9.554 0.002-7.982 6.475-14.452 14.458-14.45 2.634 0.001 5.217 0.721 7.472 2.083l0.535-0.882c-7.32-4.424-16.84-2.077-21.264 5.242-1.46 2.416-2.232 5.185-2.233 8.008-0.014 3.812 1.394 7.492 3.948 10.322h-1.883v1.032h3.097c0.285 0 0.516-0.231 0.516-0.516v-3.096h-1.032v1.813z"></path>
<path stroke-linejoin="miter" stroke-linecap="butt" stroke-miterlimit="4" stroke-width="0.3871" d="M27.536 5.679h1.883v-1.032h-3.097c-0.285 0-0.516 0.231-0.516 0.516v3.096h1.032v-1.813c2.339 2.631 3.626 6.033 3.613 9.554-0.003 7.983-6.477 14.452-14.46 14.449-2.635-0.001-5.22-0.722-7.475-2.086l-0.535 0.882c7.319 4.426 16.84 2.082 21.267-5.236 1.462-2.416 2.235-5.186 2.236-8.010 0.014-3.812-1.394-7.492-3.948-10.322z"></path>
<path stroke-linejoin="miter" stroke-linecap="butt" stroke-miterlimit="4" stroke-width="0.3871" d="M16 27.87c0.077 0 0.155 0 0.187-0.005 0.009 0 0.018 0 0.027 0h0.012c6.553-0.121 11.768-5.531 11.646-12.084-0.058-3.132-1.352-6.114-3.6-8.296-2.153-2.107-5.034-3.306-8.046-3.349-0.137-0.011-0.275-0.011-0.413 0-6.555 0.104-11.785 5.502-11.681 12.057 0.050 3.14 1.343 6.133 3.595 8.322 2.153 2.108 5.034 3.307 8.046 3.349 0.071 0.005 0.149 0.005 0.226 0.005zM17.405 26.735c1.206-1.088 2.221-2.37 3.002-3.794 0.928 0.325 1.817 0.751 2.652 1.271-1.595 1.379-3.562 2.257-5.654 2.524zM23.828 23.478c-0.924-0.6-1.915-1.091-2.951-1.465 0.799-1.726 1.241-3.596 1.302-5.497h4.635c-0.116 2.606-1.177 5.081-2.986 6.961zM26.813 15.485h-4.635c-0.060-1.901-0.503-3.77-1.302-5.496 1.037-0.374 2.027-0.866 2.952-1.466 1.808 1.881 2.869 4.356 2.985 6.962zM23.059 7.79c-0.834 0.52-1.723 0.946-2.651 1.27-0.783-1.426-1.8-2.71-3.009-3.799 2.095 0.267 4.064 1.147 5.66 2.529zM16.516 5.857c1.152 0.999 2.127 2.185 2.883 3.509-0.943 0.243-1.91 0.384-2.883 0.42v-3.929zM16.516 10.821c1.139-0.040 2.27-0.213 3.368-0.516 0.77 1.622 1.2 3.385 1.262 5.18h-4.63v-4.664zM16.516 16.517h4.63c-0.062 1.795-0.492 3.558-1.262 5.181-1.099-0.303-2.229-0.476-3.368-0.516v-4.665zM16.516 22.216c0.973 0.036 1.94 0.177 2.883 0.42-0.756 1.323-1.731 2.509-2.883 3.507v-3.927zM14.595 5.266c-1.206 1.088-2.221 2.37-3.002 3.794-0.928-0.325-1.817-0.751-2.652-1.271 1.595-1.379 3.562-2.257 5.654-2.524zM8.172 8.523c0.925 0.6 1.915 1.091 2.952 1.465-0.799 1.726-1.242 3.596-1.302 5.497h-4.635c0.116-2.606 1.177-5.081 2.985-6.962zM5.187 16.517h4.635c0.060 1.901 0.503 3.77 1.302 5.496-1.037 0.374-2.027 0.866-2.952 1.466-1.808-1.881-2.869-4.356-2.985-6.962zM8.941 24.211c0.834-0.52 1.724-0.945 2.651-1.27 0.783 1.426 1.8 2.71 3.008 3.799-2.095-0.267-4.064-1.147-5.66-2.529zM15.484 26.145c-1.152-0.999-2.127-2.185-2.883-3.509 0.943-0.243 1.91-0.384 2.883-0.42v3.929zM15.484 21.184c-1.139 0.040-2.269 0.213-3.368 0.516-0.771-1.623-1.201-3.387-1.262-5.183h4.63v4.667zM15.484 15.485h-4.63c0.062-1.795 0.492-3.558 1.262-5.181 1.099 0.303 2.229 0.476 3.368 0.516v4.665zM15.484 9.786c-0.973-0.036-1.94-0.177-2.883-0.42 0.756-1.323 1.731-2.509 2.883-3.507v3.927z"></path>
</symbol>
<symbol id="icon-heart" viewBox="0 0 36 32">
<path stroke-linejoin="miter" stroke-linecap="butt" stroke-miterlimit="4" stroke-width="1.7778" d="M17.020 5.653l0.757 1.232 0.757-1.232c1.536-2.498 4.28-4.164 7.419-4.164 4.812 0 8.713 3.901 8.713 8.713 0 2.618-1.159 4.961-2.991 6.559l-0.023 0.020-0.021 0.021-13.606 13.606c-0.066 0.066-0.155 0.103-0.248 0.103s-0.182-0.037-0.248-0.103l-13.65-13.648c-1.832-1.598-2.991-3.941-2.991-6.559 0-4.812 3.9-8.713 8.712-8.713 3.139 0 5.885 1.666 7.42 4.164z"></path>
</symbol>
<symbol id="icon-imac" viewBox="0 0 38 32">
<path d="M1.822 0h34.004c0.483 0 0.946 0.241 1.288 0.669s0.533 1.010 0.533 1.616v21.333c0 0.606-0.192 1.188-0.533 1.616s-0.805 0.67-1.288 0.67h-13.069l0.729 2.286h1.41c0.127 0 0.251 0.050 0.355 0.144s0.181 0.226 0.221 0.377l0.607 2.286c0.030 0.114 0.039 0.236 0.024 0.356s-0.051 0.232-0.107 0.33c-0.056 0.098-0.13 0.178-0.216 0.233s-0.18 0.084-0.277 0.084h-13.359c-0.096 0-0.191-0.029-0.277-0.084s-0.159-0.135-0.216-0.233-0.093-0.211-0.108-0.33c-0.014-0.119-0.006-0.241 0.024-0.356l0.607-2.286c0.040-0.152 0.117-0.283 0.221-0.377s0.227-0.144 0.355-0.144h1.411l0.729-2.286h-13.069c-0.483 0-0.946-0.241-1.288-0.67s-0.534-1.010-0.534-1.616v-21.333c0-0.606 0.192-1.188 0.534-1.616s0.805-0.669 1.288-0.669zM15.47 28.191h6.707l-0.729-2.286h-5.25l-0.729 2.286zM36.255 24.158c0.114-0.143 0.178-0.337 0.178-0.539v-2.286h-35.218v2.286c0 0.202 0.064 0.396 0.178 0.539s0.268 0.223 0.429 0.223h34.004c0.161 0 0.315-0.080 0.429-0.223zM36.016 20.572v-18.286c-0.001-0.404-0.076-0.313-0.191-0.62-0.171-0.457-0.783-0.419-1.105-0.42h-32.292c-0.322 0.001-0.585 0.002 0 0-0.813 0.231-0.862 0.928-0.863 1.332v17.993h34.45z"></path>
<path d="M37.249 21.768l-1.232-1.196h-34.45l-0.704 0.762-0.255 2.286c0.001 0.404 0.129 0.791 0.357 1.076s0.536 0.447 0.858 0.448h13.966l-1.214 3.809h8.501l-1.215-3.809h13.966c0.322-0.001 0.63-0.162 0.858-0.448s0.565-2.524 0.565-2.928zM6.679 23.619h-4.25c-0.161 0-0.315-0.080-0.429-0.223s-0.178-0.337-0.178-0.539c0-0.202 0.064-0.396 0.178-0.539s0.268-0.223 0.429-0.223h4.25c0.161 0 0.316 0.080 0.429 0.223s0.178 0.337 0.178 0.539c0 0.202-0.064 0.396-0.178 0.539s-0.268 0.223-0.429 0.223zM9.108 23.619h-0.607c-0.161 0-0.316-0.080-0.429-0.223s-0.178-0.337-0.178-0.539c0-0.202 0.064-0.396 0.178-0.539s0.268-0.223 0.429-0.223h0.607c0.161 0 0.315 0.080 0.429 0.223s0.178 0.337 0.178 0.539c0 0.202-0.064 0.396-0.178 0.539s-0.268 0.223-0.429 0.223z"></path>
</symbol>
<symbol id="icon-in" viewBox="0 0 32 32">
<path d="M16 0c-8.853 0-16 7.147-16 16s7.147 16 16 16c8.853 0 16-7.147 16-16s-7.147-16-16-16zM12.48 16.96v4.16h-2.773v-8.32h2.773v4.16zM11.627 11.627c-0.427 0.107-0.96 0.107-1.28-0.107-0.427-0.213-0.747-0.747-0.747-1.28 0-0.427 0.107-0.747 0.427-0.96 0.213-0.213 0.427-0.32 0.747-0.427 0.107 0 0.213 0 0.32 0 0.853 0 1.493 0.533 1.6 1.387 0 0.64-0.32 1.173-1.067 1.387zM22.4 21.013h-2.773v-2.453c0-2.56 0-2.56-0.107-2.88-0.213-0.533-0.533-0.853-0.96-0.853-0.747-0.107-1.387 0.213-1.707 0.96 0 0.107-0.107 0.213-0.107 0.427 0 0.107 0 1.28 0 2.56v2.347h-2.773v-8.32h2.773v1.067l0.107-0.107c0.533-0.747 1.173-1.067 2.133-1.173 0.213 0 0.64 0 0.853 0 0.427 0.107 0.853 0.213 1.173 0.427 0.107 0 0.213 0.213 0.427 0.32 0.427 0.427 0.64 0.853 0.853 1.6 0.107 0.533 0.107 0.64 0.107 3.413v2.667z"></path>
</symbol>
<symbol id="icon-inst" viewBox="0 0 32 32">
<path d="M22.827 10.667c-0.32-0.64-0.747-1.067-1.387-1.387-0.213-0.107-0.533-0.213-0.64-0.213l-0.32-0.107h-4.373c-2.347 0-4.373 0-4.48 0-0.32 0-0.64 0.213-0.96 0.32-0.64 0.32-1.067 0.747-1.387 1.387-0.107 0.213-0.213 0.533-0.213 0.64l-0.107 0.32v8.747l0.107 0.32c0 0.107 0.107 0.427 0.213 0.64 0.32 0.64 0.747 1.067 1.387 1.387 0.213 0.107 0.533 0.213 0.64 0.213l0.32 0.107h8.747l0.32-0.107c0.107 0 0.427-0.107 0.64-0.213 0.64-0.32 1.067-0.747 1.387-1.387 0.107-0.213 0.213-0.533 0.213-0.64l0.107-0.32v-8.747l-0.107-0.32c0.107-0.213 0-0.427-0.107-0.64zM19.733 16.747c-0.213 1.173-1.067 2.24-2.24 2.667-0.107 0.107-0.427 0.107-0.64 0.213-0.32 0.107-0.427 0.107-0.96 0.107s-0.64 0-0.853-0.107c-1.493-0.427-2.453-1.387-2.88-2.773-0.107-0.427-0.107-1.067-0.107-1.6 0.32-1.6 1.493-2.88 3.093-3.2 0.32-0.107 0.96-0.107 1.28 0 1.6 0.32 2.987 1.6 3.2 3.2 0.213 0.533 0.213 1.173 0.107 1.493zM20.267 12.373c-0.107 0-0.213 0-0.32-0.107-0.533-0.32-0.427-1.173 0.213-1.28 0.427-0.107 0.853 0.213 0.853 0.64s-0.32 0.747-0.747 0.747z"></path>
<path d="M16.427 13.547c-0.107 0-0.32 0-0.427 0-0.427 0-0.853 0.107-1.173 0.32-0.213 0.107-0.747 0.64-0.853 0.853-0.213 0.427-0.427 1.067-0.32 1.493 0.107 0.533 0.32 0.96 0.64 1.387 0.96 1.067 2.56 1.067 3.52 0 0.853-0.853 0.96-2.027 0.32-2.987-0.427-0.533-1.067-0.96-1.707-1.067z"></path>
<path d="M16 0c-8.853 0-16 7.147-16 16s7.147 16 16 16c8.853 0 16-7.147 16-16s-7.147-16-16-16zM24.533 20.693c-0.107 0.96-0.64 1.92-1.387 2.56-0.64 0.64-1.6 1.067-2.453 1.28-0.427 0-8.96 0-9.387 0-0.96-0.107-1.92-0.64-2.56-1.387-0.64-0.64-1.067-1.6-1.28-2.453 0-0.427 0-8.96 0-9.387 0.107-0.96 0.64-1.813 1.28-2.453s1.6-1.173 2.56-1.387c0.427 0 8.96 0 9.387 0 0.96 0.107 1.813 0.64 2.453 1.28s1.173 1.6 1.387 2.56c0 0.427 0 8.96 0 9.387z"></path>
</symbol>
<symbol id="icon-link" viewBox="0 0 32 32">
<path d="M31.531 0.469c0.351 0.351 0.505 0.825 0.461 1.284 0.005 0.055 0.007 0.111 0.007 0.168v7.68c0 0.884-0.716 1.6-1.6 1.6s-1.6-0.716-1.6-1.6v-4.137l-11.669 11.669c-0.625 0.625-1.638 0.625-2.263 0s-0.625-1.638 0-2.263l11.669-11.669h-4.137c-0.884 0-1.6-0.716-1.6-1.6s0.716-1.6 1.6-1.6h7.68c0.057 0 0.113 0.002 0.168 0.007 0.459-0.044 0.933 0.11 1.284 0.461z"></path>
<path d="M3.2 8c0-0.884 0.716-1.6 1.6-1.6h12.8c0.884 0 1.6-0.716 1.6-1.6s-0.716-1.6-1.6-1.6h-12.8c-2.651 0-4.8 2.149-4.8 4.8v19.2c0 2.651 2.149 4.8 4.8 4.8h19.2c2.651 0 4.8-2.149 4.8-4.8v-12.8c0-0.884-0.716-1.6-1.6-1.6s-1.6 0.716-1.6 1.6v12.8c0 0.884-0.716 1.6-1.6 1.6h-19.2c-0.884 0-1.6-0.716-1.6-1.6v-19.2z"></path>
</symbol>
<symbol id="icon-list" viewBox="0 0 26 32">
<path d="M1.54 9.745h4.62c0.851 0 1.54-0.703 1.54-1.571v-0.785c0-0.434-0.345-0.786-0.77-0.786s-0.77 0.352-0.77 0.786v0.785h-4.62v-4.713h2.31c0.425 0 0.77-0.352 0.77-0.785s-0.345-0.786-0.77-0.786h-2.31c-0.851 0-1.54 0.703-1.54 1.571v4.713c0 0.868 0.69 1.571 1.54 1.571z"></path>
<path d="M1.54 20.742h4.62c0.851 0 1.54-0.703 1.54-1.571v-4.713c0-0.868-0.69-1.571-1.54-1.571h-4.62c-0.851 0-1.54 0.704-1.54 1.571v4.713c0 0.868 0.69 1.571 1.54 1.571zM1.54 14.458h4.62v4.713h-4.62v-4.713z"></path>
<path d="M1.54 31.738h4.62c0.851 0 1.54-0.703 1.54-1.571v-4.713c0-0.868-0.69-1.571-1.54-1.571h-4.62c-0.851 0-1.54 0.703-1.54 1.571v4.713c0 0.868 0.69 1.571 1.54 1.571zM1.54 25.455h4.62v4.713h-4.62v-4.713z"></path>
<path d="M10.781 5.033h11.154c0.425 0-2.896-0.352-2.896-0.785s0.022-0.786-0.404-0.786h-7.855c-0.425 0-0.77 0.352-0.77 0.786s0.345 0.785 0.77 0.785z"></path>
<path d="M17.711 5.033h7.701c0.425 0 0.77-0.352 0.77-0.785s-0.345-0.786-0.77-0.786h-7.701c-0.425 0-0.77 0.352-0.77 0.786s0.345 0.785 0.77 0.785z"></path>
<path d="M10.781 16.029h10.687c0.425 0-2.63-0.352-2.63-0.786s0.022-0.785-0.404-0.785h-7.654c-0.425 0-0.77 0.352-0.77 0.785s0.345 0.786 0.77 0.786z"></path>
<path d="M25.412 14.458h-7.701c-0.425 0-0.77 0.352-0.77 0.785s0.345 0.786 0.77 0.786h7.701c0.425 0 0.77-0.352 0.77-0.786s-0.345-0.785-0.77-0.785z"></path>
<path d="M10.781 19.171h7.7c0.425 0 0.77-0.352 0.77-0.786s-0.345-0.785-0.77-0.785h-7.7c-0.425 0-0.77 0.352-0.77 0.785s0.345 0.786 0.77 0.786z"></path>
<path d="M10.781 8.144h7.7c0.425 0 0.77-0.352 0.77-0.786s-0.345-0.785-0.77-0.785h-7.7c-0.425 0-0.77 0.352-0.77 0.785s0.345 0.786 0.77 0.786z"></path>
<path d="M10.781 27.025h7.754c0.425 0 3.804-0.352 3.804-0.785s-2.369-0.786-2.795-0.786h-8.763c-0.425 0-0.77 0.352-0.77 0.786s0.345 0.785 0.77 0.785z"></path>
<path d="M25.412 25.455h-7.701c-0.425 0-0.77 0.352-0.77 0.786s0.345 0.785 0.77 0.785h7.701c0.425 0 0.77-0.352 0.77-0.785s-0.345-0.786-0.77-0.786z"></path>
<path d="M10.781 30.167h7.7c0.425 0 0.77-0.352 0.77-0.785s-0.345-0.786-0.77-0.786h-7.7c-0.425 0-0.77 0.352-0.77 0.786s0.345 0.785 0.77 0.785z"></path>
<path d="M3.625 4.478c-0.302-0.298-0.783-0.293-1.080 0.009s-0.301 0.793-0.009 1.101l1.54 1.571c0.145 0.147 0.34 0.23 0.544 0.23h0.064c0.226-0.019 0.431-0.139 0.563-0.327l3.85-5.498c0.16-0.228 0.188-0.526 0.074-0.782s-0.353-0.43-0.627-0.457c-0.274-0.027-0.541 0.097-0.701 0.326l-3.321 4.743-0.898-0.917z"></path>
</symbol>
<symbol id="icon-message" viewBox="0 0 45 32">
<path d="M0 0h44.8v26.947h-44.8v-26.947z"></path>
<path d="M9.129 32l4.311-5.053h-8.622l4.311 5.053z"></path>
</symbol>
<symbol id="icon-ok" viewBox="0 0 32 32">
<path d="M15.147 13.333c0.427 0.107 1.067 0.213 1.493 0 0.853-0.213 1.6-0.96 1.707-1.92 0.107-0.533 0-1.067-0.213-1.6-0.32-0.533-0.853-0.96-1.387-1.173-0.107-0.107-0.32-0.107-0.64-0.107-0.533 0-0.747 0-1.173 0.213-0.747 0.32-1.173 0.96-1.387 1.707-0.107 0.533 0 1.067 0.213 1.6 0.32 0.64 0.853 1.067 1.387 1.28z"></path>
<path d="M16 0c-8.853 0-16 7.147-16 16s7.147 16 16 16c8.853 0 16-7.147 16-16s-7.147-16-16-16zM11.093 10.027c0.32-1.28 1.067-2.453 2.133-3.2 0.533-0.32 1.28-0.64 1.92-0.747 0.427-0.107 1.28-0.107 1.707 0 0.96 0.107 1.707 0.533 2.347 1.173 1.387 1.173 2.133 3.307 1.6 5.12-0.533 2.133-2.347 3.627-4.48 3.84-0.96 0.107-1.813-0.107-2.667-0.533-1.387-0.747-2.347-1.92-2.773-3.52 0-0.533 0.107-1.6 0.213-2.133zM21.867 17.813c-0.32 0.64-1.6 1.493-2.773 1.813-0.427 0.107-1.173 0.32-1.6 0.32-0.213 0-0.427 0.107-0.427 0.107s0.853 0.853 1.92 1.92c1.28 1.28 1.92 1.92 2.027 2.133 0.107 0.107 0.107 0.213 0.107 0.533s0 0.427-0.107 0.533c-0.107 0.32-0.533 0.533-0.747 0.64-0.32 0.107-0.64 0.107-0.96 0-0.107-0.107-0.64-0.533-1.707-1.6s-1.493-1.493-1.6-1.493-0.533 0.427-1.6 1.493c-1.707 1.707-1.707 1.707-2.24 1.707-0.32 0-0.64-0.107-0.853-0.427-0.213-0.213-0.32-0.533-0.427-0.853 0-0.533-0.107-0.427 2.133-2.667 1.067-1.067 1.92-1.92 1.92-1.92s-0.213 0-0.427-0.107c-0.96-0.107-1.92-0.427-2.453-0.747-0.853-0.427-1.707-1.067-1.92-1.493-0.107-0.213-0.107-0.747 0-0.96 0.213-0.427 0.533-0.64 0.853-0.747s0.747 0 1.28 0.32c1.067 0.64 1.813 0.96 2.88 1.067 0.64 0.107 1.707 0.107 2.24-0.107 0.853-0.213 1.6-0.427 2.24-0.853 0.533-0.32 0.747-0.427 0.96-0.427 0.747-0.107 1.387 0.427 1.493 1.28-0.107 0.32-0.107 0.32-0.213 0.533z"></path>
</symbol>
<symbol id="icon-path" viewBox="0 0 24 32">
<path d="M7.784 32h3.892l12.541-16.432-12.541-15.568h-11.243l12.973 15.568-12.108 16.432h6.487z"></path>
</symbol>
<symbol id="icon-phone" viewBox="0 0 28 32">
<path d="M20.599 0h-13.464c-1.289 0-2.329 1.045-2.329 2.331v27.34c0 1.285 1.040 2.329 2.329 2.329h13.464c1.286 0 2.329-1.044 2.329-2.329v-27.34c0-1.286-1.043-2.331-2.329-2.331zM10.545 1.416h6.647c0.168 0 0.304 0.251 0.304 0.561s-0.136 0.562-0.304 0.562h-6.647c-0.169 0-0.303-0.252-0.303-0.562s0.134-0.561 0.303-0.561zM13.868 29.699c-0.82 0-1.487-0.667-1.487-1.488s0.667-1.486 1.487-1.486c0.817 0 1.484 0.665 1.484 1.486s-0.667 1.488-1.484 1.488zM21.183 24.605h-14.631v-20.671h14.631v20.671z"></path>
</symbol>
<symbol id="icon-pinterest" viewBox="0 0 32 32">
<path d="M16 0c-8.853 0-16 7.147-16 16s7.147 16 16 16c8.853 0 16-7.147 16-16s-7.147-16-16-16zM22.613 14.187c-0.32 2.56-1.387 4.373-3.2 5.333-0.747 0.32-1.28 0.533-2.133 0.533-0.64 0-0.747 0-1.28-0.213-0.32-0.107-0.533-0.213-0.747-0.427-0.107-0.107-0.213-0.107-0.213-0.107s-0.107 0.427-0.32 1.067c-0.32 1.387-0.533 2.027-0.96 2.88-0.32 0.64-0.64 1.173-0.96 1.387 0-0.107-0.107-0.107-0.32-0.107-0.32 0-0.533-0.213-0.64-0.747s-0.107-1.813 0.107-2.88c0-0.213 0.32-1.493 0.64-2.88l0.64-2.56-0.107-0.32c-0.107-0.533-0.213-0.853-0.213-1.387 0-0.32 0-0.533 0.107-0.747 0.32-1.173 1.067-1.813 2.027-1.813 0.427 0 0.747 0.107 1.067 0.427s0.427 0.64 0.533 1.173c0 0.533-0.107 0.96-0.427 2.347-0.32 1.067-0.427 1.387-0.427 1.6 0 0.853 0.853 1.387 1.707 1.067 0.32-0.107 0.427-0.213 0.747-0.32 0.64-0.427 1.067-1.28 1.28-2.347 0.213-0.747 0.213-1.067 0.213-1.92 0-0.64 0-0.747-0.107-1.067-0.32-1.173-1.067-1.92-2.347-2.24-1.067-0.32-2.24-0.213-3.2 0.32-0.533 0.213-0.747 0.427-1.173 0.853-0.747 0.64-1.173 1.6-1.173 2.667 0 0.747 0.107 1.173 0.427 1.6s0.32 0.533 0.32 0.747c0 0.107 0 0.32-0.107 0.64-0.213 0.747-0.32 0.853-0.747 0.853-0.213 0-0.32 0-0.533-0.107-0.853-0.427-1.493-1.387-1.707-2.773-0.107-0.533-0.107-1.387 0-1.92 0.427-2.88 2.88-5.013 6.080-5.333 0.427 0 1.6 0 1.92 0 0.853 0.107 1.493 0.32 2.133 0.64 1.707 0.853 2.773 2.347 3.2 4.16 0 0.427 0 1.387-0.107 1.92z"></path>
</symbol>
<symbol id="icon-play" viewBox="0 0 32 32">
<path d="M0 16c0-8.822 7.178-16 16-16s16 7.178 16 16c0 8.822-7.178 16-16 16s-16-7.178-16-16z"></path>
<path d="M22.261 16l-9.913 5.723v-11.447l9.913 5.723z"></path>
</symbol>
<symbol id="icon-question" viewBox="0 0 32 32">
<path d="M15.227 20.177c-0.073-0.212-0.139-0.485-0.196-0.819-0.057-0.342-0.086-0.681-0.086-1.015 0-0.522 0.102-0.99 0.306-1.406 0.212-0.424 0.473-0.819 0.783-1.186s0.648-0.717 1.015-1.052c0.367-0.342 0.705-0.685 1.015-1.027 0.31-0.351 0.567-0.713 0.77-1.088 0.212-0.383 0.318-0.803 0.318-1.26 0-0.391-0.077-0.738-0.232-1.039-0.147-0.302-0.35-0.554-0.611-0.758s-0.563-0.355-0.905-0.452c-0.342-0.106-0.705-0.159-1.088-0.159-1.378 0-2.572 0.542-3.583 1.626v-2.152c1.247-0.783 2.539-1.174 3.876-1.174 0.62 0 1.203 0.082 1.749 0.245s1.023 0.408 1.431 0.734c0.416 0.318 0.742 0.717 0.978 1.198s0.355 1.039 0.355 1.675c0 0.603-0.106 1.141-0.318 1.614s-0.481 0.909-0.807 1.308c-0.318 0.391-0.665 0.758-1.039 1.101s-0.726 0.685-1.052 1.027c-0.318 0.334-0.583 0.685-0.795 1.052s-0.318 0.77-0.318 1.211c0 0.375 0.045 0.717 0.135 1.027 0.090 0.302 0.179 0.558 0.269 0.77h-1.969zM16.328 25.264c-0.359 0-0.677-0.13-0.954-0.391-0.269-0.261-0.403-0.579-0.403-0.954 0-0.383 0.134-0.701 0.403-0.954 0.269-0.269 0.587-0.404 0.954-0.404s0.685 0.135 0.954 0.404c0.269 0.253 0.403 0.571 0.403 0.954 0 0.375-0.134 0.693-0.403 0.954-0.277 0.261-0.595 0.391-0.954 0.391z"></path>
<path d="M16 30.609c-8.068 0-14.609-6.541-14.609-14.609s6.541-14.609 14.609-14.609c8.068 0 14.609 6.541 14.609 14.609s-6.541 14.609-14.609 14.609zM16 32c8.837 0 16-7.163 16-16s-7.163-16-16-16c-8.837 0-16 7.163-16 16s7.163 16 16 16z"></path>
</symbol>
<symbol id="icon-rating" viewBox="0 0 41 32">
<path d="M29.091 0h11.636v32h-11.636v-32z"></path>
<path d="M14.545 11.636h11.636v20.364h-11.636v-20.364z"></path>
<path d="M0 20.364h11.636v11.636h-11.636v-11.636z"></path>
</symbol>
<symbol id="icon-search" viewBox="0 0 33 32">
<path d="M32.57 29.919l-9.367-9.296c1.777-2.177 2.846-4.944 2.846-7.957 0-6.984-5.726-12.667-12.764-12.667s-12.763 5.682-12.763 12.667c0 6.984 5.726 12.667 12.763 12.667 3.036 0 5.824-1.061 8.018-2.824l9.367 9.296c0.262 0.26 0.688 0.26 0.95 0l0.95-0.943c0.262-0.26 0.262-0.682 0-0.943zM13.286 22.667c-5.556 0-10.076-4.486-10.076-10s4.52-10 10.076-10c5.556 0 10.076 4.486 10.076 10s-4.52 10-10.076 10z"></path>
</symbol>
<symbol id="icon-shield" viewBox="0 0 30 32">
<path d="M27.356 5c-5.119 0-9.041-1.56-12.357-5-3.316 3.44-7.237 5-12.356 5 0 8.958-1.738 21.789 12.356 27 14.095-5.211 12.357-18.043 12.357-27zM13.976 20.762l-4.117-4.392 1.843-1.966 2.273 2.426 4.321-4.609 1.843 1.966-6.164 6.575z"></path>
</symbol>
<symbol id="icon-sort-bottom" viewBox="0 0 16 32">
<path d="M7.293 30.707c0.391 0.39 1.024 0.39 1.414 0l6.364-6.364c0.391-0.391 0.391-1.024 0-1.414s-1.024-0.391-1.414 0l-5.657 5.657-5.657-5.657c-0.391-0.391-1.024-0.391-1.414 0s-0.391 1.024 0 1.414l6.364 6.364zM7 0v30h2v-30h-2z"></path>
</symbol>
<symbol id="icon-sort-top" viewBox="0 0 16 32">
<path d="M8.707 1.293c-0.391-0.391-1.024-0.391-1.414 0l-6.364 6.364c-0.391 0.391-0.391 1.024 0 1.414s1.024 0.391 1.414 0l5.657-5.657 5.657 5.657c0.391 0.391 1.024 0.391 1.414 0s0.391-1.024 0-1.414l-6.364-6.364zM9 32v-30h-2v30h2z"></path>
</symbol>
<symbol id="icon-stars" viewBox="0 0 45 32">
<path d="M42.020 0.48h-28.698c-1.138 0-1.14 1.759 0 1.759h28.698c0.489 0 0.886 0.394 0.886 0.879v20.78c0 0.485-0.398 0.879-0.886 0.879h-15.518c-0.271 0-0.528 0.123-0.696 0.334l-3.575 4.493-3.792-4.512c-0.168-0.2-0.418-0.316-0.681-0.316h-15.101c-0.489 0-0.886-0.395-0.886-0.879v-20.78c0-0.485 0.398-0.879 0.886-0.879h11.303c1.138 0 0.965-1.759-0.175-1.759h-11.129c-1.466 0-2.659 1.183-2.659 2.638v20.78c0 1.455 1.193 2.638 2.659 2.638h14.686l4.225 5.028c0.357 0.425 1.031 0.416 1.376-0.018l3.986-5.009h15.088c1.466 0 2.659-1.183 2.659-2.638v-20.78c0-1.455-1.193-2.638-2.659-2.638z"></path>
<path d="M4.908 11.793c-0.094 0.287-0.033 0.601 0.16 0.833l1.726 2.067-0.171 2.679c-0.135 2.098 3.041-0.13 3.726-0.117 0.691 0.014 3.859 2.191 3.726 0.117l-0.172-2.679 1.726-2.067c0.403-0.483 0.153-1.256-0.463-1.413l-2.621-0.666-1.448-2.267c-0.338-0.529-1.157-0.533-1.497 0l-1.448 2.267-2.621 0.666c-0.294 0.075-0.529 0.294-0.623 0.58zM8.932 12.164c0.655-0.166 1.086-1.254 1.416-1.771 0.325 0.508 0.767 1.606 1.416 1.771l1.606 0.408-1.058 1.267c-0.144 0.172-0.216 0.393-0.202 0.617l0.105 1.642-1.541-0.607c-0.21-0.083-0.444-0.083-0.654 0l-1.541 0.607 0.105-1.642c0.014-0.224-0.058-0.444-0.202-0.617l-1.058-1.267 1.607-0.408z"></path>
<path d="M27.691 11.793c-0.094-0.287-0.329-0.505-0.623-0.58l-2.621-0.666-1.448-2.267c-0.338-0.529-1.157-0.533-1.497 0l-1.448 2.267-2.621 0.666c-0.294 0.075-0.529 0.294-0.623 0.58s-0.033 0.601 0.16 0.833l1.726 2.067-0.172 2.679c-0.135 2.098 3.041-0.13 3.726-0.117 0.691 0.014 3.859 2.191 3.726 0.117l-0.172-2.679 1.726-2.067c0.194-0.232 0.254-0.546 0.16-0.833zM24.216 13.839c-0.144 0.172-0.216 0.393-0.202 0.617l0.105 1.642c-0.553-0.218-1.26-0.669-1.868-0.669-0.605 0-1.316 0.451-1.868 0.669l0.105-1.642c0.014-0.224-0.058-0.444-0.202-0.617l-1.058-1.267 1.606-0.408c0.655-0.166 1.087-1.254 1.416-1.771 0.325 0.508 0.767 1.606 1.416 1.771l1.606 0.408-1.058 1.267z"></path>
<path d="M39.594 11.793c-0.094-0.287-0.329-0.505-0.623-0.58l-2.621-0.666-1.448-2.267c-0.338-0.529-1.157-0.533-1.497 0l-1.448 2.267-2.621 0.666c-0.612 0.155-0.868 0.927-0.463 1.413l1.726 2.067-0.172 2.679c-0.135 2.098 3.039-0.13 3.726-0.116 0.69 0.014 3.859 2.192 3.726 0.116l-0.171-2.679 1.726-2.067c0.194-0.232 0.254-0.546 0.16-0.833zM36.119 13.839c-0.144 0.172-0.216 0.393-0.202 0.617l0.105 1.642-1.541-0.607c-0.218-0.083-0.436-0.083-0.654 0l-1.541 0.607 0.105-1.642c0.014-0.224-0.058-0.444-0.202-0.617l-1.058-1.267 1.606-0.408c0.655-0.166 1.087-1.254 1.416-1.771 0.325 0.508 0.768 1.606 1.416 1.771l1.606 0.408-1.058 1.267z"></path>
<path d="M9.204 2.090c0.667 0.454 1.558-0.206 1.345-0.965-0.101-0.362-0.432-0.625-0.81-0.644s-0.734 0.212-0.87 0.562c-0.146 0.377-0.008 0.824 0.335 1.047z"></path>
</symbol>
<symbol id="icon-time" viewBox="0 0 32 32">
<path d="M16 0c-8.836 0-16 7.164-16 16s7.163 16 16 16c8.836 0 16-7.164 16-16s-7.164-16-16-16zM22.917 19.043h-6.783c-0.023 0-0.044-0.006-0.067-0.006-0.023 0.001-0.044 0.006-0.067 0.006-0.611 0-1.107-0.495-1.107-1.107v-11.296c0-0.611 0.495-1.107 1.107-1.107s1.107 0.495 1.107 1.107v10.19h5.81c0.611 0 1.107 0.495 1.107 1.107s-0.495 1.107-1.106 1.107z"></path>
</symbol>
<symbol id="icon-toggle" viewBox="0 0 32 32">
<path d="M16.943 24.276l14.667-14.667c0.521-0.521 0.521-1.365 0-1.886s-1.365-0.521-1.885 0l-13.724 13.724-13.724-13.724c-0.521-0.521-1.365-0.521-1.886 0s-0.521 1.365 0 1.886l14.667 14.667c0.521 0.521 1.365 0.521 1.886-0z"></path>
</symbol>
<symbol id="icon-tool" viewBox="0 0 32 32">
<path d="M31.488 6.772l-5.27 5.27-4.61-1.647-1.647-4.61 5.27-5.27c-3.458-1.157-7.425-0.361-10.179 2.393-2.702 2.702-2.783 7.013-1.719 10.425-0.143 0.113-0.282 0.234-0.414 0.367l-10.823 10.823c-1.811 1.811-2.547 4.309-0.736 6.12s4.306 1.072 6.117-0.739l10.823-10.823c0.132-0.132 0.253-0.271 0.366-0.414 3.412 1.064 7.726 0.987 10.428-1.716 2.753-2.753 3.549-6.721 2.393-10.178z"></path>
</symbol>
<symbol id="icon-trophy" viewBox="0 0 34 32">
<path d="M27.623 1.979c0.022-1.207-0.018-1.97-0.018-1.97h-20.751c0 0-0.039 0.763-0.017 1.97h-6.838v1.288c0 0.294 0.043 7.232 3.791 11.032 1.563 1.585 3.513 2.382 5.812 2.383 0.348 0 0.705-0.027 1.067-0.062 1.306 2.044 2.815 3.475 4.512 4.188v5.66h-4.982v3.545h-1.646v1.987h17.353v-1.986h-1.647v-3.545h-4.982v-5.66c1.696-0.713 3.206-2.144 4.512-4.188 0.364 0.036 0.722 0.061 1.070 0.061 2.298-0.003 4.247-0.798 5.811-2.385 3.747-3.801 3.791-10.738 3.791-11.033v-1.287h-6.838zM5.295 12.378c-2.14-2.165-2.773-5.87-2.961-7.823h4.633c0.196 2.433 0.657 5.465 1.722 8.13 0.195 0.489 0.4 0.952 0.609 1.406-1.597-0.070-2.941-0.639-4.003-1.713zM29.167 12.378c-1.062 1.075-2.407 1.642-4.002 1.713 0.209-0.452 0.415-0.917 0.609-1.406 1.064-2.665 1.525-5.696 1.72-8.13h4.633c-0.187 1.952-0.819 5.657-2.961 7.823z"></path>
</symbol>
<symbol id="icon-twitter" viewBox="0 0 32 32">
<path d="M16 0c-8.853 0-16 7.147-16 16s7.147 16 16 16c8.853 0 16-7.147 16-16s-7.147-16-16-16zM24.32 11.2c-0.32 0.427-0.853 1.067-1.173 1.387l-0.32 0.213v0.747c0 0.427 0 0.96-0.107 1.173-0.533 3.627-2.453 6.613-5.333 8.107-1.067 0.533-1.813 0.853-3.093 0.96-0.427 0.107-1.92 0.107-2.347 0-1.28-0.107-2.453-0.533-3.52-1.067-0.427-0.107-0.96-0.427-0.96-0.533 0 0 0.107 0 0.107 0 0.213 0 1.28 0 1.6 0 1.173-0.213 2.24-0.64 3.093-1.28 0.213-0.213 0.213-0.213-0.107-0.213-0.96-0.107-2.027-0.853-2.56-1.813-0.107-0.32-0.213-0.747-0.213-0.747s0.107 0 0.32 0 0.533 0 0.96 0h0.213l-0.32-0.107c-1.28-0.533-2.24-1.707-2.347-3.307v-0.32h0.107c0 0 0.107 0.107 0.213 0.107 0.32 0.107 0.64 0.213 1.067 0.32h0.107l-0.107-0.107c0 0-0.213-0.213-0.32-0.32-0.96-0.96-1.387-2.56-0.853-3.947 0.107-0.32 0.213-0.64 0.32-0.64 0 0 0.107 0.107 0.213 0.32 1.493 1.813 3.413 2.987 5.653 3.413 0.32 0.107 0.96 0.107 1.173 0.107h0.107v-0.213c0-0.107 0-0.427 0-0.747 0-0.533 0.107-0.96 0.32-1.387 0.533-1.173 1.493-1.92 2.667-2.133 0 0 0.32 0 0.64 0 0.427 0 0.64 0 0.853 0.107 0.533 0.107 1.173 0.533 1.493 0.853l0.107 0.107 0.213-0.107c0.533-0.107 1.067-0.32 1.493-0.64 0.427-0.213 0.427-0.213 0.427-0.107s-0.32 0.64-0.427 0.853c-0.213 0.213-0.533 0.747-0.853 0.853-0.107 0.107-0.213 0.107-0.213 0.213 0 0 0.213 0 0.427-0.107 0.427-0.107 0.853-0.213 1.173-0.427 0.107-0.107 0.213-0.107 0.213-0.107 0.107 0.213 0 0.427-0.107 0.533z"></path>
</symbol>
<symbol id="icon-vk" viewBox="0 0 32 32">
<path d="M16 0c-8.853 0-16 7.147-16 16s7.147 16 16 16c8.853 0 16-7.147 16-16s-7.147-16-16-16zM24.427 18.987c1.707 1.28 2.24 1.92 2.24 2.347 0 0.213-0.107 0.32-0.32 0.427l-0.213 0.107h-1.067c-1.387 0-2.56 0-2.773 0s-0.64-0.107-0.853-0.32c-0.32-0.213-0.64-0.427-1.28-1.067-0.96-0.853-1.387-1.067-1.707-0.853-0.427 0.213-0.533 0.64-0.64 1.28 0 0.533-0.107 0.747-0.533 0.853-0.213 0.107-2.133 0.107-2.667 0-1.067-0.107-1.92-0.427-3.093-1.173-0.853-0.427-1.387-0.96-2.453-2.027-1.28-1.387-2.453-2.987-3.52-4.907-0.107-0.427-0.213-0.533-0.213-0.64s0-0.213 0.107-0.213c0.107 0 0.213-0.107 0.32-0.107s0.96 0 1.813 0h1.707l0.213 0.107c0.213 0.107 0.32 0.213 0.533 0.64 0.32 0.64 1.387 2.24 1.813 2.773s1.067 0.96 1.387 0.853c0.213 0 0.427-0.32 0.533-0.853 0.213-1.067 0.107-2.24-0.213-2.667-0.107-0.213-0.427-0.427-0.853-0.533-0.213 0-0.213-0.107-0.107-0.213 0.32-0.427 0.853-0.533 2.24-0.533 0.427 0 0.96 0 1.067 0s0.427 0 0.64 0 1.067 0.107 1.173 0.213c0.107 0 0.107 0.107 0.213 0.213 0.213 0.32 0.213 0.427 0.107 1.92 0 1.493 0 1.813 0.107 2.133 0.107 0.107 0.107 0.213 0.213 0.213 0.107 0.107 0.213 0.107 0.32 0 0.533-0.213 1.493-1.28 2.347-2.667 0.213-0.32 0.533-0.853 0.64-1.067 0.213-0.427 0.32-0.533 0.533-0.533 0.107 0 0.96 0 2.133 0 2.133 0 2.24 0 2.453 0.213 0.107 0.107 0.107 0.427 0 0.64-0.213 0.533-0.747 1.173-2.133 2.667-1.067 1.173-1.173 1.28-1.28 1.6-0.213 0.107-0.107 0.213 1.067 1.173z"></path>
</symbol>
<symbol id="icon-youtube" viewBox="0 0 32 32">
<path d="M15.040 13.76c-0.427-0.213-0.533-0.213-0.747-0.107-0.107 0-0.107 0.107-0.213 0.213v0 2.027c0 1.813 0 2.027 0.107 2.133 0.107 0.213 0.32 0.32 0.533 0.32s3.733-1.92 3.84-2.027c0.213-0.213 0.213-0.533 0-0.747-0.107-0.107-2.347-1.28-3.52-1.813z"></path>
<path d="M16 0c-8.853 0-16 7.147-16 16s7.147 16 16 16c8.853 0 16-7.147 16-16s-7.147-16-16-16zM24.32 19.627c-0.32 1.28-1.067 1.92-2.347 2.24-0.747 0.107-0.853 0.107-5.333 0.213-2.88 0-4.587 0-5.12 0-1.6-0.107-2.453-0.32-3.2-1.067-0.427-0.427-0.64-0.853-0.747-1.6s-0.107-1.067-0.107-3.947c0-2.987 0-2.987 0.213-3.627 0.213-0.747 0.747-1.28 1.6-1.6 0.533-0.213 1.067-0.213 1.92-0.32 0.853 0 8.64 0 9.493 0 0.96 0 1.493 0.107 2.027 0.32 1.067 0.32 1.6 0.96 1.707 2.347 0 0.213 0 0.96 0 3.093 0.107 3.2 0.107 3.2-0.107 3.947z"></path>
</symbol>
</defs>
</svg>
